<svg xmlns="http://www.w3.org/2000/svg" viewBox="0 0 585.61 547.1"><defs><style>.cls-1{fill:#fff;}</style></defs><title>brain</title><g id="Layer_2" data-name="Layer 2"><g id="Layer_1-2" data-name="Layer 1"><path class="cls-1" d="M346.09,187.82c1.11,3.62,2.23,8,3.81,12.19,1.67,4.44,5.29,6.11,9.09,4.67,3.56-1.36,4.91-5.22,3.13-9.65a42,42,0,0,1-1.39-27.45c1.38-5.08-.14-8.52-4.09-9.61-4.23-1.16-7.23,1-8.72,6.31-.15.55-.39,1.07-.53,1.62-1.89,7.85-1.9,7.72-9.91,8.35-10.53.83-21,.85-31.07-2.68-9.74-3.41-17.21-9.37-19.57-20-3.44-15.47,9.44-34.09,25.28-36.86,12.53-2.19,28.17,2.55,37,10.74-2.37,2.76-4.79,5.54-7.15,8.36-3,3.53-2.95,7.15,0,9.82s6.92,2.4,9.75-.93c8.9-10.48,21-11.79,33.92-5.65a49.93,49.93,0,0,1,21.2,19.08c3.77,6,5.81,11.8,2.91,19.41-4,10.43-3.85,21.62-2.06,32.71a5,5,0,0,1-1.16,3.92c-14.51,12.86-18.08,28.75-13.4,47,.1.39,0,.83,0,.66-6.91,3-13.7,5.67-20.24,8.85a6.4,6.4,0,0,0-3.19,8.64c1.54,3.57,5.71,4.59,9.72,2.85,5-2.17,10.08-4.45,15.34-5.79,7.09-1.79,13.73.21,19.66,4.42,4.59,3.26,8.22,3.15,10.71-.38,2.37-3.36,1.58-7.24-2.73-10.14a50.66,50.66,0,0,0-10.86-5.57,7.4,7.4,0,0,1-5-5.07c-4.5-12.83-2.32-24.53,6.6-33.21.45.69.85,1.34,1.3,2,2.47,3.39,6.08,4.39,9.2,2.56s4-5.45,2.18-9.27c-10.16-21.1-6.55-41,5.52-60,6.24-9.81,14.64-17.33,26.21-20.37,18.87-5,38.86,5.23,47.16,23.69,3.9,8.69,5.1,18,5.65,27.27a187.9,187.9,0,0,1-6.17,61c-.29,1.09-.63,2.17-.9,3.27-.94,3.92.82,7.19,4.48,8.38a6.08,6.08,0,0,0,8-4.36c1.93-6.64,3.35-13.42,5-20.15.23-.93.42-1.86.73-3.26,1.17.93,2,1.56,2.81,2.26a50,50,0,0,0,23.11,11.94c4.53,1,8.12-.88,9-4.71s-1.57-6.84-6-8.33c-4.25-1.43-8.62-2.9-12.41-5.21-9.17-5.56-13.32-14.06-13.95-24.76-.71-12.27-.91-24.75-3.46-36.68-5-23.33-19.29-38.52-43.26-43.56l-1.66-.35-2-.43c.85-1.42,1.52-2.61,2.27-3.76A80,80,0,0,0,488.48,89c.16-1.11,1.63-2.83,2.59-2.9,23.83-1.77,51,10,58.06,36.88a44.2,44.2,0,0,1-1,25.11,28.68,28.68,0,0,0-1,3.22c-.78,3.78,1,7.1,4.48,8.06,3.72,1,6.45-.59,8-3.91,1.21-2.67,1.93-5.56,3-8.64a33.78,33.78,0,0,1,13.33,13.55c9.71,17.3,12.07,35.8,7.47,55-1.92,8-6.32,14.77-14.15,18.71-3.42,1.72-4.38,4.91-3.07,8.32s4.32,4.68,8,3.88c.8-.18,1.59-.46,2.41-.7,2.34,18.81-5.41,41.87-29.44,46.48,0-2.43.14-4.83,0-7.21a6.55,6.55,0,0,0-13-.44c-3,19.44-10.7,26.23-30.91,27.42-23.3,1.38-38.24-11.2-41.06-34.61-.3-2.51-.52-5-.86-8.29,1.58.85,2.58,1.47,3.64,1.95,4.62,2.1,9.15,4.47,13.93,6.14a6.44,6.44,0,0,0,8.53-4.18c1.1-3.42-.78-6.86-4.62-8.37-1.32-.52-2.68-.91-4-1.46-13.23-5.6-21.83-14.5-22.94-29.75-.75-10.33-.47-20.36,3.4-30.05,3.54-8.85,9.32-15.76,18-20.08,4.1-2,5.5-5.53,3.85-9-1.74-3.66-5.62-4.93-9.7-2.79-15.68,8.19-24.36,21.57-27.84,38.53-2.16,10.52-1.68,21.16.1,31.7,1.35,8,5.07,14.92,11.08,21.28-6,1.16-6.65,5.17-6.35,9.95,1.1,17.76,7.26,33,21.58,44.32-8.9,6.54-22.67,6.15-32.54-.87-1.16-.82-2.22-1.76-3.34-2.63-3-2.28-6.08-2.45-8.87.12-2.61,2.41-2.91,5.37-1,8.46.28.46.54.92,1,1.64-7.18,4.24-15,5.16-22.87,5.78-38.06,3-56.54-24.24-60.58-47.8-2.91-17,6.73-38.53,21.64-47.18,3.47-2,7.53-3.11,11.43-4.21,3.7-1,6.08-3.68,5.71-7.23a6.17,6.17,0,0,0-6.68-5.73,38.28,38.28,0,0,0-10.28,2.21,44.74,44.74,0,0,0-19.15,13.68c-2.47,3-5.08,3.84-8.72,3.84a89.5,89.5,0,0,1-31.24-5.1c-12.54-4.6-22.46-12.38-29.26-24-2.61-4.45-6.22-5.73-9.79-3.68s-4.38,6.09-1.56,10.36c3.57,5.38,7.59,10.47,11.16,15.33-5.56,4.14-11.6,8.26-17.2,12.93-4.67,3.88-5.07,7.64-2.07,10.91s6.84,2.62,11.07-1.29c5.56-5.15,11.63-9.55,19.06-11.53a8.89,8.89,0,0,1,5.64.13c12.33,6,25.41,8.54,38.95,9.28.7,0,1.39.11,2.76.23-10.07,24.91-4.7,47.22,11.07,68-5.24,4.81-11.45,7.36-18.1,8.74-22.73,4.71-44.51,2.32-64.7-9.66a51.89,51.89,0,0,1-10.63-9c-4-4.27-6.6-5.43-10.07-3.33s-3.89,5.18-1.8,10.43c-15.32,10.5-37.14,7.14-49.1-7.75.47-.85,1-1.79,1.52-2.75,1.84-3.53,1.16-7-1.93-9s-6.5-1.69-8.7,1.33c-6.82,9.35-16.5,13.58-27.38,15.35-18,2.91-34.8.54-48.84-12.2-3-2.72-5.39-6.16-7.79-9.47-2.75-3.79-6-5.05-9.34-3.16S83,294.19,85.2,298.3c.52,1,1.08,1.94,1.65,3-33.64,4.47-67.34-10.55-75.3-51,2.35-.69,5-.88,6.85-2.15,3.5-2.38,3.15-7.18-.52-10.59C-10.5,211.18-.88,169,17.63,150.18c10.77-10.93,24.21-14,39.05-12.15,1.26.16,2.51.48,3.77.61,4.29.46,7.31-1.56,7.85-5.22.57-3.83-1.47-7.28-5.6-7.56-8.14-.54-16.32-.41-24.48-.46a35.15,35.15,0,0,0-5.17.85c-2.79-19.52,4-35.57,16.88-49.19C63.3,63,79.58,57.43,99.12,62.62c-.45,4.12-1.06,8-1.25,11.9-.24,4.94-.35,9.9-.14,14.84.25,5.56,3,8.51,7,8.18s5.9-3.43,6.12-9.08c.3-7.75.16-15.68,1.77-23.2,5.93-27.72,34.11-45.75,61.34-39.83a18.15,18.15,0,0,1,2.15.79C175,28,173.92,29.43,173,31c-2.27,3.76-1.61,7.68,1.56,9.72s7,1.18,9.5-2.5c5.85-8.79,13.36-15.29,23.69-18.23,9.5-2.7,23.67-1.8,33.4,2.43a92.07,92.07,0,0,0-17.51,38.51c-19.88-5.95-38-2.83-54.58,9.11-9.74,7-16,16.67-19.76,28-.75,2.29-1.67,3-4.08,3.12-22.8.79-40.57,10.07-51.48,30.83a7.08,7.08,0,0,1-3,2.7c-31.71,16.41-39.9,53.46-18,81.76L75,219.53c-5.39,1.09-10.65,1.82-15.7,3.26-7.42,2.11-13.68,6.11-17.71,13-2.42,4.11-1.75,7.87,1.74,10,3.2,2,7,.94,9.39-2.87,4.21-6.57,10.89-8.29,17.87-9.08,10.12-1.16,10-.93,14.11,8.37,10.1,23.19,28.4,35.16,53,38.32a101.78,101.78,0,0,0,11.43.81c4.76.08,7.64-2.55,7.67-6.61s-2.71-6.2-7.55-6.88c-8.35-1.18-17.07-1.64-24.87-4.49-19.44-7.1-29.25-22.13-31.69-42.4a9.44,9.44,0,0,0-3-5.53c-15.35-13.19-20.43-35.8-11.19-51.9,6.5-11.31,16.06-18.56,29.36-19.9,3.94-.39,7.53-1.07,8.6-5.39s-1.69-6.83-5.72-8.52c9.26-10.75,20.94-15,34.11-15.22,1.13,9.47,1.81,18.63,3.41,27.62A86.37,86.37,0,0,0,160,173.31c11.95,19,30.38,26.66,52.62,22,1.32-.28,2.66-.51,5.07-1-3,12.41-6.22,23.91-8.48,35.59-6.47,33.43,16.49,61.75,50.41,62.55,5.77.13,11.54,0,17.3,0,4.13,6,8.73,12.69,13.41,19.35a14.37,14.37,0,0,0,2.67,2.73c2.94,2.44,6,2.38,8.83-.1a6.35,6.35,0,0,0,.67-8.82c-1-1.36-2.27-2.53-3.36-3.84-5.62-6.73-10.17-13.94-10.83-23-.25-3.46-2.1-5.95-5.61-6.57-3.32-.58-5.54,1.07-7.24,4a6.22,6.22,0,0,1-3.89,2.54,50.52,50.52,0,0,1-24.73-1.88c-20.53-6.59-26.69-25-24.94-40.56.82-7.19,3.81-14.11,5.44-21.24.93-4.08,1-8.35,1.63-12.5a40.16,40.16,0,0,1,48.31-33.26,14.74,14.74,0,0,1,6.71,3.79c10.33,10.09,23.14,13.9,37,14.68C329.15,188.2,337.37,187.82,346.09,187.82ZM165.24,208c-2.27-2.94-4.39-5.95-6.79-8.72C143.06,181.49,123,171,101.36,163.17c-4.7-1.69-8.4-.21-9.76,3.7-1.28,3.65.74,7,5.22,8.78,5.11,2,10.31,3.91,15.28,6.24,15.83,7.4,30.08,16.88,40.49,31.35,1.67,2.32,1.78,3.9-.15,6.22a32.6,32.6,0,0,0-7.54,23.25,6.42,6.42,0,0,0,6.5,6.47c3.66.07,6.28-2.31,6.8-6.2a9.52,9.52,0,0,0,0-1.69c-.25-8.45,3.72-14.74,10.46-19.22,3.48-2.32,7.52-3.82,11.36-5.55,3.55-1.6,5.43-4.83,4.5-8.12a6.55,6.55,0,0,0-8.36-4.47C172.57,205,169.08,206.54,165.24,208Z"/><path class="cls-1" d="M293.51,108.25c-8.6-21.43-6.59-41.13,6.35-59.62A99.78,99.78,0,0,1,307,40.22c2.83-3.23,2.91-7.26.12-9.84s-6.54-2.4-9.48.58C275,53.91,267.58,87.55,283.46,117.62c-9.6,15.73-10.93,20.74-9.88,36.92-5.18.48-10.41.58-15.5,1.5-10.76,2-20.27,6.91-27.31,15.21-6.32,7.47-14.61,10-23.41,11.36-17.4,2.62-29.56-3.25-37.54-18.93-9.81-19.29-14.45-39.8-8-61.16C168.91,78.84,194.4,65.94,218,73.2c1.31.4,2.64.73,3.37.93,1.37,10.11,2.69,19.88,4,29.84-3.75.4-7.93.66-12,1.31a48.91,48.91,0,0,0-22.52,10.29c-3.8,3-4.63,6.73-2.3,9.92s6.19,3.66,10.09.73c14.59-11,29.85-11.49,45.79-3.25,4,2.06,7.67,1.11,9.56-2.31,1.79-3.24.46-7.1-3.23-9.34a10.15,10.15,0,0,0-3-1.58c-6.33-1.22-8-6-9.5-11.38-13.68-49.1,20.77-89,61.24-96.83C312.33-1,324.89-.62,337.12,4.14c8,3.1,14.62,7.93,19.14,15.72-16.76,13.4-25.39,31.19-28.36,52-3.77.34-7.31.42-10.75,1-3.92.69-6,3.69-5.63,7.22a6.31,6.31,0,0,0,7.18,5.67,45.74,45.74,0,0,1,29.59,6.9,6.38,6.38,0,0,0,8.89-2.22,6.23,6.23,0,0,0-2.09-8.92c-3.58-2.23-7.57-3.79-11.25-5.89-1.08-.62-2.55-2.14-2.44-3.08,2.87-23.79,18.73-45.87,41-50.39,12.75-2.59,25.4-.95,37.79,2.55,13.47,3.82,25.93,9.72,36.78,18.75,18,15,23.36,34.89,14.86,56.81A98.68,98.68,0,0,1,463.51,116c-3.66,5.94-8.21,10.46-15.48,12.83-10.6,3.46-18.57,11.15-25.29,20-.76,1-1.54,2-2.52,3.28a100.74,100.74,0,0,0-6.11-8.56c-3.16-3.61-6.16-7.8-10.16-10.14-6-3.53-6.22-8.28-5.47-14,2.21-16.93,10-30.41,24.21-40.13,3.75-2.58,4.69-6.26,2.6-9.45-2.19-3.35-6.19-4.08-10.08-1.41-17,11.68-27,27.77-29.73,48.33-.23,1.78-.41,3.57-.54,4.67-6.57-.28-12.72-.41-18.84-.91a8.69,8.69,0,0,1-4.29-2.25c-7.47-6.22-15.63-11.29-24.87-14.31C322.12,99.07,307.68,99.56,293.51,108.25Z"/><path class="cls-1" d="M77.93,253.49c2.47,1.87-12.23,13.88-11,32.26.93,14,10,15.83,12.72,31.46,3,17.52-4.6,37.42-13.56,38.71-4.1.59-8.84-2.65-11-6.45-5.68-9.89,8.62-18.81,8.47-36.3-.13-16.33-12.7-19.27-11-33.07C54.56,263.28,75.24,251.45,77.93,253.49Z"/><path class="cls-1" d="M524.81,307.32c-10.9,40.11-8.55,62.81-4.06,76.28,1.65,4.95,5.14,13.29,4.88,25.1C525.29,424,519,428,519.12,440.56c.12,17.63,12.64,34.61,17.88,32.82s4.45-24,4.07-32.82c-1.14-26.54-7.39-31.58-9.75-54.07-.73-6.9-3.56-33.83,6.5-60.82,8.87-23.83,20.79-28.9,19.5-42.48C556,269,541.57,259.26,529.69,253.26"/><path class="cls-1" d="M411.65,351c-10.91,47.32-8.55,74.11-4.06,90,1.65,5.85,5.14,15.69,4.87,29.62-.34,18-6.58,22.8-6.5,37.59.12,20.81,12.64,40.84,17.88,38.73,5.39-2.16,4.44-28.3,4.06-38.73-1.13-31.31-7.39-37.26-9.75-63.79-.72-8.14-3.55-39.92,6.5-71.76,8.88-28.12,20.79-34.11,19.51-50.13-1.34-16.71-15.76-28.23-27.63-35.31"/><path class="cls-1" d="M146.6,293.51c-2.47,2.29,12.23,17,11,39.42-.92,17.09-10,19.34-12.71,38.43-3,21.42,4.59,45.73,13.56,47.31,4.1.72,8.83-3.24,11-7.89,5.68-12.08-8.62-23-8.48-44.34.14-20,12.71-23.55,11-40.41C170,305.48,149.29,291,146.6,293.51Z"/><path class="cls-1" d="M209.38,293.63c-3.7,3.29,18.33,24.37,16.51,56.62-1.38,24.55-15,27.78-19,55.2-4.52,30.75,6.88,65.67,20.32,67.94,6.14,1,13.23-4.65,16.51-11.32,8.51-17.35-12.92-33-12.7-63.7.2-28.66,19-33.82,16.51-58C244.39,310.82,213.42,290.05,209.38,293.63Z"/><path d="M202.87,172.81c-4.32.19-8.54,0-11.55-3.63s-3.66-7.54-1.69-11.75c1.89-4,5.32-6.53,9.69-6.23,10.72.72,17.63-4.5,22.83-13.17,3.44-5.74,9.89-7.37,15.16-4.14s6.77,9.51,3.48,15.1C232.28,163.47,220.2,172.37,202.87,172.81Zm21.48-16.58c5.2-.47,8.6-1.94,10.69-5.57,1.92-3.36.72-6.39-2.92-7.7s-8.88.26-11.05,3.82c-1,1.71-1.72,4.5-1,6.17S223.31,155.51,224.35,156.23Zm-8.6,1.86c-5.23.23-8.75,1.91-11.4,5-.82,1-1.56,3-1.1,3.78a5.1,5.1,0,0,0,3.75,2,12.82,12.82,0,0,0,10.43-4.68c.89-1,1.71-3,1.29-4C218.23,159.06,216.33,158.47,215.75,158.09Z"/><path d="M224.91,154c-.54-.7-2.26-2-2.52-3.46-.44-2.55,3.05-5.21,6.2-5.2,2.25,0,4.09.87,4.29,3.36C233.09,151.37,229.59,154.06,224.91,154Z"/><path d="M207.86,167.55c-.39-.4-1.8-1.17-2-2.19-.4-2,3.91-5,7-4.84,1.06.06,2.75,1.14,2.93,2C216.21,164.58,212,167.41,207.86,167.55Z"/><path d="M196.42,246.72c3.72-1.47,7.47-2.58,11.2-.3s5.47,5.5,5,9.77c-.44,4.11-2.7,7.32-6.61,8.38-9.6,2.59-14.08,9.24-16,18.39-1.29,6.06-6.43,9.43-12,8.18s-8.79-6.28-7.59-12.16C173.49,263.74,181.39,252.32,196.42,246.72Zm-13.81,21c-4.41,2-6.94,4.29-7.68,8.09-.67,3.52,1.29,5.81,4.87,5.87s7.69-2.91,8.53-6.68c.4-1.81.15-4.45-1-5.71S183.74,268,182.61,267.69Zm7-4.21c4.51-1.78,7.08-4.3,8.46-7.85.42-1.09.47-3.06-.18-3.64a4.69,4.69,0,0,0-3.89-.65,11.87,11.87,0,0,0-7.73,7.23c-.46,1.17-.59,3.15.09,3.92S189,263.32,189.58,263.48Z"/><path d="M182.79,269.8c.68.45,2.57,1,3.25,2.28,1.14,2.09-1.1,5.47-3.87,6.41-2,.66-3.84.47-4.76-1.66S178.68,271.16,182.79,269.8Z"/><path d="M193.63,252.83c.46.23,1.93.48,2.41,1.31,1,1.63-1.91,5.58-4.67,6.34-.94.26-2.74-.17-3.16-.88C187.22,257.94,190.05,254.19,193.63,252.83Z"/><path d="M98.65,108.77c2.26,2.43,4.25,5,3.62,8.56a8,8,0,0,1-6,6.84c-3.3.91-6.47.14-8.47-2.56-4.91-6.62-11.41-8.06-19.07-6.78-5.06.84-9.23-2.11-10-6.8a8.25,8.25,0,0,1,7.08-9.56C78.53,96.23,89.75,98.86,98.65,108.77Zm-20.4-4.3c-2.86-2.8-5.41-4-8.57-3.46-2.92.54-4.1,2.76-3.05,5.53a7.7,7.7,0,0,0,7.74,4.56c1.52-.24,3.48-1.24,4.12-2.47S78.35,105.44,78.25,104.47Zm5.38,4.11c2.74,2.94,5.47,4.16,8.62,4.14,1,0,2.51-.56,2.76-1.24a3.91,3.91,0,0,0-.68-3.2,9.86,9.86,0,0,0-7.93-3.77c-1,0-2.61.5-3,1.26S83.56,108,83.63,108.58Z"/><path d="M76.68,105.26c-.14.66,0,2.29-.77,3.19-1.27,1.52-4.56.82-6.12-1-1.12-1.32-1.54-2.83-.17-4.18S74.38,102.49,76.68,105.26Z"/><path d="M93.08,108.47c0,.43.21,1.64-.28,2.26-1,1.23-4.89.22-6.32-1.68a2.93,2.93,0,0,1-.28-2.71C87.18,105.07,90.94,106.12,93.08,108.47Z"/><path d="M320.13,164.53c-1.79.08-3.54,0-4.79-1.51a4.34,4.34,0,0,1-.71-4.88,4.09,4.09,0,0,1,4-2.6c4.46.31,7.33-1.86,9.49-5.47a4.5,4.5,0,1,1,7.75,4.56C332.36,160.65,327.34,164.35,320.13,164.53Zm8.94-6.89c2.16-.2,3.57-.81,4.44-2.32a2,2,0,0,0-1.21-3.2,4.17,4.17,0,0,0-4.6,1.59,3.37,3.37,0,0,0-.43,2.57C327.55,157,328.63,157.34,329.07,157.64Zm-3.58.77a6.07,6.07,0,0,0-4.74,2.1c-.34.4-.65,1.23-.46,1.57a2.11,2.11,0,0,0,1.56.84,5.35,5.35,0,0,0,4.34-1.94,2.05,2.05,0,0,0,.53-1.67C326.52,158.82,325.73,158.57,325.49,158.41Z"/><path d="M500.1,248.4c-1.44,4.24-3.21,8.25-7.87,9.78-4.49,1.48-8.65.7-12-2.79s-4.3-7.6-2.36-11.71c4.73-10.08,2.3-18.73-4.12-27-4.24-5.49-3.39-12.33,1.72-16.2s11.73-3,15.89,2.32C502.16,216.47,506.2,231.5,500.1,248.4Zm-7.92-27c1.51-5.2,1.37-9-1.36-12.42-2.51-3.12-5.89-3.11-8.53-.09s-3.09,8.68-.47,12.12c1.25,1.66,3.69,3.36,5.57,3.33S491.09,222.13,492.18,221.4Zm-1.45,9c-1.75,5.14-1.45,9.17.58,12.91.63,1.15,2.27,2.62,3.24,2.49a5.26,5.26,0,0,0,3.37-2.86,13.31,13.31,0,0,0-.58-11.84c-.66-1.24-2.27-2.78-3.41-2.76C492.61,228.38,491.32,230,490.73,230.41Z"/><path d="M490.24,220c-.87.26-2.74,1.44-4.29,1.12-2.62-.54-3.88-4.9-2.68-7.94.86-2.17,2.38-3.63,4.87-2.88S492.06,215.53,490.24,220Z"/><path d="M496.9,241.59c-.54.23-1.82,1.3-2.87,1.11-2.08-.37-3.39-5.68-2-8.59.46-1,2.14-2.22,3-2.06C497.17,232.41,498.33,237.54,496.9,241.59Z"/><path d="M367.29,71.66c-1.79.08-3.54,0-4.79-1.51a4.34,4.34,0,0,1-.71-4.88,4.07,4.07,0,0,1,4-2.59c4.46.3,7.33-1.87,9.49-5.48a4.5,4.5,0,1,1,7.75,4.56C379.52,67.78,374.5,71.48,367.29,71.66Zm8.94-6.89c2.16-.19,3.57-.81,4.44-2.32a2,2,0,0,0-1.21-3.2,4.17,4.17,0,0,0-4.6,1.59,3.37,3.37,0,0,0-.43,2.57C374.71,64.1,375.79,64.47,376.23,64.77Zm-3.58.77a6.1,6.1,0,0,0-4.74,2.1c-.34.4-.65,1.23-.46,1.57a2.12,2.12,0,0,0,1.56.85,5.33,5.33,0,0,0,4.34-2,2,2,0,0,0,.53-1.67C373.68,66,372.89,65.7,372.65,65.54Z"/><path d="M366.92,176.47c.17-7.82,9-17.63,19.5-12.89a72.31,72.31,0,0,1,7.42,3.71c5.31,3.17,7.61,7.83,6.53,14.06-1.17,6.74-3.56,12.91-8.42,17.85-4.48,4.56-9.69,4.24-13.68-.77a40.44,40.44,0,0,1-3.26-5.16c-2.05-3.62-4.13-7.22-6-10.93A48.68,48.68,0,0,1,366.92,176.47Zm18.81,8.45a4.87,4.87,0,0,0-5.07,4.82,5,5,0,1,0,9.9.23A4.88,4.88,0,0,0,385.73,184.92Zm-1.15-10.71a3.35,3.35,0,1,0-3.35,3.29A3.56,3.56,0,0,0,384.58,174.21Zm-6.21,10.64c-.95-.74-1.56-1.57-2.09-1.53s-1.11.9-1.66,1.41c.56.57,1,1.42,1.69,1.61C376.73,186.45,377.43,185.57,378.37,184.85Zm16.19-9.25c-1.12-.61-1.85-1.33-2.48-1.26s-.95,1-1.42,1.63c.62.49,1.21,1.3,1.88,1.38C393,177.4,393.6,176.48,394.56,175.6Z"/><path d="M507.74,130.85c.12-5.51,6.31-12.41,13.73-9.07a49.9,49.9,0,0,1,5.23,2.6c3.74,2.24,5.36,5.52,4.6,9.91-.83,4.75-2.51,9.09-5.93,12.57-3.16,3.21-6.83,3-9.64-.54a26.23,26.23,0,0,1-2.29-3.64c-1.45-2.54-2.91-5.08-4.23-7.69A34.44,34.44,0,0,1,507.74,130.85Zm13.24,6a3.45,3.45,0,0,0-3.57,3.4,3.49,3.49,0,0,0,7,.16A3.45,3.45,0,0,0,521,136.8Zm-.8-7.54a2.37,2.37,0,1,0-2.37,2.32A2.52,2.52,0,0,0,520.18,129.26Zm-4.38,7.5c-.67-.52-1.09-1.11-1.47-1.08s-.78.63-1.17,1c.39.4.73,1,1.19,1.13C514.65,137.89,515.14,137.26,515.8,136.76Zm11.41-6.52c-.8-.43-1.31-.94-1.75-.89s-.67.74-1,1.15c.44.35.85.92,1.32,1S526.53,130.86,527.21,130.24Z"/><path d="M138.15,208.56c2.07,4.08,4.33,8.09,6.14,12.29,1.31,3.05.55,6.09-1.38,8.84-3.57,5.1-7.55,9.61-13.76,11.64-4.92,1.61-9,.37-12.16-3.43a32,32,0,0,1-7.78-19.73c-.19-4.39,1.28-8,5.15-10.45a58.51,58.51,0,0,1,6.38-3.75C127,201.11,131.92,202.62,138.15,208.56Zm-3,14a6.52,6.52,0,0,0-9.22-.7,6.61,6.61,0,0,0,8.73,9.94A6.61,6.61,0,0,0,135.16,222.52Zm-22-6.89a4.49,4.49,0,0,0-.65,6.07,4.4,4.4,0,0,0,6.31.53,4.35,4.35,0,0,0-5.66-6.6Zm14.51-4.92c.14,1.54-.11,2.83.41,3.38s1.81.31,2.76.41c.09-1,.56-2.27.14-3C130.71,210.93,129.24,211,127.71,210.71Z"/><path d="M406,56.72c1,1.94,2.06,3.84,2.92,5.84a4.17,4.17,0,0,1-.66,4.19c-1.69,2.42-3.58,4.56-6.53,5.53A5,5,0,0,1,396,70.65a15.15,15.15,0,0,1-3.7-9.36,5.16,5.16,0,0,1,2.45-5,26.39,26.39,0,0,1,3-1.78C400.75,53.19,403.09,53.91,406,56.72Zm-1.42,6.63a3.09,3.09,0,0,0-4.37-.33,3.14,3.14,0,0,0,4.14,4.72A3.13,3.13,0,0,0,404.62,63.35ZM394.2,60.08a2.13,2.13,0,0,0-.31,2.88,2.09,2.09,0,0,0,3,.25,2.06,2.06,0,0,0-2.69-3.13Zm6.89-2.33c.06.73,0,1.34.19,1.6s.86.14,1.31.2c0-.49.27-1.09.07-1.44S401.81,57.89,401.09,57.75Z"/><path d="M319.37,265.49c1.66,3.28,3.49,6.5,4.94,9.88,1.05,2.46.44,4.9-1.11,7.12-2.87,4.1-6.07,7.73-11.07,9.36a8.41,8.41,0,0,1-9.79-2.76,25.73,25.73,0,0,1-6.26-15.87c-.14-3.53,1-6.47,4.15-8.41a47.21,47.21,0,0,1,5.13-3C310.4,259.49,314.36,260.71,319.37,265.49ZM317,276.72a5.26,5.26,0,0,0-7.43-.56,5.32,5.32,0,0,0,7,8A5.32,5.32,0,0,0,317,276.72Zm-17.67-5.55a3.62,3.62,0,0,0-.53,4.89,3.55,3.55,0,0,0,5.08.43,3.63,3.63,0,0,0,.34-4.91A3.59,3.59,0,0,0,299.3,271.17ZM311,267.22c.11,1.24-.09,2.27.33,2.71s1.46.25,2.22.34c.07-.83.45-1.83.11-2.43C313.38,267.39,312.2,267.47,311,267.22Z"/><path d="M150.26,67.14c1.6,3.15,3.35,6.24,4.74,9.48,1,2.35.42,4.69-1.07,6.82-2.75,3.92-5.81,7.4-10.6,9A8.06,8.06,0,0,1,134,89.76a24.66,24.66,0,0,1-6-15.21c-.14-3.38,1-6.2,4-8a45.29,45.29,0,0,1,4.92-2.9C141.67,61.4,145.46,62.57,150.26,67.14ZM148,77.9a5,5,0,0,0-7.11-.53A5.1,5.1,0,0,0,147.58,85,5.09,5.09,0,0,0,148,77.9ZM131,72.59a3.46,3.46,0,0,0-.5,4.68,3.38,3.38,0,0,0,4.86.41A3.35,3.35,0,0,0,131,72.59Zm11.18-3.79c.11,1.19-.08,2.18.33,2.6s1.39.24,2.12.33c.07-.8.43-1.76.11-2.34C144.53,69,143.4,69,142.21,68.8Z"/><path d="M550.66,261.78c2.07,4.09,4.34,8.09,6.15,12.29,1.31,3.05.55,6.09-1.38,8.85-3.57,5.09-7.55,9.6-13.76,11.64-4.92,1.61-8.95.36-12.16-3.44a32,32,0,0,1-7.79-19.72c-.18-4.4,1.29-8,5.16-10.46a58.37,58.37,0,0,1,6.37-3.75C539.52,254.33,544.44,255.85,550.66,261.78Zm-3,14a6.53,6.53,0,0,0-9.22-.7,6.61,6.61,0,0,0,8.73,9.94A6.61,6.61,0,0,0,547.68,275.74Zm-22-6.89a4.49,4.49,0,0,0-.65,6.08,4.41,4.41,0,0,0,6.31.52,4.35,4.35,0,0,0-5.66-6.6Zm14.5-4.91c.15,1.54-.1,2.82.42,3.37s1.81.31,2.76.42c.09-1,.56-2.28.14-3C543.23,264.15,541.76,264.25,540.22,263.94Z"/><path d="M146.39,153.17c-2,1.47-3.07,2.34-4.21,3-5.09,3.08-10.17,6.17-15.31,9.15-4,2.34-8,1.53-9.91-1.86s-1-7,2.85-9.35c5.49-3.44,11.07-6.75,16.69-10,3.16-1.82,6.47-1.11,8.3,1.69C146.13,147.87,146,150.89,146.39,153.17Zm-21.95,3.63.57.93c4.48-.9,11.73-5.68,12.54-8.88Z"/><path d="M278.12,79.44c-2,1.47-3.08,2.33-4.22,3-5.08,3.09-10.17,6.17-15.31,9.15-4,2.34-8,1.54-9.91-1.85s-1-7,2.85-9.36c5.49-3.44,11.07-6.74,16.69-10,3.17-1.83,6.48-1.12,8.3,1.68C277.85,74.13,277.68,77.15,278.12,79.44Zm-22,3.62.57.93c4.48-.9,11.74-5.68,12.55-8.87Z"/><path d="M464.15,98.07c-3.26,2.36-4.92,3.74-6.75,4.85-8.14,4.94-16.28,9.88-24.52,14.65-6.46,3.75-12.75,2.46-15.86-3s-1.57-11.15,4.55-15c8.8-5.51,17.74-10.8,26.73-16,5.08-2.92,10.38-1.79,13.31,2.69C463.74,89.58,463.45,94.41,464.15,98.07ZM429,103.88c.3.5.61,1,.91,1.48,7.17-1.43,18.79-9.08,20.09-14.21Z"/><path d="M459.84,166.83c-1.34,1-2,1.54-2.77,2-3.35,2-6.7,4.06-10.09,6-2.66,1.54-5.25,1-6.53-1.23s-.65-4.59,1.87-6.16c3.62-2.27,7.3-4.45,11-6.58A3.88,3.88,0,0,1,458.8,162C459.67,163.34,459.56,165.33,459.84,166.83Zm-14.46,2.39.37.61c2.95-.59,7.74-3.74,8.27-5.85Z"/><path d="M324.66,218.61c-.17,6.5-5.84,10.08-9.9,6.87-5.72-4.52-11.13-9.54-16.47-14.62-2.64-2.51-2.62-6.66-.52-9.58s5.79-3.73,8.56-1.42c5.51,4.59,10.88,9.41,16.11,14.4C323.71,215.47,324.21,217.69,324.66,218.61Zm-20.52-11.49L303,208.78,314.46,219l1.18-1.66Z"/><path d="M47.41,199.12c-.78.83-2,3.22-3.91,4-5.64,2.3-11.51,4.07-17.35,5.84a6,6,0,0,1-7.49-3.63,5.89,5.89,0,0,1,3.71-7.74c5.87-2.07,11.8-4,17.78-5.72C43.91,190.79,47.32,193.68,47.41,199.12Zm-20.77,1.49.41,1.6,12.79-4.05-.57-1.76Z"/><path d="M562.66,212.3c-1.38-.09-4.61.58-6.81-.62-6.53-3.57-12.74-7.77-18.92-11.94a7.32,7.32,0,0,1-2.34-9.91,7.22,7.22,0,0,1,10.21-2.46c6.49,4,12.91,8.1,19.15,12.46C567.86,202.56,567.76,208,562.66,212.3Zm-17.43-18.54-1.2,1.62,13.71,9,1.22-1.9Z"/><path d="M183.09,64c-.44.47-1.14,1.83-2.22,2.28-3.21,1.31-6.56,2.32-9.88,3.32a3.41,3.41,0,0,1-4.27-2.07,3.37,3.37,0,0,1,2.11-4.41c3.35-1.17,6.72-2.28,10.13-3.25C181.1,59.27,183,60.92,183.09,64Zm-11.82.84.23.91,7.29-2.3-.33-1Z"/></g></g></svg>