<svg xmlns="http://www.w3.org/2000/svg" viewBox="0 0 782.57 96.48"><defs><style>.cls-1{fill:#fff;}</style></defs><title>deprivation</title><g id="Layer_2" data-name="Layer 2"><g id="Layer_1-2" data-name="Layer 1"><path class="cls-1" d="M38.83,57.32a7.09,7.09,0,0,0-2.49-5.83q-2.51-2-9-4.32Q14.07,42.86,7.65,38T1.23,24A17.16,17.16,0,0,1,8.7,9.57q7.47-5.52,19-5.52,12.16,0,19.58,5.69t7.18,16l-.1.29h-16q0-5-2.74-7.3T27.35,16.5a10.64,10.64,0,0,0-7.08,2.2,6.86,6.86,0,0,0-2.59,5.42,5.87,5.87,0,0,0,2.66,5,52.56,52.56,0,0,0,9.94,4.71Q42.64,37.5,49,42.77t6.35,14.46A17.08,17.08,0,0,1,48,71.9q-7.32,5.3-19.43,5.3T8.14,71.51Q-.25,65.82,0,53.61l.09-.29H16.17q0,6.2,3,8.81t9.35,2.62c3.45,0,6-.69,7.72-2A6.59,6.59,0,0,0,38.83,57.32Z"/><path class="cls-1" d="M80.62,76.17H64.07V0H80.62Z"/><path class="cls-1" d="M114.17,77.2q-12,0-18.83-7.28T88.53,51.51V49.66q0-12.1,6.42-19.73t18.58-7.57q10.69,0,16.58,6.4T136,46.29v8.64H105.72l-.1.29a10.27,10.27,0,0,0,3.08,6.72q2.68,2.56,7.71,2.56a33.52,33.52,0,0,0,7.89-.78,49.42,49.42,0,0,0,7.2-2.49l4,10.06a30.25,30.25,0,0,1-9.18,4.2A42.35,42.35,0,0,1,114.17,77.2Zm-.64-42.14c-2.63,0-4.58.84-5.83,2.51a12.62,12.62,0,0,0-2.18,6.81l.1.25h14.26V43.36a11,11,0,0,0-1.44-6.2Q117,35.06,113.53,35.06Z"/><path class="cls-1" d="M166.41,77.2q-12,0-18.82-7.28t-6.81-18.41V49.66q0-12.1,6.42-19.73t18.58-7.57q10.69,0,16.58,6.4t5.88,17.53v8.64H158l-.1.29a10.26,10.26,0,0,0,3.07,6.72c1.79,1.71,4.37,2.56,7.72,2.56a33.52,33.52,0,0,0,7.89-.78,49.83,49.83,0,0,0,7.2-2.49l3.95,10.06a30.25,30.25,0,0,1-9.18,4.2A42.35,42.35,0,0,1,166.41,77.2Zm-.63-42.14c-2.64,0-4.58.84-5.84,2.51a12.7,12.7,0,0,0-2.17,6.81l.1.25h14.26V43.36a11,11,0,0,0-1.44-6.2Q169.25,35.06,165.78,35.06Z"/><path class="cls-1" d="M244.15,50.88q0,11.91-5.37,19.12t-15.14,7.2a14.42,14.42,0,0,1-11.91-5.72v25H195.22V23.34H210.8l.49,5.76a15.92,15.92,0,0,1,5.25-5,13.78,13.78,0,0,1,7-1.76q9.83,0,15.21,7.57t5.4,19.92Zm-16.46-1q0-6.69-1.95-10.74a6.52,6.52,0,0,0-6.25-4,9.94,9.94,0,0,0-4.71,1,7.54,7.54,0,0,0-3.05,3V61.13a7,7,0,0,0,3.1,2.54,11.91,11.91,0,0,0,4.76.83,6.47,6.47,0,0,0,6.22-3.59c1.26-2.39,1.88-5.73,1.88-10Z"/><path class="cls-1" d="M277.3,76.17V5.08h26q12.54,0,21,8.18t8.45,21V47q0,12.84-8.45,21t-21,8.15Zm16.51-58.4V63.48h9.52a11.32,11.32,0,0,0,9.25-4.59q3.63-4.59,3.64-11.87V34.13q0-7.17-3.64-11.77a11.32,11.32,0,0,0-9.25-4.59Z"/><path class="cls-1" d="M365.09,77.2q-12,0-18.82-7.28t-6.81-18.41V49.66q0-12.1,6.42-19.73t18.58-7.57q10.69,0,16.58,6.4t5.88,17.53v8.64H356.65l-.1.29a10.27,10.27,0,0,0,3.08,6.72q2.69,2.56,7.71,2.56a33.52,33.52,0,0,0,7.89-.78,49.42,49.42,0,0,0,7.2-2.49l3.95,10.06a30,30,0,0,1-9.18,4.2A42.3,42.3,0,0,1,365.09,77.2Zm-.63-42.14q-4,0-5.83,2.51a12.62,12.62,0,0,0-2.18,6.81l.1.25h14.26V43.36a11,11,0,0,0-1.44-6.2Q367.93,35.06,364.46,35.06Z"/><path class="cls-1" d="M442.83,50.88q0,11.91-5.37,19.12t-15.14,7.2a14.42,14.42,0,0,1-11.91-5.72v25H393.9V23.34h15.58L410,29.1a15.92,15.92,0,0,1,5.25-5,13.78,13.78,0,0,1,7-1.76q9.82,0,15.21,7.57t5.4,19.92Zm-16.46-1q0-6.69-1.95-10.74a6.51,6.51,0,0,0-6.25-4,10,10,0,0,0-4.71,1,7.6,7.6,0,0,0-3,3V61.13a7,7,0,0,0,3.1,2.54,11.91,11.91,0,0,0,4.76.83,6.46,6.46,0,0,0,6.22-3.59c1.26-2.39,1.88-5.73,1.88-10Z"/><path class="cls-1" d="M479.3,37.4l-5.37,0a9.16,9.16,0,0,0-4.64,1,6.47,6.47,0,0,0-2.68,3V76.17H450.1V23.34h15.53l.59,7.76a15.91,15.91,0,0,1,4.39-6.44,9.67,9.67,0,0,1,6.4-2.3,12,12,0,0,1,2,.15,14.58,14.58,0,0,1,1.86.44Z"/><path class="cls-1" d="M502.64,11.08H486.09V0h16.55Zm0,65.09H486.09V23.34h16.55Z"/><path class="cls-1" d="M532.53,54.39l1,5.62.3.05,1.07-5.67,7-31h17.34L542,76.17H525.25L508.06,23.34h17.39Z"/><path class="cls-1" d="M594,76.12a19.68,19.68,0,0,1-1.59-3.76,30.22,30.22,0,0,1-1-4.39,20.05,20.05,0,0,1-5.29,6.71,12.79,12.79,0,0,1-8.23,2.52q-8.31,0-12.92-4.28c-3.07-2.84-4.61-6.73-4.61-11.64q0-7.86,5.91-12.13t17.92-4.28h6.78V41.11a7.48,7.48,0,0,0-1.61-5.17,6.25,6.25,0,0,0-4.93-1.81,6,6,0,0,0-4.27,1.34,5.58,5.58,0,0,0-1.39,4.18l-16,0-.1-.29q-.33-7.23,6-12.09t16.83-4.86q9.81,0,15.89,4.89t6.08,14V61.13a40.09,40.09,0,0,0,.71,7.82,42.19,42.19,0,0,0,2.12,7.22ZM582.33,65.43A10,10,0,0,0,587.68,64a8,8,0,0,0,3.24-3.37v-7h-6.64c-2.63,0-4.54.64-5.71,1.91a6.86,6.86,0,0,0-1.76,4.83A4.7,4.7,0,0,0,578.35,64,5.7,5.7,0,0,0,582.33,65.43Z"/><path class="cls-1" d="M635.41,10.21V23.34h8.35V34.77h-8.35V59a6,6,0,0,0,1.14,4.08,4,4,0,0,0,3.1,1.25,17.57,17.57,0,0,0,2-.1c.51-.07,1.15-.2,1.93-.39L644.73,76a40.89,40.89,0,0,1-4.49.9,35.92,35.92,0,0,1-4.74.27q-8.14,0-12.37-4.35T618.9,59.08V34.77h-7.37V23.34h7.37V10.21Z"/><path class="cls-1" d="M669.05,11.08H652.5V0h16.55Zm0,65.09H652.5V23.34h16.55Z"/><path class="cls-1" d="M677,49.27q0-11.91,6.74-19.41t18.8-7.5q12.11,0,18.84,7.5t6.74,19.41v1q0,12-6.74,19.44T702.59,77.2q-12.15,0-18.89-7.47T677,50.29Zm16.5,1q0,6.65,2.08,10.43t7.05,3.78q4.85,0,6.94-3.81t2.1-10.4v-1q0-6.45-2.1-10.33c-1.4-2.59-3.75-3.88-7-3.88s-5.58,1.3-7,3.9-2.08,6-2.08,10.31Z"/><path class="cls-1" d="M750.54,23.34l.64,7.42a19.21,19.21,0,0,1,6.39-6.18,16.59,16.59,0,0,1,8.5-2.22q7.77,0,12.13,5.28t4.37,16.74V76.17h-16.5V44.34c0-3.36-.54-5.74-1.61-7.16a5.54,5.54,0,0,0-4.69-2.12A11.54,11.54,0,0,0,755,36a9.33,9.33,0,0,0-3.52,2.63V76.17H735.07V23.34Z"/></g></g></svg>