<svg xmlns="http://www.w3.org/2000/svg" viewBox="0 0 392 252"><defs><style>.cls-1{fill:#fff;}.cls-2{fill:none;stroke:#000;stroke-linecap:round;stroke-miterlimit:10;stroke-width:3px;}</style></defs><title>eye</title><g id="Layer_2" data-name="Layer 2"><g id="Layer_1-2" data-name="Layer 1"><path class="cls-1" d="M387.63,110.91Q357,60.81,305.26,30.41T196,0Q138.48,0,86.73,30.41T4.37,110.91a28.24,28.24,0,0,0,0,30.18q30.63,50.1,82.36,80.5T196,252q57.54,0,109.26-30.3t82.37-80.61a28.24,28.24,0,0,0,0-30.18ZM149.08,51.08Q168.65,31.51,196,31.5A10.45,10.45,0,0,1,206.5,42,10.46,10.46,0,0,1,196,52.5a43.83,43.83,0,0,0-32.15,13.34A43.84,43.84,0,0,0,150.5,98a10.5,10.5,0,1,1-21,0Q129.5,70.66,149.08,51.08Zm142,146.35a183.3,183.3,0,0,1-190.1,0Q57.09,170.85,28,126q33.26-51.63,83.35-77.22A95.6,95.6,0,0,0,98,98q0,40.47,28.77,69.23T196,196q40.47,0,69.23-28.77T294,98a95.6,95.6,0,0,0-13.35-49.22Q330.75,74.37,364,126,334.9,170.85,291.05,197.43Z"/><path class="cls-2" d="M116.24,152.28a48.1,48.1,0,0,1,15.81-8.92,42.23,42.23,0,0,1,16.53-2.59,40,40,0,0,1,10.64,2"/><path class="cls-2" d="M137.34,141.38c6.48-3.15,9.73-9.63,8-15.48-1.34-4.69-5.67-8.38-11.18-9.66"/><path class="cls-2" d="M147,156.24a14.44,14.44,0,0,0-7.91-10.5,17,17,0,0,0-9.94-1.29"/><path class="cls-2" d="M244.63,141c3.29-2.8,18.69-15.38,35.11-11a26.93,26.93,0,0,1,6.12,2.45"/><path class="cls-2" d="M244.63,109.42c11.95-.18,21.45,4.93,23.68,12.25a13.25,13.25,0,0,1,0,7.35"/><path class="cls-2" d="M249.93,116c.37.33,4.2,3.51,8.89,2.24a9.25,9.25,0,0,0,4.7-3.06"/><path class="cls-2" d="M249.93,94.68c6.81,1.9,11.18,6.75,11,11.43a8.56,8.56,0,0,1-2,5.1"/><path class="cls-2" d="M177.82,192.68c-.93-1.64-6.69-12.18-2-21.72a18.25,18.25,0,0,1,3.4-4.75"/><path class="cls-2" d="M187.3,169.55c.23,3-1.38,6.58-4.14,9.12s-6.17,3.64-8.75,2.81"/><path class="cls-2" d="M174,176.39A11.38,11.38,0,0,1,167.88,156"/><path class="cls-2" d="M164.46,168.4c3.92.22,7.19-1.46,7.87-3.64.58-1.85-.88-3.45-1.21-3.79"/><path class="cls-2" d="M251.73,65.33a46.46,46.46,0,0,1,19.08,2.27,39.42,39.42,0,0,1,20.6,16"/><path class="cls-2" d="M145.82,128.19c2.65-5.56,7.66-8.68,11.77-8a7.54,7.54,0,0,1,4.06,2.18"/><path class="cls-2" d="M124.25,138c1.79-6.07,7.51-9.7,12.59-9.06a11,11,0,0,1,7.3,4.71"/><path class="cls-2" d="M151.2,141.07a4,4,0,0,1,1-5.38,5.17,5.17,0,0,1,4.72-.51"/><path class="cls-2" d="M159.54,178.31a6,6,0,0,0,6.56,1.53,5.57,5.57,0,0,0,3.28-4.2"/><path class="cls-2" d="M237.47,125.7c.65,4.68,3.33,8.53,7,10a9.49,9.49,0,0,0,7.31-.34"/><path class="cls-2" d="M263.22,131a10.45,10.45,0,0,1,.82,11,10.1,10.1,0,0,1-5.72,4.49"/><path class="cls-2" d="M106.3,63.73a17.42,17.42,0,0,1,9.3,10.34,17,17,0,0,1-.69,11.72"/><path class="cls-2" d="M116.34,73.43c4.26.18,8.11-1.78,9.86-5.08a9.48,9.48,0,0,0,.91-5.79"/><path class="cls-2" d="M122.77,72.46c2.7.81,4.27,3,4,4.76a3.64,3.64,0,0,1-1.49,2.25"/><path class="cls-2" d="M112.92,70.64a6.55,6.55,0,0,0-2,1.82,6.64,6.64,0,0,0-1.22,3.79"/><path class="cls-2" d="M207.2,142.86c2.31,22.46,14.44,38,27.56,39,2.68.22,7,0,12.62-3.09"/><path class="cls-2" d="M214,165.06a9.52,9.52,0,0,0,6.67-6.91,9.93,9.93,0,0,0-2.54-8.8"/><path class="cls-2" d="M203.63,130.14c-5.72,9.22-5.61,18.74-.95,22.93a10.56,10.56,0,0,0,6.66,2.51"/><path class="cls-2" d="M222.16,157.54c5.31-.49,9.47,2.08,10.15,5.23a6.19,6.19,0,0,1-1.09,4.54"/><path class="cls-2" d="M201.13,181.08c.5-5.58,3.62-10.16,8-11.63a10.64,10.64,0,0,1,6.44,0"/><path class="cls-2" d="M197.94,168.51a4.4,4.4,0,0,1,5.23.47,4.27,4.27,0,0,1,1.12,3.46"/><path class="cls-2" d="M214,139.16a15.91,15.91,0,0,1,13.66,9.8,25.16,25.16,0,0,1,2,9.37"/><path class="cls-2" d="M269.45,68c-7.79,5.9-9.45,13.78-5.92,17.8,2.13,2.44,5.83,3.09,8,3.28"/><path class="cls-2" d="M260.43,65.05c-.16-.53-1.5-5.25,1.45-9a9.22,9.22,0,0,1,4.06-2.9"/><path class="cls-2" d="M253,65c-4.88.32-8.34,3.76-8.41,7.25-.06,3,2.47,5.16,2.9,5.51"/><path class="cls-2" d="M272.36,68c3.71-.77,6.3-3.59,6.42-6.62a6.84,6.84,0,0,0-1.95-4.78"/><path class="cls-2" d="M263.47,76.22c4.36-1.64,8.9-.44,11,2.61a8.34,8.34,0,0,1,1.16,6.09"/><path class="cls-2" d="M179.11,98.17c-2,4.48-6.31,7-10.17,6.28a8.79,8.79,0,0,1-5.41-3.68"/><path class="cls-2" d="M201.33,71.46c-7.77-4.22-16.62-.35-20.69,8.62A27.62,27.62,0,0,0,182.81,106"/><path class="cls-2" d="M178.4,91.64c-6.4,3.18-13.7,2.07-17.87-2.41-4-4.27-3.54-9.93-3.44-11"/><path class="cls-2" d="M180.36,82.2a13.68,13.68,0,0,1,11.68,6,16.31,16.31,0,0,1,2.4,6.81"/></g></g></svg>