<svg xmlns="http://www.w3.org/2000/svg" viewBox="0 0 844.61 546.86"><defs><style>.cls-1{fill:#fff;}.cls-2{fill:none;stroke:#fff;stroke-miterlimit:10;}</style></defs><title>heart</title><g id="Layer_2" data-name="Layer 2"><g id="Layer_1-2" data-name="Layer 1"><path class="cls-1" d="M8.39,420.45v.05a3.4,3.4,0,0,1-1,2.76,4.33,4.33,0,0,1-3,.94A4.27,4.27,0,0,1,1.2,423,4.31,4.31,0,0,1,0,419.83v-2.22a4.41,4.41,0,0,1,1.15-3.17,4.05,4.05,0,0,1,3.05-1.21,4.69,4.69,0,0,1,3.14.95,3.32,3.32,0,0,1,1.08,2.74l0,.05H6a2,2,0,0,0-.42-1.41,1.86,1.86,0,0,0-1.37-.42,1.45,1.45,0,0,0-1.28.67,3.13,3.13,0,0,0-.44,1.78v2.24a3,3,0,0,0,.49,1.8,1.61,1.61,0,0,0,1.4.67,1.54,1.54,0,0,0,1.23-.43A2.12,2.12,0,0,0,6,420.45Z"/><path class="cls-1" d="M14.2,424a3.25,3.25,0,0,1-.24-.56,6.38,6.38,0,0,1-.15-.66,3,3,0,0,1-.79,1,2,2,0,0,1-1.24.37,2.71,2.71,0,0,1-1.93-.64,2.25,2.25,0,0,1-.69-1.74A2.1,2.1,0,0,1,10,420a4.58,4.58,0,0,1,2.69-.64h1v-.57a1.11,1.11,0,0,0-.24-.77.93.93,0,0,0-.74-.28.89.89,0,0,0-.65.21.85.85,0,0,0-.2.62H9.51v0a2.08,2.08,0,0,1,.9-1.81,4,4,0,0,1,2.53-.73,3.68,3.68,0,0,1,2.38.73,2.53,2.53,0,0,1,.91,2.1v3a6.23,6.23,0,0,0,.11,1.18,6.31,6.31,0,0,0,.32,1.08Zm-1.74-1.6a1.52,1.52,0,0,0,.8-.21,1.25,1.25,0,0,0,.49-.51v-1.05h-1a1.14,1.14,0,0,0-.86.29,1.05,1.05,0,0,0-.26.73.71.71,0,0,0,.23.54A.86.86,0,0,0,12.46,422.44Z"/><path class="cls-1" d="M22,418.24h-.81a1.31,1.31,0,0,0-.69.16,1,1,0,0,0-.41.44v5.22H17.58v-7.92h2.33l.09,1.16a2.33,2.33,0,0,1,.65-1,1.47,1.47,0,0,1,1-.34l.3,0,.28.07Z"/><path class="cls-1" d="M22.4,420.1a5.06,5.06,0,0,1,.81-3A2.65,2.65,0,0,1,25.49,416a1.94,1.94,0,0,1,1,.25,2.7,2.7,0,0,1,.8.72v-4.33h2.47v11.43H27.58l-.17-1a2.53,2.53,0,0,1-.83.83,2,2,0,0,1-1.11.29,2.68,2.68,0,0,1-2.27-1.08,4.73,4.73,0,0,1-.8-2.86Zm2.47.16a3.4,3.4,0,0,0,.28,1.5,1,1,0,0,0,1,.54,1.67,1.67,0,0,0,.69-.14,1.33,1.33,0,0,0,.49-.42v-3.21a1.41,1.41,0,0,0-.49-.48,1.33,1.33,0,0,0-.67-.17,1,1,0,0,0-.95.61,3.67,3.67,0,0,0-.3,1.61Z"/><path class="cls-1" d="M33.75,414.29H31.27v-1.67h2.48Zm0,9.76H31.27v-7.92h2.48Z"/><path class="cls-1" d="M34.94,420a4.17,4.17,0,0,1,1-2.92A3.58,3.58,0,0,1,38.77,416a3.58,3.58,0,0,1,2.82,1.12,4.17,4.17,0,0,1,1,2.92v.15a4.14,4.14,0,0,1-1,2.91,3.57,3.57,0,0,1-2.81,1.12A3.6,3.6,0,0,1,36,423.08a4.14,4.14,0,0,1-1-2.91Zm2.47.15a3.37,3.37,0,0,0,.31,1.56,1.11,1.11,0,0,0,1.06.57,1.09,1.09,0,0,0,1-.57,3.24,3.24,0,0,0,.32-1.56V420a3.22,3.22,0,0,0-.32-1.55,1.23,1.23,0,0,0-2.1,0,3.38,3.38,0,0,0-.31,1.55Z"/><path class="cls-1" d="M46.55,420.78l.15.85h0l.16-.85L48,416.13h2.6L48,424.05H45.46l-2.58-7.92h2.61Z"/><path class="cls-1" d="M55.77,424a2.2,2.2,0,0,1-.24-.56,3.52,3.52,0,0,1-.15-.66,3,3,0,0,1-.8,1,1.9,1.9,0,0,1-1.23.37,2.74,2.74,0,0,1-1.94-.64,2.25,2.25,0,0,1-.69-1.74,2.1,2.1,0,0,1,.89-1.82,4.55,4.55,0,0,1,2.68-.64h1v-.57a1.11,1.11,0,0,0-.24-.77.92.92,0,0,0-.74-.28.87.87,0,0,0-.64.21.82.82,0,0,0-.21.62h-2.4l0,0a2.07,2.07,0,0,1,.91-1.81,4,4,0,0,1,2.52-.73,3.7,3.7,0,0,1,2.39.73,2.56,2.56,0,0,1,.91,2.1v3a5.69,5.69,0,0,0,.42,2.26ZM54,422.44a1.55,1.55,0,0,0,.81-.21,1.17,1.17,0,0,0,.48-.51v-1.05h-1a1.13,1.13,0,0,0-.86.29,1,1,0,0,0-.26.73.68.68,0,0,0,.23.54A.84.84,0,0,0,54,422.44Z"/><path class="cls-1" d="M63.27,421.82a.64.64,0,0,0-.33-.52,3.67,3.67,0,0,0-1.21-.41,4.79,4.79,0,0,1-2.09-.84,1.9,1.9,0,0,1-.7-1.57,2.21,2.21,0,0,1,.88-1.77A3.58,3.58,0,0,1,62.2,416a4.05,4.05,0,0,1,2.52.71,2.08,2.08,0,0,1,.89,1.82v.05H63.19a1,1,0,0,0-.23-.71,1,1,0,0,0-.77-.24,1,1,0,0,0-.65.21.65.65,0,0,0-.27.54.64.64,0,0,0,.31.53,3.37,3.37,0,0,0,1.23.4,5.06,5.06,0,0,1,2.15.85,2,2,0,0,1,.69,1.61,2.1,2.1,0,0,1-.94,1.76,4.19,4.19,0,0,1-2.51.69,3.73,3.73,0,0,1-2.56-.82,2.24,2.24,0,0,1-.9-1.83v0H61a1,1,0,0,0,.34.81,1.44,1.44,0,0,0,.92.25,1.23,1.23,0,0,0,.76-.19A.66.66,0,0,0,63.27,421.82Z"/><path class="cls-1" d="M70.21,422.3A1,1,0,0,0,71,422a1.15,1.15,0,0,0,.25-.8h2.26v0a2.62,2.62,0,0,1-.89,2.11,4,4,0,0,1-5.17-.3,4.28,4.28,0,0,1-1-2.91V420a4.28,4.28,0,0,1,1-2.91A3.47,3.47,0,0,1,70.2,416a3.4,3.4,0,0,1,2.41.84,2.89,2.89,0,0,1,.87,2.29v.05H71.21a1.54,1.54,0,0,0-.25-.92.88.88,0,0,0-.76-.36,1,1,0,0,0-1,.58,3.51,3.51,0,0,0-.29,1.55v.17a3.53,3.53,0,0,0,.29,1.56A1,1,0,0,0,70.21,422.3Z"/><path class="cls-1" d="M79.27,422.86a2.67,2.67,0,0,1-.91,1,2.44,2.44,0,0,1-1.29.34,2.33,2.33,0,0,1-1.93-.86,4.2,4.2,0,0,1-.7-2.67v-4.54H76.9v4.55a2.41,2.41,0,0,0,.24,1.28.84.84,0,0,0,.74.34,2.08,2.08,0,0,0,.69-.11,1.29,1.29,0,0,0,.52-.33v-5.73h2.47v7.92h-2Z"/><path class="cls-1" d="M85.52,424.05H83V412.62h2.49Z"/><path class="cls-1" d="M91.61,424a3.25,3.25,0,0,1-.24-.56,6.38,6.38,0,0,1-.15-.66,3,3,0,0,1-.79,1,2,2,0,0,1-1.24.37,2.71,2.71,0,0,1-1.93-.64,2.26,2.26,0,0,1-.7-1.74,2.1,2.1,0,0,1,.89-1.82,4.58,4.58,0,0,1,2.69-.64h1v-.57a1.11,1.11,0,0,0-.24-.77.93.93,0,0,0-.74-.28.89.89,0,0,0-.65.21.85.85,0,0,0-.2.62H86.92v0a2.08,2.08,0,0,1,.9-1.81,4,4,0,0,1,2.53-.73,3.68,3.68,0,0,1,2.38.73,2.53,2.53,0,0,1,.91,2.1v3a6.23,6.23,0,0,0,.11,1.18,6.31,6.31,0,0,0,.32,1.08Zm-1.74-1.6a1.52,1.52,0,0,0,.8-.21,1.25,1.25,0,0,0,.49-.51v-1.05h-1a1.14,1.14,0,0,0-.86.29,1.05,1.05,0,0,0-.26.73.71.71,0,0,0,.23.54A.86.86,0,0,0,89.87,422.44Z"/><path class="cls-1" d="M99.37,418.24h-.81a1.31,1.31,0,0,0-.69.16,1,1,0,0,0-.41.44v5.22H95v-7.92h2.33l.08,1.16a2.45,2.45,0,0,1,.66-1,1.47,1.47,0,0,1,1-.34l.3,0,.28.07Z"/><path class="cls-1" d="M103.68,420.1a5.06,5.06,0,0,1,.81-3,2.65,2.65,0,0,1,2.28-1.13,2,2,0,0,1,1,.25,2.67,2.67,0,0,1,.79.72v-4.33H111v11.43h-2.17l-.17-1a2.65,2.65,0,0,1-.84.83,2,2,0,0,1-1.1.29,2.65,2.65,0,0,1-2.27-1.08,4.66,4.66,0,0,1-.81-2.86Zm2.48.16a3.26,3.26,0,0,0,.28,1.5,1,1,0,0,0,1,.54,1.62,1.62,0,0,0,.68-.14,1.33,1.33,0,0,0,.49-.42v-3.21a1.47,1.47,0,0,0-.48-.48,1.37,1.37,0,0,0-.68-.17,1,1,0,0,0-1,.61,3.68,3.68,0,0,0-.29,1.61Z"/><path class="cls-1" d="M115,414.29h-2.48v-1.67H115Zm0,9.76h-2.48v-7.92H115Z"/><path class="cls-1" d="M120.68,421.82a.64.64,0,0,0-.33-.52,3.67,3.67,0,0,0-1.21-.41,4.74,4.74,0,0,1-2.09-.84,1.9,1.9,0,0,1-.7-1.57,2.23,2.23,0,0,1,.87-1.77,3.6,3.6,0,0,1,2.38-.73,4,4,0,0,1,2.52.71,2.06,2.06,0,0,1,.9,1.82l0,.05h-2.4a1,1,0,0,0-.23-.71,1.06,1.06,0,0,0-.77-.24,1,1,0,0,0-.65.21.65.65,0,0,0-.27.54.62.62,0,0,0,.31.53,3.38,3.38,0,0,0,1.22.4,5.11,5.11,0,0,1,2.16.85,2,2,0,0,1,.69,1.61,2.08,2.08,0,0,1-1,1.76,4.17,4.17,0,0,1-2.51.69,3.77,3.77,0,0,1-2.56-.82,2.25,2.25,0,0,1-.89-1.83v0h2.24a1,1,0,0,0,.34.81,1.49,1.49,0,0,0,.93.25,1.22,1.22,0,0,0,.75-.19A.65.65,0,0,0,120.68,421.82Z"/><path class="cls-1" d="M127.74,424.2a3.66,3.66,0,0,1-2.82-1.09,3.87,3.87,0,0,1-1-2.76v-.28a4.46,4.46,0,0,1,1-3,3.41,3.41,0,0,1,2.79-1.13,3.2,3.2,0,0,1,2.48,1,3.72,3.72,0,0,1,.89,2.63v1.29h-4.55v.05a1.56,1.56,0,0,0,.46,1,1.65,1.65,0,0,0,1.16.38,4.87,4.87,0,0,0,1.18-.12,6.31,6.31,0,0,0,1.08-.37l.6,1.51a4.67,4.67,0,0,1-1.38.63A6.4,6.4,0,0,1,127.74,424.2Zm-.09-6.32a1,1,0,0,0-.88.38,1.79,1.79,0,0,0-.32,1v0h2.14v-.19a1.6,1.6,0,0,0-.22-.93A.82.82,0,0,0,127.65,417.88Z"/><path class="cls-1" d="M136.64,424a3.25,3.25,0,0,1-.24-.56,6.38,6.38,0,0,1-.15-.66,3,3,0,0,1-.79,1,2,2,0,0,1-1.24.37,2.71,2.71,0,0,1-1.93-.64,2.22,2.22,0,0,1-.7-1.74,2.1,2.1,0,0,1,.89-1.82,4.58,4.58,0,0,1,2.69-.64h1v-.57a1.07,1.07,0,0,0-.25-.77,1.1,1.1,0,0,0-1.38-.07.85.85,0,0,0-.2.62H132v0a2.06,2.06,0,0,1,.9-1.81,4,4,0,0,1,2.53-.73,3.68,3.68,0,0,1,2.38.73,2.53,2.53,0,0,1,.91,2.1v3a6.23,6.23,0,0,0,.11,1.18,6.31,6.31,0,0,0,.32,1.08Zm-1.74-1.6a1.52,1.52,0,0,0,.8-.21,1.25,1.25,0,0,0,.49-.51v-1.05h-1a1.13,1.13,0,0,0-.86.29,1.05,1.05,0,0,0-.26.73.71.71,0,0,0,.23.54A.84.84,0,0,0,134.9,422.44Z"/><path class="cls-1" d="M144.15,421.82a.63.63,0,0,0-.34-.52,3.58,3.58,0,0,0-1.21-.41,4.69,4.69,0,0,1-2.08-.84,1.91,1.91,0,0,1-.71-1.57,2.21,2.21,0,0,1,.88-1.77,3.6,3.6,0,0,1,2.38-.73,4,4,0,0,1,2.52.71,2.06,2.06,0,0,1,.89,1.82v.05h-2.4a1,1,0,0,0-.24-.71,1.23,1.23,0,0,0-1.42,0,.67.67,0,0,0-.26.54.63.63,0,0,0,.3.53,3.37,3.37,0,0,0,1.23.4,5,5,0,0,1,2.15.85,2,2,0,0,1,.7,1.61,2.11,2.11,0,0,1-.95,1.76,4.17,4.17,0,0,1-2.51.69,3.75,3.75,0,0,1-2.56-.82,2.24,2.24,0,0,1-.9-1.83l0,0h2.24a1,1,0,0,0,.34.81,1.49,1.49,0,0,0,.93.25,1.22,1.22,0,0,0,.75-.19A.67.67,0,0,0,144.15,421.82Z"/><path class="cls-1" d="M151.21,424.2a3.66,3.66,0,0,1-2.82-1.09,3.84,3.84,0,0,1-1-2.76v-.28a4.42,4.42,0,0,1,1-3,3.4,3.4,0,0,1,2.78-1.13,3.22,3.22,0,0,1,2.49,1,3.72,3.72,0,0,1,.88,2.63v1.29h-4.54v.05a1.56,1.56,0,0,0,.46,1,1.64,1.64,0,0,0,1.16.38,4.93,4.93,0,0,0,1.18-.12,7,7,0,0,0,1.08-.37l.59,1.51A4.44,4.44,0,0,1,153,424,6.33,6.33,0,0,1,151.21,424.2Zm-.1-6.32a1,1,0,0,0-.87.38,1.87,1.87,0,0,0-.33,1l0,0h2.14v-.19a1.68,1.68,0,0,0-.22-.93A.83.83,0,0,0,151.11,417.88Z"/><path class="cls-1" d="M655.2,197.64l0,0a3.17,3.17,0,0,1-1.06,2.51,4,4,0,0,1-2.86,1,3.74,3.74,0,0,1-2.95-1.28,4.7,4.7,0,0,1-1.14-3.25v-1.9a4.7,4.7,0,0,1,1.14-3.25,3.75,3.75,0,0,1,2.95-1.29,4.12,4.12,0,0,1,2.88,1,3.18,3.18,0,0,1,1,2.55l0,0h-1.38a2.38,2.38,0,0,0-.66-1.77,2.55,2.55,0,0,0-1.86-.65,2.27,2.27,0,0,0-1.93,1,4,4,0,0,0-.71,2.42v1.91a4,4,0,0,0,.71,2.43,2.28,2.28,0,0,0,1.93,1,2.55,2.55,0,0,0,1.86-.65,2.39,2.39,0,0,0,.66-1.79Z"/><path class="cls-1" d="M660.64,194.4l-.73,0a1.66,1.66,0,0,0-1,.27,1.7,1.7,0,0,0-.6.76v5.66h-1.45v-7.92h1.29l.14,1.15a2.92,2.92,0,0,1,.83-1,1.94,1.94,0,0,1,1.14-.34l.31,0,.24.06Z"/><path class="cls-1" d="M661.66,197a4.33,4.33,0,0,1,1-2.89A3.17,3.17,0,0,1,665.2,193a3.22,3.22,0,0,1,2.6,1.13,4.35,4.35,0,0,1,1,2.9v.17a4.38,4.38,0,0,1-1,2.9,3.56,3.56,0,0,1-5.19,0,4.31,4.31,0,0,1-1-2.89Zm1.45.17a3.72,3.72,0,0,0,.53,2.08,1.91,1.91,0,0,0,3.14,0,3.72,3.72,0,0,0,.54-2.08V197a3.71,3.71,0,0,0-.54-2.07,1.78,1.78,0,0,0-1.58-.83,1.73,1.73,0,0,0-1.56.83,3.7,3.7,0,0,0-.53,2.07Z"/><path class="cls-1" d="M671.81,193.13l.11,1.17a2.78,2.78,0,0,1,1-1,2.67,2.67,0,0,1,1.36-.35,2.59,2.59,0,0,1,2,.75,3.29,3.29,0,0,1,.71,2.32v5h-1.45v-5a2.13,2.13,0,0,0-.41-1.49,1.68,1.68,0,0,0-1.26-.44,2.17,2.17,0,0,0-1.13.27,1.91,1.91,0,0,0-.74.75v5.88h-1.44v-7.92Z"/><path class="cls-1" d="M680.61,191.1h-1.44v-1.48h1.44Zm0,10h-1.44v-7.92h1.44Z"/><path class="cls-1" d="M686,200.08a1.68,1.68,0,0,0,1.16-.45,1.35,1.35,0,0,0,.5-1.08H689l0,0a2.3,2.3,0,0,1-.88,1.82,3.37,3.37,0,0,1-4.69-.34,4.42,4.42,0,0,1-.91-2.83v-.31a4.41,4.41,0,0,1,.91-2.81A3.12,3.12,0,0,1,686,193a3,3,0,0,1,2.17.82,2.62,2.62,0,0,1,.82,2l0,.05h-1.31a1.77,1.77,0,0,0-.47-1.24,1.54,1.54,0,0,0-1.19-.51,1.66,1.66,0,0,0-1.55.83,3.89,3.89,0,0,0-.49,2v.31a4,4,0,0,0,.48,2A1.68,1.68,0,0,0,686,200.08Z"/><path class="cls-1" d="M699,198.92a1,1,0,0,0-.37-.78,3.43,3.43,0,0,0-1.37-.52,5.79,5.79,0,0,1-2.15-.85,1.69,1.69,0,0,1-.75-1.45,2.11,2.11,0,0,1,.82-1.65,3.22,3.22,0,0,1,2.14-.69,3.18,3.18,0,0,1,2.18.73,2.11,2.11,0,0,1,.8,1.71v0h-1.38a1.25,1.25,0,0,0-.45-.93,1.61,1.61,0,0,0-1.14-.42,1.64,1.64,0,0,0-1.14.35,1.08,1.08,0,0,0-.38.82.86.86,0,0,0,.33.72,3.57,3.57,0,0,0,1.34.47,6,6,0,0,1,2.22.87,1.77,1.77,0,0,1,.75,1.48,2.12,2.12,0,0,1-.85,1.72,3.56,3.56,0,0,1-2.23.66,3.5,3.5,0,0,1-2.39-.76,2.22,2.22,0,0,1-.83-1.8l0,0h1.37a1.36,1.36,0,0,0,.57,1.12,2.22,2.22,0,0,0,1.26.36,1.94,1.94,0,0,0,1.2-.33A1,1,0,0,0,699,198.92Z"/><path class="cls-1" d="M703.81,201.05h-1.44V189.62h1.44Z"/><path class="cls-1" d="M709.31,201.2a3.35,3.35,0,0,1-2.66-1.09,4.21,4.21,0,0,1-.95-2.87v-.32a4.07,4.07,0,0,1,1-2.82,3.08,3.08,0,0,1,2.41-1.12,2.87,2.87,0,0,1,2.38,1,4.07,4.07,0,0,1,.8,2.63v.76H707.2l0,0a3.26,3.26,0,0,0,.52,1.93,1.84,1.84,0,0,0,1.61.75,3.63,3.63,0,0,0,1.29-.21,2.76,2.76,0,0,0,.95-.58l.56.94a3.45,3.45,0,0,1-1.12.69A4.41,4.41,0,0,1,709.31,201.2Zm-.22-7.09a1.56,1.56,0,0,0-1.25.59,2.76,2.76,0,0,0-.61,1.49l0,0h3.57v-.11a2.31,2.31,0,0,0-.42-1.43A1.52,1.52,0,0,0,709.09,194.11Z"/><path class="cls-1" d="M717.17,201.2a3.36,3.36,0,0,1-2.67-1.09,4.21,4.21,0,0,1-1-2.87v-.32a4.12,4.12,0,0,1,1-2.82,3.08,3.08,0,0,1,2.41-1.12,2.87,2.87,0,0,1,2.38,1,4.07,4.07,0,0,1,.8,2.63v.76h-5.07l0,0a3.26,3.26,0,0,0,.52,1.93,1.85,1.85,0,0,0,1.62.75,3.62,3.62,0,0,0,1.28-.21,2.76,2.76,0,0,0,.95-.58l.56.94a3.45,3.45,0,0,1-1.12.69A4.39,4.39,0,0,1,717.17,201.2Zm-.23-7.09a1.58,1.58,0,0,0-1.25.59,2.68,2.68,0,0,0-.6,1.49v0h3.57v-.11a2.31,2.31,0,0,0-.42-1.43A1.52,1.52,0,0,0,716.94,194.11Z"/><path class="cls-1" d="M728.49,197.39a4.34,4.34,0,0,1-.82,2.76,2.71,2.71,0,0,1-2.26,1,3.23,3.23,0,0,1-1.29-.24,2.4,2.4,0,0,1-.94-.74v3.88h-1.44v-11h1.1l.23,1a2.6,2.6,0,0,1,1-.87,2.85,2.85,0,0,1,1.34-.3,2.62,2.62,0,0,1,2.29,1.17,5.24,5.24,0,0,1,.82,3.08Zm-1.44-.16a4.23,4.23,0,0,0-.53-2.21,1.73,1.73,0,0,0-1.57-.87,2,2,0,0,0-1.06.28,2.14,2.14,0,0,0-.71.78V199a2.08,2.08,0,0,0,.71.76,1.93,1.93,0,0,0,1.08.28,1.77,1.77,0,0,0,1.55-.75,3.32,3.32,0,0,0,.53-1.94Z"/><path class="cls-1" d="M733.66,197.23a5.24,5.24,0,0,1,.82-3.08,2.62,2.62,0,0,1,2.29-1.17,2.71,2.71,0,0,1,1.23.26,2.54,2.54,0,0,1,.92.74v-4.36h1.44v11.43h-1.1l-.22-1a2.54,2.54,0,0,1-1,.86,2.83,2.83,0,0,1-1.33.29,2.72,2.72,0,0,1-2.27-1,4.34,4.34,0,0,1-.82-2.76Zm1.44.16a3.41,3.41,0,0,0,.49,1.92,1.73,1.73,0,0,0,1.53.72,1.93,1.93,0,0,0,1.08-.29,2.31,2.31,0,0,0,.72-.82v-3.7a2.26,2.26,0,0,0-.72-.78,1.94,1.94,0,0,0-1.07-.29,1.65,1.65,0,0,0-1.53.86,4.4,4.4,0,0,0-.5,2.22Z"/><path class="cls-1" d="M745.8,201.2a3.36,3.36,0,0,1-2.67-1.09,4.21,4.21,0,0,1-1-2.87v-.32a4.12,4.12,0,0,1,1-2.82,3.08,3.08,0,0,1,2.41-1.12,2.87,2.87,0,0,1,2.38,1,4.07,4.07,0,0,1,.8,2.63v.76h-5.07l0,0a3.19,3.19,0,0,0,.53,1.93,1.82,1.82,0,0,0,1.61.75,3.58,3.58,0,0,0,1.28-.21,2.76,2.76,0,0,0,.95-.58l.56.94a3.45,3.45,0,0,1-1.12.69A4.39,4.39,0,0,1,745.8,201.2Zm-.23-7.09a1.58,1.58,0,0,0-1.25.59,2.68,2.68,0,0,0-.6,1.49v0h3.57v-.11a2.31,2.31,0,0,0-.42-1.43A1.52,1.52,0,0,0,745.57,194.11Z"/><path class="cls-1" d="M757.12,197.39a4.34,4.34,0,0,1-.82,2.76,2.71,2.71,0,0,1-2.26,1,3.23,3.23,0,0,1-1.29-.24,2.4,2.4,0,0,1-.94-.74v3.88h-1.44v-11h1.1l.23,1a2.6,2.6,0,0,1,1-.87A2.85,2.85,0,0,1,754,193a2.62,2.62,0,0,1,2.29,1.17,5.24,5.24,0,0,1,.82,3.08Zm-1.44-.16a4.23,4.23,0,0,0-.53-2.21,1.73,1.73,0,0,0-1.57-.87,2,2,0,0,0-1.06.28,2.14,2.14,0,0,0-.71.78V199a2.08,2.08,0,0,0,.71.76,1.93,1.93,0,0,0,1.08.28,1.77,1.77,0,0,0,1.55-.75,3.32,3.32,0,0,0,.53-1.94Z"/><path class="cls-1" d="M762.64,194.4l-.74,0a1.65,1.65,0,0,0-1,.27,1.79,1.79,0,0,0-.61.76v5.66h-1.44v-7.92h1.29l.14,1.15a2.71,2.71,0,0,1,.83-1,1.94,1.94,0,0,1,1.14-.34l.31,0,.24.06Z"/><path class="cls-1" d="M765.7,191.1h-1.44v-1.48h1.44Zm0,10h-1.44v-7.92h1.44Z"/><path class="cls-1" d="M770.57,198.71l.12.56h0l.14-.56,1.82-5.58h1.47l-2.91,7.92h-1.1l-2.95-7.92h1.48Z"/><path class="cls-1" d="M780.23,201.05q-.08-.36-.12-.63a5.27,5.27,0,0,1,0-.56,3.47,3.47,0,0,1-1.05,1,2.68,2.68,0,0,1-1.4.38,2.61,2.61,0,0,1-1.89-.63,2.33,2.33,0,0,1-.64-1.75,2,2,0,0,1,.91-1.77,4.31,4.31,0,0,1,2.5-.64h1.57v-.79a1.47,1.47,0,0,0-.43-1.1,1.66,1.66,0,0,0-1.2-.41,1.73,1.73,0,0,0-1.14.36,1.06,1.06,0,0,0-.43.84H775.5v0a1.89,1.89,0,0,1,.81-1.58,3.79,3.79,0,0,1,4.39,0,2.43,2.43,0,0,1,.82,2v3.81a7.15,7.15,0,0,0,0,.82,4.9,4.9,0,0,0,.16.78Zm-2.4-1.05a2.57,2.57,0,0,0,1.42-.41,1.92,1.92,0,0,0,.82-.92v-1.29h-1.62a2.13,2.13,0,0,0-1.4.44,1.31,1.31,0,0,0-.52,1,1.11,1.11,0,0,0,.33.84A1.39,1.39,0,0,0,777.83,200Z"/><path class="cls-1" d="M785.61,191.21v1.92h1.5v1.06h-1.5V199a1.08,1.08,0,0,0,.23.78.85.85,0,0,0,.61.23l.28,0,.26-.07.2,1a1.34,1.34,0,0,1-.48.22,2.25,2.25,0,0,1-.62.08,1.85,1.85,0,0,1-1.4-.53,2.28,2.28,0,0,1-.52-1.66v-4.82h-1.26v-1.06h1.26v-1.92Z"/><path class="cls-1" d="M790.22,191.1h-1.44v-1.48h1.44Zm0,10h-1.44v-7.92h1.44Z"/><path class="cls-1" d="M792.1,197a4.37,4.37,0,0,1,.95-2.89,3.53,3.53,0,0,1,5.19,0,4.35,4.35,0,0,1,1,2.9v.17a4.38,4.38,0,0,1-1,2.9,3.23,3.23,0,0,1-2.6,1.12,3.19,3.19,0,0,1-2.59-1.13,4.31,4.31,0,0,1-1-2.89Zm1.44.17a3.8,3.8,0,0,0,.53,2.08,1.92,1.92,0,0,0,3.15,0,3.72,3.72,0,0,0,.53-2.08V197a3.7,3.7,0,0,0-.53-2.07,1.91,1.91,0,0,0-3.15,0,3.79,3.79,0,0,0-.53,2.07Z"/><path class="cls-1" d="M802.25,193.13l.1,1.17a2.89,2.89,0,0,1,1-1,2.65,2.65,0,0,1,1.36-.35,2.59,2.59,0,0,1,2,.75,3.29,3.29,0,0,1,.7,2.32v5H806v-5a2.18,2.18,0,0,0-.41-1.49,1.69,1.69,0,0,0-1.27-.44,2.22,2.22,0,0,0-1.13.27,2,2,0,0,0-.73.75v5.88H801v-7.92Z"/><path class="cls-1" d="M816.37,200.08a1.68,1.68,0,0,0,1.16-.45,1.38,1.38,0,0,0,.5-1.08h1.3l0,0a2.27,2.27,0,0,1-.88,1.82,3.36,3.36,0,0,1-4.68-.34,4.37,4.37,0,0,1-.91-2.83v-.31a4.35,4.35,0,0,1,.91-2.81,3.12,3.12,0,0,1,2.58-1.14,3,3,0,0,1,2.17.82,2.61,2.61,0,0,1,.81,2v.05H818a1.74,1.74,0,0,0-.48-1.24,1.54,1.54,0,0,0-1.18-.51,1.66,1.66,0,0,0-1.55.83,3.79,3.79,0,0,0-.49,2v.31a4,4,0,0,0,.48,2A1.68,1.68,0,0,0,816.37,200.08Z"/><path class="cls-1" d="M825.94,201.05q-.08-.36-.12-.63a5.27,5.27,0,0,1,0-.56,3.47,3.47,0,0,1-1,1,2.68,2.68,0,0,1-1.4.38,2.59,2.59,0,0,1-1.88-.63,2.29,2.29,0,0,1-.65-1.75,2,2,0,0,1,.91-1.77,4.31,4.31,0,0,1,2.5-.64h1.57v-.79a1.47,1.47,0,0,0-.43-1.1,1.66,1.66,0,0,0-1.2-.41,1.68,1.68,0,0,0-1.13.36,1,1,0,0,0-.44.84h-1.37v0a1.89,1.89,0,0,1,.81-1.58,3.79,3.79,0,0,1,4.39,0,2.43,2.43,0,0,1,.82,2v3.81a7.15,7.15,0,0,0,0,.82,4.9,4.9,0,0,0,.16.78Zm-2.4-1.05a2.57,2.57,0,0,0,1.42-.41,1.92,1.92,0,0,0,.82-.92v-1.29h-1.62a2.13,2.13,0,0,0-1.4.44,1.31,1.31,0,0,0-.52,1,1.11,1.11,0,0,0,.33.84A1.39,1.39,0,0,0,823.54,200Z"/><path class="cls-1" d="M830.6,193.13l.11,1.17a2.78,2.78,0,0,1,1-1,2.67,2.67,0,0,1,1.36-.35,2.59,2.59,0,0,1,2,.75,3.29,3.29,0,0,1,.71,2.32v5H834.3v-5a2.18,2.18,0,0,0-.41-1.49,1.69,1.69,0,0,0-1.27-.44,2.22,2.22,0,0,0-1.13.27,2,2,0,0,0-.73.75v5.88h-1.45v-7.92Z"/><path class="cls-1" d="M650.54,218.08a1.68,1.68,0,0,0,1.17-.45,1.38,1.38,0,0,0,.5-1.08h1.3l0,0a2.27,2.27,0,0,1-.88,1.82,3.36,3.36,0,0,1-4.68-.34,4.37,4.37,0,0,1-.91-2.83v-.31a4.35,4.35,0,0,1,.91-2.81,3.11,3.11,0,0,1,2.57-1.14,3,3,0,0,1,2.18.82,2.61,2.61,0,0,1,.81,2v.05h-1.31a1.74,1.74,0,0,0-.48-1.24,1.54,1.54,0,0,0-1.19-.51,1.66,1.66,0,0,0-1.54.83,3.79,3.79,0,0,0-.49,2v.31a4,4,0,0,0,.48,2A1.68,1.68,0,0,0,650.54,218.08Z"/><path class="cls-1" d="M660.12,219.05q-.07-.36-.12-.63a5.27,5.27,0,0,1,0-.56,3.47,3.47,0,0,1-1.05,1,2.68,2.68,0,0,1-1.4.38,2.63,2.63,0,0,1-1.89-.63,2.33,2.33,0,0,1-.64-1.75,2,2,0,0,1,.91-1.77,4.31,4.31,0,0,1,2.5-.64H660v-.79a1.47,1.47,0,0,0-.43-1.1,1.66,1.66,0,0,0-1.2-.41,1.68,1.68,0,0,0-1.13.36,1,1,0,0,0-.44.84h-1.37v0a1.86,1.86,0,0,1,.81-1.58,3.79,3.79,0,0,1,4.39,0,2.43,2.43,0,0,1,.82,2v3.81a7.15,7.15,0,0,0,0,.82,4.9,4.9,0,0,0,.16.78Zm-2.4-1.05a2.57,2.57,0,0,0,1.42-.41,1.92,1.92,0,0,0,.82-.92v-1.29h-1.62a2.13,2.13,0,0,0-1.4.44,1.31,1.31,0,0,0-.52,1,1.11,1.11,0,0,0,.33.84A1.39,1.39,0,0,0,657.72,218Z"/><path class="cls-1" d="M668.53,217.88a2.74,2.74,0,0,1-1,1,2.64,2.64,0,0,1-1.36.34,2.54,2.54,0,0,1-2-.82,3.88,3.88,0,0,1-.73-2.58v-4.67h1.45v4.68a3,3,0,0,0,.37,1.75,1.42,1.42,0,0,0,1.17.47,2.37,2.37,0,0,0,1.27-.31,2,2,0,0,0,.75-.88v-5.71h1.45v7.92h-1.3Z"/><path class="cls-1" d="M676.63,216.92a1,1,0,0,0-.37-.78,3.49,3.49,0,0,0-1.37-.52,5.79,5.79,0,0,1-2.15-.85,1.69,1.69,0,0,1-.75-1.45,2.11,2.11,0,0,1,.82-1.65A3.24,3.24,0,0,1,675,211a3.16,3.16,0,0,1,2.18.73,2.08,2.08,0,0,1,.8,1.71v0h-1.38a1.25,1.25,0,0,0-.45-.93,1.61,1.61,0,0,0-1.14-.42,1.64,1.64,0,0,0-1.14.35,1.08,1.08,0,0,0-.38.82.86.86,0,0,0,.33.72,3.57,3.57,0,0,0,1.34.47,5.84,5.84,0,0,1,2.21.87,1.76,1.76,0,0,1,.76,1.48,2.09,2.09,0,0,1-.85,1.72,3.56,3.56,0,0,1-2.23.66,3.48,3.48,0,0,1-2.39-.76,2.22,2.22,0,0,1-.83-1.8l0,0h1.37a1.36,1.36,0,0,0,.57,1.12,2.22,2.22,0,0,0,1.26.36,1.94,1.94,0,0,0,1.2-.33A1,1,0,0,0,676.63,216.92Z"/><path class="cls-1" d="M683.14,219.2a3.35,3.35,0,0,1-2.66-1.09,4.21,4.21,0,0,1-1-2.87v-.32a4.12,4.12,0,0,1,1-2.82,3.08,3.08,0,0,1,2.41-1.12,2.87,2.87,0,0,1,2.38,1,4.07,4.07,0,0,1,.8,2.63v.76H681l0,0a3.26,3.26,0,0,0,.52,1.93,1.84,1.84,0,0,0,1.61.75,3.63,3.63,0,0,0,1.29-.21,2.76,2.76,0,0,0,1-.58l.56.94a3.45,3.45,0,0,1-1.12.69A4.41,4.41,0,0,1,683.14,219.2Zm-.22-7.09a1.58,1.58,0,0,0-1.25.59,2.76,2.76,0,0,0-.61,1.49l0,0h3.57v-.11a2.31,2.31,0,0,0-.42-1.43A1.52,1.52,0,0,0,682.92,212.11Z"/><path class="cls-1" d="M694.59,218.08a1.68,1.68,0,0,0,1.17-.45,1.38,1.38,0,0,0,.5-1.08h1.3l0,0a2.27,2.27,0,0,1-.88,1.82,3.37,3.37,0,0,1-4.69-.34,4.42,4.42,0,0,1-.9-2.83v-.31a4.35,4.35,0,0,1,.91-2.81,3.1,3.1,0,0,1,2.57-1.14,3,3,0,0,1,2.17.82,2.59,2.59,0,0,1,.82,2v.05h-1.31a1.74,1.74,0,0,0-.48-1.24,1.54,1.54,0,0,0-1.19-.51,1.67,1.67,0,0,0-1.55.83,3.88,3.88,0,0,0-.48,2v.31a4,4,0,0,0,.48,2A1.68,1.68,0,0,0,694.59,218.08Z"/><path class="cls-1" d="M704.17,219.05q-.07-.36-.12-.63c0-.19,0-.37,0-.56a3.36,3.36,0,0,1-1,1,3,3,0,0,1-3.28-.25,2.33,2.33,0,0,1-.65-1.75,2.05,2.05,0,0,1,.92-1.77,4.31,4.31,0,0,1,2.5-.64H704v-.79a1.46,1.46,0,0,0-.42-1.1,1.66,1.66,0,0,0-1.2-.41,1.73,1.73,0,0,0-1.14.36,1.06,1.06,0,0,0-.43.84h-1.37v0a1.86,1.86,0,0,1,.81-1.58,3.79,3.79,0,0,1,4.39,0,2.46,2.46,0,0,1,.82,2v3.81a7.15,7.15,0,0,0,0,.82,4,4,0,0,0,.16.78Zm-2.4-1.05a2.56,2.56,0,0,0,1.41-.41,1.87,1.87,0,0,0,.82-.92v-1.29h-1.61a2.11,2.11,0,0,0-1.4.44,1.31,1.31,0,0,0-.52,1,1.11,1.11,0,0,0,.33.84A1.39,1.39,0,0,0,701.77,218Z"/><path class="cls-1" d="M711.29,212.4l-.74,0a1.65,1.65,0,0,0-1,.27,1.79,1.79,0,0,0-.61.76v5.66h-1.44v-7.92h1.29l.14,1.15a2.81,2.81,0,0,1,.83-1,1.94,1.94,0,0,1,1.14-.34l.31,0,.24.06Z"/><path class="cls-1" d="M712.32,215.23a5.32,5.32,0,0,1,.82-3.08,2.64,2.64,0,0,1,2.29-1.17,2.71,2.71,0,0,1,1.23.26,2.54,2.54,0,0,1,.92.74v-4.36H719v11.43h-1.11l-.22-1a2.54,2.54,0,0,1-1,.86,2.79,2.79,0,0,1-1.32.29,2.74,2.74,0,0,1-2.28-1,4.4,4.4,0,0,1-.82-2.76Zm1.45.16a3.33,3.33,0,0,0,.49,1.92,1.71,1.71,0,0,0,1.52.72,2,2,0,0,0,1.09-.29,2.19,2.19,0,0,0,.71-.82v-3.7a2.08,2.08,0,0,0-.72-.78,1.91,1.91,0,0,0-1.06-.29,1.66,1.66,0,0,0-1.54.86,4.4,4.4,0,0,0-.49,2.22Z"/><path class="cls-1" d="M722.74,209.1H721.3v-1.48h1.44Zm0,10H721.3v-7.92h1.44Z"/><path class="cls-1" d="M724.62,215a4.37,4.37,0,0,1,1-2.89,3.53,3.53,0,0,1,5.19,0,4.35,4.35,0,0,1,1,2.9v.17a4.38,4.38,0,0,1-1,2.9,3.23,3.23,0,0,1-2.6,1.12,3.19,3.19,0,0,1-2.59-1.13,4.31,4.31,0,0,1-1-2.89Zm1.44.17a3.72,3.72,0,0,0,.54,2.08,1.91,1.91,0,0,0,3.14,0,3.72,3.72,0,0,0,.54-2.08V215a3.71,3.71,0,0,0-.54-2.07,1.78,1.78,0,0,0-1.58-.83,1.73,1.73,0,0,0-1.56.83,3.71,3.71,0,0,0-.54,2.07Z"/><path class="cls-1" d="M736,216.71l.12.56h.05l.14-.56,1.82-5.58h1.47l-2.91,7.92h-1.09l-3-7.92h1.48Z"/><path class="cls-1" d="M745.68,219.05c0-.24-.09-.45-.11-.63a3.53,3.53,0,0,1-.05-.56,3.47,3.47,0,0,1-1,1,2.66,2.66,0,0,1-1.4.38,2.59,2.59,0,0,1-1.88-.63,2.29,2.29,0,0,1-.65-1.75,2,2,0,0,1,.92-1.77,4.25,4.25,0,0,1,2.49-.64h1.57v-.79a1.43,1.43,0,0,0-.43-1.1,1.66,1.66,0,0,0-1.2-.41,1.68,1.68,0,0,0-1.13.36,1,1,0,0,0-.44.84H741l0,0a1.91,1.91,0,0,1,.81-1.58,3.79,3.79,0,0,1,4.39,0,2.43,2.43,0,0,1,.82,2v3.81c0,.29,0,.56,0,.82a4,4,0,0,0,.17.78Zm-2.4-1.05a2.57,2.57,0,0,0,1.42-.41,1.92,1.92,0,0,0,.82-.92v-1.29H743.9a2.13,2.13,0,0,0-1.4.44,1.31,1.31,0,0,0-.52,1,1.11,1.11,0,0,0,.33.84A1.39,1.39,0,0,0,743.28,218Z"/><path class="cls-1" d="M753.66,216.92a1,1,0,0,0-.36-.78,3.49,3.49,0,0,0-1.37-.52,5.72,5.72,0,0,1-2.15-.85,1.69,1.69,0,0,1-.75-1.45,2.08,2.08,0,0,1,.82-1.65,3.64,3.64,0,0,1,4.32,0,2.14,2.14,0,0,1,.8,1.71l0,0h-1.38a1.25,1.25,0,0,0-.45-.93,1.6,1.6,0,0,0-1.13-.42,1.64,1.64,0,0,0-1.14.35,1,1,0,0,0-.38.82.88.88,0,0,0,.32.72,3.64,3.64,0,0,0,1.35.47,5.84,5.84,0,0,1,2.21.87,1.78,1.78,0,0,1,.76,1.48,2.1,2.1,0,0,1-.86,1.72,3.54,3.54,0,0,1-2.23.66,3.5,3.5,0,0,1-2.39-.76,2.21,2.21,0,0,1-.82-1.8v0h1.38a1.31,1.31,0,0,0,.57,1.12,2.19,2.19,0,0,0,1.25.36,2,2,0,0,0,1.21-.33A1,1,0,0,0,753.66,216.92Z"/><path class="cls-1" d="M760.05,218.08a1.68,1.68,0,0,0,1.16-.45,1.35,1.35,0,0,0,.5-1.08H763l0,0a2.3,2.3,0,0,1-.88,1.82,3.37,3.37,0,0,1-4.69-.34,4.42,4.42,0,0,1-.91-2.83v-.31a4.41,4.41,0,0,1,.91-2.81,3.12,3.12,0,0,1,2.58-1.14,3,3,0,0,1,2.17.82,2.59,2.59,0,0,1,.82,2l0,.05h-1.31a1.77,1.77,0,0,0-.47-1.24,1.56,1.56,0,0,0-1.19-.51,1.66,1.66,0,0,0-1.55.83,3.89,3.89,0,0,0-.49,2v.31a4,4,0,0,0,.48,2A1.68,1.68,0,0,0,760.05,218.08Z"/><path class="cls-1" d="M769.78,217.88a2.74,2.74,0,0,1-1,1,2.6,2.6,0,0,1-1.35.34,2.53,2.53,0,0,1-2-.82,3.82,3.82,0,0,1-.73-2.58v-4.67h1.45v4.68a3,3,0,0,0,.37,1.75,1.41,1.41,0,0,0,1.16.47,2.32,2.32,0,0,0,1.27-.31,1.92,1.92,0,0,0,.76-.88v-5.71h1.44v7.92h-1.29Z"/><path class="cls-1" d="M774.84,219.05h-1.45V207.62h1.45Z"/><path class="cls-1" d="M781.93,219.05q-.07-.36-.12-.63a5.27,5.27,0,0,1,0-.56,3.39,3.39,0,0,1-1.06,1,3,3,0,0,1-3.28-.25,2.33,2.33,0,0,1-.64-1.75,2,2,0,0,1,.91-1.77,4.31,4.31,0,0,1,2.5-.64h1.57v-.79a1.47,1.47,0,0,0-.43-1.1,1.66,1.66,0,0,0-1.2-.41,1.73,1.73,0,0,0-1.14.36,1.06,1.06,0,0,0-.43.84H777.2v0a1.86,1.86,0,0,1,.81-1.58,3.79,3.79,0,0,1,4.39,0,2.43,2.43,0,0,1,.82,2v3.81a7.15,7.15,0,0,0,0,.82,4.9,4.9,0,0,0,.16.78Zm-2.4-1.05a2.59,2.59,0,0,0,1.42-.41,1.92,1.92,0,0,0,.82-.92v-1.29h-1.62a2.13,2.13,0,0,0-1.4.44,1.31,1.31,0,0,0-.52,1,1.11,1.11,0,0,0,.33.84A1.39,1.39,0,0,0,779.53,218Z"/><path class="cls-1" d="M789.05,212.4l-.74,0a1.65,1.65,0,0,0-1,.27,1.7,1.7,0,0,0-.6.76v5.66H785.3v-7.92h1.29l.14,1.15a2.81,2.81,0,0,1,.83-1,1.94,1.94,0,0,1,1.14-.34l.31,0,.24.06Z"/><path class="cls-1" d="M794,215.23a5.24,5.24,0,0,1,.82-3.08,2.63,2.63,0,0,1,2.29-1.17,2.71,2.71,0,0,1,1.23.26,2.54,2.54,0,0,1,.92.74v-4.36h1.44v11.43h-1.1l-.22-1a2.54,2.54,0,0,1-1,.86,2.8,2.8,0,0,1-1.33.29,2.73,2.73,0,0,1-2.27-1,4.4,4.4,0,0,1-.82-2.76Zm1.45.16a3.33,3.33,0,0,0,.49,1.92,1.7,1.7,0,0,0,1.52.72,1.93,1.93,0,0,0,1.08-.29,2.13,2.13,0,0,0,.72-.82v-3.7a2.08,2.08,0,0,0-.72-.78,1.92,1.92,0,0,0-1.07-.29,1.65,1.65,0,0,0-1.53.86,4.4,4.4,0,0,0-.49,2.22Z"/><path class="cls-1" d="M804.37,209.1h-1.44v-1.48h1.44Zm0,10h-1.44v-7.92h1.44Z"/><path class="cls-1" d="M811.19,216.92a1,1,0,0,0-.36-.78,3.49,3.49,0,0,0-1.37-.52,5.79,5.79,0,0,1-2.15-.85,1.69,1.69,0,0,1-.75-1.45,2.08,2.08,0,0,1,.82-1.65,3.22,3.22,0,0,1,2.14-.69,3.18,3.18,0,0,1,2.18.73,2.11,2.11,0,0,1,.8,1.71l0,0h-1.37a1.25,1.25,0,0,0-.45-.93,1.61,1.61,0,0,0-1.14-.42,1.64,1.64,0,0,0-1.14.35,1.08,1.08,0,0,0-.38.82.86.86,0,0,0,.33.72,3.5,3.5,0,0,0,1.34.47,5.84,5.84,0,0,1,2.21.87,1.76,1.76,0,0,1,.76,1.48,2.1,2.1,0,0,1-.86,1.72,3.54,3.54,0,0,1-2.23.66,3.47,3.47,0,0,1-2.38-.76,2.19,2.19,0,0,1-.83-1.8v0h1.38a1.34,1.34,0,0,0,.57,1.12,2.21,2.21,0,0,0,1.25.36,2,2,0,0,0,1.21-.33A1,1,0,0,0,811.19,216.92Z"/><path class="cls-1" d="M817.71,219.2a3.35,3.35,0,0,1-2.66-1.09,4.17,4.17,0,0,1-1-2.87v-.32a4.08,4.08,0,0,1,1-2.82,3.08,3.08,0,0,1,2.41-1.12,2.88,2.88,0,0,1,2.38,1,4.06,4.06,0,0,1,.79,2.63v.76H815.6l0,0a3.26,3.26,0,0,0,.53,1.93,1.84,1.84,0,0,0,1.61.75,3.63,3.63,0,0,0,1.29-.21,2.86,2.86,0,0,0,1-.58l.56.94a3.57,3.57,0,0,1-1.12.69A4.41,4.41,0,0,1,817.71,219.2Zm-.22-7.09a1.56,1.56,0,0,0-1.25.59,2.76,2.76,0,0,0-.61,1.49l0,0h3.57v-.11a2.31,2.31,0,0,0-.42-1.43A1.54,1.54,0,0,0,817.49,212.11Z"/><path class="cls-1" d="M827.15,219.05c0-.24-.08-.45-.11-.63a5.29,5.29,0,0,1,0-.56,3.47,3.47,0,0,1-1,1,2.65,2.65,0,0,1-1.39.38,2.6,2.6,0,0,1-1.89-.63,2.33,2.33,0,0,1-.65-1.75,2.05,2.05,0,0,1,.92-1.77,4.29,4.29,0,0,1,2.5-.64H827v-.79a1.46,1.46,0,0,0-.42-1.1,1.68,1.68,0,0,0-1.2-.41,1.73,1.73,0,0,0-1.14.36,1,1,0,0,0-.43.84h-1.37v0a1.87,1.87,0,0,1,.8-1.58,3.38,3.38,0,0,1,2.23-.72,3.31,3.31,0,0,1,2.17.68,2.46,2.46,0,0,1,.82,2v3.81a7.15,7.15,0,0,0,0,.82,4,4,0,0,0,.16.78ZM824.76,218a2.56,2.56,0,0,0,1.41-.41,1.87,1.87,0,0,0,.82-.92v-1.29h-1.62a2.1,2.1,0,0,0-1.39.44,1.31,1.31,0,0,0-.52,1,1.07,1.07,0,0,0,.33.84A1.38,1.38,0,0,0,824.76,218Z"/><path class="cls-1" d="M835.14,216.92a1,1,0,0,0-.36-.78,3.55,3.55,0,0,0-1.38-.52,5.79,5.79,0,0,1-2.15-.85,1.69,1.69,0,0,1-.75-1.45,2.11,2.11,0,0,1,.82-1.65,3.25,3.25,0,0,1,2.14-.69,3.16,3.16,0,0,1,2.18.73,2.11,2.11,0,0,1,.8,1.71v0h-1.38a1.25,1.25,0,0,0-.45-.93,1.61,1.61,0,0,0-1.14-.42,1.64,1.64,0,0,0-1.14.35,1.08,1.08,0,0,0-.38.82.86.86,0,0,0,.33.72,3.65,3.65,0,0,0,1.34.47,5.89,5.89,0,0,1,2.22.87,1.77,1.77,0,0,1,.75,1.48,2.12,2.12,0,0,1-.85,1.72,3.56,3.56,0,0,1-2.23.66,3.5,3.5,0,0,1-2.39-.76,2.22,2.22,0,0,1-.83-1.8l0,0h1.37a1.36,1.36,0,0,0,.57,1.12,2.22,2.22,0,0,0,1.26.36,1.94,1.94,0,0,0,1.2-.33A1,1,0,0,0,835.14,216.92Z"/><path class="cls-1" d="M841.66,219.2a3.36,3.36,0,0,1-2.67-1.09,4.21,4.21,0,0,1-1-2.87v-.32a4.12,4.12,0,0,1,1-2.82,3.08,3.08,0,0,1,2.41-1.12,2.87,2.87,0,0,1,2.38,1,4.07,4.07,0,0,1,.8,2.63v.76h-5.07l0,0a3.26,3.26,0,0,0,.52,1.93,1.85,1.85,0,0,0,1.62.75,3.62,3.62,0,0,0,1.28-.21,2.76,2.76,0,0,0,.95-.58l.56.94a3.45,3.45,0,0,1-1.12.69A4.39,4.39,0,0,1,841.66,219.2Zm-.23-7.09a1.58,1.58,0,0,0-1.25.59,2.68,2.68,0,0,0-.6,1.49v0h3.57v-.11a2.31,2.31,0,0,0-.42-1.43A1.52,1.52,0,0,0,841.43,212.11Z"/><line class="cls-2" x1="268.12" y1="378.01" x2="177.09" y2="422.32"/><ellipse class="cls-1" cx="177.09" cy="422.32" rx="3.92" ry="3.98" transform="translate(-258.02 279.49) rotate(-49.08)"/><line class="cls-2" x1="577.95" y1="329.36" x2="625.95" y2="189.36"/><ellipse class="cls-1" cx="626.14" cy="189.08" rx="3.98" ry="3.92" transform="translate(-11.86 45) rotate(-4.08)"/><path class="cls-1" d="M495.81,175.24A352.11,352.11,0,0,1,552.37,252c23.43,42.67,37.88,88.07,37.8,137-.07,39-1.85,78.07-12.53,116a100.42,100.42,0,0,1-7.34,18.09c-8,15.72-21.36,23.23-38.73,23.73-20.27.59-40.17-2.52-59.84-7.06-63.35-14.61-115.91-47.57-160.13-94.63a429.71,429.71,0,0,1-49.07-63.78c-5.44-8.54-9.24-17.62-9.61-27.93-.42-11.58,4.26-20.6,14.07-26.46,5.87-3.5,12.37-6,18.66-8.78,24.85-11.07,48.23-24.4,67.66-43.85a118.68,118.68,0,0,0,27.25-42.77C397,187.88,421.13,149.27,457.25,119a148.7,148.7,0,0,1,62-31.43c20.73-4.89,32.55,2.76,36.33,23.64,2.92,16.13-1.58,24.58-16.6,31.16C522.18,149.75,504.74,162.94,495.81,175.24Z"/><path class="cls-1" d="M349.61,255.92a279.14,279.14,0,0,1-20.14-57.74c-6.57-28.13-.8-54.67,9.25-80.83,3.44-9,6.66-18,9.76-27.09,3.72-10.87,3.24-21.77-.4-32.58-1.21-3.61-2.28-7.27-3.66-10.81-4-10.31-.91-18.81,6.5-26.22,6.93-6.94,13.42-6.07,18.81,2.14a63.29,63.29,0,0,0,8,10.25c3.52,3.48,7.74,6.35,13.17,4.34,5.23-1.93,6.43-6.83,6.95-11.47.62-5.56.34-11.23.27-16.85-.06-4.29.38-8.32,5.59-9,4-.52,7,3.41,7.62,8.5s1.1,10.59,3,15.39a14.41,14.41,0,0,0,7.35,7.56c4.2,1.59,8.06-1.16,10.65-4.81a26.33,26.33,0,0,0,4.77-18C436.55,3,438.36,0,442.42,0c3.89,0,6,3.27,5.92,8.69,0,3.06.18,6.14.44,9.21.47,5.58,3.64,8.92,8.52,11.63a315.65,315.65,0,0,1,29.23,17.68c7.91,5.57,13.47,13.53,17.71,23-9.79,4.37-19.14,8.66-28.64,12.62-1.26.52-3.38-.43-4.86-1.17-10.27-5.11-20.93-8-32.54-6.89-8.35.77-15.17,4.36-17.79,12.2-3.53,10.57-7.46,21.57-7.82,32.5-.5,15.5-4.79,28.27-14.14,40.74-14.95,20-25.54,42.45-33.37,66.28-3.4,10.37-8.74,20.1-13.19,30.12Z"/><path class="cls-1" d="M334.55,271.65a253.54,253.54,0,0,1-52.46,31.29c-6.3,2.76-13,5-18.63,8.83-7.52,5.1-14.17,11.48-21.77,17.79-.3-8-1.29-16.88-.85-25.68,1.51-30,12.13-57.22,26.82-83.09,1.45-2.56,1.5-5.94,2-9,1.66-9.25,2.8-18.62,5-27.74,2.69-11.27,6.63-22.24,9.27-33.51s-1.26-19.65-10.91-26.14a6.28,6.28,0,0,1-2.48-4.14c-.92-10.81,5.23-18.13,16.44-19.88a34.31,34.31,0,0,1,3.8-.26c15.1-.55,19.86,2.87,23.34,17.6,3.82,16.16,3.54,32.68.56,48.72-4.82,26,.28,50.51,8.44,74.8C326.54,251.38,330.62,261.25,334.55,271.65Z"/><path d="M522.84,276c0-6.43,1.77-11.53,6.24-15.35a7.75,7.75,0,0,1,4.35-1.82c3.48-.12,7.48,1.35,10.31.06,2.4-1.09,3.46-5.14,5.2-8l8.84,10.46c-5.61,5-10.7,9.79-19.18,7.9-4.94-1.1-8.26,2.63-8,7.88.15,3.33.57,6.65.92,10.6L517.62,282c-2.74,3.59-5.66,7-8.09,10.72a10.4,10.4,0,0,1-8,5.1,84.32,84.32,0,0,0-12,2.37,4.91,4.91,0,0,0-2.94,3.19c-.9,5.26-.79,10.36,3.34,14.64a7.32,7.32,0,0,1,1.41,8.78c-1.49,3.09-.26,5.33,2.43,6.9,3.21,1.88,4,4.17,2,7.51-2.77,4.64-3.45,9.65-3,15.08.16,2-1.46,4.64-3.05,6.17-2.54,2.42-4.07,4.9-3.38,8.38,1.12,5.67-2,9.22-5.4,13.26-3.86,4.54-6.55,10.11-9.5,15.36-.52.92-.09,2.56.25,3.76,2,6.8,4,13.57,5.56,20.88-2.53-3.72-5.24-7.33-7.53-11.19-1.16-1.95-1.33-4.48-2.37-6.54-2-4-2.06-7.59.8-11.26a11.56,11.56,0,0,0,1.81-4.86c1.06-5.9,3.13-11.06,8.36-14.66a5.07,5.07,0,0,0,1.5-4.43c-2.18-7.27.69-12.66,4.42-18.82,2.65-4.38,1.94-10.83,2.56-16.38.06-.58-1-1.39-1.66-1.92-3.32-2.63-5.3-5.15-4.28-10.25.48-2.43-3.56-5.9-5.9-8.6-.34-.39-3.27.47-3.85,1.44A92.26,92.26,0,0,0,464.9,329c-2.39,5.92-4.32,12-6.57,18.4L447,343.27a100.78,100.78,0,0,0-1.11,10.3c0,3.37-1.5,5.11-4.42,6.58-6.48,3.25-6.39,3.39-12.08-1.65-.84-.74-1.83-1.31-3.5-2.48.09,8.94-6.49,11.26-12.4,14.33-6.27,3.26-8.36,8.24-6.29,15.34,1,3.57,1.93,6.88,0,10.5a4.16,4.16,0,0,0,.62,3.87c3.25,3.07,4.12,6.7,4,11-.09,2.34.78,4.71,1.21,7.07l-1.3.45c-1.42-3.37-2.72-6.79-4.3-10.07-1-2.17-2.53-4.11-3.73-6.2-.67-1.17-2-3.05-1.62-3.58,4-5.52.88-10.27-1.46-15.55-3.87,4.64-5.81,12-14.16,9.5-.76,3.54-1.11,6.61-2.12,9.45s-2.77,5.47-4.05,8.26a9.07,9.07,0,0,0-1,3.93c.21,4.05.7,8.09.26,12.4-2-5.08-4.09-10.14-5.92-15.29a3.26,3.26,0,0,1,1.22-2.8c3.79-2.42,4.06-6,3.86-9.93-.16-3.18-.09-6.37-.12-10.05l12.81-.9c2.25-12.71,11.48-18.65,22.13-23,3.34-1.35,5.27-3.23,5.91-6.7.32-1.71,1.18-3.32,1.45-5,.75-4.66,3.51-6.69,8.23-6.63l3.19,5.51c5.81-1.25,5.85-1.32,5-9.38-3.9-1.13-7.62-2-11.2-3.34a8.22,8.22,0,0,1-3.5-3c-4.11-5.9-9.82-5.79-12.8-.21-4.87-.08-9.44,0-14-.32a5,5,0,0,1-3-2c-1.78-2.27-3.32-4.72-5-7.16-.61.51-1.12.72-1.2,1.05-1.33,4.87-3.65,7.62-9.51,6.6-2.54-.45-5.49,1.4-8.49,2.28-1.48-1.75-3-3.73-4.7-5.46-.81-.8-2.24-1.69-3.2-1.51-3.4.63-4.76-.87-6.21-3.79-1.78-3.6-4.57-6.72-6.59-9.58,6,.84,6,.84,9.61,9.47,5.61-3.3,6.34,2.87,9,4.72,8.89-1.85,17-4.88,23-13l6.06,11.55,9.22.43c.43-1.73,1-3.8,1.7-6.74,5,5.73,9.55,1.14,14.47-.31,1.2,3.76,2.26,7.5,7.66,5.79.16,2.86.3,5.27.5,8.64,3.12-.71,6.14-1,8.82-2.1,4.52-1.89,8.57-2.18,12.35,1.41a18.18,18.18,0,0,0,2.41,1.47c1.23-6.13,2.14-11.85,3.63-17.41a12.11,12.11,0,0,1,3.88-6.22c5-3.8,9.59-9,16.67-6.57.49-.83.75-1.07.75-1.31.11-8.65,4.5-13.06,13.12-13.45,1.42-.07,2.81-.92,4.23-1,6.33-.36,9.24-4.42,11.11-10.21-1.94-.47-4.05-1.69-5.78-1.29-7.68,1.81-14.71-.69-21.76-2.84a23.35,23.35,0,0,0-13.27-.47c-4,1.08-7.89.95-11.68-1.36-2.31-1.41-5.09-2-7-2.74-4.58,5.26-8.84,10.1-13,15-1.57,1.83-3.12,2.23-5.22.73-3.06-2.18-6.85-3.63-9.32-6.32-6.29-6.86-13.82-5.34-21.37-4-2.93.52-5.72,1.8-8.57,2.74l-.57-1.24c6.09-3.11,12.12-6.37,18.33-9.2,1.3-.59,3.62-.09,4.95.74,3.56,2.24,6.82,5,10.23,7.44,4.66,3.41,11.86,2.13,14.69-3a26.5,26.5,0,0,1,9.39-10c2.23-1.41,3.74-1.82,5.62.21a9.64,9.64,0,0,0,9.75,3.09c5-1,10.14-1.26,15.08-2.42,4-.92,6.7-.26,8.46,3.52a19,19,0,0,0,1.59,2.32,8.06,8.06,0,0,0,2.47-.59c3.58-2.18,6.54-1.28,9.22,1.58,2.07,2.22,4.41,2.46,7,.87C511.42,270.26,517.31,269.32,522.84,276Z"/></g></g></svg>