<svg xmlns="http://www.w3.org/2000/svg" viewBox="0 0 188.09 125.93"><defs><style>.cls-1{fill:#fff;}.cls-2{fill:none;stroke:#fff;stroke-miterlimit:10;}</style></defs><title>immune</title><g id="Layer_2" data-name="Layer 2"><g id="Layer_1-2" data-name="Layer 1"><path class="cls-1" d="M42.71,11.43V.76H46.2a5.57,5.57,0,0,1,3.1.74,2.45,2.45,0,0,1,1.11,2.19A2.52,2.52,0,0,1,50.05,5,2.12,2.12,0,0,1,49,5.93a2.26,2.26,0,0,1,1.41.85,2.55,2.55,0,0,1,.45,1.49,2.8,2.8,0,0,1-1,2.36,4.9,4.9,0,0,1-3,.8Zm2.47-6.22h1a2.37,2.37,0,0,0,1.33-.31A1.05,1.05,0,0,0,47.93,4a1.16,1.16,0,0,0-.42-1,2.22,2.22,0,0,0-1.31-.31h-1Zm0,1.64V9.52h1.59A1.88,1.88,0,0,0,48,9.21a1.17,1.17,0,0,0,.4-1,1.43,1.43,0,0,0-.35-1,1.64,1.64,0,0,0-1.15-.37H45.18Z"/><path class="cls-1" d="M56.51,5.61H55.7a1.41,1.41,0,0,0-.69.16,1,1,0,0,0-.41.44v5.23H52.13V3.5h2.33l.08,1.17a2.45,2.45,0,0,1,.66-1,1.48,1.48,0,0,1,1-.35,1.26,1.26,0,0,1,.3,0l.28.06Z"/><path class="cls-1" d="M62,11.42a3,3,0,0,1-.23-.57,3.61,3.61,0,0,1-.15-.65,3,3,0,0,1-.8,1,1.92,1.92,0,0,1-1.23.38,2.74,2.74,0,0,1-1.94-.64A2.27,2.27,0,0,1,57,9.19a2.12,2.12,0,0,1,.88-1.82,4.58,4.58,0,0,1,2.69-.64h1V6.17a1.14,1.14,0,0,0-.24-.78,1,1,0,0,0-.74-.27.91.91,0,0,0-.64.2.84.84,0,0,0-.21.63h-2.4l0,0a2.08,2.08,0,0,1,.91-1.82,4.06,4.06,0,0,1,2.52-.73,3.68,3.68,0,0,1,2.38.74A2.52,2.52,0,0,1,64,6.18v3a6.15,6.15,0,0,0,.1,1.17,6.69,6.69,0,0,0,.32,1.09ZM60.25,9.81a1.52,1.52,0,0,0,.8-.21,1.23,1.23,0,0,0,.49-.5v-1h-1a1.1,1.1,0,0,0-.85.28,1,1,0,0,0-.27.73.73.73,0,0,0,.23.55A.87.87,0,0,0,60.25,9.81Z"/><path class="cls-1" d="M68,1.66H65.48V0H68Zm0,9.77H65.48V3.5H68Z"/><path class="cls-1" d="M71.76,3.5l.09,1.11a2.9,2.9,0,0,1,1-.92,2.52,2.52,0,0,1,1.28-.34,2.25,2.25,0,0,1,1.82.8,3.93,3.93,0,0,1,.65,2.51v4.77H74.09V6.65a1.74,1.74,0,0,0-.25-1.07.83.83,0,0,0-.7-.32,1.8,1.8,0,0,0-.71.14,1.38,1.38,0,0,0-.53.39v5.64H69.44V3.5Z"/><path class="cls-1" d="M84.41,11.43H82V.76h2.46Z"/><path class="cls-1" d="M88.45,3.5l.09,1a2.55,2.55,0,0,1,.94-.88,2.64,2.64,0,0,1,1.3-.32,2.35,2.35,0,0,1,1.27.33,1.94,1.94,0,0,1,.81,1,2.56,2.56,0,0,1,2.28-1.31A2.19,2.19,0,0,1,97,4.19a4.06,4.06,0,0,1,.67,2.56v4.68H95.14V6.75a2,2,0,0,0-.24-1.17.82.82,0,0,0-.71-.32,1.39,1.39,0,0,0-.63.13,1.26,1.26,0,0,0-.47.35,1.41,1.41,0,0,0,0,.22c0,.06,0,.12,0,.18v5.29H90.63V6.75a2.16,2.16,0,0,0-.23-1.18.85.85,0,0,0-.73-.31,1.36,1.36,0,0,0-.61.13,1.23,1.23,0,0,0-.46.35v5.69H86.12V3.5Z"/><path class="cls-1" d="M101.37,3.5l.09,1a2.48,2.48,0,0,1,.94-.88,2.64,2.64,0,0,1,1.3-.32,2.35,2.35,0,0,1,1.27.33,1.94,1.94,0,0,1,.81,1,2.56,2.56,0,0,1,2.28-1.31,2.19,2.19,0,0,1,1.82.84,4.06,4.06,0,0,1,.67,2.56v4.68h-2.49V6.75a2,2,0,0,0-.24-1.17.82.82,0,0,0-.71-.32,1.39,1.39,0,0,0-.63.13,1.26,1.26,0,0,0-.47.35A1.41,1.41,0,0,0,106,6c0,.06,0,.12,0,.18v5.29h-2.48V6.75a2.16,2.16,0,0,0-.23-1.18.85.85,0,0,0-.73-.31,1.36,1.36,0,0,0-.61.13,1.23,1.23,0,0,0-.46.35v5.69H99V3.5Z"/><path class="cls-1" d="M116.73,10.24a2.5,2.5,0,0,1-.91,1,2.4,2.4,0,0,1-1.29.35,2.37,2.37,0,0,1-1.93-.86A4.21,4.21,0,0,1,111.9,8V3.5h2.47V8.06a2.37,2.37,0,0,0,.24,1.27.83.83,0,0,0,.73.35,2.1,2.1,0,0,0,.7-.11,1.5,1.5,0,0,0,.51-.33V3.5H119v7.93h-2Z"/><path class="cls-1" d="M122.67,3.5l.09,1.11a2.9,2.9,0,0,1,1-.92A2.52,2.52,0,0,1,125,3.35a2.25,2.25,0,0,1,1.82.8,3.93,3.93,0,0,1,.65,2.51v4.77H125V6.65a1.74,1.74,0,0,0-.25-1.07.83.83,0,0,0-.7-.32,1.8,1.8,0,0,0-.71.14,1.38,1.38,0,0,0-.53.39v5.64h-2.46V3.5Z"/><path class="cls-1" d="M132.34,11.58a3.67,3.67,0,0,1-2.83-1.09,3.89,3.89,0,0,1-1-2.76V7.45a4.45,4.45,0,0,1,1-3,3.46,3.46,0,0,1,2.79-1.14,3.22,3.22,0,0,1,2.49,1,3.78,3.78,0,0,1,.88,2.63v1.3h-4.54l0,0a1.55,1.55,0,0,0,.47,1,1.57,1.57,0,0,0,1.15.39,5,5,0,0,0,1.19-.12,7.11,7.11,0,0,0,1.08-.38l.59,1.51a4.44,4.44,0,0,1-1.38.63A6.34,6.34,0,0,1,132.34,11.58Zm-.1-6.32a1,1,0,0,0-.87.38,1.87,1.87,0,0,0-.33,1v0h2.14V6.5a1.68,1.68,0,0,0-.21-.93A.84.84,0,0,0,132.24,5.26Z"/><path class="cls-1" d="M144.52,9.2a.63.63,0,0,0-.33-.52A3.41,3.41,0,0,0,143,8.26a4.74,4.74,0,0,1-2.09-.84,1.89,1.89,0,0,1-.7-1.56,2.23,2.23,0,0,1,.88-1.78,3.64,3.64,0,0,1,2.38-.73,4.12,4.12,0,0,1,2.52.71,2.08,2.08,0,0,1,.89,1.83l0,0h-2.4a1,1,0,0,0-.23-.71,1.06,1.06,0,0,0-.77-.24,1,1,0,0,0-.65.21.67.67,0,0,0-.27.54.65.65,0,0,0,.31.54,3.38,3.38,0,0,0,1.22.4,4.93,4.93,0,0,1,2.16.85,2,2,0,0,1,.69,1.61,2.08,2.08,0,0,1-1,1.76,4.14,4.14,0,0,1-2.5.69,3.73,3.73,0,0,1-2.56-.82,2.26,2.26,0,0,1-.9-1.83v0h2.24a1,1,0,0,0,.35.82,1.5,1.5,0,0,0,.92.25,1.25,1.25,0,0,0,.76-.2A.64.64,0,0,0,144.52,9.2Z"/><path class="cls-1" d="M151.14,7.93V8h.05L152.5,3.5h2.64L152,12.6a4.5,4.5,0,0,1-.95,1.46,2.51,2.51,0,0,1-1.83.57,3.48,3.48,0,0,1-.53,0l-.65-.15.3-1.77.16,0h.13a1.61,1.61,0,0,0,.86-.17,1,1,0,0,0,.4-.51l.2-.52-2.74-8H150Z"/><path class="cls-1" d="M159.91,9.2a.63.63,0,0,0-.33-.52,3.41,3.41,0,0,0-1.21-.42,4.74,4.74,0,0,1-2.09-.84,1.89,1.89,0,0,1-.7-1.56,2.25,2.25,0,0,1,.87-1.78,3.66,3.66,0,0,1,2.38-.73,4.08,4.08,0,0,1,2.52.71,2.07,2.07,0,0,1,.9,1.83l0,0h-2.4a1,1,0,0,0-.23-.71,1.06,1.06,0,0,0-.77-.24,1,1,0,0,0-.65.21.67.67,0,0,0-.27.54.65.65,0,0,0,.31.54,3.38,3.38,0,0,0,1.22.4,5,5,0,0,1,2.16.85,2,2,0,0,1,.69,1.61,2.11,2.11,0,0,1-.95,1.76,4.17,4.17,0,0,1-2.51.69,3.77,3.77,0,0,1-2.56-.82,2.28,2.28,0,0,1-.89-1.83v0h2.24a1,1,0,0,0,.34.82,1.56,1.56,0,0,0,.93.25,1.22,1.22,0,0,0,.75-.2A.63.63,0,0,0,159.91,9.2Z"/><path class="cls-1" d="M166.3,1.53v2h1.25V5.21H166.3V8.85a.93.93,0,0,0,.17.61.62.62,0,0,0,.47.19l.3,0,.29-.06.17,1.83a5.51,5.51,0,0,1-.68.14,4.87,4.87,0,0,1-.71,0,2.48,2.48,0,0,1-1.85-.65,2.87,2.87,0,0,1-.64-2.07V5.21h-1.1V3.5h1.1v-2Z"/><path class="cls-1" d="M172.27,11.58a3.68,3.68,0,0,1-2.83-1.09,3.89,3.89,0,0,1-1-2.76V7.45a4.45,4.45,0,0,1,1-3,3.47,3.47,0,0,1,2.79-1.14,3.22,3.22,0,0,1,2.49,1,3.73,3.73,0,0,1,.88,2.63v1.3H171v0a1.49,1.49,0,0,0,.46,1,1.57,1.57,0,0,0,1.15.39,5,5,0,0,0,1.19-.12,7.11,7.11,0,0,0,1.08-.38l.59,1.51a4.44,4.44,0,0,1-1.38.63A6.34,6.34,0,0,1,172.27,11.58Zm-.1-6.32a1,1,0,0,0-.87.38,1.87,1.87,0,0,0-.33,1l0,0h2.13V6.5a1.68,1.68,0,0,0-.21-.93A.84.84,0,0,0,172.17,5.26Z"/><path class="cls-1" d="M178.92,3.5l.09,1a2.48,2.48,0,0,1,.94-.88,2.61,2.61,0,0,1,1.3-.32,2.38,2.38,0,0,1,1.27.33,1.94,1.94,0,0,1,.81,1,2.48,2.48,0,0,1,.94-1,2.55,2.55,0,0,1,1.34-.35,2.19,2.19,0,0,1,1.82.84,4.07,4.07,0,0,1,.66,2.56v4.68h-2.48V6.75a2,2,0,0,0-.24-1.17.83.83,0,0,0-.71-.32,1.39,1.39,0,0,0-.63.13,1.26,1.26,0,0,0-.47.35,1.41,1.41,0,0,0,0,.22c0,.06,0,.12,0,.18v5.29H181.1V6.75a2.16,2.16,0,0,0-.23-1.18.85.85,0,0,0-.73-.31,1.36,1.36,0,0,0-.61.13,1.35,1.35,0,0,0-.47.35v5.69h-2.47V3.5Z"/><line class="cls-2" x1="0.46" y1="125.74" x2="40.46" y2="30.74"/><circle class="cls-1" cx="40.46" cy="30.74" r="4"/></g></g></svg>