<svg xmlns="http://www.w3.org/2000/svg" viewBox="0 0 419.86 465.4"><defs><style>.cls-1{fill:#fff;}</style></defs><title>night</title><g id="Layer_2" data-name="Layer 2"><g id="Layer_1-2" data-name="Layer 1"><path class="cls-1" d="M87.5,99.53h-23V59.47H27.62V99.53H4.51V0H27.62V41.7H64.46V0h23Z"/><path class="cls-1" d="M144.72,99.46a27.27,27.27,0,0,1-2.22-5.26,40,40,0,0,1-1.41-6.15,28.2,28.2,0,0,1-7.41,9.4Q129.27,101,122.16,101q-11.62,0-18.08-6T97.62,78.68q0-11,8.27-17t25.09-6h9.5V50.45c0-3.15-.75-5.56-2.26-7.25s-3.8-2.53-6.9-2.53q-4,0-6,1.88t-2,5.85L101,48.33l-.14-.41q-.48-10.11,8.44-16.92t23.55-6.8q13.74,0,22.25,6.84t8.51,19.55V78.48a56.05,56.05,0,0,0,1,10.93,58.4,58.4,0,0,0,3,10.12Zm-16.27-15a14.07,14.07,0,0,0,7.48-2,11.31,11.31,0,0,0,4.55-4.72V68h-9.3q-5.54,0-8,2.66a9.61,9.61,0,0,0-2.46,6.77,6.51,6.51,0,0,0,2.16,5.09A8,8,0,0,0,128.45,84.49Z"/><path class="cls-1" d="M202.89,69l1.37,7.86.41.07,1.5-7.93L216,25.57h24.26l-24.06,74H192.71l-24.07-74H193Z"/><path class="cls-1" d="M279.11,101q-16.82,0-26.35-10.19T243.22,65v-2.6q0-16.95,9-27.62t26-10.59q15,0,23.21,9t8.24,24.55V69.79H267.29l-.14.42a14.31,14.31,0,0,0,4.31,9.39q3.75,3.6,10.8,3.59a46.8,46.8,0,0,0,11-1.09,69,69,0,0,0,10.08-3.49l5.54,14.09a42.29,42.29,0,0,1-12.86,5.87A59.05,59.05,0,0,1,279.11,101Zm-.89-59c-3.69,0-6.41,1.18-8.17,3.52S267.29,51,267,55l.14.34h20V53.59c0-3.82-.67-6.72-2-8.68S281.46,42,278.22,42Z"/><path class="cls-1" d="M397,99.46a27.91,27.91,0,0,1-2.22-5.26,39.94,39.94,0,0,1-1.4-6.15,28.35,28.35,0,0,1-7.42,9.4Q381.58,101,374.47,101q-11.62,0-18.08-6t-6.46-16.31q0-11,8.27-17t25.09-6h9.5V50.45c0-3.15-.75-5.56-2.25-7.25s-3.81-2.53-6.91-2.53q-4,0-6,1.88T375.7,48.4l-22.42-.07-.14-.41q-.47-10.11,8.45-16.92t23.55-6.8q13.74,0,22.25,6.84t8.51,19.55V78.48a56.86,56.86,0,0,0,1,10.93,58.4,58.4,0,0,0,3,10.12Zm-16.27-15a14.11,14.11,0,0,0,7.49-2,11.28,11.28,0,0,0,4.54-4.72V68H383.5c-3.7,0-6.36.89-8,2.66A9.61,9.61,0,0,0,373,77.45a6.5,6.5,0,0,0,2.15,5.09A8,8,0,0,0,380.76,84.49Z"/><path class="cls-1" d="M0,230.69q0-17.3,7.55-27.9t21.3-10.59A18.94,18.94,0,0,1,39.1,195a24.39,24.39,0,0,1,7.66,7.82l1.5-9.22H68.63v73.14q0,14.63-10,22.66T31,297.4a49.61,49.61,0,0,1-12-1.57,67.26,67.26,0,0,1-12-4.24l4-17.09a54.87,54.87,0,0,0,9.53,3.25,46,46,0,0,0,10.43,1.06q7.38,0,11-2.94t3.59-9.3v-5.74a21.17,21.17,0,0,1-7.28,6.09A21.14,21.14,0,0,1,28.71,269Q15,269,7.52,258.85T0,232.12Zm23,1.43q0,9,2.63,14t8.92,5A16.18,16.18,0,0,0,41.05,250a10.52,10.52,0,0,0,4.41-3.49v-31.1a11.53,11.53,0,0,0-4.38-4.07,13.5,13.5,0,0,0-6.35-1.4,9.28,9.28,0,0,0-8.92,5.71Q23,221.4,23,230.69Z"/><path class="cls-1" d="M78.75,229.87q0-16.68,9.43-27.18T114.5,192.2q16.95,0,26.39,10.49t9.43,27.18v1.43q0,16.75-9.43,27.21T114.64,269q-17,0-26.46-10.46T78.75,231.3Zm23.11,1.43q0,9.3,2.9,14.6t9.88,5.29q6.77,0,9.71-5.33c2-3.55,2.94-8.41,2.94-14.56v-1.43c0-6-1-10.84-2.94-14.46S119.1,210,114.5,210s-7.8,1.83-9.74,5.47-2.9,8.46-2.9,14.43Z"/><path class="cls-1" d="M157.43,229.87q0-16.68,9.44-27.18t26.31-10.49q17,0,26.39,10.49T229,229.87v1.43q0,16.75-9.43,27.21T193.32,269q-17,0-26.45-10.46t-9.44-27.21Zm23.11,1.43q0,9.3,2.9,14.6t9.88,5.29q6.77,0,9.71-5.33T206,231.3v-1.43q0-9-2.94-14.46T193.18,210q-6.83,0-9.74,5.47t-2.9,14.43Z"/><path class="cls-1" d="M236.11,230.69q0-17.3,7.56-27.9T265,192.2a18.35,18.35,0,0,1,9.26,2.36,24.55,24.55,0,0,1,7.42,6.73v-40.4h23.11V267.53H284.51l-1.57-9a24.82,24.82,0,0,1-7.83,7.76,19.51,19.51,0,0,1-10.29,2.7q-13.66,0-21.19-10.12t-7.52-26.73Zm23.11,1.43q0,9,2.63,14c1.75,3.35,4.71,5,8.85,5a14.51,14.51,0,0,0,6.39-1.33,11.42,11.42,0,0,0,4.55-3.93V216.06a12.6,12.6,0,0,0-4.51-4.52,12.47,12.47,0,0,0-6.29-1.57,9.23,9.23,0,0,0-8.89,5.68q-2.73,5.67-2.73,15Z"/><path class="cls-1" d="M24.4,361.57,25.29,372a26.77,26.77,0,0,1,9-8.65,23.19,23.19,0,0,1,11.89-3.11q10.88,0,17,7.38T69.25,391v44.5H46.14V391q0-7-2.25-10a7.73,7.73,0,0,0-6.57-3,16.34,16.34,0,0,0-6.63,1.3A13.31,13.31,0,0,0,25.77,383v52.57h-23v-74Z"/><path class="cls-1" d="M106,344.41H82.85V328.89H106Zm0,91.12H82.85v-74H106Z"/><path class="cls-1" d="M117,398.69q0-17.29,7.55-27.9t21.3-10.59A18.94,18.94,0,0,1,156.13,363a24.39,24.39,0,0,1,7.66,7.82l1.5-9.22h20.37v73.14q0,14.63-10,22.66t-27.58,8a49.47,49.47,0,0,1-12-1.57,67.08,67.08,0,0,1-12-4.24l4-17.09a54.87,54.87,0,0,0,9.53,3.25,46.06,46.06,0,0,0,10.43,1.06q7.38,0,11-2.94t3.59-9.3v-5.74A20,20,0,0,1,145.74,437q-13.67,0-21.19-10.12T117,400.12Zm23,1.43q0,9,2.63,14.05t8.92,5a16.18,16.18,0,0,0,6.46-1.16,10.52,10.52,0,0,0,4.41-3.49v-31.1a11.58,11.58,0,0,0-4.37-4.07,13.57,13.57,0,0,0-6.36-1.4,9.29,9.29,0,0,0-8.92,5.71q-2.78,5.71-2.77,15Z"/><path class="cls-1" d="M221.28,370.73a24.43,24.43,0,0,1,8.17-7.76,20.9,20.9,0,0,1,10.63-2.77q11.47,0,18,8T264.69,393v42.52H241.58V392.88q0-8.49-2.19-11.69a7.45,7.45,0,0,0-6.63-3.22A18.48,18.48,0,0,0,226,379.1a12.16,12.16,0,0,0-4.72,3.18v53.25H198.17V328.89h23.11Z"/><path class="cls-1" d="M304.06,343.18v18.39h11.69v16H304.06v33.91q0,4,1.61,5.71a5.62,5.62,0,0,0,4.34,1.74,21.6,21.6,0,0,0,2.84-.14,25.44,25.44,0,0,0,2.7-.54l1.57,17.09a56.28,56.28,0,0,1-6.29,1.26,50.72,50.72,0,0,1-6.63.38q-11.42,0-17.33-6.09T281,411.61V377.56H270.63v-16H281V343.18Z"/></g></g></svg>