<svg xmlns="http://www.w3.org/2000/svg" viewBox="0 0 536.59 491.12"><defs><style>.cls-1{fill:#fff;}</style></defs><title>Asset 15</title><g id="Layer_2" data-name="Layer 2"><g id="Layer_1-2" data-name="Layer 1"><path class="cls-1" d="M285.1,181.11c0-24.75-16.81-38.13-40.72-38.13-22.26,0-38.57,11.54-55.14,28l-49-44.79c28.48-32.4,68.19-55,115.32-55,65.08,0,114.68,32.18,114.68,103.72,0,74.53-90.89,97.41-83.77,169H208.72C196.4,261,285.1,226.89,285.1,181.11Zm-91.26,254.1c0-31.67,22.85-56.1,53.7-56.1s53.67,24.43,53.67,56.1c0,31.48-22.85,55.91-53.67,55.91S193.84,466.69,193.84,435.21Z"/><path class="cls-1" d="M499.6,47.74c0-10.75-7.3-16.56-17.69-16.56-9.67,0-16.75,5-24,12.15L436.68,23.88C449.05,9.8,466.3,0,486.77,0,515,0,536.59,14,536.59,45.05c0,32.38-39.48,42.32-36.39,73.4H466.42C461.07,82.43,499.6,67.63,499.6,47.74ZM460,158.13c0-13.76,9.92-24.38,23.32-24.38s23.32,10.62,23.32,24.38-9.93,24.28-23.32,24.28S460,171.8,460,158.13Z"/><path class="cls-1" d="M36.41,132.94c0-6.23-4.23-9.59-10.24-9.59-5.59,0-9.69,2.9-13.86,7L0,119.13c7.16-8.15,17.14-13.82,29-13.82,16.36,0,28.83,8.09,28.83,26.07,0,18.73-22.84,24.48-21.06,42.47H17.21C14.11,153,36.41,144.44,36.41,132.94ZM13.47,196.8c0-8,5.74-14.1,13.5-14.1s13.49,6.14,13.49,14.1S34.71,210.86,27,210.86,13.47,204.72,13.47,196.8Z"/></g></g></svg>