<svg xmlns="http://www.w3.org/2000/svg" viewBox="0 0 204.83 41.24"><defs><style>.cls-1{fill:#fff;}</style></defs><title>text2</title><g id="Layer_2" data-name="Layer 2"><g id="Layer_1-2" data-name="Layer 1"><path class="cls-1" d="M8.47,7.52H5L4.16,9.9H2.89L6.22.66H7.29L10.56,9.9H9.28Zm-3.12-1H8.11l-1.34-4h0Z"/><path class="cls-1" d="M13.1,9.9H11.84V0H13.1Z"/><path class="cls-1" d="M19,8.06a.84.84,0,0,0-.31-.68,3.12,3.12,0,0,0-1.19-.45,5.24,5.24,0,0,1-1.87-.73A1.5,1.5,0,0,1,15,4.94a1.82,1.82,0,0,1,.72-1.44,2.81,2.81,0,0,1,1.85-.59,2.77,2.77,0,0,1,1.89.63A1.84,1.84,0,0,1,20.14,5v0H18.94a1.06,1.06,0,0,0-.4-.81,1.38,1.38,0,0,0-1-.36,1.43,1.43,0,0,0-1,.3.93.93,0,0,0-.33.71.76.76,0,0,0,.29.63,3.1,3.1,0,0,0,1.16.41,4.8,4.8,0,0,1,1.92.75A1.54,1.54,0,0,1,20.26,8a1.79,1.79,0,0,1-.74,1.49,3.08,3.08,0,0,1-1.93.58,3,3,0,0,1-2.07-.67,1.94,1.94,0,0,1-.72-1.56l0,0H16a1.15,1.15,0,0,0,.49,1,1.89,1.89,0,0,0,1.09.31,1.76,1.76,0,0,0,1-.28A.85.85,0,0,0,19,8.06Z"/><path class="cls-1" d="M21.52,6.4a3.8,3.8,0,0,1,.83-2.51,2.79,2.79,0,0,1,2.24-1,2.83,2.83,0,0,1,2.26,1,3.78,3.78,0,0,1,.83,2.51v.14a3.77,3.77,0,0,1-.83,2.52,3.06,3.06,0,0,1-4.5,0,3.76,3.76,0,0,1-.83-2.51Zm1.26.14a3.27,3.27,0,0,0,.46,1.81,1.66,1.66,0,0,0,2.72,0,3.27,3.27,0,0,0,.47-1.81V6.4A3.24,3.24,0,0,0,26,4.61a1.53,1.53,0,0,0-1.37-.72,1.49,1.49,0,0,0-1.35.72,3.24,3.24,0,0,0-.46,1.79Z"/><path class="cls-1" d="M30.3,9.6l-.95,1.94H28.6l.45-2v-1H30.3Z"/><path class="cls-1" d="M36.35,1.28H35.1V0h1.25Zm0,8.62H35.1V3h1.25Z"/><path class="cls-1" d="M40,1.38V3h1.3V4H40V8.13a.91.91,0,0,0,.2.68.72.72,0,0,0,.53.2L41,9l.22-.06.17.86A1.22,1.22,0,0,1,41,10a2,2,0,0,1-.54.08,1.64,1.64,0,0,1-1.21-.46,2,2,0,0,1-.45-1.45V4h-1.1V3h1.1V1.38Z"/><path class="cls-1" d="M45.6,6.6a4.62,4.62,0,0,1,.71-2.68,2.28,2.28,0,0,1,2-1,2.44,2.44,0,0,1,1.07.22,2.17,2.17,0,0,1,.8.65V0h1.25V9.9h-1L50.26,9a2.2,2.2,0,0,1-.83.75,2.47,2.47,0,0,1-1.15.26,2.37,2.37,0,0,1-2-.92,3.78,3.78,0,0,1-.71-2.39Zm1.25.13a2.84,2.84,0,0,0,.43,1.66A1.47,1.47,0,0,0,48.6,9a1.67,1.67,0,0,0,.94-.25,2,2,0,0,0,.62-.71V4.85a2,2,0,0,0-.63-.68,1.68,1.68,0,0,0-.92-.25,1.43,1.43,0,0,0-1.33.75,3.86,3.86,0,0,0-.43,1.93Z"/><path class="cls-1" d="M53,6.4a3.8,3.8,0,0,1,.83-2.51,2.79,2.79,0,0,1,2.24-1,2.83,2.83,0,0,1,2.26,1,3.77,3.77,0,0,1,.82,2.51v.14a3.76,3.76,0,0,1-.82,2.52,3.06,3.06,0,0,1-4.5,0A3.76,3.76,0,0,1,53,6.54Zm1.25.14a3.35,3.35,0,0,0,.46,1.81,1.54,1.54,0,0,0,1.37.71,1.53,1.53,0,0,0,1.36-.71,3.27,3.27,0,0,0,.46-1.81V6.4a3.24,3.24,0,0,0-.46-1.79,1.53,1.53,0,0,0-1.37-.72,1.51,1.51,0,0,0-1.36.72,3.33,3.33,0,0,0-.46,1.79Z"/><path class="cls-1" d="M63.51,10a2.91,2.91,0,0,1-2.31-.95,3.65,3.65,0,0,1-.83-2.49V6.32a3.55,3.55,0,0,1,.86-2.44,2.66,2.66,0,0,1,2.08-1,2.5,2.5,0,0,1,2.07.85A3.56,3.56,0,0,1,66.07,6V6.7h-4.4l0,0a2.88,2.88,0,0,0,.46,1.68,1.61,1.61,0,0,0,1.4.65,3.15,3.15,0,0,0,1.11-.18,2.41,2.41,0,0,0,.82-.5l.49.81a2.87,2.87,0,0,1-1,.6A3.88,3.88,0,0,1,63.51,10Zm-.2-6.15a1.35,1.35,0,0,0-1.08.51,2.29,2.29,0,0,0-.52,1.29v0h3.1v-.1a2.05,2.05,0,0,0-.37-1.24A1.34,1.34,0,0,0,63.31,3.89Z"/><path class="cls-1" d="M71.46,8.06a.84.84,0,0,0-.31-.68A3.12,3.12,0,0,0,70,6.93a5.24,5.24,0,0,1-1.87-.73,1.5,1.5,0,0,1-.65-1.26,1.82,1.82,0,0,1,.72-1.44A2.81,2.81,0,0,1,70,2.91a2.77,2.77,0,0,1,1.89.63A1.84,1.84,0,0,1,72.59,5v0H71.39A1.08,1.08,0,0,0,71,4.25a1.4,1.4,0,0,0-1-.36,1.43,1.43,0,0,0-1,.3.93.93,0,0,0-.33.71.76.76,0,0,0,.29.63,3.18,3.18,0,0,0,1.16.41,4.8,4.8,0,0,1,1.92.75A1.54,1.54,0,0,1,72.71,8,1.79,1.79,0,0,1,72,9.46a3.52,3.52,0,0,1-4-.09,1.94,1.94,0,0,1-.72-1.56l0,0h1.19a1.18,1.18,0,0,0,.49,1A1.91,1.91,0,0,0,70,9.06a1.76,1.76,0,0,0,1-.28A.85.85,0,0,0,71.46,8.06Z"/><path class="cls-1" d="M78.85,1.28H77.6V0h1.25Zm0,8.62H77.6V3h1.25Z"/><path class="cls-1" d="M81.89,3l.09.91a2.3,2.3,0,0,1,.85-.76A2.6,2.6,0,0,1,84,2.91a2.11,2.11,0,0,1,1.17.31,1.91,1.91,0,0,1,.74,1,2.5,2.5,0,0,1,.86-.93,2.24,2.24,0,0,1,1.24-.34,2.05,2.05,0,0,1,1.66.72,3.27,3.27,0,0,1,.61,2.17V9.9H89.07V5.78a2.34,2.34,0,0,0-.35-1.44,1.27,1.27,0,0,0-1-.42,1.33,1.33,0,0,0-1,.45,1.9,1.9,0,0,0-.46,1.12V9.9H84.92V5.78a2.25,2.25,0,0,0-.36-1.41,1.24,1.24,0,0,0-1-.45,1.68,1.68,0,0,0-.94.24,1.48,1.48,0,0,0-.57.66V9.9H80.77V3Z"/><path class="cls-1" d="M98,6.73a3.78,3.78,0,0,1-.71,2.39,2.36,2.36,0,0,1-2,.92,2.76,2.76,0,0,1-1.12-.22,2.07,2.07,0,0,1-.81-.63v3.35H92.14V3h1l.2.89a2.23,2.23,0,0,1,.84-.75,2.41,2.41,0,0,1,1.17-.26,2.26,2.26,0,0,1,2,1A4.6,4.6,0,0,1,98,6.6ZM96.74,6.6a3.75,3.75,0,0,0-.46-1.93,1.5,1.5,0,0,0-1.36-.75,1.63,1.63,0,0,0-.92.25,1.72,1.72,0,0,0-.61.67V8.16a1.65,1.65,0,0,0,1.55.9,1.53,1.53,0,0,0,1.34-.65,2.85,2.85,0,0,0,.46-1.68Z"/><path class="cls-1" d="M103.75,9.9a5,5,0,0,1-.1-.55,2.59,2.59,0,0,1,0-.48,3,3,0,0,1-.91.83,2.38,2.38,0,0,1-1.21.34,2.29,2.29,0,0,1-1.64-.55A2,2,0,0,1,99.29,8a1.79,1.79,0,0,1,.8-1.54,3.72,3.72,0,0,1,2.16-.55h1.36V5.2a1.3,1.3,0,0,0-.37-1,1.47,1.47,0,0,0-1-.35,1.49,1.49,0,0,0-1,.31.9.9,0,0,0-.37.73H99.65v0a1.63,1.63,0,0,1,.7-1.37,2.89,2.89,0,0,1,1.93-.62,2.82,2.82,0,0,1,1.88.59,2.12,2.12,0,0,1,.71,1.71V8.52a5.53,5.53,0,0,0,0,.71,3.78,3.78,0,0,0,.13.67ZM101.67,9a2.29,2.29,0,0,0,1.23-.35,1.67,1.67,0,0,0,.71-.8V6.72H102.2A1.86,1.86,0,0,0,101,7.1a1.16,1.16,0,0,0-.45.9,1,1,0,0,0,.29.72A1.18,1.18,0,0,0,101.67,9Z"/><path class="cls-1" d="M109.4,9.06a1.45,1.45,0,0,0,1-.39,1.19,1.19,0,0,0,.43-.94H112l0,0a2,2,0,0,1-.76,1.58,2.9,2.9,0,0,1-4.06-.3,3.75,3.75,0,0,1-.79-2.45V6.33a3.78,3.78,0,0,1,.79-2.44,2.72,2.72,0,0,1,2.23-1,2.56,2.56,0,0,1,1.88.71A2.22,2.22,0,0,1,112,5.36v0h-1.14a1.49,1.49,0,0,0-.41-1.07,1.34,1.34,0,0,0-1-.44,1.44,1.44,0,0,0-1.34.72,3.32,3.32,0,0,0-.42,1.72V6.6a3.51,3.51,0,0,0,.41,1.75A1.46,1.46,0,0,0,109.4,9.06Z"/><path class="cls-1" d="M115.22,1.38V3h1.3V4h-1.3V8.13a.91.91,0,0,0,.2.68A.72.72,0,0,0,116,9l.24,0,.22-.06.17.86a1.22,1.22,0,0,1-.41.18,2,2,0,0,1-.54.08,1.64,1.64,0,0,1-1.21-.46A2,2,0,0,1,114,8.13V4h-1.1V3H114V1.38Z"/><path class="cls-1" d="M122.83,1.38V3h1.3V4h-1.3V8.13a.91.91,0,0,0,.2.68.72.72,0,0,0,.53.2l.24,0,.22-.06.17.86a1.22,1.22,0,0,1-.41.18,2,2,0,0,1-.54.08A1.64,1.64,0,0,1,122,9.58a2,2,0,0,1-.45-1.45V4h-1.1V3h1.1V1.38Z"/><path class="cls-1" d="M125.18,6.4A3.79,3.79,0,0,1,126,3.89a3.07,3.07,0,0,1,4.5,0,3.78,3.78,0,0,1,.83,2.51v.14a3.77,3.77,0,0,1-.83,2.52,3.06,3.06,0,0,1-4.5,0,3.76,3.76,0,0,1-.82-2.51Zm1.25.14a3.27,3.27,0,0,0,.46,1.81,1.66,1.66,0,0,0,2.72,0,3.27,3.27,0,0,0,.47-1.81V6.4a3.24,3.24,0,0,0-.47-1.79,1.53,1.53,0,0,0-1.37-.72,1.5,1.5,0,0,0-1.35.72,3.24,3.24,0,0,0-.46,1.79Z"/><path class="cls-1" d="M135.8,6.4a3.79,3.79,0,0,1,.82-2.51,3.07,3.07,0,0,1,4.5,0A3.78,3.78,0,0,1,142,6.4v.14a3.77,3.77,0,0,1-.83,2.52,3.06,3.06,0,0,1-4.5,0,3.76,3.76,0,0,1-.82-2.51Zm1.25.14a3.27,3.27,0,0,0,.46,1.81,1.66,1.66,0,0,0,2.72,0,3.27,3.27,0,0,0,.47-1.81V6.4a3.24,3.24,0,0,0-.47-1.79,1.53,1.53,0,0,0-1.37-.72,1.49,1.49,0,0,0-1.35.72,3.24,3.24,0,0,0-.46,1.79Z"/><path class="cls-1" d="M147.84,8.89a2.5,2.5,0,0,1-.83.85,2.28,2.28,0,0,1-1.18.3,2.2,2.2,0,0,1-1.75-.72,3.33,3.33,0,0,1-.63-2.24V3h1.25V7.1A2.62,2.62,0,0,0,145,8.61,1.23,1.23,0,0,0,146,9a2.07,2.07,0,0,0,1.11-.27,1.67,1.67,0,0,0,.65-.76V3H149V9.9h-1.12Z"/><path class="cls-1" d="M154.11,4.14l-.64,0a1.39,1.39,0,0,0-1.35.9V9.9h-1.26V3H152l.12,1a2.37,2.37,0,0,1,.72-.83,1.7,1.7,0,0,1,1-.3,1.23,1.23,0,0,1,.27,0l.21,0Z"/><path class="cls-1" d="M160,1.28h-1.25V0H160Zm0,8.62h-1.25V3H160Z"/><path class="cls-1" d="M163,3l.09.91a2.3,2.3,0,0,1,.85-.76,2.6,2.6,0,0,1,1.21-.27,2.13,2.13,0,0,1,1.17.31,1.91,1.91,0,0,1,.74,1,2.5,2.5,0,0,1,.86-.93,2.24,2.24,0,0,1,1.24-.34,2.07,2.07,0,0,1,1.66.72,3.27,3.27,0,0,1,.61,2.17V9.9h-1.25V5.78a2.34,2.34,0,0,0-.35-1.44,1.27,1.27,0,0,0-1-.42,1.33,1.33,0,0,0-1,.45,2,2,0,0,0-.47,1.12V9.9h-1.25V5.78a2.25,2.25,0,0,0-.36-1.41,1.24,1.24,0,0,0-1-.45,1.68,1.68,0,0,0-.94.24,1.42,1.42,0,0,0-.57.66V9.9h-1.25V3Z"/><path class="cls-1" d="M174.4,3l.09.91a2.3,2.3,0,0,1,.85-.76,2.6,2.6,0,0,1,1.21-.27,2.11,2.11,0,0,1,1.17.31,1.91,1.91,0,0,1,.74,1,2.5,2.5,0,0,1,.86-.93,2.25,2.25,0,0,1,1.25-.34,2,2,0,0,1,1.65.72,3.27,3.27,0,0,1,.61,2.17V9.9h-1.25V5.78a2.34,2.34,0,0,0-.35-1.44,1.27,1.27,0,0,0-1-.42,1.33,1.33,0,0,0-1,.45,1.9,1.9,0,0,0-.46,1.12V9.9h-1.26V5.78a2.25,2.25,0,0,0-.36-1.41,1.24,1.24,0,0,0-1-.45,1.7,1.7,0,0,0-.94.24,1.4,1.4,0,0,0-.56.66V9.9h-1.26V3Z"/><path class="cls-1" d="M189,8.89a2.5,2.5,0,0,1-.83.85A2.28,2.28,0,0,1,187,10a2.2,2.2,0,0,1-1.75-.72,3.33,3.33,0,0,1-.63-2.24V3h1.25V7.1a2.53,2.53,0,0,0,.33,1.51,1.21,1.21,0,0,0,1,.41,2.06,2.06,0,0,0,1.1-.27A1.62,1.62,0,0,0,189,8V3h1.25V9.9h-1.12Z"/><path class="cls-1" d="M193.15,3l.09,1a2.49,2.49,0,0,1,.86-.85,2.33,2.33,0,0,1,1.18-.3,2.22,2.22,0,0,1,1.72.65,2.83,2.83,0,0,1,.61,2V9.9h-1.25V5.59A1.88,1.88,0,0,0,196,4.3a1.44,1.44,0,0,0-1.09-.38,2,2,0,0,0-1,.23,1.74,1.74,0,0,0-.63.66V9.9H192V3Z"/><path class="cls-1" d="M202.27,10A2.91,2.91,0,0,1,200,9.09a3.65,3.65,0,0,1-.83-2.49V6.32A3.55,3.55,0,0,1,200,3.88a2.66,2.66,0,0,1,2.08-1,2.5,2.5,0,0,1,2.07.85A3.56,3.56,0,0,1,204.83,6V6.7h-4.4v0a2.88,2.88,0,0,0,.45,1.68,1.61,1.61,0,0,0,1.4.65,3.15,3.15,0,0,0,1.11-.18,2.41,2.41,0,0,0,.82-.5l.49.81a2.87,2.87,0,0,1-1,.6A3.92,3.92,0,0,1,202.27,10Zm-.2-6.15A1.35,1.35,0,0,0,201,4.4a2.29,2.29,0,0,0-.52,1.29v0h3.1v-.1a2.05,2.05,0,0,0-.37-1.24A1.34,1.34,0,0,0,202.07,3.89Z"/><path class="cls-1" d="M4.28,23.66A.84.84,0,0,0,4,23a3.12,3.12,0,0,0-1.19-.45A5.1,5.1,0,0,1,.92,21.8a1.48,1.48,0,0,1-.65-1.26A1.81,1.81,0,0,1,1,19.1a2.83,2.83,0,0,1,1.85-.59,2.77,2.77,0,0,1,1.89.63,1.78,1.78,0,0,1,.69,1.48v0H4.21a1.08,1.08,0,0,0-.39-.81,1.4,1.4,0,0,0-1-.36,1.43,1.43,0,0,0-1,.3,1,1,0,0,0-.32.71.75.75,0,0,0,.28.63A3.26,3.26,0,0,0,3,21.54a4.68,4.68,0,0,1,1.92.75,1.52,1.52,0,0,1,.66,1.28,1.82,1.82,0,0,1-.74,1.49,3.11,3.11,0,0,1-1.94.58A3.07,3.07,0,0,1,.79,25a1.9,1.9,0,0,1-.71-1.56v0H1.28a1.15,1.15,0,0,0,.5,1,1.88,1.88,0,0,0,1.08.31,1.77,1.77,0,0,0,1.05-.28A.86.86,0,0,0,4.28,23.66Z"/><path class="cls-1" d="M9.19,23l.22.86h0l1.69-5.19h1.39L9.64,26.56a3.51,3.51,0,0,1-.74,1.2,1.74,1.74,0,0,1-1.31.52,3.22,3.22,0,0,1-.39,0,1.75,1.75,0,0,1-.36-.07l.12-1h.23l.33,0a.79.79,0,0,0,.66-.35,3.5,3.5,0,0,0,.42-.79l.3-.72L6.35,18.63H7.74Z"/><path class="cls-1" d="M17.62,23.66a.84.84,0,0,0-.31-.68,3.12,3.12,0,0,0-1.19-.45,5.24,5.24,0,0,1-1.87-.73,1.5,1.5,0,0,1-.65-1.26,1.82,1.82,0,0,1,.72-1.44,2.81,2.81,0,0,1,1.85-.59,2.77,2.77,0,0,1,1.89.63,1.84,1.84,0,0,1,.69,1.48v0h-1.2a1,1,0,0,0-.39-.81,1.38,1.38,0,0,0-1-.36,1.43,1.43,0,0,0-1,.3.93.93,0,0,0-.33.71.76.76,0,0,0,.29.63,3.1,3.1,0,0,0,1.16.41,4.8,4.8,0,0,1,1.92.75,1.54,1.54,0,0,1,.65,1.28,1.82,1.82,0,0,1-.74,1.49,3.08,3.08,0,0,1-1.93.58A3,3,0,0,1,14.13,25a1.94,1.94,0,0,1-.72-1.56l0,0h1.19a1.14,1.14,0,0,0,.49,1,1.89,1.89,0,0,0,1.09.31,1.76,1.76,0,0,0,1-.28A.85.85,0,0,0,17.62,23.66Z"/><path class="cls-1" d="M22.17,17v1.65h1.3v.93h-1.3v4.17a.91.91,0,0,0,.2.68.72.72,0,0,0,.53.2l.24,0,.22-.06.17.86a1.22,1.22,0,0,1-.41.18,2,2,0,0,1-.54.08,1.64,1.64,0,0,1-1.21-.46,2,2,0,0,1-.45-1.45V19.56h-1.1v-.93h1.1V17Z"/><path class="cls-1" d="M27.65,25.64a2.92,2.92,0,0,1-2.31-.95,3.65,3.65,0,0,1-.83-2.49v-.28a3.55,3.55,0,0,1,.86-2.44,2.66,2.66,0,0,1,2.08-1,2.5,2.5,0,0,1,2.07.85,3.56,3.56,0,0,1,.69,2.28v.66H25.82l0,0A2.88,2.88,0,0,0,26.25,24a1.61,1.61,0,0,0,1.4.65,3.15,3.15,0,0,0,1.11-.18,2.56,2.56,0,0,0,.83-.5l.49.81a2.92,2.92,0,0,1-1,.6A3.88,3.88,0,0,1,27.65,25.64Zm-.2-6.15a1.36,1.36,0,0,0-1.08.51,2.36,2.36,0,0,0-.52,1.29v0H29v-.1A2,2,0,0,0,28.59,20,1.32,1.32,0,0,0,27.45,19.49Z"/><path class="cls-1" d="M32.73,18.63l.09.91a2.3,2.3,0,0,1,.85-.76,2.59,2.59,0,0,1,1.2-.27,2.14,2.14,0,0,1,1.18.31,1.91,1.91,0,0,1,.74,1,2.5,2.5,0,0,1,.86-.93,2.22,2.22,0,0,1,1.24-.34,2.07,2.07,0,0,1,1.66.72,3.27,3.27,0,0,1,.61,2.17v4.1H39.91V21.38a2.34,2.34,0,0,0-.35-1.44,1.27,1.27,0,0,0-1-.42,1.31,1.31,0,0,0-1,.45A2,2,0,0,0,37,21.09V25.5H35.76V21.38A2.25,2.25,0,0,0,35.4,20a1.25,1.25,0,0,0-1-.45,1.68,1.68,0,0,0-.94.24,1.42,1.42,0,0,0-.57.66V25.5H31.61V18.63Z"/><path class="cls-1" d="M44.07,25.2l-1,1.94h-.74l.44-2v-1h1.26Z"/><path class="cls-1" d="M51.5,24.66a1.47,1.47,0,0,0,1-.39,1.19,1.19,0,0,0,.43-.94h1.13l0,0A2,2,0,0,1,53.33,25a2.91,2.91,0,0,1-4.07-.3,3.8,3.8,0,0,1-.78-2.45v-.26a3.79,3.79,0,0,1,.79-2.45,2.7,2.7,0,0,1,2.23-1,2.57,2.57,0,0,1,1.88.71A2.22,2.22,0,0,1,54.09,21v0H52.94a1.54,1.54,0,0,0-.41-1.07,1.36,1.36,0,0,0-1-.44,1.43,1.43,0,0,0-1.34.72,3.24,3.24,0,0,0-.43,1.73v.26A3.41,3.41,0,0,0,50.15,24,1.46,1.46,0,0,0,51.5,24.66Z"/><path class="cls-1" d="M55.28,22a3.8,3.8,0,0,1,.83-2.51,3.06,3.06,0,0,1,4.49,0A3.73,3.73,0,0,1,61.43,22v.14a3.76,3.76,0,0,1-.82,2.52,3.06,3.06,0,0,1-4.5,0,3.76,3.76,0,0,1-.83-2.51Zm1.25.14A3.35,3.35,0,0,0,57,24a1.54,1.54,0,0,0,1.37.71A1.53,1.53,0,0,0,59.72,24a3.27,3.27,0,0,0,.46-1.81V22a3.24,3.24,0,0,0-.46-1.79,1.54,1.54,0,0,0-1.37-.72,1.51,1.51,0,0,0-1.36.72A3.33,3.33,0,0,0,56.53,22Z"/><path class="cls-1" d="M64.08,18.63l.09,1a2.41,2.41,0,0,1,.86-.85,2.3,2.3,0,0,1,1.18-.3,2.22,2.22,0,0,1,1.72.65,2.88,2.88,0,0,1,.61,2V25.5H67.29V21.19a1.88,1.88,0,0,0-.36-1.29,1.47,1.47,0,0,0-1.1-.38,2,2,0,0,0-1,.23,1.76,1.76,0,0,0-.64.66V25.5H63V18.63Z"/><path class="cls-1" d="M74.34,23.66A.84.84,0,0,0,74,23a3.12,3.12,0,0,0-1.19-.45A5.1,5.1,0,0,1,71,21.8a1.48,1.48,0,0,1-.65-1.26A1.81,1.81,0,0,1,71,19.1a2.83,2.83,0,0,1,1.85-.59,2.77,2.77,0,0,1,1.89.63,1.84,1.84,0,0,1,.69,1.48v0H74.27a1.08,1.08,0,0,0-.39-.81,1.4,1.4,0,0,0-1-.36,1.43,1.43,0,0,0-1,.3,1,1,0,0,0-.32.71.75.75,0,0,0,.28.63,3.26,3.26,0,0,0,1.16.41,4.74,4.74,0,0,1,1.92.75,1.51,1.51,0,0,1,.65,1.28,1.79,1.79,0,0,1-.74,1.49,3.52,3.52,0,0,1-4-.09,1.9,1.9,0,0,1-.71-1.56v0h1.19a1.15,1.15,0,0,0,.5,1,1.88,1.88,0,0,0,1.08.31,1.79,1.79,0,0,0,1-.28A.86.86,0,0,0,74.34,23.66Z"/><path class="cls-1" d="M76.86,22a3.79,3.79,0,0,1,.82-2.51,3.07,3.07,0,0,1,4.5,0A3.78,3.78,0,0,1,83,22v.14a3.77,3.77,0,0,1-.83,2.52,3.05,3.05,0,0,1-4.49,0,3.71,3.71,0,0,1-.83-2.51Zm1.25.14A3.27,3.27,0,0,0,78.57,24a1.53,1.53,0,0,0,1.37.71A1.51,1.51,0,0,0,81.29,24a3.27,3.27,0,0,0,.47-1.81V22a3.24,3.24,0,0,0-.47-1.79,1.53,1.53,0,0,0-1.37-.72,1.51,1.51,0,0,0-1.35.72A3.24,3.24,0,0,0,78.11,22Z"/><path class="cls-1" d="M85.89,25.5H84.64V15.6h1.25Z"/><path class="cls-1" d="M89.17,16.88H87.92V15.6h1.25Zm0,8.62H87.92V18.63h1.25Z"/><path class="cls-1" d="M90.8,22.2a4.62,4.62,0,0,1,.71-2.68,2.28,2.28,0,0,1,2-1,2.41,2.41,0,0,1,1.07.22,2.09,2.09,0,0,1,.8.65V15.6h1.25v9.9h-1l-.19-.87a2.2,2.2,0,0,1-.83.75,2.47,2.47,0,0,1-1.15.26,2.39,2.39,0,0,1-2-.91,3.83,3.83,0,0,1-.71-2.4Zm1.25.13A2.91,2.91,0,0,0,92.48,24a1.47,1.47,0,0,0,1.32.63,1.67,1.67,0,0,0,.94-.25,2,2,0,0,0,.62-.71V20.45a2,2,0,0,0-.62-.68,1.74,1.74,0,0,0-.93-.25,1.43,1.43,0,0,0-1.33.75,3.86,3.86,0,0,0-.43,1.93Z"/><path class="cls-1" d="M102.7,25.5c0-.21-.08-.39-.1-.55a3.88,3.88,0,0,1,0-.48,2.91,2.91,0,0,1-.91.83,2.38,2.38,0,0,1-1.21.34,2.29,2.29,0,0,1-1.64-.55,2,2,0,0,1-.56-1.52A1.79,1.79,0,0,1,99,22a3.72,3.72,0,0,1,2.16-.55h1.36V20.8a1.27,1.27,0,0,0-.37-1,1.71,1.71,0,0,0-2,0,.91.91,0,0,0-.38.73H98.6v0a1.65,1.65,0,0,1,.7-1.37,3.3,3.3,0,0,1,3.81,0,2.12,2.12,0,0,1,.71,1.71v3.31a5.53,5.53,0,0,0,0,.71,3.07,3.07,0,0,0,.14.67Zm-2.08-.91a2.26,2.26,0,0,0,1.23-.35,1.67,1.67,0,0,0,.71-.8V22.32h-1.4a1.83,1.83,0,0,0-1.21.38,1.15,1.15,0,0,0-.46.9,1,1,0,0,0,.29.72A1.18,1.18,0,0,0,100.62,24.59Z"/><path class="cls-1" d="M107.36,17v1.65h1.31v.93h-1.31v4.17a1,1,0,0,0,.2.68.74.74,0,0,0,.53.2l.25,0,.22-.06.17.86a1.22,1.22,0,0,1-.41.18,2.14,2.14,0,0,1-.54.08,1.66,1.66,0,0,1-1.22-.46,2,2,0,0,1-.45-1.45V19.56H105v-.93h1.09V17Z"/><path class="cls-1" d="M112.85,25.64a2.91,2.91,0,0,1-2.31-.95,3.65,3.65,0,0,1-.83-2.49v-.28a3.55,3.55,0,0,1,.86-2.44,2.66,2.66,0,0,1,2.08-1,2.5,2.5,0,0,1,2.07.85,3.56,3.56,0,0,1,.69,2.28v.66H111v0a2.88,2.88,0,0,0,.45,1.68,1.61,1.61,0,0,0,1.4.65,3.15,3.15,0,0,0,1.11-.18,2.41,2.41,0,0,0,.82-.5l.49.81a2.87,2.87,0,0,1-1,.6A3.88,3.88,0,0,1,112.85,25.64Zm-.2-6.15a1.35,1.35,0,0,0-1.08.51,2.29,2.29,0,0,0-.52,1.29v0h3.1v-.1a2.05,2.05,0,0,0-.37-1.24A1.34,1.34,0,0,0,112.65,19.49Z"/><path class="cls-1" d="M121.16,18.63l.09.91a2.3,2.3,0,0,1,.85-.76,2.59,2.59,0,0,1,1.2-.27,2.14,2.14,0,0,1,1.18.31,1.91,1.91,0,0,1,.74,1,2.5,2.5,0,0,1,.86-.93,2.22,2.22,0,0,1,1.24-.34,2.07,2.07,0,0,1,1.66.72,3.32,3.32,0,0,1,.61,2.17v4.1h-1.25V21.38a2.34,2.34,0,0,0-.35-1.44,1.29,1.29,0,0,0-1-.42,1.31,1.31,0,0,0-1,.45,1.9,1.9,0,0,0-.47,1.12V25.5h-1.25V21.38a2.25,2.25,0,0,0-.36-1.41,1.25,1.25,0,0,0-1-.45,1.66,1.66,0,0,0-.94.24,1.42,1.42,0,0,0-.57.66V25.5H120V18.63Z"/><path class="cls-1" d="M134.25,25.64a2.91,2.91,0,0,1-2.31-.95,3.65,3.65,0,0,1-.83-2.49v-.28a3.59,3.59,0,0,1,.85-2.44,2.68,2.68,0,0,1,2.09-1,2.5,2.5,0,0,1,2.07.85,3.56,3.56,0,0,1,.68,2.28v.66h-4.39l0,0a2.88,2.88,0,0,0,.46,1.68,1.6,1.6,0,0,0,1.4.65,3.15,3.15,0,0,0,1.11-.18,2.51,2.51,0,0,0,.82-.5l.49.81a2.87,2.87,0,0,1-1,.6A3.92,3.92,0,0,1,134.25,25.64Zm-.2-6.15A1.34,1.34,0,0,0,133,20a2.37,2.37,0,0,0-.53,1.29l0,0h3.09v-.1a2,2,0,0,0-.36-1.24A1.34,1.34,0,0,0,134.05,19.49Z"/><path class="cls-1" d="M139.32,18.63l.09.91a2.32,2.32,0,0,1,.86-.76,2.53,2.53,0,0,1,1.2-.27,2.14,2.14,0,0,1,1.18.31,2,2,0,0,1,.74,1,2.42,2.42,0,0,1,.86-.93,2.2,2.2,0,0,1,1.24-.34,2.07,2.07,0,0,1,1.66.72,3.32,3.32,0,0,1,.6,2.17v4.1H146.5V21.38a2.27,2.27,0,0,0-.35-1.44,1.26,1.26,0,0,0-1-.42,1.31,1.31,0,0,0-1,.45,1.9,1.9,0,0,0-.47,1.12V25.5h-1.26V21.38A2.25,2.25,0,0,0,142,20a1.24,1.24,0,0,0-1-.45,1.7,1.7,0,0,0-.94.24,1.46,1.46,0,0,0-.56.66V25.5h-1.25V18.63Z"/><path class="cls-1" d="M149.28,22a3.79,3.79,0,0,1,.82-2.51,3.07,3.07,0,0,1,4.5,0,3.78,3.78,0,0,1,.83,2.51v.14a3.77,3.77,0,0,1-.83,2.52,3.05,3.05,0,0,1-4.49,0,3.71,3.71,0,0,1-.83-2.51Zm1.25.14A3.27,3.27,0,0,0,151,24a1.53,1.53,0,0,0,1.37.71,1.51,1.51,0,0,0,1.35-.71,3.27,3.27,0,0,0,.47-1.81V22a3.24,3.24,0,0,0-.47-1.79,1.53,1.53,0,0,0-1.37-.72,1.51,1.51,0,0,0-1.35.72,3.24,3.24,0,0,0-.46,1.79Z"/><path class="cls-1" d="M160.21,19.74l-.64,0a1.43,1.43,0,0,0-.84.24,1.45,1.45,0,0,0-.52.66v4.9H157V18.63h1.12l.12,1a2.18,2.18,0,0,1,.72-.83,1.65,1.65,0,0,1,1-.3,1.14,1.14,0,0,1,.27,0l.21,0Z"/><path class="cls-1" d="M163.73,23l.22.86h0l1.68-5.19h1.39l-2.88,7.93a3.69,3.69,0,0,1-.75,1.2,1.72,1.72,0,0,1-1.31.52,3.67,3.67,0,0,1-.39,0,1.9,1.9,0,0,1-.36-.07l.13-1h.22l.34,0a.79.79,0,0,0,.65-.35,3.5,3.5,0,0,0,.42-.79l.3-.72-2.55-6.73h1.4Z"/><path class="cls-1" d="M175.61,25.5c0-.21-.07-.39-.09-.55a3.91,3.91,0,0,1-.05-.48,2.81,2.81,0,0,1-.91.83,2.33,2.33,0,0,1-1.21.34,2.26,2.26,0,0,1-1.63-.55,2,2,0,0,1-.56-1.52A1.76,1.76,0,0,1,172,22a3.72,3.72,0,0,1,2.16-.55h1.35V20.8a1.3,1.3,0,0,0-.36-1,1.73,1.73,0,0,0-2,0,.9.9,0,0,0-.37.73h-1.19v0a1.63,1.63,0,0,1,.7-1.37,2.89,2.89,0,0,1,1.93-.62,2.85,2.85,0,0,1,1.87.59,2.1,2.1,0,0,1,.72,1.71v3.31c0,.24,0,.48,0,.71a3.8,3.8,0,0,0,.14.67Zm-2.07-.91a2.23,2.23,0,0,0,1.22-.35,1.62,1.62,0,0,0,.71-.8V22.32h-1.4a1.86,1.86,0,0,0-1.21.38,1.16,1.16,0,0,0-.45.9.94.94,0,0,0,.28.72A1.2,1.2,0,0,0,173.54,24.59Z"/><path class="cls-1" d="M179.66,18.63l.09,1a2.41,2.41,0,0,1,.86-.85,2.26,2.26,0,0,1,1.17-.3,2.21,2.21,0,0,1,1.72.65,2.83,2.83,0,0,1,.61,2V25.5h-1.25V21.19a1.88,1.88,0,0,0-.36-1.29,1.43,1.43,0,0,0-1.09-.38,2,2,0,0,0-1,.23,1.76,1.76,0,0,0-.64.66V25.5h-1.25V18.63Z"/><path class="cls-1" d="M185.64,22.2a4.62,4.62,0,0,1,.71-2.68,2.28,2.28,0,0,1,2-1,2.41,2.41,0,0,1,1.07.22,2.09,2.09,0,0,1,.8.65V15.6h1.25v9.9h-1l-.19-.87a2.2,2.2,0,0,1-.83.75,2.47,2.47,0,0,1-1.15.26,2.39,2.39,0,0,1-2-.91,3.83,3.83,0,0,1-.71-2.4Zm1.25.13a2.91,2.91,0,0,0,.43,1.66,1.47,1.47,0,0,0,1.32.63,1.65,1.65,0,0,0,.94-.25,2,2,0,0,0,.62-.71V20.45a2,2,0,0,0-.62-.68,1.74,1.74,0,0,0-.93-.25,1.43,1.43,0,0,0-1.33.75,3.86,3.86,0,0,0-.43,1.93Z"/><path class="cls-1" d="M3,40.26a1.45,1.45,0,0,0,1-.39,1.19,1.19,0,0,0,.43-.94H5.59l0,0a2,2,0,0,1-.76,1.58A2.69,2.69,0,0,1,3,41.24a2.68,2.68,0,0,1-2.23-1A3.75,3.75,0,0,1,0,37.8v-.26a3.79,3.79,0,0,1,.79-2.45,2.72,2.72,0,0,1,2.23-1,2.56,2.56,0,0,1,1.88.71,2.22,2.22,0,0,1,.71,1.74v0H4.46a1.49,1.49,0,0,0-.41-1.07,1.34,1.34,0,0,0-1-.44,1.44,1.44,0,0,0-1.34.72,3.33,3.33,0,0,0-.42,1.73v.26a3.51,3.51,0,0,0,.41,1.75A1.46,1.46,0,0,0,3,40.26Z"/><path class="cls-1" d="M11.32,41.1c0-.2-.08-.39-.1-.55a3.88,3.88,0,0,1,0-.48,2.91,2.91,0,0,1-.91.83,2.38,2.38,0,0,1-1.21.34,2.29,2.29,0,0,1-1.64-.55,2,2,0,0,1-.56-1.52,1.79,1.79,0,0,1,.8-1.54,3.72,3.72,0,0,1,2.16-.55h1.36V36.4a1.27,1.27,0,0,0-.37-1,1.47,1.47,0,0,0-1-.35,1.44,1.44,0,0,0-1,.31.91.91,0,0,0-.38.73H7.22v0a1.65,1.65,0,0,1,.7-1.37,2.89,2.89,0,0,1,1.93-.62,2.88,2.88,0,0,1,1.88.59,2.12,2.12,0,0,1,.71,1.71v3.31a5.53,5.53,0,0,0,0,.71,3.07,3.07,0,0,0,.14.67Zm-2.08-.91a2.29,2.29,0,0,0,1.23-.35,1.67,1.67,0,0,0,.71-.8V37.92H9.78a1.83,1.83,0,0,0-1.21.38,1.15,1.15,0,0,0-.46.9,1,1,0,0,0,.29.72A1.18,1.18,0,0,0,9.24,40.19Z"/><path class="cls-1" d="M15.36,34.23l.09,1a2.49,2.49,0,0,1,.86-.85,2.33,2.33,0,0,1,1.18-.3,2.22,2.22,0,0,1,1.72.65,2.88,2.88,0,0,1,.61,2V41.1H18.57V36.79a1.88,1.88,0,0,0-.36-1.29,1.47,1.47,0,0,0-1.1-.38,2,2,0,0,0-1,.23,1.76,1.76,0,0,0-.64.66V41.1H14.24V34.23Z"/><path class="cls-1" d="M22.75,34.23l.09,1a2.41,2.41,0,0,1,.86-.85,2.3,2.3,0,0,1,1.18-.3,2.22,2.22,0,0,1,1.72.65,2.88,2.88,0,0,1,.61,2V41.1H26V36.79a1.88,1.88,0,0,0-.36-1.29,1.47,1.47,0,0,0-1.1-.38,2,2,0,0,0-1,.23,1.76,1.76,0,0,0-.64.66V41.1H21.63V34.23Z"/><path class="cls-1" d="M28.73,37.6a3.79,3.79,0,0,1,.82-2.51,3.07,3.07,0,0,1,4.5,0,3.78,3.78,0,0,1,.83,2.51v.14a3.76,3.76,0,0,1-.82,2.52,2.81,2.81,0,0,1-2.25,1,2.77,2.77,0,0,1-2.25-1,3.76,3.76,0,0,1-.83-2.51Zm1.25.14a3.27,3.27,0,0,0,.46,1.81,1.67,1.67,0,0,0,2.73,0,3.27,3.27,0,0,0,.46-1.81V37.6a3.24,3.24,0,0,0-.47-1.79,1.64,1.64,0,0,0-2.72,0A3.24,3.24,0,0,0,30,37.6Z"/><path class="cls-1" d="M38.15,32.58v1.65h1.3v.93h-1.3v4.17a1,1,0,0,0,.2.68.72.72,0,0,0,.53.2l.24,0,.22-.06.17.86a1.22,1.22,0,0,1-.41.18,2,2,0,0,1-.54.08,1.64,1.64,0,0,1-1.21-.46,2,2,0,0,1-.45-1.45V35.16H35.81v-.93H36.9V32.58Z"/><path class="cls-1" d="M47.27,35.34l-.64,0a1.43,1.43,0,0,0-.84.24,1.45,1.45,0,0,0-.52.66v4.9H44V34.23h1.12l.12,1a2.18,2.18,0,0,1,.72-.83,1.66,1.66,0,0,1,1-.3,1.1,1.1,0,0,1,.26,0,.81.81,0,0,1,.21,0Z"/><path class="cls-1" d="M51.3,41.24a2.91,2.91,0,0,1-2.31-1,3.65,3.65,0,0,1-.83-2.49v-.28A3.54,3.54,0,0,1,49,35.08a2.68,2.68,0,0,1,2.09-1,2.5,2.5,0,0,1,2.07.85,3.62,3.62,0,0,1,.68,2.28v.66H49.46l0,0a2.79,2.79,0,0,0,.46,1.67,1.6,1.6,0,0,0,1.4.65,3.15,3.15,0,0,0,1.11-.18,2.51,2.51,0,0,0,.82-.5l.49.81a3,3,0,0,1-1,.6A3.92,3.92,0,0,1,51.3,41.24Zm-.2-6.15A1.34,1.34,0,0,0,50,35.6a2.37,2.37,0,0,0-.53,1.29l0,0H52.6v-.1a2,2,0,0,0-.37-1.24A1.3,1.3,0,0,0,51.1,35.09Z"/><path class="cls-1" d="M56.37,34.23l.09.91a2.32,2.32,0,0,1,.86-.76,2.53,2.53,0,0,1,1.2-.27,2.14,2.14,0,0,1,1.18.31,2,2,0,0,1,.74,1,2.42,2.42,0,0,1,.86-.93,2.2,2.2,0,0,1,1.24-.34,2,2,0,0,1,1.65.72A3.27,3.27,0,0,1,64.8,37v4.1H63.55V37a2.27,2.27,0,0,0-.35-1.44,1.27,1.27,0,0,0-1-.42,1.34,1.34,0,0,0-1,.45,1.9,1.9,0,0,0-.46,1.12V41.1H59.4V37A2.25,2.25,0,0,0,59,35.57a1.24,1.24,0,0,0-1-.45,1.7,1.7,0,0,0-.94.24,1.46,1.46,0,0,0-.56.66V41.1H55.26V34.23Z"/><path class="cls-1" d="M66.33,37.6a3.79,3.79,0,0,1,.82-2.51,3.07,3.07,0,0,1,4.5,0,3.78,3.78,0,0,1,.83,2.51v.14a3.77,3.77,0,0,1-.83,2.52,3.05,3.05,0,0,1-4.49,0,3.71,3.71,0,0,1-.83-2.51Zm1.25.14A3.27,3.27,0,0,0,68,39.55a1.66,1.66,0,0,0,2.72,0,3.27,3.27,0,0,0,.47-1.81V37.6a3.24,3.24,0,0,0-.47-1.79,1.53,1.53,0,0,0-1.37-.72,1.5,1.5,0,0,0-1.35.72,3.24,3.24,0,0,0-.46,1.79Z"/><path class="cls-1" d="M76.2,39.08l.11.48h0l.12-.48,1.58-4.85h1.28L76.8,41.1h-1L73.3,34.23h1.28Z"/><path class="cls-1" d="M83.21,41.24a2.94,2.94,0,0,1-2.31-1,3.65,3.65,0,0,1-.82-2.49v-.28a3.54,3.54,0,0,1,.85-2.44,2.66,2.66,0,0,1,2.08-1,2.5,2.5,0,0,1,2.07.85,3.56,3.56,0,0,1,.69,2.28v.66H81.38l0,0a2.86,2.86,0,0,0,.45,1.67,1.61,1.61,0,0,0,1.4.65,3.21,3.21,0,0,0,1.12-.18,2.51,2.51,0,0,0,.82-.5l.49.81a3,3,0,0,1-1,.6A4,4,0,0,1,83.21,41.24ZM83,35.09a1.36,1.36,0,0,0-1.08.51,2.36,2.36,0,0,0-.52,1.29v0h3.1v-.1a2,2,0,0,0-.37-1.24A1.31,1.31,0,0,0,83,35.09Z"/><path class="cls-1" d="M92.14,32.58v1.65h1.3v.93h-1.3v4.17a1,1,0,0,0,.2.68.74.74,0,0,0,.53.2l.24,0,.23-.06.17.86a1.28,1.28,0,0,1-.42.18,2,2,0,0,1-.53.08,1.66,1.66,0,0,1-1.22-.46,2,2,0,0,1-.45-1.45V35.16H89.8v-.93h1.09V32.58Z"/><path class="cls-1" d="M94.49,37.6a3.8,3.8,0,0,1,.83-2.51,3.06,3.06,0,0,1,4.49,0,3.73,3.73,0,0,1,.83,2.51v.14a3.76,3.76,0,0,1-.82,2.52,3.06,3.06,0,0,1-4.5,0,3.76,3.76,0,0,1-.83-2.51Zm1.25.14a3.35,3.35,0,0,0,.46,1.81,1.67,1.67,0,0,0,2.73,0,3.27,3.27,0,0,0,.46-1.81V37.6a3.24,3.24,0,0,0-.46-1.79,1.54,1.54,0,0,0-1.37-.72,1.51,1.51,0,0,0-1.36.72,3.33,3.33,0,0,0-.46,1.79Z"/><path class="cls-1" d="M104.37,36.77l1.46-2.54h1.46l-2.23,3.4,2.29,3.47h-1.43l-1.53-2.59-1.52,2.59h-1.45l2.29-3.47-2.22-3.4h1.44Z"/><path class="cls-1" d="M109.93,32.48h-1.25V31.2h1.25Zm0,8.62h-1.25V34.23h1.25Z"/><path class="cls-1" d="M113,34.23l.09,1a2.41,2.41,0,0,1,.86-.85,2.3,2.3,0,0,1,1.18-.3,2.22,2.22,0,0,1,1.72.65,2.88,2.88,0,0,1,.61,2V41.1h-1.26V36.79a1.88,1.88,0,0,0-.35-1.29,1.47,1.47,0,0,0-1.1-.38,2,2,0,0,0-1,.23,1.76,1.76,0,0,0-.64.66V41.1h-1.25V34.23Z"/><path class="cls-1" d="M123.23,39.26a.84.84,0,0,0-.31-.68,3.12,3.12,0,0,0-1.19-.45,5.1,5.1,0,0,1-1.86-.73,1.48,1.48,0,0,1-.65-1.26,1.81,1.81,0,0,1,.71-1.44,2.83,2.83,0,0,1,1.85-.59,2.77,2.77,0,0,1,1.89.63,1.84,1.84,0,0,1,.69,1.48v0h-1.19a1.08,1.08,0,0,0-.39-.81,1.4,1.4,0,0,0-1-.36,1.43,1.43,0,0,0-1,.3.92.92,0,0,0-.32.71.75.75,0,0,0,.28.63,3.18,3.18,0,0,0,1.16.41,4.74,4.74,0,0,1,1.92.75,1.51,1.51,0,0,1,.65,1.28,1.79,1.79,0,0,1-.74,1.49,3.52,3.52,0,0,1-4-.09A1.94,1.94,0,0,1,119,39l0,0h1.19a1.15,1.15,0,0,0,.5,1,1.88,1.88,0,0,0,1.08.31,1.79,1.79,0,0,0,1-.28A.86.86,0,0,0,123.23,39.26Z"/><path class="cls-1" d="M127.4,41.1h-1.25V39.82h1.25Z"/></g></g></svg>