<svg xmlns="http://www.w3.org/2000/svg" viewBox="0 0 218.65 59.61"><defs><style>.cls-1{fill:#fff;}</style></defs><title>text1</title><g id="Layer_2" data-name="Layer 2"><g id="Layer_1-2" data-name="Layer 1"><path class="cls-1" d="M5.58,7.66H2.1L1.28,10H0L3.33.79H4.4L7.67,10H6.39Zm-3.12-1H5.22l-1.34-4h0Z"/><path class="cls-1" d="M12.85,8.19a.82.82,0,0,0-.32-.67,2.88,2.88,0,0,0-1.19-.46,5,5,0,0,1-1.86-.73,1.48,1.48,0,0,1-.65-1.26,1.82,1.82,0,0,1,.71-1.43A2.8,2.8,0,0,1,11.39,3a2.77,2.77,0,0,1,1.9.64A1.81,1.81,0,0,1,14,5.15l0,0H12.77a1.08,1.08,0,0,0-.39-.8,1.41,1.41,0,0,0-1-.37,1.39,1.39,0,0,0-1,.3.93.93,0,0,0-.33.71.75.75,0,0,0,.28.63,3.07,3.07,0,0,0,1.17.41,5,5,0,0,1,1.91.75A1.52,1.52,0,0,1,14.1,8.1a1.81,1.81,0,0,1-.74,1.49,3,3,0,0,1-1.93.58A3,3,0,0,1,9.36,9.5,1.86,1.86,0,0,1,8.64,8v0H9.84a1.17,1.17,0,0,0,.5,1,1.89,1.89,0,0,0,1.09.31,1.69,1.69,0,0,0,1-.28A.87.87,0,0,0,12.85,8.19Z"/><path class="cls-1" d="M20.62,1.51V3.17h1.3v.92h-1.3V8.26a.94.94,0,0,0,.2.68.7.7,0,0,0,.53.2,1.05,1.05,0,0,0,.24,0l.23-.06.17.86a1.31,1.31,0,0,1-.41.19,2.67,2.67,0,0,1-.54.07,1.62,1.62,0,0,1-1.22-.46,2,2,0,0,1-.45-1.45V4.09H18.28V3.17h1.09V1.51Z"/><path class="cls-1" d="M24.51,4.09a2.49,2.49,0,0,1,.88-.77A2.29,2.29,0,0,1,26.53,3a2.22,2.22,0,0,1,1.71.66,2.9,2.9,0,0,1,.62,2V10H27.61V5.72a1.86,1.86,0,0,0-.37-1.26,1.39,1.39,0,0,0-1.09-.4,2.13,2.13,0,0,0-1,.21,1.9,1.9,0,0,0-.67.62V10H23.26V.13h1.25Z"/><path class="cls-1" d="M33.5,10.17a2.91,2.91,0,0,1-2.31-.95,3.65,3.65,0,0,1-.83-2.49V6.46A3.55,3.55,0,0,1,31.21,4,2.68,2.68,0,0,1,33.3,3a2.5,2.5,0,0,1,2.07.86,3.58,3.58,0,0,1,.68,2.28v.66H31.66l0,0a2.81,2.81,0,0,0,.46,1.68,1.59,1.59,0,0,0,1.4.64A3.15,3.15,0,0,0,34.61,9a2.51,2.51,0,0,0,.82-.5l.49.81a2.87,2.87,0,0,1-1,.6A3.73,3.73,0,0,1,33.5,10.17ZM33.3,4a1.34,1.34,0,0,0-1.08.51,2.43,2.43,0,0,0-.53,1.29l0,0H34.8v-.1a2,2,0,0,0-.36-1.24A1.36,1.36,0,0,0,33.3,4Z"/><path class="cls-1" d="M42.45,7.53l.16.89h0l.17-.89,1.37-4.36h1l1.38,4.36.18,1h0l.2-1,1-4.36H49.3l-2,6.87h-1L44.94,5.85l-.26-1.09h0L44.4,5.85,43.07,10h-1l-2-6.87h1.3Z"/><path class="cls-1" d="M54.75,10c0-.21-.08-.39-.1-.55a3.88,3.88,0,0,1,0-.48,3,3,0,0,1-.91.83,2.37,2.37,0,0,1-1.21.33,2.24,2.24,0,0,1-1.64-.55,2,2,0,0,1-.56-1.51,1.78,1.78,0,0,1,.8-1.54A3.71,3.71,0,0,1,53.25,6h1.36V5.33a1.23,1.23,0,0,0-.37-1,1.43,1.43,0,0,0-1-.36,1.54,1.54,0,0,0-1,.31.94.94,0,0,0-.37.73H50.65V5a1.66,1.66,0,0,1,.7-1.37A2.94,2.94,0,0,1,53.27,3a2.88,2.88,0,0,1,1.88.59,2.12,2.12,0,0,1,.71,1.71V8.65a5.43,5.43,0,0,0,0,.71A3.16,3.16,0,0,0,56,10Zm-2.08-.92a2.2,2.2,0,0,0,1.23-.35,1.67,1.67,0,0,0,.71-.8V6.86h-1.4A1.77,1.77,0,0,0,52,7.24a1.11,1.11,0,0,0-.46.89.92.92,0,0,0,.29.72A1.18,1.18,0,0,0,52.67,9.12Z"/><path class="cls-1" d="M59.41,1.51V3.17h1.3v.92h-1.3V8.26a.94.94,0,0,0,.2.68.7.7,0,0,0,.53.2l.24,0,.23-.06.17.86a1.21,1.21,0,0,1-.41.19,2.67,2.67,0,0,1-.54.07,1.62,1.62,0,0,1-1.22-.46,2,2,0,0,1-.45-1.45V4.09H57.07V3.17h1.09V1.51Z"/><path class="cls-1" d="M64.9,10.17a2.91,2.91,0,0,1-2.31-.95,3.65,3.65,0,0,1-.83-2.49V6.46A3.55,3.55,0,0,1,62.62,4,2.66,2.66,0,0,1,64.7,3a2.5,2.5,0,0,1,2.07.86,3.52,3.52,0,0,1,.69,2.28v.66h-4.4l0,0a2.88,2.88,0,0,0,.46,1.68,1.6,1.6,0,0,0,1.4.64A3.15,3.15,0,0,0,66,9a2.41,2.41,0,0,0,.82-.5l.49.81a2.87,2.87,0,0,1-1,.6A3.73,3.73,0,0,1,64.9,10.17ZM64.7,4a1.35,1.35,0,0,0-1.08.51,2.35,2.35,0,0,0-.52,1.29v0h3.1v-.1a2.05,2.05,0,0,0-.37-1.24A1.36,1.36,0,0,0,64.7,4Z"/><path class="cls-1" d="M72.11,4.27l-.64,0a1.43,1.43,0,0,0-.84.24,1.57,1.57,0,0,0-.52.66V10H68.86V3.17H70l.12,1a2.26,2.26,0,0,1,.72-.83,1.65,1.65,0,0,1,1-.3l.27,0,.21,0Z"/><path class="cls-1" d="M73.72,9.73l-1,1.94H72l.44-2v-1h1.25Z"/><path class="cls-1" d="M82.65,10a5,5,0,0,1-.1-.55,2.59,2.59,0,0,1,0-.48,3.16,3.16,0,0,1-.91.83,2.37,2.37,0,0,1-1.21.33,2.24,2.24,0,0,1-1.64-.55,2,2,0,0,1-.56-1.51A1.78,1.78,0,0,1,79,6.57,3.71,3.71,0,0,1,81.15,6h1.36V5.33a1.26,1.26,0,0,0-.37-1,1.43,1.43,0,0,0-1-.36,1.54,1.54,0,0,0-1,.31.91.91,0,0,0-.37.73H78.55V5a1.64,1.64,0,0,1,.7-1.37A2.94,2.94,0,0,1,81.17,3a2.88,2.88,0,0,1,1.88.59,2.12,2.12,0,0,1,.71,1.71V8.65c0,.25,0,.48,0,.71a5.12,5.12,0,0,0,.14.68Zm-2.08-.92a2.15,2.15,0,0,0,1.22-.35,1.64,1.64,0,0,0,.72-.8V6.86H81.1a1.81,1.81,0,0,0-1.21.38,1.13,1.13,0,0,0-.45.89.92.92,0,0,0,.29.72A1.18,1.18,0,0,0,80.57,9.12Z"/><path class="cls-1" d="M86.92,1.41H85.67V.13h1.25Zm0,8.63H85.67V3.17h1.25Z"/><path class="cls-1" d="M92.1,4.27l-.64,0a1.43,1.43,0,0,0-.84.24,1.57,1.57,0,0,0-.52.66V10H88.85V3.17H90l.13,1a2.26,2.26,0,0,1,.72-.83,1.65,1.65,0,0,1,1-.3l.27,0,.21,0Z"/><path class="cls-1" d="M100.85,10l-.1-.55c0-.16,0-.32,0-.48a2.92,2.92,0,0,1-.91.83,2.34,2.34,0,0,1-1.21.33A2.22,2.22,0,0,1,97,9.62a2,2,0,0,1-.57-1.51,1.78,1.78,0,0,1,.8-1.54A3.71,3.71,0,0,1,99.35,6h1.36V5.33a1.23,1.23,0,0,0-.37-1,1.41,1.41,0,0,0-1-.36,1.53,1.53,0,0,0-1,.31.92.92,0,0,0-.38.73H96.76l0,0a1.65,1.65,0,0,1,.71-1.37A2.89,2.89,0,0,1,99.37,3a2.86,2.86,0,0,1,1.88.59A2.12,2.12,0,0,1,102,5.34V8.65a5.43,5.43,0,0,0,0,.71,3.91,3.91,0,0,0,.14.68Zm-2.07-.92A2.15,2.15,0,0,0,100,8.77a1.67,1.67,0,0,0,.71-.8V6.86h-1.4a1.77,1.77,0,0,0-1.21.38,1.13,1.13,0,0,0-.45.89.91.91,0,0,0,.28.72A1.19,1.19,0,0,0,98.78,9.12Z"/><path class="cls-1" d="M104.89,3.17l.09,1a2.58,2.58,0,0,1,.86-.85A2.33,2.33,0,0,1,107,3a2.26,2.26,0,0,1,1.72.65,2.83,2.83,0,0,1,.61,2V10H108.1V5.73a1.84,1.84,0,0,0-.36-1.29,1.4,1.4,0,0,0-1.09-.38,1.85,1.85,0,0,0-1,.23,1.6,1.6,0,0,0-.64.65V10h-1.25V3.17Z"/><path class="cls-1" d="M110.88,6.73a4.56,4.56,0,0,1,.71-2.67,2.27,2.27,0,0,1,2-1,2.44,2.44,0,0,1,1.07.22,2.28,2.28,0,0,1,.8.65V.13h1.25V10h-1l-.19-.87a2.2,2.2,0,0,1-.83.75,2.6,2.6,0,0,1-1.15.25,2.36,2.36,0,0,1-2-.91,3.83,3.83,0,0,1-.71-2.4Zm1.25.13a2.87,2.87,0,0,0,.43,1.67,1.49,1.49,0,0,0,1.32.62,1.67,1.67,0,0,0,.94-.25,2,2,0,0,0,.62-.71V5a1.85,1.85,0,0,0-.63-.67,1.6,1.6,0,0,0-.92-.25,1.42,1.42,0,0,0-1.33.74,3.78,3.78,0,0,0-.43,1.93Z"/><path class="cls-1" d="M122.31,10V4.09h-1.08V3.17h1.08V2.3a2.38,2.38,0,0,1,.57-1.7,2.11,2.11,0,0,1,1.6-.6,3.25,3.25,0,0,1,.44,0l.48.1-.15,1L125,1l-.34,0a1,1,0,0,0-.82.33,1.51,1.51,0,0,0-.26.95v.87h1.24v.92h-1.24V10Z"/><path class="cls-1" d="M125.77,6.54A3.78,3.78,0,0,1,126.6,4a2.75,2.75,0,0,1,2.24-1,2.8,2.8,0,0,1,2.25,1,3.75,3.75,0,0,1,.83,2.52v.14a3.76,3.76,0,0,1-.82,2.51,3.07,3.07,0,0,1-4.5,0,3.78,3.78,0,0,1-.83-2.51Zm1.25.14a3.29,3.29,0,0,0,.46,1.8,1.54,1.54,0,0,0,1.37.71,1.53,1.53,0,0,0,1.36-.71,3.21,3.21,0,0,0,.46-1.8V6.54a3.25,3.25,0,0,0-.46-1.8A1.54,1.54,0,0,0,128.84,4a1.51,1.51,0,0,0-1.36.72,3.34,3.34,0,0,0-.46,1.8Z"/><path class="cls-1" d="M133.16,6.54A3.78,3.78,0,0,1,134,4a2.75,2.75,0,0,1,2.24-1,2.8,2.8,0,0,1,2.25,1,3.75,3.75,0,0,1,.83,2.52v.14a3.76,3.76,0,0,1-.82,2.51,3.07,3.07,0,0,1-4.5,0,3.78,3.78,0,0,1-.83-2.51Zm1.25.14a3.21,3.21,0,0,0,.46,1.8,1.67,1.67,0,0,0,2.73,0,3.21,3.21,0,0,0,.46-1.8V6.54a3.17,3.17,0,0,0-.47-1.8,1.64,1.64,0,0,0-2.72,0,3.25,3.25,0,0,0-.46,1.8Z"/><path class="cls-1" d="M140.56,6.73a4.56,4.56,0,0,1,.7-2.67,2.3,2.3,0,0,1,2-1,2.44,2.44,0,0,1,1.07.22,2.24,2.24,0,0,1,.79.65V.13h1.25V10h-1l-.2-.87a2.2,2.2,0,0,1-.83.75,2.6,2.6,0,0,1-1.15.25,2.34,2.34,0,0,1-2-.91,3.77,3.77,0,0,1-.71-2.4Zm1.25.13a3,3,0,0,0,.42,1.67,1.51,1.51,0,0,0,1.32.62,1.65,1.65,0,0,0,.94-.25,1.87,1.87,0,0,0,.62-.71V5a1.91,1.91,0,0,0-.62-.67,1.66,1.66,0,0,0-.93-.25,1.42,1.42,0,0,0-1.33.74,3.89,3.89,0,0,0-.42,1.93Z"/><path class="cls-1" d="M149.32,9.73l-.95,1.94h-.74l.44-2v-1h1.25Z"/><path class="cls-1" d="M155.76,1.51V3.17h1.31v.92h-1.31V8.26a.94.94,0,0,0,.2.68.7.7,0,0,0,.53.2l.25,0,.22-.06.17.86a1.21,1.21,0,0,1-.41.19,2.5,2.5,0,0,1-.54.07A1.64,1.64,0,0,1,155,9.71a2,2,0,0,1-.45-1.45V4.09h-1.09V3.17h1.09V1.51Z"/><path class="cls-1" d="M159.66,4.09a2.38,2.38,0,0,1,.87-.77A2.32,2.32,0,0,1,161.67,3a2.19,2.19,0,0,1,1.71.66,2.9,2.9,0,0,1,.62,2V10h-1.25V5.72a1.86,1.86,0,0,0-.37-1.26,1.38,1.38,0,0,0-1.09-.4,2.13,2.13,0,0,0-1,.21,1.87,1.87,0,0,0-.66.62V10h-1.25V.13h1.25Z"/><path class="cls-1" d="M168.64,10.17a2.91,2.91,0,0,1-2.31-.95,3.65,3.65,0,0,1-.83-2.49V6.46A3.55,3.55,0,0,1,166.36,4a2.64,2.64,0,0,1,2.08-1,2.5,2.5,0,0,1,2.07.86,3.52,3.52,0,0,1,.69,2.28v.66h-4.4l0,0a2.88,2.88,0,0,0,.46,1.68,1.6,1.6,0,0,0,1.4.64A3.15,3.15,0,0,0,169.75,9a2.41,2.41,0,0,0,.82-.5l.49.81a2.87,2.87,0,0,1-1,.6A3.69,3.69,0,0,1,168.64,10.17ZM168.44,4a1.34,1.34,0,0,0-1.08.51,2.43,2.43,0,0,0-.53,1.29l0,0H170v-.1a2.05,2.05,0,0,0-.37-1.24A1.36,1.36,0,0,0,168.44,4Z"/><path class="cls-1" d="M179.82,8.19a.81.81,0,0,0-.31-.67,2.94,2.94,0,0,0-1.19-.46,4.93,4.93,0,0,1-1.86-.73,1.46,1.46,0,0,1-.66-1.26,1.8,1.8,0,0,1,.72-1.43,2.76,2.76,0,0,1,1.85-.6,2.72,2.72,0,0,1,1.89.64A1.81,1.81,0,0,1,181,5.15v0h-1.19a1.08,1.08,0,0,0-.39-.8,1.41,1.41,0,0,0-1-.37,1.43,1.43,0,0,0-1,.3.93.93,0,0,0-.33.71.76.76,0,0,0,.29.63,3,3,0,0,0,1.16.41,5.12,5.12,0,0,1,1.92.75,1.51,1.51,0,0,1,.65,1.28,1.78,1.78,0,0,1-.74,1.49,3.52,3.52,0,0,1-4-.09A1.92,1.92,0,0,1,175.61,8l0,0h1.19a1.16,1.16,0,0,0,.49,1,1.91,1.91,0,0,0,1.09.31,1.69,1.69,0,0,0,1-.28A.85.85,0,0,0,179.82,8.19Z"/><path class="cls-1" d="M184,10h-1.25V.13H184Z"/><path class="cls-1" d="M188.75,10.17a2.91,2.91,0,0,1-2.31-.95,3.65,3.65,0,0,1-.83-2.49V6.46A3.6,3.6,0,0,1,186.46,4a2.68,2.68,0,0,1,2.09-1,2.5,2.5,0,0,1,2.07.86,3.52,3.52,0,0,1,.68,2.28v.66h-4.39l0,0a2.88,2.88,0,0,0,.46,1.68,1.6,1.6,0,0,0,1.4.64A3.15,3.15,0,0,0,189.86,9a2.41,2.41,0,0,0,.82-.5l.49.81a2.87,2.87,0,0,1-1,.6A3.73,3.73,0,0,1,188.75,10.17ZM188.55,4a1.34,1.34,0,0,0-1.08.51,2.43,2.43,0,0,0-.53,1.29l0,0h3.09v-.1a2,2,0,0,0-.36-1.24A1.36,1.36,0,0,0,188.55,4Z"/><path class="cls-1" d="M195.55,10.17a2.94,2.94,0,0,1-2.31-.95,3.65,3.65,0,0,1-.82-2.49V6.46A3.55,3.55,0,0,1,193.27,4a2.66,2.66,0,0,1,2.09-1,2.5,2.5,0,0,1,2.06.86,3.52,3.52,0,0,1,.69,2.28v.66h-4.39l0,0a2.81,2.81,0,0,0,.46,1.68,1.58,1.58,0,0,0,1.39.64A3.21,3.21,0,0,0,196.67,9a2.51,2.51,0,0,0,.82-.5l.49.81a3,3,0,0,1-1,.6A3.78,3.78,0,0,1,195.55,10.17ZM195.36,4a1.37,1.37,0,0,0-1.09.51,2.42,2.42,0,0,0-.52,1.29v0h3.1v-.1a2,2,0,0,0-.37-1.24A1.33,1.33,0,0,0,195.36,4Z"/><path class="cls-1" d="M205.37,6.86a3.77,3.77,0,0,1-.72,2.4,2.33,2.33,0,0,1-2,.91,2.75,2.75,0,0,1-1.11-.21,2.31,2.31,0,0,1-.82-.64v3.36h-1.25V3.17h1l.2.89a2.18,2.18,0,0,1,.84-.76A2.51,2.51,0,0,1,202.67,3a2.3,2.3,0,0,1,2,1,4.62,4.62,0,0,1,.71,2.68Zm-1.25-.13a3.59,3.59,0,0,0-.47-1.92,1.47,1.47,0,0,0-1.35-.75,1.68,1.68,0,0,0-.92.24,1.82,1.82,0,0,0-.62.67V8.29a1.79,1.79,0,0,0,.62.66,1.69,1.69,0,0,0,.93.24,1.56,1.56,0,0,0,1.35-.65,2.88,2.88,0,0,0,.46-1.68Z"/><path class="cls-1" d="M211.48,1.41h-1.25V.13h1.25Zm0,8.63h-1.25V3.17h1.25Z"/><path class="cls-1" d="M217.4,8.19a.81.81,0,0,0-.31-.67,2.94,2.94,0,0,0-1.19-.46A5.06,5.06,0,0,1,214,6.33a1.48,1.48,0,0,1-.65-1.26,1.8,1.8,0,0,1,.72-1.43A2.76,2.76,0,0,1,216,3a2.72,2.72,0,0,1,1.89.64,1.81,1.81,0,0,1,.69,1.47v0h-1.2a1.08,1.08,0,0,0-.39-.8A1.4,1.4,0,0,0,216,4a1.43,1.43,0,0,0-1,.3.93.93,0,0,0-.33.71.76.76,0,0,0,.29.63,2.93,2.93,0,0,0,1.16.41,5.12,5.12,0,0,1,1.92.75,1.54,1.54,0,0,1,.65,1.28,1.81,1.81,0,0,1-.74,1.49,3,3,0,0,1-1.93.58,3,3,0,0,1-2.07-.67A1.92,1.92,0,0,1,213.19,8l0,0h1.19a1.14,1.14,0,0,0,.49,1,1.89,1.89,0,0,0,1.09.31,1.69,1.69,0,0,0,1-.28A.87.87,0,0,0,217.4,8.19Z"/><path class="cls-1" d="M.34,22.14a3.78,3.78,0,0,1,.83-2.51,2.75,2.75,0,0,1,2.24-1,2.83,2.83,0,0,1,2.26,1,3.8,3.8,0,0,1,.82,2.52v.14a3.76,3.76,0,0,1-.82,2.51,2.8,2.8,0,0,1-2.25,1,2.8,2.8,0,0,1-2.25-1,3.78,3.78,0,0,1-.83-2.51Zm1.25.14a3.29,3.29,0,0,0,.46,1.8,1.54,1.54,0,0,0,1.37.71,1.53,1.53,0,0,0,1.36-.71,3.21,3.21,0,0,0,.46-1.8v-.14a3.25,3.25,0,0,0-.46-1.8,1.54,1.54,0,0,0-1.37-.72,1.51,1.51,0,0,0-1.36.72,3.34,3.34,0,0,0-.46,1.8Z"/><path class="cls-1" d="M9.14,18.77l.09,1a2.5,2.5,0,0,1,.86-.85,2.3,2.3,0,0,1,1.18-.3,2.26,2.26,0,0,1,1.72.65,2.89,2.89,0,0,1,.61,2v4.34H12.35V21.33A1.84,1.84,0,0,0,12,20a1.43,1.43,0,0,0-1.1-.38,1.9,1.9,0,0,0-1,.23,1.67,1.67,0,0,0-.64.65v5.1H8V18.77Z"/><path class="cls-1" d="M18.26,25.77A2.91,2.91,0,0,1,16,24.82a3.65,3.65,0,0,1-.83-2.49v-.27A3.55,3.55,0,0,1,16,19.61a2.68,2.68,0,0,1,2.09-1,2.47,2.47,0,0,1,2.06.86,3.52,3.52,0,0,1,.69,2.28v.66H16.42l0,0a2.81,2.81,0,0,0,.46,1.68,1.59,1.59,0,0,0,1.4.64,3.15,3.15,0,0,0,1.11-.18,2.51,2.51,0,0,0,.82-.5l.49.81a3,3,0,0,1-1,.6A3.73,3.73,0,0,1,18.26,25.77Zm-.2-6.15a1.34,1.34,0,0,0-1.08.51,2.43,2.43,0,0,0-.53,1.29v0h3.1v-.1a2,2,0,0,0-.36-1.24A1.36,1.36,0,0,0,18.06,19.62Z"/><path class="cls-1" d="M25.16,22.14A3.77,3.77,0,0,1,26,19.63a2.77,2.77,0,0,1,2.24-1,2.82,2.82,0,0,1,2.26,1,3.81,3.81,0,0,1,.83,2.52v.14a3.76,3.76,0,0,1-.83,2.51,3.07,3.07,0,0,1-4.5,0,3.77,3.77,0,0,1-.82-2.51Zm1.25.14a3.21,3.21,0,0,0,.46,1.8,1.66,1.66,0,0,0,2.72,0,3.21,3.21,0,0,0,.47-1.8v-.14a3.26,3.26,0,0,0-.47-1.8,1.53,1.53,0,0,0-1.37-.72,1.49,1.49,0,0,0-1.35.72,3.25,3.25,0,0,0-.46,1.8Z"/><path class="cls-1" d="M33.36,25.64V19.69H32.28v-.92h1.08V17.9a2.38,2.38,0,0,1,.57-1.7,2.11,2.11,0,0,1,1.6-.6,3.25,3.25,0,0,1,.44,0l.48.1-.15,1L36,16.64l-.34,0a1,1,0,0,0-.82.33,1.51,1.51,0,0,0-.26.95v.87h1.24v.92H34.61v5.95Z"/><path class="cls-1" d="M43.19,25.77a2.91,2.91,0,0,1-2.31-.95,3.65,3.65,0,0,1-.83-2.49v-.27a3.55,3.55,0,0,1,.86-2.45,2.66,2.66,0,0,1,2.08-1,2.5,2.5,0,0,1,2.07.86,3.52,3.52,0,0,1,.69,2.28v.66h-4.4v0a2.88,2.88,0,0,0,.45,1.68,1.6,1.6,0,0,0,1.4.64,3.15,3.15,0,0,0,1.11-.18,2.41,2.41,0,0,0,.82-.5l.49.81a2.87,2.87,0,0,1-1,.6A3.69,3.69,0,0,1,43.19,25.77ZM43,19.62a1.36,1.36,0,0,0-1.08.51,2.35,2.35,0,0,0-.52,1.29v0h3.1v-.1a2.05,2.05,0,0,0-.37-1.24A1.36,1.36,0,0,0,43,19.62Z"/><path class="cls-1" d="M51.14,23.79a.81.81,0,0,0-.31-.67,2.94,2.94,0,0,0-1.19-.46,4.93,4.93,0,0,1-1.86-.73,1.46,1.46,0,0,1-.66-1.26,1.8,1.8,0,0,1,.72-1.43,2.76,2.76,0,0,1,1.85-.6,2.72,2.72,0,0,1,1.89.64,1.81,1.81,0,0,1,.69,1.47v0H51.07a1.08,1.08,0,0,0-.39-.8,1.41,1.41,0,0,0-1-.37,1.43,1.43,0,0,0-1,.3.92.92,0,0,0-.32.71.75.75,0,0,0,.28.63,3,3,0,0,0,1.16.41,5.12,5.12,0,0,1,1.92.75,1.51,1.51,0,0,1,.65,1.28,1.78,1.78,0,0,1-.74,1.49,3.52,3.52,0,0,1-4-.09,1.92,1.92,0,0,1-.72-1.55l0,0h1.19a1.16,1.16,0,0,0,.49,1,1.91,1.91,0,0,0,1.09.31,1.67,1.67,0,0,0,1-.28A.85.85,0,0,0,51.14,23.79Z"/><path class="cls-1" d="M57.94,23.79a.81.81,0,0,0-.31-.67,2.94,2.94,0,0,0-1.19-.46,5.06,5.06,0,0,1-1.87-.73,1.48,1.48,0,0,1-.65-1.26,1.8,1.8,0,0,1,.72-1.43,2.76,2.76,0,0,1,1.85-.6,2.72,2.72,0,0,1,1.89.64,1.81,1.81,0,0,1,.69,1.47v0H57.87a1.09,1.09,0,0,0-.4-.8,1.4,1.4,0,0,0-1-.37,1.43,1.43,0,0,0-1,.3.93.93,0,0,0-.33.71.76.76,0,0,0,.29.63,2.93,2.93,0,0,0,1.16.41,5.12,5.12,0,0,1,1.92.75,1.54,1.54,0,0,1,.65,1.28,1.78,1.78,0,0,1-.74,1.49,3,3,0,0,1-1.93.58,3,3,0,0,1-2.07-.67,1.92,1.92,0,0,1-.72-1.55l0,0h1.19a1.14,1.14,0,0,0,.49,1,1.89,1.89,0,0,0,1.09.31,1.69,1.69,0,0,0,1-.28A.87.87,0,0,0,57.94,23.79Z"/><path class="cls-1" d="M63.59,25.77a2.91,2.91,0,0,1-2.31-.95,3.65,3.65,0,0,1-.82-2.49v-.27a3.55,3.55,0,0,1,.85-2.45,2.66,2.66,0,0,1,2.08-1,2.5,2.5,0,0,1,2.07.86,3.52,3.52,0,0,1,.69,2.28v.66H61.76l0,0a2.88,2.88,0,0,0,.45,1.68,1.6,1.6,0,0,0,1.4.64,3.15,3.15,0,0,0,1.11-.18,2.56,2.56,0,0,0,.83-.5l.49.81a2.92,2.92,0,0,1-1,.6A3.69,3.69,0,0,1,63.59,25.77Zm-.2-6.15a1.36,1.36,0,0,0-1.08.51,2.42,2.42,0,0,0-.52,1.29v0h3.1v-.1a2,2,0,0,0-.37-1.24A1.35,1.35,0,0,0,63.39,19.62Z"/><path class="cls-1" d="M68.67,18.77l.09,1a2.5,2.5,0,0,1,.86-.85,2.55,2.55,0,0,1,2.9.35,2.89,2.89,0,0,1,.6,2v4.34H71.87V21.33A1.9,1.9,0,0,0,71.52,20a1.43,1.43,0,0,0-1.1-.38,1.9,1.9,0,0,0-1,.23,1.67,1.67,0,0,0-.64.65v5.1H67.55V18.77Z"/><path class="cls-1" d="M77.67,24.79a1.51,1.51,0,0,0,1-.38,1.21,1.21,0,0,0,.43-.95h1.13l0,0a2,2,0,0,1-.76,1.58,2.91,2.91,0,0,1-4.06-.29,3.8,3.8,0,0,1-.79-2.46v-.26a3.76,3.76,0,0,1,.79-2.44,2.68,2.68,0,0,1,2.23-1,2.6,2.6,0,0,1,1.88.71,2.26,2.26,0,0,1,.71,1.75v0H79.11a1.52,1.52,0,0,0-.41-1.07,1.33,1.33,0,0,0-1-.45,1.44,1.44,0,0,0-1.34.72,3.24,3.24,0,0,0-.43,1.73v.26a3.38,3.38,0,0,0,.42,1.75A1.46,1.46,0,0,0,77.67,24.79Z"/><path class="cls-1" d="M84.59,25.77a2.91,2.91,0,0,1-2.31-.95,3.65,3.65,0,0,1-.83-2.49v-.27a3.55,3.55,0,0,1,.86-2.45,2.66,2.66,0,0,1,2.08-1,2.5,2.5,0,0,1,2.07.86,3.52,3.52,0,0,1,.69,2.28v.66h-4.4l0,0a2.88,2.88,0,0,0,.46,1.68,1.6,1.6,0,0,0,1.4.64,3.15,3.15,0,0,0,1.11-.18,2.41,2.41,0,0,0,.82-.5l.49.81a2.87,2.87,0,0,1-1,.6A3.69,3.69,0,0,1,84.59,25.77Zm-.2-6.15a1.35,1.35,0,0,0-1.08.51,2.35,2.35,0,0,0-.52,1.29v0h3.1v-.1a2.05,2.05,0,0,0-.37-1.24A1.36,1.36,0,0,0,84.39,19.62Z"/><path class="cls-1" d="M93.52,17.11v1.66h1.3v.92h-1.3v4.17a.94.94,0,0,0,.2.68.69.69,0,0,0,.53.2l.24,0,.22-.06.17.86a1.21,1.21,0,0,1-.41.19,2.5,2.5,0,0,1-.54.07,1.6,1.6,0,0,1-1.21-.46,2,2,0,0,1-.45-1.45V19.69H91.18v-.92h1.09V17.11Z"/><path class="cls-1" d="M97.41,19.69a2.55,2.55,0,0,1,.87-.77,2.36,2.36,0,0,1,1.15-.28,2.22,2.22,0,0,1,1.71.66,2.9,2.9,0,0,1,.61,2v4.31H100.5V21.32a1.86,1.86,0,0,0-.36-1.26,1.41,1.41,0,0,0-1.09-.4,2,2,0,0,0-1,.22,1.71,1.71,0,0,0-.67.61v5.15H96.16V15.73h1.25Z"/><path class="cls-1" d="M104.9,17h-1.25V15.73h1.25Zm0,8.63h-1.25V18.77h1.25Z"/><path class="cls-1" d="M107.94,18.77l.09,1a2.5,2.5,0,0,1,.86-.85,2.33,2.33,0,0,1,1.18-.3,2.26,2.26,0,0,1,1.72.65,2.89,2.89,0,0,1,.61,2v4.34h-1.25V21.33a1.84,1.84,0,0,0-.36-1.29,1.43,1.43,0,0,0-1.1-.38,1.9,1.9,0,0,0-1,.23,1.67,1.67,0,0,0-.64.65v5.1h-1.25V18.77Z"/><path class="cls-1" d="M114,22.33a4.56,4.56,0,0,1,.71-2.67,2.27,2.27,0,0,1,2-1,2.46,2.46,0,0,1,1.14.26,2.43,2.43,0,0,1,.84.76l.15-.89h1v6.9a2.63,2.63,0,0,1-.76,2,3.17,3.17,0,0,1-2.22.71,4.7,4.7,0,0,1-1.07-.14,4,4,0,0,1-1-.37l.19-1a3.53,3.53,0,0,0,.87.31,4.42,4.42,0,0,0,1,.12,1.81,1.81,0,0,0,1.33-.42,1.72,1.72,0,0,0,.41-1.27v-.78a2.2,2.2,0,0,1-.8.66,2.65,2.65,0,0,1-1.09.22,2.34,2.34,0,0,1-2-.91,3.83,3.83,0,0,1-.71-2.4Zm1.25.13a2.84,2.84,0,0,0,.43,1.66,1.47,1.47,0,0,0,1.31.63,1.68,1.68,0,0,0,1-.25,2,2,0,0,0,.62-.73V20.61a2,2,0,0,0-.62-.7,1.67,1.67,0,0,0-.94-.25,1.42,1.42,0,0,0-1.32.74,3.78,3.78,0,0,0-.43,1.93Z"/><path class="cls-1" d="M126.57,17.11v1.66h1.3v.92h-1.3v4.17a.94.94,0,0,0,.2.68.7.7,0,0,0,.53.2l.24,0,.23-.06.17.86a1.27,1.27,0,0,1-.42.19,2.5,2.5,0,0,1-.54.07,1.61,1.61,0,0,1-1.21-.46,2,2,0,0,1-.45-1.45V19.69h-1.09v-.92h1.09V17.11Z"/><path class="cls-1" d="M128.92,22.14a3.78,3.78,0,0,1,.83-2.51,2.75,2.75,0,0,1,2.24-1,2.8,2.8,0,0,1,2.25,1,3.81,3.81,0,0,1,.83,2.52v.14a3.76,3.76,0,0,1-.82,2.51,3.07,3.07,0,0,1-4.5,0,3.78,3.78,0,0,1-.83-2.51Zm1.25.14a3.21,3.21,0,0,0,.46,1.8,1.67,1.67,0,0,0,2.73,0,3.21,3.21,0,0,0,.46-1.8v-.14a3.17,3.17,0,0,0-.47-1.8,1.64,1.64,0,0,0-2.72,0,3.25,3.25,0,0,0-.46,1.8Z"/><path class="cls-1" d="M144.19,24.62a2.22,2.22,0,0,1-2,1.15,2.18,2.18,0,0,1-1.75-.72,3.32,3.32,0,0,1-.63-2.23V18.77h1.25v4.06a2.6,2.6,0,0,0,.32,1.51,1.19,1.19,0,0,0,1,.41,2.06,2.06,0,0,0,1.1-.27,1.69,1.69,0,0,0,.66-.76V18.77h1.25v6.87h-1.12Z"/><path class="cls-1" d="M151.21,23.79a.81.81,0,0,0-.31-.67,2.94,2.94,0,0,0-1.19-.46,4.93,4.93,0,0,1-1.86-.73,1.45,1.45,0,0,1-.65-1.26,1.79,1.79,0,0,1,.71-1.43,2.76,2.76,0,0,1,1.85-.6,2.72,2.72,0,0,1,1.89.64,1.81,1.81,0,0,1,.69,1.47v0h-1.19a1.08,1.08,0,0,0-.39-.8,1.41,1.41,0,0,0-1-.37,1.43,1.43,0,0,0-1,.3.92.92,0,0,0-.32.71.75.75,0,0,0,.28.63,3,3,0,0,0,1.16.41,5,5,0,0,1,1.92.75,1.51,1.51,0,0,1,.65,1.28,1.78,1.78,0,0,1-.74,1.49,3.52,3.52,0,0,1-4-.09,1.92,1.92,0,0,1-.72-1.55l0,0h1.19a1.15,1.15,0,0,0,.5,1,1.88,1.88,0,0,0,1.08.31,1.72,1.72,0,0,0,1.05-.28A.86.86,0,0,0,151.21,23.79Z"/><path class="cls-1" d="M155.38,25.64h-1.25V24.35h1.25Z"/><path class="cls-1" d="M162.15,24.66h4.51v1H160.9V16.39h1.25Z"/><path class="cls-1" d="M172.1,25.64a5,5,0,0,1-.1-.55,3.88,3.88,0,0,1,0-.48,3.16,3.16,0,0,1-.91.83,2.37,2.37,0,0,1-1.21.33,2.24,2.24,0,0,1-1.64-.55,2,2,0,0,1-.56-1.51,1.78,1.78,0,0,1,.8-1.54,3.71,3.71,0,0,1,2.16-.56H172v-.68a1.26,1.26,0,0,0-.37-.95,1.43,1.43,0,0,0-1-.36,1.54,1.54,0,0,0-1,.31.91.91,0,0,0-.37.73H168v0a1.64,1.64,0,0,1,.7-1.37,2.94,2.94,0,0,1,1.93-.62,2.88,2.88,0,0,1,1.88.59,2.12,2.12,0,0,1,.71,1.71v3.31a5.43,5.43,0,0,0,0,.71,3.16,3.16,0,0,0,.14.68ZM170,24.72a2.2,2.2,0,0,0,1.23-.35,1.67,1.67,0,0,0,.71-.8V22.46h-1.41a1.76,1.76,0,0,0-1.2.38,1.11,1.11,0,0,0-.46.89,1,1,0,0,0,.29.73A1.22,1.22,0,0,0,170,24.72Z"/><path class="cls-1" d="M177.75,24.79a1.49,1.49,0,0,0,1-.38,1.21,1.21,0,0,0,.43-.95h1.13l0,0a1.94,1.94,0,0,1-.76,1.58,2.67,2.67,0,0,1-1.83.69,2.7,2.7,0,0,1-2.23-1,3.8,3.8,0,0,1-.79-2.46v-.26a3.76,3.76,0,0,1,.79-2.44,2.69,2.69,0,0,1,2.23-1,2.58,2.58,0,0,1,1.88.71,2.26,2.26,0,0,1,.71,1.75v0h-1.14a1.51,1.51,0,0,0-.4-1.07,1.36,1.36,0,0,0-1-.45,1.44,1.44,0,0,0-1.34.72,3.33,3.33,0,0,0-.42,1.73v.26a3.48,3.48,0,0,0,.41,1.75A1.46,1.46,0,0,0,177.75,24.79Z"/><path class="cls-1" d="M183.73,22.47h-.65v3.17h-1.25V15.73h1.25v5.74h.63l2.07-2.7h1.49l-2.49,3.17,2.71,3.7H186Z"/><path class="cls-1" d="M191.43,22.14a3.78,3.78,0,0,1,.83-2.51,2.75,2.75,0,0,1,2.24-1,2.8,2.8,0,0,1,2.25,1,3.75,3.75,0,0,1,.83,2.52v.14a3.76,3.76,0,0,1-.82,2.51,3.07,3.07,0,0,1-4.5,0,3.78,3.78,0,0,1-.83-2.51Zm1.25.14a3.29,3.29,0,0,0,.46,1.8,1.54,1.54,0,0,0,1.37.71,1.53,1.53,0,0,0,1.36-.71,3.21,3.21,0,0,0,.46-1.8v-.14a3.25,3.25,0,0,0-.46-1.8,1.54,1.54,0,0,0-1.37-.72,1.51,1.51,0,0,0-1.36.72,3.34,3.34,0,0,0-.46,1.8Z"/><path class="cls-1" d="M199.63,25.64V19.69h-1.07v-.92h1.07V17.9a2.34,2.34,0,0,1,.58-1.7,2.1,2.1,0,0,1,1.6-.6,3.25,3.25,0,0,1,.44,0l.48.1-.15,1-.28-.05-.34,0a1,1,0,0,0-.81.33,1.45,1.45,0,0,0-.27.95v.87h1.25v.92h-1.25v5.95Z"/><path class="cls-1" d="M4.63,39.39a.82.82,0,0,0-.32-.67,2.88,2.88,0,0,0-1.19-.46,4.93,4.93,0,0,1-1.86-.73,1.48,1.48,0,0,1-.65-1.26,1.82,1.82,0,0,1,.71-1.43,2.8,2.8,0,0,1,1.85-.6,2.72,2.72,0,0,1,1.89.64,1.79,1.79,0,0,1,.7,1.47l0,0H4.55a1.08,1.08,0,0,0-.39-.8,1.41,1.41,0,0,0-1-.37,1.39,1.39,0,0,0-1,.3.93.93,0,0,0-.33.71.75.75,0,0,0,.28.63,3.07,3.07,0,0,0,1.17.41A5,5,0,0,1,5.22,38a1.52,1.52,0,0,1,.66,1.28,1.81,1.81,0,0,1-.74,1.49,3,3,0,0,1-1.93.58,3,3,0,0,1-2.07-.67,1.86,1.86,0,0,1-.72-1.55v0H1.62a1.17,1.17,0,0,0,.5,1,1.89,1.89,0,0,0,1.09.31,1.69,1.69,0,0,0,1-.28A.87.87,0,0,0,4.63,39.39Z"/><path class="cls-1" d="M8.79,41.24H7.53V31.33H8.79Z"/><path class="cls-1" d="M13.55,41.37a2.94,2.94,0,0,1-2.31-.95,3.64,3.64,0,0,1-.82-2.48v-.28a3.55,3.55,0,0,1,.85-2.45,2.66,2.66,0,0,1,2.09-1,2.5,2.5,0,0,1,2.06.86,3.52,3.52,0,0,1,.69,2.28V38H11.72l0,0a2.81,2.81,0,0,0,.46,1.68,1.58,1.58,0,0,0,1.39.64,3.21,3.21,0,0,0,1.12-.18,2.51,2.51,0,0,0,.82-.5l.49.81a3,3,0,0,1-1,.6A3.78,3.78,0,0,1,13.55,41.37Zm-.19-6.15a1.37,1.37,0,0,0-1.09.51A2.42,2.42,0,0,0,11.75,37v0h3.1V37a2,2,0,0,0-.37-1.24A1.33,1.33,0,0,0,13.36,35.22Z"/><path class="cls-1" d="M20.36,41.37a2.91,2.91,0,0,1-2.31-.95,3.64,3.64,0,0,1-.83-2.48v-.28a3.6,3.6,0,0,1,.85-2.45,2.68,2.68,0,0,1,2.09-1,2.5,2.5,0,0,1,2.07.86,3.52,3.52,0,0,1,.68,2.28V38H18.52l0,0A2.88,2.88,0,0,0,19,39.75a1.59,1.59,0,0,0,1.4.64,3.15,3.15,0,0,0,1.11-.18,2.51,2.51,0,0,0,.82-.5l.49.81a2.87,2.87,0,0,1-1,.6A3.73,3.73,0,0,1,20.36,41.37Zm-.2-6.15a1.34,1.34,0,0,0-1.08.51A2.43,2.43,0,0,0,18.55,37l0,0h3.09V37a2,2,0,0,0-.36-1.24A1.36,1.36,0,0,0,20.16,35.22Z"/><path class="cls-1" d="M30.17,38.06a3.83,3.83,0,0,1-.71,2.4,2.35,2.35,0,0,1-2,.91,2.76,2.76,0,0,1-1.12-.21,2.2,2.2,0,0,1-.81-.64v3.36H24.32V34.37h1l.19.89a2.34,2.34,0,0,1,.84-.76,2.52,2.52,0,0,1,1.17-.26,2.28,2.28,0,0,1,2,1,4.62,4.62,0,0,1,.71,2.68Zm-1.25-.13A3.59,3.59,0,0,0,28.46,36a1.5,1.5,0,0,0-1.36-.75,1.7,1.7,0,0,0-.92.24,1.8,1.8,0,0,0-.61.67v3.32a1.65,1.65,0,0,0,1.55.9,1.53,1.53,0,0,0,1.34-.65,2.81,2.81,0,0,0,.46-1.68Z"/><path class="cls-1" d="M37.67,40.39a1.51,1.51,0,0,0,1-.38,1.25,1.25,0,0,0,.43-.95h1.13l0,0a2,2,0,0,1-.77,1.58,2.67,2.67,0,0,1-1.82.69,2.72,2.72,0,0,1-2.24-1,3.85,3.85,0,0,1-.79-2.45v-.27a3.77,3.77,0,0,1,.8-2.44,2.68,2.68,0,0,1,2.23-1,2.61,2.61,0,0,1,1.88.71,2.29,2.29,0,0,1,.71,1.75l0,0H39.11a1.52,1.52,0,0,0-.41-1.07,1.35,1.35,0,0,0-1-.45,1.46,1.46,0,0,0-1.35.72,3.33,3.33,0,0,0-.42,1.73v.27a3.37,3.37,0,0,0,.42,1.74A1.44,1.44,0,0,0,37.67,40.39Z"/><path class="cls-1" d="M46,41.24l-.1-.55c0-.16,0-.32,0-.48a2.92,2.92,0,0,1-.91.83,2.34,2.34,0,0,1-1.21.33,2.22,2.22,0,0,1-1.63-.55,2,2,0,0,1-.56-1.51,1.77,1.77,0,0,1,.79-1.54,3.71,3.71,0,0,1,2.16-.56h1.36v-.68a1.26,1.26,0,0,0-.36-1,1.45,1.45,0,0,0-1.05-.36,1.53,1.53,0,0,0-1,.31.91.91,0,0,0-.37.73H41.87v0a1.64,1.64,0,0,1,.7-1.37,2.91,2.91,0,0,1,1.92-.62,2.86,2.86,0,0,1,1.88.59,2.09,2.09,0,0,1,.71,1.71v3.31c0,.25,0,.48,0,.71a3.91,3.91,0,0,0,.14.68Zm-2.07-.92A2.15,2.15,0,0,0,45.11,40a1.62,1.62,0,0,0,.71-.8V38.06h-1.4a1.79,1.79,0,0,0-1.21.38,1.13,1.13,0,0,0-.45.89,1,1,0,0,0,.28.73A1.23,1.23,0,0,0,43.89,40.32Z"/><path class="cls-1" d="M53.25,40.22a2.34,2.34,0,0,1-.83.85,2.28,2.28,0,0,1-1.18.3,2.21,2.21,0,0,1-1.75-.72,3.32,3.32,0,0,1-.63-2.23V34.37h1.25v4.06a2.51,2.51,0,0,0,.33,1.51,1.18,1.18,0,0,0,1,.41,2.06,2.06,0,0,0,1.1-.27,1.69,1.69,0,0,0,.66-.76v-5h1.25v6.87H53.33Z"/><path class="cls-1" d="M60.27,39.39a.81.81,0,0,0-.31-.67,2.94,2.94,0,0,0-1.19-.46,5.06,5.06,0,0,1-1.87-.73,1.48,1.48,0,0,1-.65-1.26A1.8,1.8,0,0,1,57,34.84a2.76,2.76,0,0,1,1.85-.6,2.72,2.72,0,0,1,1.89.64,1.81,1.81,0,0,1,.69,1.47v0h-1.2a1.08,1.08,0,0,0-.39-.8,1.4,1.4,0,0,0-1-.37,1.43,1.43,0,0,0-1,.3.93.93,0,0,0-.33.71.76.76,0,0,0,.29.63,2.93,2.93,0,0,0,1.16.41,5.12,5.12,0,0,1,1.92.75,1.54,1.54,0,0,1,.65,1.28,1.81,1.81,0,0,1-.74,1.49,3,3,0,0,1-1.93.58,3,3,0,0,1-2.07-.67,1.92,1.92,0,0,1-.72-1.55v0h1.2a1.14,1.14,0,0,0,.49,1,1.89,1.89,0,0,0,1.09.31,1.69,1.69,0,0,0,1-.28A.87.87,0,0,0,60.27,39.39Z"/><path class="cls-1" d="M65.92,41.37a2.91,2.91,0,0,1-2.31-.95,3.64,3.64,0,0,1-.83-2.48v-.28a3.55,3.55,0,0,1,.86-2.45,2.66,2.66,0,0,1,2.08-1,2.5,2.5,0,0,1,2.07.86,3.52,3.52,0,0,1,.69,2.28V38H64.09l0,0a2.88,2.88,0,0,0,.45,1.68,1.6,1.6,0,0,0,1.4.64A3.15,3.15,0,0,0,67,40.21a2.56,2.56,0,0,0,.83-.5l.48.81a2.77,2.77,0,0,1-1,.6A3.69,3.69,0,0,1,65.92,41.37Zm-.2-6.15a1.36,1.36,0,0,0-1.08.51A2.42,2.42,0,0,0,64.12,37v0h3.1V37a2,2,0,0,0-.37-1.24A1.35,1.35,0,0,0,65.72,35.22Z"/><path class="cls-1" d="M73.87,39.39a.81.81,0,0,0-.31-.67,2.94,2.94,0,0,0-1.19-.46,4.93,4.93,0,0,1-1.86-.73,1.45,1.45,0,0,1-.65-1.26,1.79,1.79,0,0,1,.71-1.43,2.76,2.76,0,0,1,1.85-.6,2.72,2.72,0,0,1,1.89.64A1.81,1.81,0,0,1,75,36.35v0H73.8a1.08,1.08,0,0,0-.39-.8,1.41,1.41,0,0,0-1-.37,1.43,1.43,0,0,0-1,.3.92.92,0,0,0-.32.71.75.75,0,0,0,.28.63,3,3,0,0,0,1.16.41,5,5,0,0,1,1.92.75,1.51,1.51,0,0,1,.65,1.28,1.78,1.78,0,0,1-.74,1.49,3.52,3.52,0,0,1-4-.09,1.88,1.88,0,0,1-.71-1.55v0h1.19a1.15,1.15,0,0,0,.5,1,1.88,1.88,0,0,0,1.08.31,1.72,1.72,0,0,0,1-.28A.86.86,0,0,0,73.87,39.39Z"/><path class="cls-1" d="M85.76,38.06a3.77,3.77,0,0,1-.71,2.4,2.34,2.34,0,0,1-2,.91A2.75,2.75,0,0,1,82,41.16a2.23,2.23,0,0,1-.82-.64v3.36H79.91V34.37h1l.2.89a2.23,2.23,0,0,1,.83-.76,2.58,2.58,0,0,1,1.17-.26,2.28,2.28,0,0,1,2,1,4.54,4.54,0,0,1,.71,2.68Zm-1.25-.13A3.59,3.59,0,0,0,84.05,36a1.48,1.48,0,0,0-1.35-.75,1.68,1.68,0,0,0-.92.24,1.82,1.82,0,0,0-.62.67v3.32a1.79,1.79,0,0,0,.62.66,1.69,1.69,0,0,0,.93.24,1.53,1.53,0,0,0,1.34-.65,2.81,2.81,0,0,0,.46-1.68Z"/><path class="cls-1" d="M88.55,35.29a2.55,2.55,0,0,1,.87-.77,2.36,2.36,0,0,1,1.15-.28,2.22,2.22,0,0,1,1.71.66,2.9,2.9,0,0,1,.61,2v4.31H91.64V36.92a1.86,1.86,0,0,0-.36-1.26,1.41,1.41,0,0,0-1.09-.4,2,2,0,0,0-1,.22,1.71,1.71,0,0,0-.67.61v5.15H87.3V31.33h1.25Z"/><path class="cls-1" d="M96.79,38.69l.22.86h0l1.69-5.18h1.39l-2.89,7.92a3.52,3.52,0,0,1-.75,1.21,1.72,1.72,0,0,1-1.31.51l-.39,0-.36-.07.13-1,.23,0,.33,0a.76.76,0,0,0,.65-.36,4,4,0,0,0,.43-.79l.3-.71L94,34.37h1.39Z"/><path class="cls-1" d="M105.22,39.39a.82.82,0,0,0-.32-.67,2.82,2.82,0,0,0-1.19-.46,5.07,5.07,0,0,1-1.86-.73,1.48,1.48,0,0,1-.65-1.26,1.82,1.82,0,0,1,.71-1.43,2.8,2.8,0,0,1,1.85-.6,2.77,2.77,0,0,1,1.9.64,1.81,1.81,0,0,1,.69,1.47v0h-1.2a1.08,1.08,0,0,0-.39-.8,1.62,1.62,0,0,0-2-.07.93.93,0,0,0-.33.71.75.75,0,0,0,.28.63,3.07,3.07,0,0,0,1.17.41,5,5,0,0,1,1.91.75,1.52,1.52,0,0,1,.66,1.28,1.81,1.81,0,0,1-.74,1.49,3,3,0,0,1-1.93.58,3,3,0,0,1-2.07-.67,1.86,1.86,0,0,1-.72-1.55v0h1.2a1.14,1.14,0,0,0,.49,1,1.89,1.89,0,0,0,1.09.31,1.69,1.69,0,0,0,1-.28A.87.87,0,0,0,105.22,39.39Z"/><path class="cls-1" d="M109.38,32.61h-1.26V31.33h1.26Zm0,8.63h-1.26V34.37h1.26Z"/><path class="cls-1" d="M114,40.39a1.51,1.51,0,0,0,1-.38,1.21,1.21,0,0,0,.43-.95h1.13l0,0a2,2,0,0,1-.76,1.58,2.92,2.92,0,0,1-4.07-.29,3.84,3.84,0,0,1-.78-2.45v-.27a3.76,3.76,0,0,1,.79-2.44,2.68,2.68,0,0,1,2.23-1,2.61,2.61,0,0,1,1.88.71,2.26,2.26,0,0,1,.71,1.75v0h-1.14a1.52,1.52,0,0,0-.41-1.07,1.33,1.33,0,0,0-1-.45,1.44,1.44,0,0,0-1.34.72,3.24,3.24,0,0,0-.43,1.73v.27a3.37,3.37,0,0,0,.42,1.74A1.46,1.46,0,0,0,114,40.39Z"/><path class="cls-1" d="M122.33,41.24a5,5,0,0,1-.1-.55,2.59,2.59,0,0,1,0-.48,3.08,3.08,0,0,1-.92.83,2.31,2.31,0,0,1-1.2.33,2.24,2.24,0,0,1-1.64-.55,2,2,0,0,1-.56-1.51,1.75,1.75,0,0,1,.8-1.54,3.71,3.71,0,0,1,2.16-.56h1.36v-.68a1.26,1.26,0,0,0-.37-1,1.45,1.45,0,0,0-1-.36,1.54,1.54,0,0,0-1,.31.91.91,0,0,0-.37.73h-1.19v0a1.64,1.64,0,0,1,.7-1.37,2.94,2.94,0,0,1,1.93-.62,2.85,2.85,0,0,1,1.87.59,2.1,2.1,0,0,1,.72,1.71v3.31c0,.25,0,.48,0,.71a5.12,5.12,0,0,0,.14.68Zm-2.08-.92a2.15,2.15,0,0,0,1.22-.35,1.64,1.64,0,0,0,.72-.8V38.06h-1.41a1.81,1.81,0,0,0-1.21.38,1.13,1.13,0,0,0-.45.89.92.92,0,0,0,.29.73A1.22,1.22,0,0,0,120.25,40.32Z"/><path class="cls-1" d="M126.6,41.24h-1.25V31.33h1.25Z"/><path class="cls-1" d="M136,41.24c0-.21-.08-.39-.1-.55a3.88,3.88,0,0,1,0-.48,3,3,0,0,1-.91.83,2.37,2.37,0,0,1-1.21.33,2.24,2.24,0,0,1-1.64-.55,2,2,0,0,1-.56-1.51,1.78,1.78,0,0,1,.8-1.54,3.71,3.71,0,0,1,2.16-.56h1.36v-.68a1.23,1.23,0,0,0-.37-1,1.41,1.41,0,0,0-1-.36,1.51,1.51,0,0,0-1,.31.92.92,0,0,0-.38.73h-1.19v0a1.66,1.66,0,0,1,.7-1.37,2.94,2.94,0,0,1,1.93-.62,2.88,2.88,0,0,1,1.88.59,2.12,2.12,0,0,1,.71,1.71v3.31a5.43,5.43,0,0,0,0,.71,3.16,3.16,0,0,0,.14.68Zm-2.08-.92a2.18,2.18,0,0,0,1.23-.35,1.67,1.67,0,0,0,.71-.8V38.06h-1.4a1.77,1.77,0,0,0-1.21.38,1.11,1.11,0,0,0-.46.89,1,1,0,0,0,.29.73A1.22,1.22,0,0,0,133.9,40.32Z"/><path class="cls-1" d="M141.63,40.39a1.47,1.47,0,0,0,1-.38,1.22,1.22,0,0,0,.44-.95h1.13v0a1.94,1.94,0,0,1-.76,1.58,2.67,2.67,0,0,1-1.83.69,2.72,2.72,0,0,1-2.23-1,3.85,3.85,0,0,1-.79-2.45v-.27a3.82,3.82,0,0,1,.79-2.44,2.69,2.69,0,0,1,2.23-1,2.62,2.62,0,0,1,1.89.71,2.25,2.25,0,0,1,.7,1.75v0h-1.13a1.52,1.52,0,0,0-.41-1.07,1.36,1.36,0,0,0-1-.45,1.44,1.44,0,0,0-1.34.72,3.33,3.33,0,0,0-.42,1.73v.27a3.37,3.37,0,0,0,.42,1.74A1.43,1.43,0,0,0,141.63,40.39Z"/><path class="cls-1" d="M147.45,32.71v1.66h1.3v.92h-1.3v4.17a.94.94,0,0,0,.2.68.69.69,0,0,0,.53.2l.24,0,.22-.06.17.86a1,1,0,0,1-.41.19,2.5,2.5,0,0,1-.54.07,1.6,1.6,0,0,1-1.21-.46,2,2,0,0,1-.45-1.45V35.29h-1.09v-.92h1.09V32.71Z"/><path class="cls-1" d="M151.44,32.61h-1.25V31.33h1.25Zm0,8.63h-1.25V34.37h1.25Z"/><path class="cls-1" d="M155.66,39.21l.1.48h0l.12-.48,1.58-4.84h1.28l-2.53,6.87h-.94l-2.56-6.87H154Z"/><path class="cls-1" d="M161.26,32.61H160V31.33h1.26Zm0,8.63H160V34.37h1.26Z"/><path class="cls-1" d="M164.92,32.71v1.66h1.3v.92h-1.3v4.17a.89.89,0,0,0,.2.68.69.69,0,0,0,.53.2l.24,0,.22-.06.17.86a1,1,0,0,1-.41.19,2.5,2.5,0,0,1-.54.07,1.6,1.6,0,0,1-1.21-.46,2,2,0,0,1-.45-1.45V35.29h-1.09v-.92h1.09V32.71Z"/><path class="cls-1" d="M169.66,38.69l.22.86h0l1.69-5.18H173l-2.89,7.92a3.65,3.65,0,0,1-.74,1.21,1.76,1.76,0,0,1-1.32.51l-.38,0-.37-.07.13-1,.23,0,.33,0a.76.76,0,0,0,.65-.36,3.53,3.53,0,0,0,.43-.79l.3-.71-2.55-6.73h1.39Z"/><path class="cls-1" d="M181.32,39.39a.81.81,0,0,0-.31-.67,2.94,2.94,0,0,0-1.19-.46,5.06,5.06,0,0,1-1.87-.73,1.48,1.48,0,0,1-.65-1.26,1.8,1.8,0,0,1,.72-1.43,2.76,2.76,0,0,1,1.85-.6,2.72,2.72,0,0,1,1.89.64,1.81,1.81,0,0,1,.69,1.47v0h-1.2a1.08,1.08,0,0,0-.39-.8,1.4,1.4,0,0,0-1-.37,1.43,1.43,0,0,0-1,.3.93.93,0,0,0-.33.71.78.78,0,0,0,.28.63,3.07,3.07,0,0,0,1.17.41,5.12,5.12,0,0,1,1.92.75,1.54,1.54,0,0,1,.65,1.28,1.81,1.81,0,0,1-.74,1.49,3,3,0,0,1-1.93.58,3,3,0,0,1-2.07-.67,1.92,1.92,0,0,1-.72-1.55v0h1.2a1.14,1.14,0,0,0,.49,1,1.89,1.89,0,0,0,1.09.31,1.69,1.69,0,0,0,1-.28A.87.87,0,0,0,181.32,39.39Z"/><path class="cls-1" d="M188.49,40.22a2.42,2.42,0,0,1-.83.85,2.28,2.28,0,0,1-1.18.3,2.2,2.2,0,0,1-1.75-.72,3.32,3.32,0,0,1-.63-2.23V34.37h1.25v4.06a2.6,2.6,0,0,0,.32,1.51,1.2,1.2,0,0,0,1,.41,2.07,2.07,0,0,0,1.11-.27,1.67,1.67,0,0,0,.65-.76v-5h1.25v6.87h-1.12Z"/><path class="cls-1" d="M194.24,40.39a1.47,1.47,0,0,0,1-.38,1.22,1.22,0,0,0,.44-.95h1.12l0,0a1.94,1.94,0,0,1-.76,1.58,2.67,2.67,0,0,1-1.83.69,2.72,2.72,0,0,1-2.23-1,3.79,3.79,0,0,1-.79-2.45v-.27a3.82,3.82,0,0,1,.79-2.44,2.69,2.69,0,0,1,2.23-1,2.62,2.62,0,0,1,1.89.71,2.25,2.25,0,0,1,.7,1.75v0h-1.13a1.52,1.52,0,0,0-.41-1.07,1.36,1.36,0,0,0-1-.45,1.44,1.44,0,0,0-1.34.72,3.33,3.33,0,0,0-.42,1.73v.27a3.47,3.47,0,0,0,.41,1.74A1.46,1.46,0,0,0,194.24,40.39Z"/><path class="cls-1" d="M199.57,35.29a2.55,2.55,0,0,1,.87-.77,2.36,2.36,0,0,1,1.15-.28,2.22,2.22,0,0,1,1.71.66,2.9,2.9,0,0,1,.61,2v4.31h-1.25V36.92a1.86,1.86,0,0,0-.36-1.26,1.41,1.41,0,0,0-1.09-.4,2,2,0,0,0-1,.22,1.71,1.71,0,0,0-.67.61v5.15h-1.25V31.33h1.25Z"/><path class="cls-1" d="M4.86,56.84a5.51,5.51,0,0,1-.1-.55,2.59,2.59,0,0,1,0-.48,3.08,3.08,0,0,1-.92.83A2.31,2.31,0,0,1,2.6,57,2.24,2.24,0,0,1,1,56.42,2,2,0,0,1,.4,54.91a1.78,1.78,0,0,1,.8-1.54,3.71,3.71,0,0,1,2.16-.56H4.72v-.68a1.26,1.26,0,0,0-.37-1,1.43,1.43,0,0,0-1-.36,1.54,1.54,0,0,0-1,.31.91.91,0,0,0-.37.73H.76v0a1.64,1.64,0,0,1,.7-1.37,2.94,2.94,0,0,1,1.93-.62,2.88,2.88,0,0,1,1.88.59A2.12,2.12,0,0,1,6,52.14v3.31c0,.25,0,.48,0,.71a5.12,5.12,0,0,0,.14.68Zm-2.08-.92A2.15,2.15,0,0,0,4,55.57a1.64,1.64,0,0,0,.72-.8V53.66H3.31A1.81,1.81,0,0,0,2.1,54a1.13,1.13,0,0,0-.45.89.92.92,0,0,0,.29.72A1.18,1.18,0,0,0,2.78,55.92Z"/><path class="cls-1" d="M11.77,55a.81.81,0,0,0-.31-.67,2.94,2.94,0,0,0-1.19-.46,4.93,4.93,0,0,1-1.86-.73,1.45,1.45,0,0,1-.65-1.26,1.77,1.77,0,0,1,.71-1.43,2.78,2.78,0,0,1,1.85-.6,2.72,2.72,0,0,1,1.89.64A1.75,1.75,0,0,1,12.9,52v0H11.7a1.08,1.08,0,0,0-.39-.8,1.37,1.37,0,0,0-1-.37,1.43,1.43,0,0,0-1,.3,1,1,0,0,0-.32.71.75.75,0,0,0,.28.63,3.07,3.07,0,0,0,1.16.41,5,5,0,0,1,1.92.75A1.52,1.52,0,0,1,13,54.9a1.81,1.81,0,0,1-.74,1.49,3,3,0,0,1-1.94.58,3,3,0,0,1-2.07-.67,1.88,1.88,0,0,1-.71-1.55v0H8.77a1.15,1.15,0,0,0,.5,1,1.88,1.88,0,0,0,1.08.31,1.72,1.72,0,0,0,1.05-.28A.86.86,0,0,0,11.77,55Z"/><path class="cls-1" d="M17.52,53.34a3.77,3.77,0,0,1,.82-2.51,2.77,2.77,0,0,1,2.24-1,2.8,2.8,0,0,1,2.26,1,3.81,3.81,0,0,1,.83,2.52v.14A3.76,3.76,0,0,1,22.84,56a2.79,2.79,0,0,1-2.24,1,2.8,2.8,0,0,1-2.25-1,3.73,3.73,0,0,1-.83-2.51Zm1.25.14a3.21,3.21,0,0,0,.46,1.8,1.67,1.67,0,0,0,2.73,0,3.21,3.21,0,0,0,.46-1.8v-.14a3.26,3.26,0,0,0-.47-1.8,1.64,1.64,0,0,0-2.72,0,3.25,3.25,0,0,0-.46,1.8Z"/><path class="cls-1" d="M31.06,53.66a3.77,3.77,0,0,1-.71,2.4,2.34,2.34,0,0,1-2,.91,2.46,2.46,0,0,1-1.19-.27,2.22,2.22,0,0,1-.84-.8l-.2.94h-1V46.93h1.25v3.85a2.23,2.23,0,0,1,.8-.7,2.49,2.49,0,0,1,1.12-.24,2.27,2.27,0,0,1,2,1,4.49,4.49,0,0,1,.71,2.67Zm-1.25-.13a3.8,3.8,0,0,0-.43-1.93,1.42,1.42,0,0,0-1.32-.74,1.64,1.64,0,0,0-1,.28,2.06,2.06,0,0,0-.63.76v3a2,2,0,0,0,.63.8,1.63,1.63,0,0,0,1,.28,1.47,1.47,0,0,0,1.31-.63,2.84,2.84,0,0,0,.43-1.66Z"/><path class="cls-1" d="M35.43,57A2.94,2.94,0,0,1,33.12,56a3.65,3.65,0,0,1-.82-2.49v-.27a3.55,3.55,0,0,1,.85-2.45,2.66,2.66,0,0,1,2.09-1,2.5,2.5,0,0,1,2.06.86A3.52,3.52,0,0,1,38,53v.66H33.6l0,0A2.81,2.81,0,0,0,34,55.35a1.58,1.58,0,0,0,1.39.64,3.17,3.17,0,0,0,1.12-.18,2.51,2.51,0,0,0,.82-.5l.49.81a3,3,0,0,1-1,.6A3.78,3.78,0,0,1,35.43,57Zm-.19-6.15a1.37,1.37,0,0,0-1.09.51,2.42,2.42,0,0,0-.52,1.29v0h3.1v-.1a2,2,0,0,0-.37-1.24A1.33,1.33,0,0,0,35.24,50.82Z"/><path class="cls-1" d="M43.39,55a.82.82,0,0,0-.32-.67,2.94,2.94,0,0,0-1.19-.46A4.93,4.93,0,0,1,40,53.13a1.45,1.45,0,0,1-.65-1.26,1.8,1.8,0,0,1,.71-1.43,2.78,2.78,0,0,1,1.85-.6,2.72,2.72,0,0,1,1.89.64,1.79,1.79,0,0,1,.7,1.47l0,0H43.31a1.08,1.08,0,0,0-.39-.8,1.37,1.37,0,0,0-1-.37,1.39,1.39,0,0,0-1,.3.93.93,0,0,0-.33.71.75.75,0,0,0,.28.63,3.07,3.07,0,0,0,1.17.41,5,5,0,0,1,1.91.75,1.52,1.52,0,0,1,.66,1.28,1.81,1.81,0,0,1-.74,1.49A3,3,0,0,1,42,57a3,3,0,0,1-2.07-.67,1.88,1.88,0,0,1-.71-1.55v0h1.19a1.15,1.15,0,0,0,.5,1A1.88,1.88,0,0,0,42,56a1.7,1.7,0,0,0,1-.28A.87.87,0,0,0,43.39,55Z"/><path class="cls-1" d="M47.54,48.21H46.29V46.93h1.25Zm0,8.63H46.29V50h1.25Z"/><path class="cls-1" d="M51.21,48.31V50h1.3v.92h-1.3v4.17a.89.89,0,0,0,.2.68.69.69,0,0,0,.53.2l.24,0,.22-.06.17.86a1.21,1.21,0,0,1-.41.19,2.5,2.5,0,0,1-.54.07,1.6,1.6,0,0,1-1.21-.46A2,2,0,0,1,50,55.06V50.89h-1.1V50H50V48.31Z"/><path class="cls-1" d="M56,54.29l.22.86h0L57.9,50h1.39L56.4,57.89a3.68,3.68,0,0,1-.75,1.21,1.72,1.72,0,0,1-1.31.51,2,2,0,0,1-.38,0l-.37-.06.13-1,.23,0,.33,0a.77.77,0,0,0,.65-.36,4,4,0,0,0,.43-.79l.3-.71L53.1,50h1.4Z"/><path class="cls-1" d="M67.84,56.84a5.51,5.51,0,0,1-.1-.55,2.59,2.59,0,0,1,0-.48,3.16,3.16,0,0,1-.91.83,2.37,2.37,0,0,1-1.21.33,2.24,2.24,0,0,1-1.64-.55,2,2,0,0,1-.56-1.51,1.78,1.78,0,0,1,.8-1.54,3.71,3.71,0,0,1,2.16-.56H67.7v-.68a1.26,1.26,0,0,0-.37-1,1.43,1.43,0,0,0-1-.36,1.54,1.54,0,0,0-1,.31.91.91,0,0,0-.37.73H63.74v0a1.64,1.64,0,0,1,.7-1.37,2.94,2.94,0,0,1,1.93-.62,2.88,2.88,0,0,1,1.88.59A2.12,2.12,0,0,1,69,52.14v3.31a5.43,5.43,0,0,0,0,.71,3.89,3.89,0,0,0,.13.68Zm-2.08-.92A2.2,2.2,0,0,0,67,55.57a1.67,1.67,0,0,0,.71-.8V53.66H66.29a1.81,1.81,0,0,0-1.21.38,1.13,1.13,0,0,0-.45.89.92.92,0,0,0,.29.72A1.18,1.18,0,0,0,65.76,55.92Z"/><path class="cls-1" d="M71.88,50,72,51a2.5,2.5,0,0,1,.86-.85,2.3,2.3,0,0,1,1.18-.3,2.26,2.26,0,0,1,1.72.65,2.88,2.88,0,0,1,.61,2v4.34H75.09V52.53a1.84,1.84,0,0,0-.36-1.29,1.43,1.43,0,0,0-1.1-.38,1.9,1.9,0,0,0-1,.23,1.67,1.67,0,0,0-.64.65v5.1H70.76V50Z"/><path class="cls-1" d="M77.87,53.53a4.56,4.56,0,0,1,.7-2.67,2.3,2.3,0,0,1,2-1,2.44,2.44,0,0,1,1.07.22,2.24,2.24,0,0,1,.79.65V46.93h1.25v9.91h-1L82.53,56a2.19,2.19,0,0,1-.84.74,2.47,2.47,0,0,1-1.15.26,2.34,2.34,0,0,1-2-.91,3.77,3.77,0,0,1-.71-2.4Zm1.25.13a3,3,0,0,0,.42,1.67,1.51,1.51,0,0,0,1.32.62,1.65,1.65,0,0,0,.94-.25,1.87,1.87,0,0,0,.62-.71V51.78a1.91,1.91,0,0,0-.62-.67,1.65,1.65,0,0,0-.92-.25,1.43,1.43,0,0,0-1.34.74,3.89,3.89,0,0,0-.42,1.93Z"/><path class="cls-1" d="M91.5,56a1.49,1.49,0,0,0,1-.38,1.21,1.21,0,0,0,.43-1h1.13l0,0a2,2,0,0,1-.76,1.58,2.9,2.9,0,0,1-4.06-.3,3.75,3.75,0,0,1-.79-2.45v-.26a3.76,3.76,0,0,1,.79-2.44,2.69,2.69,0,0,1,2.23-1,2.6,2.6,0,0,1,1.88.71,2.26,2.26,0,0,1,.71,1.75v0H92.94a1.51,1.51,0,0,0-.41-1.06,1.32,1.32,0,0,0-1-.45,1.44,1.44,0,0,0-1.34.72,3.33,3.33,0,0,0-.42,1.73v.26a3.48,3.48,0,0,0,.41,1.75A1.46,1.46,0,0,0,91.5,56Z"/><path class="cls-1" d="M96.83,50.89a2.38,2.38,0,0,1,.87-.77,2.33,2.33,0,0,1,1.15-.28,2.22,2.22,0,0,1,1.71.66,3,3,0,0,1,.61,2v4.31H99.92V52.52a1.81,1.81,0,0,0-.37-1.26,1.38,1.38,0,0,0-1.09-.4,2.13,2.13,0,0,0-1,.21,1.87,1.87,0,0,0-.66.62v5.15H95.58V46.93h1.25Z"/><path class="cls-1" d="M106.21,51.07l-.64,0a1.38,1.38,0,0,0-.83.24,1.59,1.59,0,0,0-.53.66v4.91H103V50h1.12l.12,1a2.46,2.46,0,0,1,.72-.83,1.7,1.7,0,0,1,1-.3l.27,0,.21,0Z"/><path class="cls-1" d="M107.1,53.34a3.77,3.77,0,0,1,.82-2.51,2.77,2.77,0,0,1,2.24-1,2.8,2.8,0,0,1,2.26,1,3.81,3.81,0,0,1,.83,2.52v.14a3.76,3.76,0,0,1-.83,2.51,3.06,3.06,0,0,1-4.49,0,3.73,3.73,0,0,1-.83-2.51Zm1.25.14a3.21,3.21,0,0,0,.46,1.8,1.66,1.66,0,0,0,2.72,0,3.21,3.21,0,0,0,.47-1.8v-.14a3.26,3.26,0,0,0-.47-1.8,1.53,1.53,0,0,0-1.37-.72,1.51,1.51,0,0,0-1.35.72,3.25,3.25,0,0,0-.46,1.8Z"/><path class="cls-1" d="M115.89,50l.09,1a2.58,2.58,0,0,1,.86-.85,2.33,2.33,0,0,1,1.18-.3,2.25,2.25,0,0,1,1.72.65,2.83,2.83,0,0,1,.61,2v4.34H119.1V52.53a1.84,1.84,0,0,0-.36-1.29,1.4,1.4,0,0,0-1.09-.38,1.87,1.87,0,0,0-1,.23,1.67,1.67,0,0,0-.64.65v5.1h-1.25V50Z"/><path class="cls-1" d="M123.52,48.21h-1.25V46.93h1.25Zm0,8.63h-1.25V50h1.25Z"/><path class="cls-1" d="M128.17,56a1.49,1.49,0,0,0,1-.38,1.21,1.21,0,0,0,.43-1h1.13l0,0a2,2,0,0,1-.76,1.58,2.9,2.9,0,0,1-4.06-.3,3.75,3.75,0,0,1-.79-2.45v-.26a3.76,3.76,0,0,1,.79-2.44,2.69,2.69,0,0,1,2.23-1,2.6,2.6,0,0,1,1.88.71,2.26,2.26,0,0,1,.71,1.75v0h-1.14a1.47,1.47,0,0,0-.41-1.06,1.32,1.32,0,0,0-1-.45,1.44,1.44,0,0,0-1.34.72,3.33,3.33,0,0,0-.42,1.73v.26a3.38,3.38,0,0,0,.41,1.75A1.46,1.46,0,0,0,128.17,56Z"/><path class="cls-1" d="M135.19,53.53a4.56,4.56,0,0,1,.71-2.67,2.27,2.27,0,0,1,2-1,2.41,2.41,0,0,1,1.07.22,2.28,2.28,0,0,1,.8.65V46.93H141v9.91h-1l-.19-.87a2.1,2.1,0,0,1-.83.74,2.47,2.47,0,0,1-1.15.26,2.36,2.36,0,0,1-2-.91,3.83,3.83,0,0,1-.71-2.4Zm1.25.13a2.87,2.87,0,0,0,.43,1.67,1.49,1.49,0,0,0,1.32.62,1.67,1.67,0,0,0,.94-.25,2,2,0,0,0,.62-.71V51.78a1.85,1.85,0,0,0-.63-.67,1.6,1.6,0,0,0-.92-.25,1.42,1.42,0,0,0-1.33.74,3.88,3.88,0,0,0-.43,1.93Z"/><path class="cls-1" d="M144.22,48.21H143V46.93h1.25Zm0,8.63H143V50h1.25Z"/><path class="cls-1" d="M150.13,55a.81.81,0,0,0-.31-.67,2.94,2.94,0,0,0-1.19-.46,4.93,4.93,0,0,1-1.86-.73,1.45,1.45,0,0,1-.65-1.26,1.77,1.77,0,0,1,.71-1.43,2.78,2.78,0,0,1,1.85-.6,2.72,2.72,0,0,1,1.89.64,1.78,1.78,0,0,1,.69,1.47v0h-1.19a1.08,1.08,0,0,0-.39-.8,1.37,1.37,0,0,0-1-.37,1.43,1.43,0,0,0-1,.3,1,1,0,0,0-.32.71.75.75,0,0,0,.28.63,3.07,3.07,0,0,0,1.16.41,5,5,0,0,1,1.92.75,1.51,1.51,0,0,1,.65,1.28,1.78,1.78,0,0,1-.74,1.49,3.52,3.52,0,0,1-4-.09,1.88,1.88,0,0,1-.71-1.55v0h1.19a1.15,1.15,0,0,0,.5,1,1.88,1.88,0,0,0,1.08.31,1.72,1.72,0,0,0,1-.28A.86.86,0,0,0,150.13,55Z"/><path class="cls-1" d="M155.78,57a2.9,2.9,0,0,1-2.3-.95,3.6,3.6,0,0,1-.83-2.49v-.27a3.55,3.55,0,0,1,.85-2.45,2.68,2.68,0,0,1,2.09-1,2.48,2.48,0,0,1,2.06.86,3.52,3.52,0,0,1,.69,2.28v.66H154l0,0a2.81,2.81,0,0,0,.46,1.68,1.58,1.58,0,0,0,1.39.64,3.17,3.17,0,0,0,1.12-.18,2.51,2.51,0,0,0,.82-.5l.49.81a3,3,0,0,1-1,.6A3.75,3.75,0,0,1,155.78,57Zm-.19-6.15a1.37,1.37,0,0,0-1.09.51,2.42,2.42,0,0,0-.52,1.29v0h3.1v-.1a2,2,0,0,0-.37-1.24A1.33,1.33,0,0,0,155.59,50.82Z"/><path class="cls-1" d="M164,56.84a5.51,5.51,0,0,1-.1-.55,2.59,2.59,0,0,1,0-.48,3.16,3.16,0,0,1-.91.83,2.37,2.37,0,0,1-1.21.33,2.24,2.24,0,0,1-1.64-.55,2,2,0,0,1-.56-1.51,1.78,1.78,0,0,1,.8-1.54,3.71,3.71,0,0,1,2.16-.56h1.36v-.68a1.26,1.26,0,0,0-.37-1,1.43,1.43,0,0,0-1-.36,1.54,1.54,0,0,0-1,.31.91.91,0,0,0-.37.73h-1.19v0a1.64,1.64,0,0,1,.7-1.37,2.94,2.94,0,0,1,1.93-.62,2.88,2.88,0,0,1,1.88.59,2.12,2.12,0,0,1,.71,1.71v3.31a5.43,5.43,0,0,0,0,.71,3.89,3.89,0,0,0,.13.68Zm-2.08-.92a2.2,2.2,0,0,0,1.23-.35,1.67,1.67,0,0,0,.71-.8V53.66h-1.41a1.81,1.81,0,0,0-1.21.38,1.13,1.13,0,0,0-.45.89.92.92,0,0,0,.29.72A1.18,1.18,0,0,0,161.89,55.92Z"/><path class="cls-1" d="M170.88,55a.81.81,0,0,0-.31-.67,2.94,2.94,0,0,0-1.19-.46,4.93,4.93,0,0,1-1.86-.73,1.45,1.45,0,0,1-.65-1.26,1.77,1.77,0,0,1,.71-1.43,2.78,2.78,0,0,1,1.85-.6,2.72,2.72,0,0,1,1.89.64A1.78,1.78,0,0,1,172,52v0h-1.19a1.08,1.08,0,0,0-.39-.8,1.37,1.37,0,0,0-1-.37,1.43,1.43,0,0,0-1,.3,1,1,0,0,0-.32.71.75.75,0,0,0,.28.63,3.07,3.07,0,0,0,1.16.41,5,5,0,0,1,1.92.75,1.51,1.51,0,0,1,.65,1.28,1.8,1.8,0,0,1-.73,1.49,3,3,0,0,1-1.94.58,3,3,0,0,1-2.07-.67,1.88,1.88,0,0,1-.71-1.55v0h1.19a1.15,1.15,0,0,0,.5,1,1.88,1.88,0,0,0,1.08.31,1.7,1.7,0,0,0,1-.28A.86.86,0,0,0,170.88,55Z"/><path class="cls-1" d="M176.53,57a2.9,2.9,0,0,1-2.3-.95,3.6,3.6,0,0,1-.83-2.49v-.27a3.55,3.55,0,0,1,.85-2.45,2.68,2.68,0,0,1,2.09-1,2.48,2.48,0,0,1,2.06.86,3.52,3.52,0,0,1,.69,2.28v.66H174.7l0,0a2.81,2.81,0,0,0,.46,1.68,1.58,1.58,0,0,0,1.39.64,3.17,3.17,0,0,0,1.12-.18,2.51,2.51,0,0,0,.82-.5l.49.81a3,3,0,0,1-1,.6A3.75,3.75,0,0,1,176.53,57Zm-.19-6.15a1.34,1.34,0,0,0-1.08.51,2.35,2.35,0,0,0-.53,1.29v0h3.1v-.1a2,2,0,0,0-.37-1.24A1.33,1.33,0,0,0,176.34,50.82Z"/><path class="cls-1" d="M181.86,56.84h-1.25V55.55h1.25Z"/></g></g></svg>