<svg xmlns="http://www.w3.org/2000/svg" viewBox="0 0 140.43 134.88"><defs><style>.cls-1{fill:#fff;}.cls-2{fill:none;stroke:#fff;stroke-miterlimit:10;}</style></defs><title>text10</title><g id="Layer_2" data-name="Layer 2"><g id="Layer_1-2" data-name="Layer 1"><path class="cls-1" d="M8.39,7.83v0a3.42,3.42,0,0,1-1,2.77,4.33,4.33,0,0,1-3,.94A4.24,4.24,0,0,1,1.2,10.37,4.28,4.28,0,0,1,0,7.21V5A4.39,4.39,0,0,1,1.15,1.82,4,4,0,0,1,4.2.61a4.69,4.69,0,0,1,3.14.94A3.34,3.34,0,0,1,8.42,4.3l0,0H6a1.94,1.94,0,0,0-.42-1.4A1.81,1.81,0,0,0,4.2,2.51a1.47,1.47,0,0,0-1.28.67A3.16,3.16,0,0,0,2.48,5V7.21A3,3,0,0,0,3,9a1.62,1.62,0,0,0,1.4.68A1.58,1.58,0,0,0,5.6,9.25,2.14,2.14,0,0,0,6,7.83Z"/><path class="cls-1" d="M14,5.61h-.8a1.45,1.45,0,0,0-.7.16,1,1,0,0,0-.4.44v5.23H9.62V3.5H12L12,4.67a2.45,2.45,0,0,1,.66-1,1.44,1.44,0,0,1,1-.35,1.39,1.39,0,0,1,.3,0l.28.06Z"/><path class="cls-1" d="M14.44,7.39a4.16,4.16,0,0,1,1-2.91,3.59,3.59,0,0,1,2.82-1.13,3.59,3.59,0,0,1,2.82,1.13,4.16,4.16,0,0,1,1,2.91v.15a4.17,4.17,0,0,1-1,2.92,3.57,3.57,0,0,1-2.81,1.12,3.6,3.6,0,0,1-2.83-1.12,4.17,4.17,0,0,1-1-2.92Zm2.47.15a3.39,3.39,0,0,0,.31,1.57,1.25,1.25,0,0,0,2.1,0,3.24,3.24,0,0,0,.32-1.56V7.39a3.28,3.28,0,0,0-.32-1.55,1.24,1.24,0,0,0-2.1,0,3.44,3.44,0,0,0-.31,1.55Z"/><path class="cls-1" d="M25.47,3.5l.1,1.11a2.9,2.9,0,0,1,1-.92,2.49,2.49,0,0,1,1.27-.34,2.22,2.22,0,0,1,1.82.8,3.87,3.87,0,0,1,.66,2.51v4.77H27.8V6.65a1.82,1.82,0,0,0-.24-1.07.83.83,0,0,0-.7-.32,1.61,1.61,0,0,0-.71.14,1.38,1.38,0,0,0-.53.39v5.64H23.15V3.5Z"/><path class="cls-1" d="M34.22,1.66H31.74V0h2.48Zm0,9.77H31.74V3.5h2.48Z"/><path class="cls-1" d="M39.13,9.68a1,1,0,0,0,.75-.28,1.12,1.12,0,0,0,.25-.79h2.26v0a2.59,2.59,0,0,1-.9,2.11,3.44,3.44,0,0,1-2.37.82,3.49,3.49,0,0,1-2.79-1.12,4.25,4.25,0,0,1-1-2.91V7.38a4.29,4.29,0,0,1,1-2.91,3.48,3.48,0,0,1,2.77-1.12,3.38,3.38,0,0,1,2.41.84,2.88,2.88,0,0,1,.88,2.3v0H40.13a1.56,1.56,0,0,0-.26-.92.88.88,0,0,0-.76-.35,1,1,0,0,0-1,.57,3.55,3.55,0,0,0-.28,1.55v.17a3.51,3.51,0,0,0,.28,1.56A1,1,0,0,0,39.13,9.68Z"/><path class="cls-1" d="M49.91,11.43H47.45V.76h2.46Z"/><path class="cls-1" d="M53.9,3.5,54,4.61a2.9,2.9,0,0,1,1-.92,2.52,2.52,0,0,1,1.28-.34,2.25,2.25,0,0,1,1.82.8,3.93,3.93,0,0,1,.65,2.51v4.77H56.23V6.65A1.82,1.82,0,0,0,56,5.58a.84.84,0,0,0-.71-.32,1.64,1.64,0,0,0-.71.14,1.35,1.35,0,0,0-.52.39v5.64H51.58V3.5Z"/><path class="cls-1" d="M64.18,9.2a.63.63,0,0,0-.33-.52,3.41,3.41,0,0,0-1.21-.42,4.74,4.74,0,0,1-2.09-.84,1.89,1.89,0,0,1-.7-1.56,2.23,2.23,0,0,1,.88-1.78,3.62,3.62,0,0,1,2.38-.73,4.07,4.07,0,0,1,2.51.71,2.07,2.07,0,0,1,.9,1.83l0,0H64.1a1,1,0,0,0-.23-.71A1.06,1.06,0,0,0,63.1,5a1,1,0,0,0-.65.21.67.67,0,0,0-.27.54.63.63,0,0,0,.31.54,3.38,3.38,0,0,0,1.22.4,4.93,4.93,0,0,1,2.16.85,2,2,0,0,1,.69,1.61,2.08,2.08,0,0,1-1,1.76,4.14,4.14,0,0,1-2.5.69,3.73,3.73,0,0,1-2.56-.82,2.26,2.26,0,0,1-.9-1.83v0H61.9a1,1,0,0,0,.34.82,1.56,1.56,0,0,0,.93.25,1.27,1.27,0,0,0,.76-.2A.64.64,0,0,0,64.18,9.2Z"/><path class="cls-1" d="M67.4,7.39a4.16,4.16,0,0,1,1-2.91,3.59,3.59,0,0,1,2.82-1.13,3.62,3.62,0,0,1,2.83,1.13,4.21,4.21,0,0,1,1,2.91v.15a4.21,4.21,0,0,1-1,2.92,4.12,4.12,0,0,1-5.65,0,4.17,4.17,0,0,1-1-2.92Zm2.47.15a3.39,3.39,0,0,0,.31,1.57,1.11,1.11,0,0,0,1.06.57,1.1,1.1,0,0,0,1-.58,3.24,3.24,0,0,0,.32-1.56V7.39a3.28,3.28,0,0,0-.32-1.55,1.24,1.24,0,0,0-2.1,0,3.44,3.44,0,0,0-.31,1.55Z"/><path class="cls-1" d="M78.49,3.5l.08,1a2.58,2.58,0,0,1,1-.88,2.61,2.61,0,0,1,1.3-.32,2.38,2.38,0,0,1,1.27.33,2,2,0,0,1,.81,1,2.48,2.48,0,0,1,.94-1,2.55,2.55,0,0,1,1.34-.35A2.19,2.19,0,0,1,87,4.19a4.07,4.07,0,0,1,.66,2.56v4.68H85.18V6.75a2,2,0,0,0-.24-1.17.83.83,0,0,0-.71-.32,1.47,1.47,0,0,0-.64.13,1.31,1.31,0,0,0-.46.35,1.41,1.41,0,0,0,0,.22v5.47H80.67V6.75a2.05,2.05,0,0,0-.24-1.18.82.82,0,0,0-.72-.31,1.42,1.42,0,0,0-1.08.48v5.69H76.16V3.5Z"/><path class="cls-1" d="M91.35,3.5l.1,1.11a2.9,2.9,0,0,1,1-.92,2.51,2.51,0,0,1,1.27-.34,2.22,2.22,0,0,1,1.82.8,3.87,3.87,0,0,1,.66,2.51v4.77H93.68V6.65a1.82,1.82,0,0,0-.24-1.07.83.83,0,0,0-.7-.32A1.64,1.64,0,0,0,92,5.4a1.38,1.38,0,0,0-.53.39v5.64H89V3.5Z"/><path class="cls-1" d="M100.1,1.66H97.62V0h2.48Zm0,9.77H97.62V3.5h2.48Z"/><path class="cls-1" d="M106.19,11.42a3,3,0,0,1-.23-.57,3.61,3.61,0,0,1-.15-.65,3,3,0,0,1-.8,1,1.92,1.92,0,0,1-1.23.38,2.74,2.74,0,0,1-1.94-.64,2.27,2.27,0,0,1-.69-1.75A2.12,2.12,0,0,1,102,7.37a4.66,4.66,0,0,1,2.69-.64h1V6.17a1.14,1.14,0,0,0-.24-.78,1,1,0,0,0-.74-.27.91.91,0,0,0-.64.2.84.84,0,0,0-.21.63h-2.4l0,0a2.08,2.08,0,0,1,.91-1.82,4.06,4.06,0,0,1,2.52-.73,3.66,3.66,0,0,1,2.38.74,2.52,2.52,0,0,1,.92,2.09v3a6.15,6.15,0,0,0,.1,1.17,6.69,6.69,0,0,0,.32,1.09Zm-1.74-1.61a1.52,1.52,0,0,0,.8-.21,1.23,1.23,0,0,0,.49-.5v-1h-1a1.1,1.1,0,0,0-.85.28,1,1,0,0,0-.27.73.72.72,0,0,0,.23.55A.87.87,0,0,0,104.45,9.81Z"/><line class="cls-2" x1="139.95" y1="134.74" x2="109.95" y2="36.74"/><ellipse class="cls-1" cx="109.84" cy="36.7" rx="3.92" ry="3.97" transform="translate(7.4 90.71) rotate(-46.27)"/></g></g></svg>