<svg xmlns="http://www.w3.org/2000/svg" viewBox="0 0 265.34 52.69"><defs><style>.cls-1{fill:#fff;}.cls-2{fill:none;stroke:#fff;stroke-miterlimit:10;}</style></defs><title>text8</title><g id="Layer_2" data-name="Layer 2"><g id="Layer_1-2" data-name="Layer 1"><path class="cls-1" d="M8.39,45.89v0a3.41,3.41,0,0,1-1,2.76,4.33,4.33,0,0,1-3,.94A4.24,4.24,0,0,1,1.2,48.43,4.28,4.28,0,0,1,0,45.27V43a4.39,4.39,0,0,1,1.15-3.16A4,4,0,0,1,4.2,38.67a4.69,4.69,0,0,1,3.14.94,3.34,3.34,0,0,1,1.08,2.75l0,0H6A2,2,0,0,0,5.57,41a1.86,1.86,0,0,0-1.37-.43,1.47,1.47,0,0,0-1.28.67A3.19,3.19,0,0,0,2.48,43v2.24A2.94,2.94,0,0,0,3,47.06a1.62,1.62,0,0,0,1.4.68,1.54,1.54,0,0,0,1.23-.43A2.12,2.12,0,0,0,6,45.89Z"/><path class="cls-1" d="M9.29,45.45a4.17,4.17,0,0,1,1-2.91,3.57,3.57,0,0,1,2.81-1.12A3.59,3.59,0,0,1,16,42.54a4.16,4.16,0,0,1,1,2.91v.16a4.16,4.16,0,0,1-1,2.91,3.57,3.57,0,0,1-2.81,1.12,3.59,3.59,0,0,1-2.83-1.12,4.17,4.17,0,0,1-1-2.91Zm2.48.16a3.25,3.25,0,0,0,.31,1.56,1.11,1.11,0,0,0,1.06.57,1.1,1.1,0,0,0,1-.57,3.25,3.25,0,0,0,.31-1.56v-.16a3.28,3.28,0,0,0-.31-1.55,1.12,1.12,0,0,0-1.06-.58,1.1,1.1,0,0,0-1,.59,3.24,3.24,0,0,0-.31,1.54Z"/><path class="cls-1" d="M17.72,45.54a5,5,0,0,1,.81-3,2.63,2.63,0,0,1,2.28-1.13,2.12,2.12,0,0,1,1.1.29,2.75,2.75,0,0,1,.82.84l.16-1h2.18V49.4A3,3,0,0,1,24,51.83a4.64,4.64,0,0,1-3,.86,5.45,5.45,0,0,1-1.29-.17,7,7,0,0,1-1.29-.45l.43-1.84a5.37,5.37,0,0,0,1,.35A4.75,4.75,0,0,0,21,50.7a1.8,1.8,0,0,0,1.17-.32,1.2,1.2,0,0,0,.39-1v-.62a2.16,2.16,0,0,1-1.8.87,2.68,2.68,0,0,1-2.27-1.08,4.76,4.76,0,0,1-.8-2.87Zm2.47.15a3.28,3.28,0,0,0,.28,1.51,1,1,0,0,0,1,.54,1.68,1.68,0,0,0,.7-.13,1.07,1.07,0,0,0,.47-.37V43.91a1.24,1.24,0,0,0-.47-.44,1.45,1.45,0,0,0-.68-.15,1,1,0,0,0-1,.61,3.71,3.71,0,0,0-.29,1.61Z"/><path class="cls-1" d="M28.76,41.56l.1,1.12a2.84,2.84,0,0,1,1-.93,2.48,2.48,0,0,1,1.27-.33,2.22,2.22,0,0,1,1.82.79,3.87,3.87,0,0,1,.66,2.51v4.77H31.09V44.71a1.82,1.82,0,0,0-.24-1.07.84.84,0,0,0-.7-.32,1.76,1.76,0,0,0-.71.14,1.31,1.31,0,0,0-.53.4v5.63H26.44V41.56Z"/><path class="cls-1" d="M37.51,39.72H35V38.06h2.49Zm0,9.77H35V41.56h2.49Z"/><path class="cls-1" d="M41.87,39.59v2h1.25v1.72H41.87v3.63a.86.86,0,0,0,.17.61.58.58,0,0,0,.46.19l.31,0,.29-.06.16,1.84c-.24.06-.47.1-.67.13a5,5,0,0,1-.71,0A2.5,2.5,0,0,1,40,49a2.88,2.88,0,0,1-.63-2.07V43.28H38.28V41.56h1.11v-2Z"/><path class="cls-1" d="M46.91,39.72H44.43V38.06h2.48Zm0,9.77H44.43V41.56h2.48Z"/><path class="cls-1" d="M51.39,46.22l.15.84h0l.17-.85,1-4.66h2.6l-2.58,7.93H50.3l-2.58-7.93h2.61Z"/><path class="cls-1" d="M59.56,49.64a3.66,3.66,0,0,1-2.82-1.09,3.89,3.89,0,0,1-1-2.76v-.28a4.45,4.45,0,0,1,1-3,3.41,3.41,0,0,1,2.79-1.13,3.21,3.21,0,0,1,2.48,1A3.72,3.72,0,0,1,62.83,45V46.3H58.29v.05a1.51,1.51,0,0,0,.46,1,1.6,1.6,0,0,0,1.16.39,4.87,4.87,0,0,0,1.18-.12,7.31,7.31,0,0,0,1.08-.37l.59,1.51a5,5,0,0,1-1.37.63A6.4,6.4,0,0,1,59.56,49.64Zm-.09-6.32a1,1,0,0,0-.88.38,1.87,1.87,0,0,0-.33,1l0,0h2.14v-.19a1.6,1.6,0,0,0-.22-.93A.82.82,0,0,0,59.47,43.32Z"/><path class="cls-1" d="M71.75,47.26a.64.64,0,0,0-.33-.52,3.7,3.7,0,0,0-1.22-.42,4.69,4.69,0,0,1-2.08-.84,1.88,1.88,0,0,1-.71-1.56,2.26,2.26,0,0,1,.88-1.78,3.65,3.65,0,0,1,2.38-.72,4.08,4.08,0,0,1,2.52.7A2.06,2.06,0,0,1,74.08,44v0h-2.4a1,1,0,0,0-.24-.71,1.23,1.23,0,0,0-1.42,0,.71.71,0,0,0-.26.55.64.64,0,0,0,.3.53,3.37,3.37,0,0,0,1.23.4,4.88,4.88,0,0,1,2.15.85,1.94,1.94,0,0,1,.7,1.61A2.11,2.11,0,0,1,73.18,49a4.17,4.17,0,0,1-2.51.69,3.75,3.75,0,0,1-2.56-.82,2.29,2.29,0,0,1-.9-1.83l0,0h2.24a1,1,0,0,0,.34.81,1.49,1.49,0,0,0,.93.25,1.22,1.22,0,0,0,.75-.2A.65.65,0,0,0,71.75,47.26Z"/><path class="cls-1" d="M78.22,46.34h-.45v3.15H75.29V38.06h2.48v6.41h.35l1.67-2.91h2.83l-2.43,3.58L83,49.49H80.21Z"/><path class="cls-1" d="M86.08,39.72H83.6V38.06h2.48Zm0,9.77H83.6V41.56h2.48Z"/><path class="cls-1" d="M90.19,49.49H87.71V38.06h2.48Z"/><path class="cls-1" d="M94.3,49.49H91.82V38.06H94.3Z"/><path class="cls-1" d="M106.89,45.69a4.65,4.65,0,0,1-.81,2.87,2.65,2.65,0,0,1-2.27,1.08,2.18,2.18,0,0,1-1-.22,2.13,2.13,0,0,1-.77-.64v3.75H99.55v-11h2.34l.07.87a2.35,2.35,0,0,1,.79-.75,2,2,0,0,1,1-.26,2.63,2.63,0,0,1,2.28,1.13,5,5,0,0,1,.81,3Zm-2.47-.15a3.8,3.8,0,0,0-.29-1.61,1,1,0,0,0-.94-.61,1.55,1.55,0,0,0-.71.15,1.21,1.21,0,0,0-.45.45v3.31a1,1,0,0,0,.46.38,1.69,1.69,0,0,0,.72.13,1,1,0,0,0,.93-.54,3.28,3.28,0,0,0,.28-1.51Z"/><path class="cls-1" d="M112.36,43.67h-.8a1.42,1.42,0,0,0-.7.16,1,1,0,0,0-.4.45v5.22H108V41.56h2.33l.09,1.17a2.26,2.26,0,0,1,.66-1,1.64,1.64,0,0,1,1.26-.32l.28.06Z"/><path class="cls-1" d="M112.79,45.45a4.21,4.21,0,0,1,1-2.91,4.12,4.12,0,0,1,5.65,0,4.21,4.21,0,0,1,1,2.91v.16a4.21,4.21,0,0,1-1,2.91,3.57,3.57,0,0,1-2.81,1.12,3.63,3.63,0,0,1-2.84-1.12,4.21,4.21,0,0,1-1-2.91Zm2.48.16a3.25,3.25,0,0,0,.31,1.56,1.11,1.11,0,0,0,1.06.57,1.1,1.1,0,0,0,1-.57,3.25,3.25,0,0,0,.31-1.56v-.16a3.28,3.28,0,0,0-.31-1.55,1.12,1.12,0,0,0-1.06-.58,1.1,1.1,0,0,0-1,.59,3.24,3.24,0,0,0-.31,1.54Z"/><path class="cls-1" d="M128.89,45.69a4.85,4.85,0,0,1-.77,2.88,2.65,2.65,0,0,1-2.3,1.07,2.18,2.18,0,0,1-1.13-.28,2.43,2.43,0,0,1-.83-.8l-.15.93h-2.16V38.06H124v4.27a2.44,2.44,0,0,1,.76-.68,2.18,2.18,0,0,1,1-.23,2.62,2.62,0,0,1,2.31,1.12,5.15,5.15,0,0,1,.78,3Zm-2.47-.15a4,4,0,0,0-.26-1.64,1,1,0,0,0-1-.58,1.47,1.47,0,0,0-.69.15,1.09,1.09,0,0,0-.46.44v3.33a1,1,0,0,0,.46.37,1.68,1.68,0,0,0,.7.13,1,1,0,0,0,1-.51,3.58,3.58,0,0,0,.25-1.54Z"/><path class="cls-1" d="M132.58,49.49h-2.49V38.06h2.49Z"/><path class="cls-1" d="M137.61,49.64a3.68,3.68,0,0,1-2.83-1.09,3.89,3.89,0,0,1-1-2.76v-.28a4.4,4.4,0,0,1,1-3,3.4,3.4,0,0,1,2.78-1.13,3.22,3.22,0,0,1,2.49,1,3.72,3.72,0,0,1,.88,2.63V46.3h-4.54v.05a1.47,1.47,0,0,0,.46,1,1.59,1.59,0,0,0,1.15.39,5,5,0,0,0,1.19-.12,8.19,8.19,0,0,0,1.08-.37l.59,1.51a5,5,0,0,1-1.38.63A6.33,6.33,0,0,1,137.61,49.64Zm-.1-6.32a1,1,0,0,0-.87.38,1.87,1.87,0,0,0-.33,1l0,0h2.13v-.19a1.68,1.68,0,0,0-.21-.93A.84.84,0,0,0,137.51,43.32Z"/><path class="cls-1" d="M144.26,41.56l.09,1a2.56,2.56,0,0,1,.94-.88,2.63,2.63,0,0,1,1.3-.31,2.37,2.37,0,0,1,1.27.32,1.94,1.94,0,0,1,.81,1,2.52,2.52,0,0,1,2.28-1.3,2.18,2.18,0,0,1,1.82.83,4.08,4.08,0,0,1,.67,2.56v4.68H151V44.81a2,2,0,0,0-.24-1.17.82.82,0,0,0-.71-.32,1.39,1.39,0,0,0-.63.13,1.26,1.26,0,0,0-.47.35,1.41,1.41,0,0,0,0,.22c0,.06,0,.12,0,.18v5.29h-2.48V44.81a2.14,2.14,0,0,0-.23-1.17.86.86,0,0,0-.73-.32,1.36,1.36,0,0,0-.61.13,1.35,1.35,0,0,0-.47.35v5.69h-2.47V41.56Z"/><line class="cls-2" x1="265.12" y1="0.45" x2="174.09" y2="44.76"/><ellipse class="cls-1" cx="174.09" cy="44.76" rx="3.92" ry="3.98" transform="translate(26.23 146.98) rotate(-49.08)"/></g></g></svg>