<svg xmlns="http://www.w3.org/2000/svg" viewBox="0 0 234.69 157.73"><defs><style>.cls-1{fill:#fff;}</style></defs><title>text4</title><g id="Layer_2" data-name="Layer 2"><g id="Layer_1-2" data-name="Layer 1"><path class="cls-1" d="M5.79,49.58H3.32V41H1.17V39.14l4.62-.38Z"/><path class="cls-1" d="M11.8,49.58H9.33V47.5H11.8Z"/><path class="cls-1" d="M17.45,49.58V38.92H21a5.56,5.56,0,0,1,3.09.73,2.46,2.46,0,0,1,1.11,2.2,2.66,2.66,0,0,1-.35,1.35,2.16,2.16,0,0,1-1.1.89,2.16,2.16,0,0,1,1.41.85,2.45,2.45,0,0,1,.46,1.48,2.78,2.78,0,0,1-1.05,2.36,4.89,4.89,0,0,1-3,.8Zm2.48-6.22h1a2.33,2.33,0,0,0,1.34-.31,1.08,1.08,0,0,0,.44-.93,1.16,1.16,0,0,0-.43-1,2.19,2.19,0,0,0-1.3-.31h-1Zm0,1.64v2.68h1.59a1.9,1.9,0,0,0,1.19-.32,1.13,1.13,0,0,0,.39-1,1.39,1.39,0,0,0-.35-1A1.62,1.62,0,0,0,21.61,45H19.93Z"/><path class="cls-1" d="M31.25,43.76h-.8a1.43,1.43,0,0,0-.7.15,1,1,0,0,0-.4.45v5.22H26.87V41.65H29.2l.09,1.17a2.45,2.45,0,0,1,.66-1,1.43,1.43,0,0,1,1-.34l.3,0a1.64,1.64,0,0,1,.28.07Z"/><path class="cls-1" d="M36.74,49.57A3.25,3.25,0,0,1,36.5,49a3.52,3.52,0,0,1-.15-.66,3.14,3.14,0,0,1-.8,1,1.9,1.9,0,0,1-1.23.37,2.75,2.75,0,0,1-1.94-.64,2.25,2.25,0,0,1-.69-1.74,2.1,2.1,0,0,1,.89-1.82,4.56,4.56,0,0,1,2.69-.65h1v-.56a1.16,1.16,0,0,0-.24-.78,1,1,0,0,0-.74-.27.87.87,0,0,0-.64.21.82.82,0,0,0-.21.62h-2.4v0a2,2,0,0,1,.9-1.81,4,4,0,0,1,2.52-.73,3.69,3.69,0,0,1,2.39.73,2.53,2.53,0,0,1,.91,2.1v3a5.57,5.57,0,0,0,.11,1.18,6.27,6.27,0,0,0,.31,1.08ZM35,48a1.54,1.54,0,0,0,.8-.21,1.22,1.22,0,0,0,.48-.51v-1h-1a1.13,1.13,0,0,0-.86.29,1,1,0,0,0-.26.72.68.68,0,0,0,.23.55A.84.84,0,0,0,35,48Z"/><path class="cls-1" d="M42.71,39.82H40.22V38.15h2.49Zm0,9.76H40.22V41.65h2.49Z"/><path class="cls-1" d="M46.5,41.65l.1,1.12a2.84,2.84,0,0,1,1-.93,2.48,2.48,0,0,1,1.27-.33,2.22,2.22,0,0,1,1.82.79,3.89,3.89,0,0,1,.66,2.51v4.77H48.83V44.8a1.82,1.82,0,0,0-.24-1.07.84.84,0,0,0-.7-.32,1.73,1.73,0,0,0-.71.14,1.33,1.33,0,0,0-.53.4v5.63H44.18V41.65Z"/><path class="cls-1" d="M59,39.82H56.5V38.15H59Zm0,9.76H56.5V41.65H59Z"/><path class="cls-1" d="M62.83,41.65l.09,1.05a2.56,2.56,0,0,1,.94-.88,2.6,2.6,0,0,1,1.3-.31,2.47,2.47,0,0,1,1.27.32,2,2,0,0,1,.81,1,2.62,2.62,0,0,1,.94-1,2.54,2.54,0,0,1,1.34-.34,2.21,2.21,0,0,1,1.82.83A4.09,4.09,0,0,1,72,44.9v4.68H69.52V44.9a2,2,0,0,0-.24-1.17.83.83,0,0,0-.71-.32,1.54,1.54,0,0,0-.63.13,1.29,1.29,0,0,0-.47.36,1.34,1.34,0,0,0,0,.21c0,.06,0,.12,0,.18v5.29H65V44.9a2.14,2.14,0,0,0-.23-1.17.86.86,0,0,0-.73-.32,1.51,1.51,0,0,0-.61.13,1.38,1.38,0,0,0-.47.36v5.68H60.5V41.65Z"/><path class="cls-1" d="M75.75,41.65l.08,1.05a2.66,2.66,0,0,1,1-.88,2.6,2.6,0,0,1,1.3-.31,2.47,2.47,0,0,1,1.27.32,2,2,0,0,1,.81,1,2.62,2.62,0,0,1,.94-1,2.54,2.54,0,0,1,1.34-.34,2.21,2.21,0,0,1,1.82.83,4.09,4.09,0,0,1,.66,2.56v4.68H82.44V44.9a2,2,0,0,0-.24-1.17.83.83,0,0,0-.71-.32,1.54,1.54,0,0,0-.63.13,1.29,1.29,0,0,0-.47.36,1.34,1.34,0,0,0,0,.21c0,.06,0,.12,0,.18v5.29H77.93V44.9a2.14,2.14,0,0,0-.23-1.17.86.86,0,0,0-.73-.32,1.51,1.51,0,0,0-.61.13,1.38,1.38,0,0,0-.47.36v5.68H73.42V41.65Z"/><path class="cls-1" d="M91.11,48.39a2.6,2.6,0,0,1-.91,1,2.39,2.39,0,0,1-1.29.34A2.34,2.34,0,0,1,87,48.87a4.2,4.2,0,0,1-.7-2.67V41.65h2.47v4.56A2.35,2.35,0,0,0,89,47.48a.82.82,0,0,0,.73.35,2.1,2.1,0,0,0,.7-.11,1.25,1.25,0,0,0,.51-.33V41.65h2.48v7.93h-2Z"/><path class="cls-1" d="M97.05,41.65l.09,1.12a2.84,2.84,0,0,1,1-.93,2.52,2.52,0,0,1,1.28-.33,2.24,2.24,0,0,1,1.82.79,4,4,0,0,1,.65,2.51v4.77H99.38V44.8a1.81,1.81,0,0,0-.25-1.07.83.83,0,0,0-.7-.32,1.8,1.8,0,0,0-.71.14,1.41,1.41,0,0,0-.53.4v5.63H94.72V41.65Z"/><path class="cls-1" d="M106.71,49.73a3.66,3.66,0,0,1-2.82-1.09,3.89,3.89,0,0,1-1-2.76V45.6a4.46,4.46,0,0,1,1-3,3.41,3.41,0,0,1,2.79-1.13,3.22,3.22,0,0,1,2.49,1A3.76,3.76,0,0,1,110,45.1v1.29h-4.54l0,0a1.51,1.51,0,0,0,.46,1,1.61,1.61,0,0,0,1.16.39,4.87,4.87,0,0,0,1.18-.12,7.31,7.31,0,0,0,1.08-.37l.6,1.51a4.44,4.44,0,0,1-1.38.63A6.4,6.4,0,0,1,106.71,49.73Zm-.09-6.32a1,1,0,0,0-.88.38,1.87,1.87,0,0,0-.32,1v0h2.14v-.19a1.6,1.6,0,0,0-.22-.93A.82.82,0,0,0,106.62,43.41Z"/><path class="cls-1" d="M118.9,47.35a.64.64,0,0,0-.33-.52,3.67,3.67,0,0,0-1.21-.41,4.86,4.86,0,0,1-2.09-.84,1.9,1.9,0,0,1-.7-1.57,2.21,2.21,0,0,1,.87-1.77,3.6,3.6,0,0,1,2.38-.73,4,4,0,0,1,2.52.71,2.06,2.06,0,0,1,.9,1.82l0,.05h-2.4a1,1,0,0,0-.23-.71,1,1,0,0,0-.77-.25,1,1,0,0,0-.65.22.65.65,0,0,0-.27.54.62.62,0,0,0,.31.53,3.38,3.38,0,0,0,1.22.4,5,5,0,0,1,2.16.85,2,2,0,0,1,.69,1.61,2.11,2.11,0,0,1-1,1.76,4.15,4.15,0,0,1-2.51.69,3.77,3.77,0,0,1-2.56-.82,2.25,2.25,0,0,1-.89-1.83v0h2.24a1,1,0,0,0,.34.81,1.49,1.49,0,0,0,.93.25,1.22,1.22,0,0,0,.75-.19A.65.65,0,0,0,118.9,47.35Z"/><path class="cls-1" d="M125.52,46.09v0h0l1.31-4.49h2.63l-3.15,9.11a4.45,4.45,0,0,1-1,1.45,2.53,2.53,0,0,1-1.84.57,2.49,2.49,0,0,1-.52,0l-.65-.15.3-1.77.16,0H123a1.74,1.74,0,0,0,.86-.17,1.06,1.06,0,0,0,.4-.52l.2-.51-2.74-8h2.63Z"/><path class="cls-1" d="M134.29,47.35a.64.64,0,0,0-.33-.52,3.74,3.74,0,0,0-1.22-.41,4.81,4.81,0,0,1-2.08-.84A1.91,1.91,0,0,1,130,44a2.22,2.22,0,0,1,.88-1.77,3.6,3.6,0,0,1,2.38-.73,4,4,0,0,1,2.52.71,2.06,2.06,0,0,1,.9,1.82l0,.05h-2.4a1,1,0,0,0-.24-.71,1,1,0,0,0-.76-.25,1,1,0,0,0-.66.22.67.67,0,0,0-.26.54.63.63,0,0,0,.3.53,3.52,3.52,0,0,0,1.23.4,4.88,4.88,0,0,1,2.15.85,2,2,0,0,1,.7,1.61,2.11,2.11,0,0,1-.95,1.76,4.17,4.17,0,0,1-2.51.69,3.75,3.75,0,0,1-2.56-.82,2.25,2.25,0,0,1-.89-1.83v0H132a1,1,0,0,0,.34.81,1.49,1.49,0,0,0,.93.25,1.22,1.22,0,0,0,.75-.19A.67.67,0,0,0,134.29,47.35Z"/><path class="cls-1" d="M140.68,39.68v2h1.25v1.72h-1.25V47a.86.86,0,0,0,.17.61.58.58,0,0,0,.46.19h.31l.29-.06.17,1.83a5.33,5.33,0,0,1-.68.13,5,5,0,0,1-.71,0,2.48,2.48,0,0,1-1.86-.65A2.87,2.87,0,0,1,138.2,47V43.37h-1.11V41.65h1.11v-2Z"/><path class="cls-1" d="M146.65,49.73a3.67,3.67,0,0,1-2.83-1.09,3.89,3.89,0,0,1-1-2.76V45.6a4.46,4.46,0,0,1,1-3,3.42,3.42,0,0,1,2.79-1.13,3.22,3.22,0,0,1,2.49,1,3.76,3.76,0,0,1,.88,2.63v1.29h-4.54l0,0a1.52,1.52,0,0,0,.47,1,1.57,1.57,0,0,0,1.15.39,5,5,0,0,0,1.19-.12,8.19,8.19,0,0,0,1.08-.37l.59,1.51a4.44,4.44,0,0,1-1.38.63A6.33,6.33,0,0,1,146.65,49.73Zm-.1-6.32a1,1,0,0,0-.88.38,2,2,0,0,0-.32,1v0h2.14v-.19a1.68,1.68,0,0,0-.21-.93A.84.84,0,0,0,146.55,43.41Z"/><path class="cls-1" d="M153.3,41.65l.08,1.05a2.66,2.66,0,0,1,1-.88,2.59,2.59,0,0,1,1.29-.31,2.48,2.48,0,0,1,1.28.32,2,2,0,0,1,.81,1,2.62,2.62,0,0,1,.94-1,2.54,2.54,0,0,1,1.34-.34,2.21,2.21,0,0,1,1.82.83,4.09,4.09,0,0,1,.66,2.56v4.68H160V44.9a2,2,0,0,0-.24-1.17.83.83,0,0,0-.71-.32,1.62,1.62,0,0,0-.64.13,1.34,1.34,0,0,0-.46.36,1.34,1.34,0,0,0,0,.21v5.47h-2.47V44.9a2,2,0,0,0-.24-1.17.83.83,0,0,0-.72-.32,1.48,1.48,0,0,0-.61.13,1.29,1.29,0,0,0-.47.36v5.68H151V41.65Z"/><path class="cls-1" d="M7.8,85.58H.39V84l3.28-3.61a7.07,7.07,0,0,0,1-1.33,2.31,2.31,0,0,0,.3-1,1.61,1.61,0,0,0-.27-1,1.08,1.08,0,0,0-.9-.36,1,1,0,0,0-.89.47,2,2,0,0,0-.32,1.2H.13v0a3.31,3.31,0,0,1,1-2.51,3.59,3.59,0,0,1,2.68-1,3.89,3.89,0,0,1,2.7.86,3,3,0,0,1,1,2.37,3.12,3.12,0,0,1-.53,1.79A23.42,23.42,0,0,1,5,82.09l-1.3,1.55v0H7.8Z"/><path class="cls-1" d="M11.8,85.58H9.33V83.5H11.8Z"/><path class="cls-1" d="M25.64,82l0,0a3.43,3.43,0,0,1-1,2.76,4.37,4.37,0,0,1-3,.94,4.12,4.12,0,0,1-4.37-4.37V79.13A4.41,4.41,0,0,1,18.41,76a4.05,4.05,0,0,1,3.05-1.21,4.71,4.71,0,0,1,3.14.95,3.32,3.32,0,0,1,1.08,2.74l0,0H23.25a2,2,0,0,0-.42-1.41,1.89,1.89,0,0,0-1.37-.42,1.44,1.44,0,0,0-1.28.67,3.13,3.13,0,0,0-.45,1.78v2.24a3,3,0,0,0,.49,1.8,1.67,1.67,0,0,0,1.41.67,1.56,1.56,0,0,0,1.23-.43A2.12,2.12,0,0,0,23.23,82Z"/><path class="cls-1" d="M26.55,81.54a4.21,4.21,0,0,1,1-2.91,3.58,3.58,0,0,1,2.82-1.12,3.62,3.62,0,0,1,2.83,1.12,4.21,4.21,0,0,1,1,2.91v.16a4.19,4.19,0,0,1-1,2.91,3.59,3.59,0,0,1-2.81,1.12,3.61,3.61,0,0,1-2.84-1.12,4.19,4.19,0,0,1-1-2.91ZM29,81.7a3.25,3.25,0,0,0,.31,1.56,1.25,1.25,0,0,0,2.1,0,3.25,3.25,0,0,0,.31-1.56v-.16A3.28,3.28,0,0,0,31.44,80a1.13,1.13,0,0,0-1.06-.58,1.08,1.08,0,0,0-1,.59A3.24,3.24,0,0,0,29,81.54Z"/><path class="cls-1" d="M35,81.63a5.06,5.06,0,0,1,.81-3,2.65,2.65,0,0,1,2.28-1.13,2,2,0,0,1,1.1.3,2.5,2.5,0,0,1,.82.83l.16-1h2.19v7.84a2.92,2.92,0,0,1-1.08,2.43,4.61,4.61,0,0,1-3,.86A5.45,5.45,0,0,1,37,88.61a7,7,0,0,1-1.29-.45l.42-1.83a5.9,5.9,0,0,0,1,.34,4.6,4.6,0,0,0,1.11.12,1.85,1.85,0,0,0,1.18-.32,1.22,1.22,0,0,0,.38-1v-.62a2.09,2.09,0,0,1-.78.65,2.18,2.18,0,0,1-1,.22,2.67,2.67,0,0,1-2.27-1.08A4.66,4.66,0,0,1,35,81.79Zm2.47.16a3.4,3.4,0,0,0,.28,1.5,1,1,0,0,0,1,.54,1.6,1.6,0,0,0,.69-.13,1.07,1.07,0,0,0,.47-.37V80a1.21,1.21,0,0,0-.46-.44,1.49,1.49,0,0,0-.69-.15,1,1,0,0,0-.95.61,3.7,3.7,0,0,0-.3,1.61Z"/><path class="cls-1" d="M46,77.65l.09,1.12a2.84,2.84,0,0,1,1-.93,2.52,2.52,0,0,1,1.28-.33,2.24,2.24,0,0,1,1.82.79,4,4,0,0,1,.65,2.51v4.77H48.35V80.8a1.82,1.82,0,0,0-.24-1.07.86.86,0,0,0-.71-.32,1.8,1.8,0,0,0-.71.14,1.49,1.49,0,0,0-.53.4v5.63H43.7V77.65Z"/><path class="cls-1" d="M54.76,75.82H52.28V74.15h2.48Zm0,9.76H52.28V77.65h2.48Z"/><path class="cls-1" d="M59.12,75.68v2h1.25v1.72H59.12V83a.91.91,0,0,0,.17.61.6.6,0,0,0,.47.19h.3l.29-.06.17,1.83a5.21,5.21,0,0,1-.67.13,5,5,0,0,1-.71,0,2.45,2.45,0,0,1-1.86-.65A2.87,2.87,0,0,1,56.65,83V79.37H55.54V77.65h1.11v-2Z"/><path class="cls-1" d="M64.17,75.82H61.68V74.15h2.49Zm0,9.76H61.68V77.65h2.49Z"/><path class="cls-1" d="M68.65,82.31l.15.85h0l.16-.85,1-4.66h2.6l-2.58,7.93H67.56L65,77.65h2.61Z"/><path class="cls-1" d="M76.82,85.73A3.68,3.68,0,0,1,74,84.64a3.89,3.89,0,0,1-1-2.76V81.6a4.46,4.46,0,0,1,1-3,3.43,3.43,0,0,1,2.79-1.13,3.22,3.22,0,0,1,2.49,1,3.72,3.72,0,0,1,.88,2.63v1.29H75.55v0a1.47,1.47,0,0,0,.46,1,1.57,1.57,0,0,0,1.15.39,5,5,0,0,0,1.19-.12,8.19,8.19,0,0,0,1.08-.37L80,84.85a4.44,4.44,0,0,1-1.38.63A6.33,6.33,0,0,1,76.82,85.73Zm-.1-6.32a1,1,0,0,0-.87.38,1.87,1.87,0,0,0-.33,1l0,0h2.13v-.19a1.68,1.68,0,0,0-.21-.93A.84.84,0,0,0,76.72,79.41Z"/><path class="cls-1" d="M89,83.35a.64.64,0,0,0-.33-.52,3.67,3.67,0,0,0-1.21-.41,4.92,4.92,0,0,1-2.09-.84,1.9,1.9,0,0,1-.7-1.57,2.2,2.2,0,0,1,.88-1.77,3.58,3.58,0,0,1,2.38-.73,4.05,4.05,0,0,1,2.52.71A2.08,2.08,0,0,1,91.34,80v0H88.92a1,1,0,0,0-.23-.71,1.19,1.19,0,0,0-1.42,0,.65.65,0,0,0-.27.54.64.64,0,0,0,.31.53,3.37,3.37,0,0,0,1.23.4,4.93,4.93,0,0,1,2.15.85,2,2,0,0,1,.69,1.61A2.1,2.1,0,0,1,90.44,85a4.19,4.19,0,0,1-2.51.69,3.73,3.73,0,0,1-2.56-.82,2.24,2.24,0,0,1-.9-1.83v0h2.25a1,1,0,0,0,.34.81,1.44,1.44,0,0,0,.92.25,1.23,1.23,0,0,0,.76-.19A.66.66,0,0,0,89,83.35Z"/><path class="cls-1" d="M95.47,82.43H95v3.15H92.55V74.15H95v6.41h.36l1.67-2.91h2.83l-2.44,3.58,2.84,4.35H97.46Z"/><path class="cls-1" d="M103.34,75.82h-2.49V74.15h2.49Zm0,9.76h-2.49V77.65h2.49Z"/><path class="cls-1" d="M107.45,85.58H105V74.15h2.49Z"/><path class="cls-1" d="M111.55,85.58h-2.48V74.15h2.48Z"/><path class="cls-1" d="M117.2,83.35a.64.64,0,0,0-.33-.52,3.67,3.67,0,0,0-1.21-.41,4.86,4.86,0,0,1-2.09-.84,1.9,1.9,0,0,1-.7-1.57,2.2,2.2,0,0,1,.88-1.77,3.55,3.55,0,0,1,2.37-.73,4,4,0,0,1,2.52.71,2.06,2.06,0,0,1,.9,1.82l0,0h-2.4a1,1,0,0,0-.23-.71,1,1,0,0,0-.77-.25,1,1,0,0,0-.65.22.65.65,0,0,0-.27.54.62.62,0,0,0,.31.53,3.38,3.38,0,0,0,1.22.4,4.93,4.93,0,0,1,2.16.85,2,2,0,0,1,.69,1.61,2.08,2.08,0,0,1-1,1.76,4.15,4.15,0,0,1-2.51.69,3.72,3.72,0,0,1-2.55-.82,2.24,2.24,0,0,1-.9-1.83v0h2.24a1,1,0,0,0,.34.81,1.49,1.49,0,0,0,.93.25,1.25,1.25,0,0,0,.76-.19A.66.66,0,0,0,117.2,83.35Z"/><path class="cls-1" d="M3.88,115.21a1.38,1.38,0,0,0,1-.35,1.36,1.36,0,0,0,.36-1A1.17,1.17,0,0,0,4.9,113a1.37,1.37,0,0,0-1-.34,1.18,1.18,0,0,0-.79.27.88.88,0,0,0-.33.72H.39l0,0a2.38,2.38,0,0,1,1-2.07,4.15,4.15,0,0,1,2.54-.79,4.46,4.46,0,0,1,2.78.8,2.65,2.65,0,0,1,1,2.25,2.17,2.17,0,0,1-.44,1.33,2.91,2.91,0,0,1-1.19,1,2.77,2.77,0,0,1,1.33,1,2.47,2.47,0,0,1,.47,1.54,2.72,2.72,0,0,1-1.12,2.31,4.74,4.74,0,0,1-2.87.83A4.45,4.45,0,0,1,1.29,121a2.57,2.57,0,0,1-1.08-2.29l0,0H2.64a1.12,1.12,0,0,0,.36.86,1.24,1.24,0,0,0,.91.35,1.61,1.61,0,0,0,1.1-.37,1.18,1.18,0,0,0,.42-.92,1.43,1.43,0,0,0-.4-1.13,1.67,1.67,0,0,0-1.15-.36H2.71v-1.84Z"/><path class="cls-1" d="M11.8,121.58H9.33V119.5H11.8Z"/><path class="cls-1" d="M25.64,118l0,0a3.43,3.43,0,0,1-1,2.76,4.37,4.37,0,0,1-3,.94,4.12,4.12,0,0,1-4.37-4.37v-2.23A4.41,4.41,0,0,1,18.41,112a4.05,4.05,0,0,1,3.05-1.21,4.71,4.71,0,0,1,3.14.95,3.32,3.32,0,0,1,1.08,2.74l0,0H23.25a2,2,0,0,0-.42-1.41,1.89,1.89,0,0,0-1.37-.42,1.44,1.44,0,0,0-1.28.67,3.13,3.13,0,0,0-.45,1.78v2.24a3,3,0,0,0,.49,1.8,1.67,1.67,0,0,0,1.41.67,1.56,1.56,0,0,0,1.23-.43,2.12,2.12,0,0,0,.37-1.42Z"/><path class="cls-1" d="M31.46,121.57a3.25,3.25,0,0,1-.24-.56,3.52,3.52,0,0,1-.15-.66,3.14,3.14,0,0,1-.8,1,1.9,1.9,0,0,1-1.23.37,2.74,2.74,0,0,1-1.94-.64,2.25,2.25,0,0,1-.69-1.74,2.1,2.1,0,0,1,.89-1.82,4.56,4.56,0,0,1,2.69-.65h1v-.56a1.16,1.16,0,0,0-.24-.78,1,1,0,0,0-.74-.27.87.87,0,0,0-.64.21.82.82,0,0,0-.21.62h-2.4v0a2,2,0,0,1,.9-1.81,4,4,0,0,1,2.52-.73,3.7,3.7,0,0,1,2.39.73,2.56,2.56,0,0,1,.91,2.1v3a6.33,6.33,0,0,0,.1,1.18,7.36,7.36,0,0,0,.32,1.08ZM29.71,120a1.55,1.55,0,0,0,.81-.21,1.22,1.22,0,0,0,.48-.51v-1H30a1.13,1.13,0,0,0-.86.29,1,1,0,0,0-.26.72.68.68,0,0,0,.23.55A.84.84,0,0,0,29.71,120Z"/><path class="cls-1" d="M39.21,115.76h-.8a1.43,1.43,0,0,0-.7.15,1,1,0,0,0-.4.45v5.22H34.83v-7.93h2.33l.09,1.17a2.45,2.45,0,0,1,.66-1,1.43,1.43,0,0,1,1-.34l.3,0a1.64,1.64,0,0,1,.28.07Z"/><path class="cls-1" d="M39.65,117.63a5.06,5.06,0,0,1,.81-3,2.65,2.65,0,0,1,2.28-1.13,2,2,0,0,1,1,.25,2.67,2.67,0,0,1,.79.72v-4.33H47v11.43H44.84l-.17-1a2.65,2.65,0,0,1-.84.83,2,2,0,0,1-1.1.29,2.67,2.67,0,0,1-2.27-1.08,4.66,4.66,0,0,1-.81-2.86Zm2.48.16a3.26,3.26,0,0,0,.28,1.5,1,1,0,0,0,1,.54,1.59,1.59,0,0,0,.68-.14,1.33,1.33,0,0,0,.49-.42v-3.21a1.29,1.29,0,0,0-1.16-.65,1,1,0,0,0-.95.61,3.83,3.83,0,0,0-.29,1.61Z"/><path class="cls-1" d="M51,111.82H48.52v-1.67H51Zm0,9.76H48.52v-7.93H51Z"/><path class="cls-1" d="M52.19,117.54a4.21,4.21,0,0,1,1-2.91,4.12,4.12,0,0,1,5.65,0,4.21,4.21,0,0,1,1,2.91v.16a4.19,4.19,0,0,1-1,2.91A3.57,3.57,0,0,1,56,121.73a3.63,3.63,0,0,1-2.84-1.12,4.19,4.19,0,0,1-1-2.91Zm2.48.16a3.25,3.25,0,0,0,.31,1.56,1.11,1.11,0,0,0,1.06.57,1.1,1.1,0,0,0,1-.57,3.25,3.25,0,0,0,.31-1.56v-.16a3.28,3.28,0,0,0-.31-1.55,1.12,1.12,0,0,0-1.06-.58,1.1,1.1,0,0,0-1,.59,3.24,3.24,0,0,0-.31,1.54Z"/><path class="cls-1" d="M63.81,118.31l.15.85h0l.16-.85,1-4.66h2.6l-2.58,7.93H62.72l-2.58-7.93h2.61Z"/><path class="cls-1" d="M73,121.57a2.62,2.62,0,0,1-.23-.56,4.54,4.54,0,0,1-.16-.66,3.12,3.12,0,0,1-.79,1,1.92,1.92,0,0,1-1.23.37,2.74,2.74,0,0,1-1.94-.64,2.25,2.25,0,0,1-.69-1.74,2.1,2.1,0,0,1,.88-1.82,4.58,4.58,0,0,1,2.69-.65h1v-.56a1.16,1.16,0,0,0-.24-.78,1,1,0,0,0-.74-.27.87.87,0,0,0-.64.21.82.82,0,0,0-.21.62H68.33v0a2.08,2.08,0,0,1,.9-1.81,4,4,0,0,1,2.53-.73,3.68,3.68,0,0,1,2.38.73,2.53,2.53,0,0,1,.91,2.1v3a5.93,5.93,0,0,0,.43,2.26ZM71.28,120a1.52,1.52,0,0,0,.8-.21,1.25,1.25,0,0,0,.49-.51v-1h-1a1.14,1.14,0,0,0-.86.29,1,1,0,0,0-.26.72.72.72,0,0,0,.23.55A.88.88,0,0,0,71.28,120Z"/><path class="cls-1" d="M80.53,119.35a.64.64,0,0,0-.33-.52,3.74,3.74,0,0,0-1.22-.41,4.87,4.87,0,0,1-2.08-.84,1.91,1.91,0,0,1-.71-1.57,2.22,2.22,0,0,1,.88-1.77,3.6,3.6,0,0,1,2.38-.73,4,4,0,0,1,2.52.71,2.06,2.06,0,0,1,.9,1.82l0,0h-2.4a1,1,0,0,0-.24-.71,1,1,0,0,0-.76-.25,1,1,0,0,0-.66.22.67.67,0,0,0-.26.54.63.63,0,0,0,.3.53,3.52,3.52,0,0,0,1.23.4,4.88,4.88,0,0,1,2.15.85,2,2,0,0,1,.7,1.61A2.11,2.11,0,0,1,82,121a4.17,4.17,0,0,1-2.51.69,3.75,3.75,0,0,1-2.56-.82,2.25,2.25,0,0,1-.89-1.83v0h2.24a1,1,0,0,0,.34.81,1.49,1.49,0,0,0,.93.25,1.22,1.22,0,0,0,.75-.19A.67.67,0,0,0,80.53,119.35Z"/><path class="cls-1" d="M87.47,119.83a1,1,0,0,0,.75-.28,1.1,1.1,0,0,0,.25-.79h2.25l0,0a2.61,2.61,0,0,1-.9,2.12,3.48,3.48,0,0,1-2.37.81,3.52,3.52,0,0,1-2.79-1.11,4.29,4.29,0,0,1-1-2.91v-.17a4.29,4.29,0,0,1,1-2.91,3.95,3.95,0,0,1,5.19-.28,2.89,2.89,0,0,1,.87,2.29l0,0H88.47a1.52,1.52,0,0,0-.26-.92.87.87,0,0,0-.76-.36,1,1,0,0,0-1,.58,3.52,3.52,0,0,0-.28,1.55v.17a3.54,3.54,0,0,0,.28,1.56A1,1,0,0,0,87.47,119.83Z"/><path class="cls-1" d="M96.53,120.39a2.7,2.7,0,0,1-.92,1,2.39,2.39,0,0,1-1.29.34,2.34,2.34,0,0,1-1.93-.86,4.2,4.2,0,0,1-.7-2.67v-4.55h2.47v4.56a2.35,2.35,0,0,0,.24,1.27.83.83,0,0,0,.73.35,2.1,2.1,0,0,0,.7-.11,1.25,1.25,0,0,0,.51-.33v-5.74h2.48v7.93h-2Z"/><path class="cls-1" d="M102.77,121.58h-2.48V110.15h2.48Z"/><path class="cls-1" d="M108.87,121.57a2.62,2.62,0,0,1-.24-.56,3.52,3.52,0,0,1-.15-.66,3.14,3.14,0,0,1-.8,1,1.9,1.9,0,0,1-1.23.37,2.74,2.74,0,0,1-1.94-.64,2.25,2.25,0,0,1-.69-1.74,2.1,2.1,0,0,1,.89-1.82,4.54,4.54,0,0,1,2.68-.65h1v-.56a1.16,1.16,0,0,0-.24-.78,1,1,0,0,0-.74-.27.87.87,0,0,0-.64.21.82.82,0,0,0-.21.62h-2.4v0a2,2,0,0,1,.9-1.81,4,4,0,0,1,2.52-.73,3.7,3.7,0,0,1,2.39.73,2.56,2.56,0,0,1,.91,2.1v3a6.33,6.33,0,0,0,.1,1.18,7.36,7.36,0,0,0,.32,1.08Zm-1.75-1.6a1.55,1.55,0,0,0,.81-.21,1.22,1.22,0,0,0,.48-.51v-1h-1a1.13,1.13,0,0,0-.86.29,1,1,0,0,0-.26.72.68.68,0,0,0,.23.55A.84.84,0,0,0,107.12,120Z"/><path class="cls-1" d="M116.62,115.76h-.8a1.45,1.45,0,0,0-.7.15,1,1,0,0,0-.4.45v5.22h-2.48v-7.93h2.33l.09,1.17a2.45,2.45,0,0,1,.66-1,1.43,1.43,0,0,1,1-.34l.3,0a1.64,1.64,0,0,1,.28.07Z"/><path class="cls-1" d="M6.86,153.41H7.94v1.92H6.86v2.25H4.39v-2.25H.15L0,153.81l4.39-6.87v0H6.86Zm-4.74,0H4.39v-3.32h0l-.27.55Z"/><path class="cls-1" d="M11.8,157.58H9.33V155.5H11.8Z"/><path class="cls-1" d="M25.64,154l0,.05a3.43,3.43,0,0,1-1,2.76,4.37,4.37,0,0,1-3,.94,4.12,4.12,0,0,1-4.37-4.37v-2.23A4.41,4.41,0,0,1,18.41,148a4.05,4.05,0,0,1,3.05-1.21,4.71,4.71,0,0,1,3.14,1,3.32,3.32,0,0,1,1.08,2.74l0,.05H23.25a2,2,0,0,0-.42-1.41,1.89,1.89,0,0,0-1.37-.42,1.44,1.44,0,0,0-1.28.67,3.13,3.13,0,0,0-.45,1.78v2.24a3,3,0,0,0,.49,1.8,1.67,1.67,0,0,0,1.41.67,1.56,1.56,0,0,0,1.23-.43,2.12,2.12,0,0,0,.37-1.42Z"/><path class="cls-1" d="M31.26,151.76h-.81a1.41,1.41,0,0,0-.69.15,1,1,0,0,0-.4.45v5.22H26.88v-7.93h2.33l.09,1.17a2.26,2.26,0,0,1,.66-1,1.43,1.43,0,0,1,1-.34l.3,0a1.54,1.54,0,0,1,.27.07Z"/><path class="cls-1" d="M31.69,153.54a4.21,4.21,0,0,1,1-2.91,3.61,3.61,0,0,1,2.82-1.12,3.6,3.6,0,0,1,2.83,1.12,4.21,4.21,0,0,1,1,2.91v.16a4.19,4.19,0,0,1-1,2.91,3.57,3.57,0,0,1-2.81,1.12,3.63,3.63,0,0,1-2.84-1.12,4.19,4.19,0,0,1-1-2.91Zm2.48.16a3.25,3.25,0,0,0,.31,1.56,1.11,1.11,0,0,0,1.06.57,1.1,1.1,0,0,0,1-.57,3.25,3.25,0,0,0,.31-1.56v-.16a3.28,3.28,0,0,0-.31-1.55,1.12,1.12,0,0,0-1.06-.58,1.09,1.09,0,0,0-1,.59,3.24,3.24,0,0,0-.31,1.54Z"/><path class="cls-1" d="M42.73,149.65l.09,1.12a2.84,2.84,0,0,1,1-.93,2.54,2.54,0,0,1,1.28-.33,2.24,2.24,0,0,1,1.82.79,3.89,3.89,0,0,1,.65,2.51v4.77H45.06V152.8a1.82,1.82,0,0,0-.24-1.07.84.84,0,0,0-.71-.32,1.8,1.8,0,0,0-.71.14,1.37,1.37,0,0,0-.52.4v5.63H40.41v-7.93Z"/><path class="cls-1" d="M51.47,147.82H49v-1.67h2.48Zm0,9.76H49v-7.93h2.48Z"/><path class="cls-1" d="M56.38,155.83a1,1,0,0,0,.76-.28,1.15,1.15,0,0,0,.24-.79h2.26l0,0a2.61,2.61,0,0,1-.9,2.12,4,4,0,0,1-5.16-.3,4.24,4.24,0,0,1-1-2.91v-.17a4.28,4.28,0,0,1,1-2.91,3.48,3.48,0,0,1,2.78-1.12,3.4,3.4,0,0,1,2.41.84,2.89,2.89,0,0,1,.88,2.29l0,.05H57.38a1.52,1.52,0,0,0-.25-.92.88.88,0,0,0-.76-.36,1,1,0,0,0-1,.58,3.52,3.52,0,0,0-.28,1.55v.17a3.54,3.54,0,0,0,.28,1.56A1,1,0,0,0,56.38,155.83Z"/><path class="cls-1" d="M67.17,157.58H64.7V146.92h2.47Z"/><path class="cls-1" d="M71.15,149.65l.1,1.12a2.84,2.84,0,0,1,1-.93,2.51,2.51,0,0,1,1.27-.33,2.21,2.21,0,0,1,1.82.79,3.89,3.89,0,0,1,.66,2.51v4.77H73.48V152.8a1.82,1.82,0,0,0-.24-1.07.83.83,0,0,0-.7-.32,1.8,1.8,0,0,0-.71.14,1.41,1.41,0,0,0-.53.4v5.63H68.83v-7.93Z"/><path class="cls-1" d="M81.44,155.35a.64.64,0,0,0-.33-.52,3.74,3.74,0,0,0-1.22-.41,4.92,4.92,0,0,1-2.09-.84,1.93,1.93,0,0,1-.7-1.57,2.2,2.2,0,0,1,.88-1.77,3.6,3.6,0,0,1,2.38-.73,4,4,0,0,1,2.52.71,2.06,2.06,0,0,1,.89,1.82v.05h-2.4a1,1,0,0,0-.24-.71,1,1,0,0,0-.77-.25,1,1,0,0,0-.65.22.67.67,0,0,0-.26.54.63.63,0,0,0,.3.53,3.45,3.45,0,0,0,1.23.4,4.88,4.88,0,0,1,2.15.85,2,2,0,0,1,.7,1.61,2.11,2.11,0,0,1-.95,1.76,4.17,4.17,0,0,1-2.51.69,3.75,3.75,0,0,1-2.56-.82,2.26,2.26,0,0,1-.9-1.83l0,0h2.24a1,1,0,0,0,.34.81,1.49,1.49,0,0,0,.93.25,1.22,1.22,0,0,0,.75-.19A.67.67,0,0,0,81.44,155.35Z"/><path class="cls-1" d="M84.65,153.54a4.21,4.21,0,0,1,1-2.91,4.12,4.12,0,0,1,5.65,0,4.21,4.21,0,0,1,1,2.91v.16a4.19,4.19,0,0,1-1,2.91,3.57,3.57,0,0,1-2.81,1.12,3.63,3.63,0,0,1-2.84-1.12,4.19,4.19,0,0,1-1-2.91Zm2.48.16a3.25,3.25,0,0,0,.31,1.56,1.11,1.11,0,0,0,1.06.57,1.1,1.1,0,0,0,1-.57,3.25,3.25,0,0,0,.31-1.56v-.16a3.28,3.28,0,0,0-.31-1.55,1.12,1.12,0,0,0-1.06-.58,1.1,1.1,0,0,0-1,.59,3.24,3.24,0,0,0-.31,1.54Z"/><path class="cls-1" d="M95.74,149.65l.09,1a2.56,2.56,0,0,1,2.24-1.19,2.51,2.51,0,0,1,1.28.32,2,2,0,0,1,.8,1,2.79,2.79,0,0,1,.94-1,2.58,2.58,0,0,1,1.35-.34,2.22,2.22,0,0,1,1.82.83,4.09,4.09,0,0,1,.66,2.56v4.68h-2.48V152.9a2,2,0,0,0-.24-1.17.85.85,0,0,0-.72-.32,1.57,1.57,0,0,0-.63.13,1.25,1.25,0,0,0-.46.36v.21a1.09,1.09,0,0,1,0,.18v5.29H97.92V152.9a2.05,2.05,0,0,0-.23-1.17.86.86,0,0,0-.73-.32,1.55,1.55,0,0,0-.61.13,1.34,1.34,0,0,0-.46.36v5.68H93.41v-7.93Z"/><path class="cls-1" d="M108.61,149.65l.1,1.12a2.75,2.75,0,0,1,1-.93,2.48,2.48,0,0,1,1.27-.33,2.22,2.22,0,0,1,1.82.79,3.89,3.89,0,0,1,.66,2.51v4.77h-2.48V152.8a1.82,1.82,0,0,0-.24-1.07.84.84,0,0,0-.7-.32,1.73,1.73,0,0,0-.71.14,1.33,1.33,0,0,0-.53.4v5.63h-2.47v-7.93Z"/><path class="cls-1" d="M117.36,147.82h-2.49v-1.67h2.49Zm0,9.76h-2.49v-7.93h2.49Z"/><path class="cls-1" d="M123.45,157.57a3.25,3.25,0,0,1-.24-.56,6.38,6.38,0,0,1-.15-.66,3.12,3.12,0,0,1-.79,1,2,2,0,0,1-1.24.37,2.71,2.71,0,0,1-1.93-.64,2.22,2.22,0,0,1-.7-1.74,2.1,2.1,0,0,1,.89-1.82,4.58,4.58,0,0,1,2.69-.65h1v-.56a1.11,1.11,0,0,0-.25-.78.93.93,0,0,0-.74-.27.88.88,0,0,0-.64.21.82.82,0,0,0-.21.62h-2.4v0a2,2,0,0,1,.9-1.81,4,4,0,0,1,2.53-.73,3.68,3.68,0,0,1,2.38.73,2.53,2.53,0,0,1,.91,2.1v3a6.31,6.31,0,0,0,.11,1.18,5.53,5.53,0,0,0,.32,1.08Zm-1.74-1.6a1.52,1.52,0,0,0,.8-.21,1.32,1.32,0,0,0,.49-.51V154.2h-1a1.13,1.13,0,0,0-.86.29,1,1,0,0,0-.26.72.72.72,0,0,0,.23.55A.84.84,0,0,0,121.71,156Z"/><path class="cls-1" d="M9.39,11.58H6.92V7.29H3v4.29H.5V.92H3V5.38h4V.92H9.39Z"/><path class="cls-1" d="M14.46,11.73a3.7,3.7,0,0,1-2.83-1.09,3.89,3.89,0,0,1-1-2.76V7.6a4.42,4.42,0,0,1,1-3,3.4,3.4,0,0,1,2.78-1.13,3.22,3.22,0,0,1,2.49,1,3.72,3.72,0,0,1,.88,2.63V8.39H13.19v0a1.47,1.47,0,0,0,.46,1,1.59,1.59,0,0,0,1.15.39A5,5,0,0,0,16,9.71a8.19,8.19,0,0,0,1.08-.37l.59,1.51a4.44,4.44,0,0,1-1.38.63A6.33,6.33,0,0,1,14.46,11.73Zm-.1-6.32a1,1,0,0,0-.87.38,1.87,1.87,0,0,0-.33,1l0,0h2.13V6.66a1.68,1.68,0,0,0-.21-.93A.83.83,0,0,0,14.36,5.41Z"/><path class="cls-1" d="M23.36,11.57a2.2,2.2,0,0,1-.24-.56,3.52,3.52,0,0,1-.15-.66,3.14,3.14,0,0,1-.8,1,1.9,1.9,0,0,1-1.23.37A2.74,2.74,0,0,1,19,11.09a2.25,2.25,0,0,1-.69-1.74,2.1,2.1,0,0,1,.89-1.82,4.54,4.54,0,0,1,2.68-.65h1V6.32a1.16,1.16,0,0,0-.24-.78,1,1,0,0,0-.74-.27.87.87,0,0,0-.64.21.82.82,0,0,0-.21.62h-2.4l0,0a2.07,2.07,0,0,1,.91-1.81,4,4,0,0,1,2.52-.73,3.7,3.7,0,0,1,2.39.73,2.56,2.56,0,0,1,.91,2.1v3a6.33,6.33,0,0,0,.1,1.18,6.31,6.31,0,0,0,.32,1.08ZM21.61,10a1.55,1.55,0,0,0,.81-.21,1.22,1.22,0,0,0,.48-.51V8.2h-1a1.13,1.13,0,0,0-.86.29,1,1,0,0,0-.26.72.68.68,0,0,0,.23.55A.84.84,0,0,0,21.61,10Z"/><path class="cls-1" d="M29.33,11.58H26.84V.15h2.49Z"/><path class="cls-1" d="M33.68,1.68v2h1.26V5.37H33.68V9a.86.86,0,0,0,.18.61.58.58,0,0,0,.46.19h.3l.29-.06.17,1.83a5.21,5.21,0,0,1-.67.13,5,5,0,0,1-.71,0,2.45,2.45,0,0,1-1.86-.65A2.87,2.87,0,0,1,31.21,9V5.37H30.1V3.65h1.11v-2Z"/><path class="cls-1" d="M38.54,4.64a2.49,2.49,0,0,1,.88-.83,2.2,2.2,0,0,1,1.13-.3,2.34,2.34,0,0,1,1.94.86A4.12,4.12,0,0,1,43.19,7v4.56H40.71V7a2.33,2.33,0,0,0-.23-1.25.8.8,0,0,0-.71-.35,2,2,0,0,0-.73.12,1.39,1.39,0,0,0-.5.34v5.71H36.06V.15h2.48Z"/><path class="cls-1" d="M52.88,11.57a3.25,3.25,0,0,1-.24-.56,6.38,6.38,0,0,1-.15-.66,3.12,3.12,0,0,1-.79,1,2,2,0,0,1-1.24.37,2.71,2.71,0,0,1-1.93-.64,2.22,2.22,0,0,1-.7-1.74,2.1,2.1,0,0,1,.89-1.82,4.58,4.58,0,0,1,2.69-.65h1V6.32a1.16,1.16,0,0,0-.24-.78,1,1,0,0,0-.74-.27.89.89,0,0,0-.65.21.85.85,0,0,0-.2.62H48.19v0a2.06,2.06,0,0,1,.9-1.81,4,4,0,0,1,2.53-.73A3.68,3.68,0,0,1,54,4.24a2.53,2.53,0,0,1,.91,2.1v3a5.93,5.93,0,0,0,.43,2.26ZM51.14,10a1.52,1.52,0,0,0,.8-.21,1.32,1.32,0,0,0,.49-.51V8.2h-1a1.14,1.14,0,0,0-.86.29,1,1,0,0,0-.26.72.72.72,0,0,0,.23.55A.86.86,0,0,0,51.14,10Z"/><path class="cls-1" d="M56.79,11.58V5.37H55.65V3.65h1.14V2.83A2.69,2.69,0,0,1,57.61.74,3.37,3.37,0,0,1,59.93,0a3.77,3.77,0,0,1,.58,0l.65.11L61,2l-.35-.06-.38,0a1,1,0,0,0-.72.25.92.92,0,0,0-.24.68v.82h1.56V5.37H59.28v6.21Z"/><path class="cls-1" d="M62.17,11.58V5.37H61V3.65h1.14V2.83A2.65,2.65,0,0,1,63,.74,3.37,3.37,0,0,1,65.31,0a3.64,3.64,0,0,1,.57,0l.65.11L66.35,2,66,1.92l-.37,0a1,1,0,0,0-.72.25.89.89,0,0,0-.25.68v.82h1.57V5.37H64.65v6.21Z"/><path class="cls-1" d="M70.35,11.73a3.66,3.66,0,0,1-2.82-1.09,3.86,3.86,0,0,1-1-2.76V7.6a4.42,4.42,0,0,1,1-3,3.4,3.4,0,0,1,2.78-1.13,3.22,3.22,0,0,1,2.49,1,3.72,3.72,0,0,1,.88,2.63V8.39H69.08v0a1.51,1.51,0,0,0,.46,1,1.6,1.6,0,0,0,1.16.39,4.93,4.93,0,0,0,1.18-.12A8.19,8.19,0,0,0,73,9.34l.59,1.51a4.49,4.49,0,0,1-1.37.63A6.45,6.45,0,0,1,70.35,11.73Zm-.1-6.32a1,1,0,0,0-.87.38,1.87,1.87,0,0,0-.33,1l0,0h2.14V6.66A1.68,1.68,0,0,0,71,5.73.83.83,0,0,0,70.25,5.41Z"/><path class="cls-1" d="M78.06,9.83a1,1,0,0,0,.76-.28,1.15,1.15,0,0,0,.24-.79h2.26l0,0a2.61,2.61,0,0,1-.9,2.12,4,4,0,0,1-5.16-.3,4.24,4.24,0,0,1-1-2.91V7.54a4.28,4.28,0,0,1,1-2.91,3.48,3.48,0,0,1,2.78-1.12,3.4,3.4,0,0,1,2.41.84,2.89,2.89,0,0,1,.88,2.29l0,.05H79.06a1.52,1.52,0,0,0-.25-.92.88.88,0,0,0-.76-.36,1,1,0,0,0-1,.58,3.52,3.52,0,0,0-.28,1.55v.17a3.54,3.54,0,0,0,.28,1.56A1,1,0,0,0,78.06,9.83Z"/><path class="cls-1" d="M85.19,1.68v2h1.25V5.37H85.19V9a.91.91,0,0,0,.17.61.58.58,0,0,0,.47.19h.3l.29-.06.17,1.83a5.33,5.33,0,0,1-.68.13,4.87,4.87,0,0,1-.71,0,2.44,2.44,0,0,1-1.85-.65A2.83,2.83,0,0,1,82.71,9V5.37h-1.1V3.65h1.1v-2Z"/><path class="cls-1" d="M91.77,9.35a.64.64,0,0,0-.33-.52,3.67,3.67,0,0,0-1.21-.41,4.86,4.86,0,0,1-2.09-.84A1.9,1.9,0,0,1,87.44,6a2.2,2.2,0,0,1,.88-1.77,3.58,3.58,0,0,1,2.38-.73,4,4,0,0,1,2.51.71A2.06,2.06,0,0,1,94.11,6l0,0h-2.4a1,1,0,0,0-.23-.71,1,1,0,0,0-.77-.25,1,1,0,0,0-.65.22.65.65,0,0,0-.27.54.62.62,0,0,0,.31.53,3.38,3.38,0,0,0,1.22.4,4.93,4.93,0,0,1,2.16.85,2,2,0,0,1,.69,1.61,2.08,2.08,0,0,1-1,1.76,4.14,4.14,0,0,1-2.5.69,3.73,3.73,0,0,1-2.56-.82,2.24,2.24,0,0,1-.9-1.83V9h2.24a1,1,0,0,0,.34.81,1.49,1.49,0,0,0,.93.25,1.25,1.25,0,0,0,.76-.19A.66.66,0,0,0,91.77,9.35Z"/><path class="cls-1" d="M106.39,7.79a4.83,4.83,0,0,1-.77,2.87,2.65,2.65,0,0,1-2.3,1.07,2.28,2.28,0,0,1-1.13-.27,2.56,2.56,0,0,1-.83-.81l-.15.93H99.05V.15h2.48V4.42a2.4,2.4,0,0,1,.76-.67,2.07,2.07,0,0,1,1-.24,2.62,2.62,0,0,1,2.31,1.12,5.17,5.17,0,0,1,.78,3Zm-2.47-.16A4,4,0,0,0,103.66,6a1,1,0,0,0-1-.58,1.47,1.47,0,0,0-.69.15,1.09,1.09,0,0,0-.46.44V9.33a1,1,0,0,0,.46.37,1.68,1.68,0,0,0,.7.13,1,1,0,0,0,1-.51,3.56,3.56,0,0,0,.25-1.53Z"/><path class="cls-1" d="M110.47,8.09v.05h0l1.31-4.49h2.64l-3.16,9.11a4.43,4.43,0,0,1-.94,1.45,2.55,2.55,0,0,1-1.84.57,2.66,2.66,0,0,1-.53,0l-.64-.15.3-1.77.15,0h.13a1.71,1.71,0,0,0,.86-.17,1,1,0,0,0,.4-.52l.2-.51-2.74-8h2.63Z"/><path class="cls-1" d="M124.5,8.75a1.05,1.05,0,0,0-.38-.87,4.55,4.55,0,0,0-1.35-.65,10.49,10.49,0,0,1-3-1.37,2.49,2.49,0,0,1-1-2.1A2.56,2.56,0,0,1,120,1.59a4.65,4.65,0,0,1,2.85-.83,4.74,4.74,0,0,1,2.93.85A2.75,2.75,0,0,1,126.84,4v0h-2.41A1.32,1.32,0,0,0,124,3a1.86,1.86,0,0,0-1.23-.34,1.61,1.61,0,0,0-1.07.33,1,1,0,0,0-.38.81.89.89,0,0,0,.39.75,7.78,7.78,0,0,0,1.49.71A7.91,7.91,0,0,1,126,6.57a2.66,2.66,0,0,1,1,2.17,2.54,2.54,0,0,1-1.1,2.2,4.85,4.85,0,0,1-2.91.79,5.33,5.33,0,0,1-3.07-.85,3,3,0,0,1-1.22-2.68l0,0h2.41a1.64,1.64,0,0,0,.46,1.32,2.05,2.05,0,0,0,1.4.4,1.87,1.87,0,0,0,1.16-.31A1,1,0,0,0,124.5,8.75Z"/><path class="cls-1" d="M130.77,11.58h-2.49V.15h2.49Z"/><path class="cls-1" d="M135.8,11.73A3.7,3.7,0,0,1,133,10.64a3.89,3.89,0,0,1-1-2.76V7.6a4.42,4.42,0,0,1,1-3,3.4,3.4,0,0,1,2.78-1.13,3.22,3.22,0,0,1,2.49,1,3.72,3.72,0,0,1,.88,2.63V8.39h-4.54v0a1.51,1.51,0,0,0,.46,1,1.59,1.59,0,0,0,1.15.39,5,5,0,0,0,1.19-.12,8.19,8.19,0,0,0,1.08-.37l.59,1.51a4.49,4.49,0,0,1-1.37.63A6.45,6.45,0,0,1,135.8,11.73Zm-.1-6.32a1,1,0,0,0-.87.38,1.87,1.87,0,0,0-.33,1l0,0h2.14V6.66a1.68,1.68,0,0,0-.22-.93A.84.84,0,0,0,135.7,5.41Z"/><path class="cls-1" d="M143.63,11.73a3.66,3.66,0,0,1-2.82-1.09,3.89,3.89,0,0,1-1-2.76V7.6a4.46,4.46,0,0,1,1-3,3.41,3.41,0,0,1,2.79-1.13,3.22,3.22,0,0,1,2.49,1,3.72,3.72,0,0,1,.88,2.63V8.39h-4.54l0,0a1.56,1.56,0,0,0,.46,1,1.61,1.61,0,0,0,1.16.39,4.81,4.81,0,0,0,1.18-.12,7.81,7.81,0,0,0,1.09-.37l.59,1.51a4.44,4.44,0,0,1-1.38.63A6.35,6.35,0,0,1,143.63,11.73Zm-.09-6.32a1,1,0,0,0-.88.38,2,2,0,0,0-.32,1v0h2.14V6.66a1.68,1.68,0,0,0-.21-.93A.84.84,0,0,0,143.54,5.41Z"/><path class="cls-1" d="M155.29,7.79a4.64,4.64,0,0,1-.8,2.86,2.67,2.67,0,0,1-2.27,1.08,2.18,2.18,0,0,1-1-.22,2.24,2.24,0,0,1-.78-.63v3.75H148v-11h2.33l.08.87a2.52,2.52,0,0,1,.78-.75,2.16,2.16,0,0,1,1.06-.26,2.65,2.65,0,0,1,2.28,1.13,5.06,5.06,0,0,1,.8,3Zm-2.46-.16a3.67,3.67,0,0,0-.3-1.61,1,1,0,0,0-.93-.61,1.41,1.41,0,0,0-.71.16,1.14,1.14,0,0,0-.46.44V9.32a1,1,0,0,0,.47.38,1.67,1.67,0,0,0,.71.13,1,1,0,0,0,.93-.54,3.25,3.25,0,0,0,.29-1.5Z"/><path class="cls-1" d="M159.79,7.63a5.06,5.06,0,0,1,.81-3,2.65,2.65,0,0,1,2.28-1.13,2,2,0,0,1,1,.25,2.67,2.67,0,0,1,.79.72V.15h2.48V11.58H165l-.17-1a2.65,2.65,0,0,1-.84.83,2,2,0,0,1-1.1.29,2.65,2.65,0,0,1-2.27-1.08,4.66,4.66,0,0,1-.81-2.86Zm2.48.16a3.26,3.26,0,0,0,.28,1.5,1,1,0,0,0,.95.54,1.59,1.59,0,0,0,.68-.14,1.33,1.33,0,0,0,.49-.42V6.06a1.29,1.29,0,0,0-1.16-.65,1,1,0,0,0-.95.61,3.83,3.83,0,0,0-.29,1.61Z"/><path class="cls-1" d="M172.07,11.73a3.7,3.7,0,0,1-2.83-1.09,3.89,3.89,0,0,1-1-2.76V7.6a4.42,4.42,0,0,1,1-3A3.4,3.4,0,0,1,172,3.51a3.22,3.22,0,0,1,2.49,1,3.72,3.72,0,0,1,.88,2.63V8.39H170.8v0a1.51,1.51,0,0,0,.46,1,1.59,1.59,0,0,0,1.15.39,5,5,0,0,0,1.19-.12,8.19,8.19,0,0,0,1.08-.37l.59,1.51a4.44,4.44,0,0,1-1.38.63A6.33,6.33,0,0,1,172.07,11.73ZM172,5.41a1,1,0,0,0-.87.38,1.87,1.87,0,0,0-.33,1l0,0h2.13V6.66a1.68,1.68,0,0,0-.21-.93A.84.84,0,0,0,172,5.41Z"/><path class="cls-1" d="M183.73,7.79a4.64,4.64,0,0,1-.81,2.86,2.67,2.67,0,0,1-2.27,1.08,2.18,2.18,0,0,1-1-.22,2.12,2.12,0,0,1-.77-.63v3.75h-2.48v-11h2.34l.07.87a2.45,2.45,0,0,1,.79-.75,2.1,2.1,0,0,1,1-.26,2.65,2.65,0,0,1,2.28,1.13,5.06,5.06,0,0,1,.81,3Zm-2.47-.16A3.83,3.83,0,0,0,181,6a1,1,0,0,0-.94-.61,1.43,1.43,0,0,0-.71.16,1.12,1.12,0,0,0-.45.44V9.32a1,1,0,0,0,.46.38,1.67,1.67,0,0,0,.71.13,1,1,0,0,0,.94-.54,3.26,3.26,0,0,0,.28-1.5Z"/><path class="cls-1" d="M189.2,5.76h-.81a1.41,1.41,0,0,0-.69.15,1,1,0,0,0-.41.45v5.22h-2.47V3.65h2.33l.09,1.17a2.26,2.26,0,0,1,.66-1,1.43,1.43,0,0,1,1-.34l.3,0a1.54,1.54,0,0,1,.27.07Z"/><path class="cls-1" d="M192.7,1.82h-2.48V.15h2.48Zm0,9.76h-2.48V3.65h2.48Z"/><path class="cls-1" d="M197.18,8.31l.15.85h0l.16-.85,1.05-4.66h2.6l-2.58,7.93h-2.51l-2.58-7.93h2.61Z"/><path class="cls-1" d="M206.4,11.57a2.2,2.2,0,0,1-.24-.56,3.52,3.52,0,0,1-.15-.66,3.14,3.14,0,0,1-.8,1,1.9,1.9,0,0,1-1.23.37,2.74,2.74,0,0,1-1.94-.64,2.25,2.25,0,0,1-.69-1.74,2.1,2.1,0,0,1,.89-1.82,4.54,4.54,0,0,1,2.68-.65h1V6.32a1.16,1.16,0,0,0-.24-.78,1,1,0,0,0-.74-.27.87.87,0,0,0-.64.21.82.82,0,0,0-.21.62h-2.4l0,0a2.07,2.07,0,0,1,.91-1.81,4,4,0,0,1,2.52-.73,3.7,3.7,0,0,1,2.39.73,2.56,2.56,0,0,1,.91,2.1v3a6.33,6.33,0,0,0,.1,1.18,6.31,6.31,0,0,0,.32,1.08ZM204.65,10a1.55,1.55,0,0,0,.81-.21,1.22,1.22,0,0,0,.48-.51V8.2h-1a1.13,1.13,0,0,0-.86.29,1,1,0,0,0-.26.72.68.68,0,0,0,.23.55A.84.84,0,0,0,204.65,10Z"/><path class="cls-1" d="M212.62,1.68v2h1.25V5.37h-1.25V9a.86.86,0,0,0,.17.61.58.58,0,0,0,.46.19h.31l.29-.06.16,1.83a5.21,5.21,0,0,1-.67.13,5,5,0,0,1-.71,0,2.46,2.46,0,0,1-1.86-.65A2.87,2.87,0,0,1,210.14,9V5.37H209V3.65h1.11v-2Z"/><path class="cls-1" d="M217.66,1.82h-2.48V.15h2.48Zm0,9.76h-2.48V3.65h2.48Z"/><path class="cls-1" d="M218.85,7.54a4.16,4.16,0,0,1,1-2.91,3.58,3.58,0,0,1,2.82-1.12,3.62,3.62,0,0,1,2.83,1.12,4.21,4.21,0,0,1,1,2.91V7.7a4.19,4.19,0,0,1-1,2.91,4.12,4.12,0,0,1-5.65,0,4.14,4.14,0,0,1-1-2.91Zm2.47.16a3.37,3.37,0,0,0,.31,1.56,1.12,1.12,0,0,0,1.06.57,1.09,1.09,0,0,0,1-.57,3.24,3.24,0,0,0,.32-1.56V7.54A3.28,3.28,0,0,0,223.73,6a1.23,1.23,0,0,0-2.1,0,3.37,3.37,0,0,0-.31,1.54Z"/><path class="cls-1" d="M229.88,3.65l.1,1.12a2.84,2.84,0,0,1,1-.93,2.51,2.51,0,0,1,1.27-.33A2.21,2.21,0,0,1,234,4.3a3.89,3.89,0,0,1,.66,2.51v4.77h-2.48V6.8A1.82,1.82,0,0,0,232,5.73a.83.83,0,0,0-.7-.32,1.8,1.8,0,0,0-.71.14A1.41,1.41,0,0,0,230,6v5.63h-2.47V3.65Z"/></g></g></svg>