<svg xmlns="http://www.w3.org/2000/svg" viewBox="0 0 242.04 134.73"><defs><style>.cls-1{fill:#fff;}.cls-2{fill:none;stroke:#fff;stroke-miterlimit:10;}</style></defs><title>text7</title><g id="Layer_2" data-name="Layer 2"><g id="Layer_1-2" data-name="Layer 1"><path class="cls-1" d="M2.74,95.69H1.29V85H2.74Z"/><path class="cls-1" d="M6.48,87.76l.1,1a2.82,2.82,0,0,1,1-.87A2.94,2.94,0,0,1,9,87.62a2.49,2.49,0,0,1,1.36.36,2.22,2.22,0,0,1,.85,1.1,3,3,0,0,1,1-1.07,2.57,2.57,0,0,1,1.43-.39,2.36,2.36,0,0,1,1.91.83,3.79,3.79,0,0,1,.7,2.5v4.74H14.76V90.93a2.66,2.66,0,0,0-.4-1.65,1.46,1.46,0,0,0-1.2-.49,1.52,1.52,0,0,0-1.2.51,2.17,2.17,0,0,0-.54,1.3v5.09H10V90.93a2.59,2.59,0,0,0-.42-1.63,1.43,1.43,0,0,0-1.18-.51,2,2,0,0,0-1.09.27,1.73,1.73,0,0,0-.65.76v5.87H5.19V87.76Z"/><path class="cls-1" d="M25.05,92a4.34,4.34,0,0,1-.82,2.76,2.71,2.71,0,0,1-2.26,1,3.23,3.23,0,0,1-1.29-.24,2.5,2.5,0,0,1-.94-.74v3.87H18.3v-11h1.1l.23,1a2.6,2.6,0,0,1,1-.87,2.85,2.85,0,0,1,1.34-.3,2.63,2.63,0,0,1,2.29,1.16,5.26,5.26,0,0,1,.82,3.09Zm-1.44-.16a4.18,4.18,0,0,0-.53-2.21,1.73,1.73,0,0,0-1.57-.87,1.91,1.91,0,0,0-1.06.28,2.2,2.2,0,0,0-.71.77v3.83a2,2,0,0,0,.71.77,2,2,0,0,0,1.08.27A1.77,1.77,0,0,0,23.08,94,3.29,3.29,0,0,0,23.61,92Z"/><path class="cls-1" d="M31.69,95.69c-.05-.24-.08-.45-.11-.64a4.89,4.89,0,0,1,0-.55,3.47,3.47,0,0,1-1.05,1,2.74,2.74,0,0,1-1.39.38,2.6,2.6,0,0,1-1.89-.63,2.35,2.35,0,0,1-.65-1.75,2.06,2.06,0,0,1,.92-1.78A4.33,4.33,0,0,1,30,91h1.57v-.78a1.46,1.46,0,0,0-.42-1.1,1.69,1.69,0,0,0-1.2-.41,1.78,1.78,0,0,0-1.14.35,1.06,1.06,0,0,0-.43.85H27l0,0a1.93,1.93,0,0,1,.81-1.59A3.42,3.42,0,0,1,30,87.62a3.23,3.23,0,0,1,2.16.68,2.43,2.43,0,0,1,.82,2v3.82a7.22,7.22,0,0,0,.05.82,4.32,4.32,0,0,0,.16.78ZM29.3,94.63a2.55,2.55,0,0,0,1.41-.4,2,2,0,0,0,.82-.92V92H29.91a2.05,2.05,0,0,0-1.39.44,1.3,1.3,0,0,0-.53,1,1.11,1.11,0,0,0,.33.84A1.42,1.42,0,0,0,29.3,94.63Z"/><path class="cls-1" d="M36.63,85.73H35.19V84.26h1.44Zm0,10H35.19V87.76h1.44Z"/><path class="cls-1" d="M42.6,89,41.86,89a1.65,1.65,0,0,0-1,.27,1.68,1.68,0,0,0-.61.77v5.66H38.85V87.76h1.29l.14,1.16a2.71,2.71,0,0,1,.83-1,1.94,1.94,0,0,1,1.14-.34,1.46,1.46,0,0,1,.3,0l.25.06Z"/><path class="cls-1" d="M47.24,95.84a3.34,3.34,0,0,1-2.66-1.09,4.18,4.18,0,0,1-1-2.87v-.32a4.12,4.12,0,0,1,1-2.83A3.11,3.11,0,0,1,47,87.62a2.9,2.9,0,0,1,2.38,1,4.08,4.08,0,0,1,.79,2.63V92H45.12l0,0A3.3,3.3,0,0,0,45.63,94a1.83,1.83,0,0,0,1.61.74,3.63,3.63,0,0,0,1.29-.21,2.83,2.83,0,0,0,.95-.57l.56.94a3.57,3.57,0,0,1-1.12.69A4.41,4.41,0,0,1,47.24,95.84ZM47,88.75a1.58,1.58,0,0,0-1.25.58,2.83,2.83,0,0,0-.61,1.49l0,0h3.57v-.12a2.3,2.3,0,0,0-.42-1.42A1.54,1.54,0,0,0,47,88.75Z"/><path class="cls-1" d="M51.48,91.87a5.24,5.24,0,0,1,.82-3.08,2.63,2.63,0,0,1,2.29-1.17,2.85,2.85,0,0,1,1.23.25,2.46,2.46,0,0,1,.92.75V84.26h1.44V95.69h-1.1l-.22-1a2.65,2.65,0,0,1-1,.87,2.93,2.93,0,0,1-1.33.29,2.73,2.73,0,0,1-2.27-1A4.4,4.4,0,0,1,51.48,92Zm1.45.16A3.33,3.33,0,0,0,53.42,94a1.7,1.7,0,0,0,1.52.72A1.93,1.93,0,0,0,56,94.38a2.13,2.13,0,0,0,.72-.82v-3.7a2.08,2.08,0,0,0-.72-.78A1.85,1.85,0,0,0,55,88.79a1.64,1.64,0,0,0-1.54.86,4.4,4.4,0,0,0-.49,2.22Z"/><path class="cls-1" d="M67.21,94.71a1.67,1.67,0,0,0,1.17-.44,1.4,1.4,0,0,0,.5-1.09h1.3l0,0a2.27,2.27,0,0,1-.88,1.82,3.08,3.08,0,0,1-2.11.79,3.11,3.11,0,0,1-2.57-1.13,4.37,4.37,0,0,1-.91-2.83v-.31a4.36,4.36,0,0,1,.91-2.82,3.13,3.13,0,0,1,2.57-1.13,3,3,0,0,1,2.18.82,2.58,2.58,0,0,1,.81,2v0H68.88a1.77,1.77,0,0,0-.47-1.23,1.58,1.58,0,0,0-1.2-.51,1.66,1.66,0,0,0-1.54.83,3.77,3.77,0,0,0-.49,2v.31a3.91,3.91,0,0,0,.48,2A1.66,1.66,0,0,0,67.21,94.71Z"/><path class="cls-1" d="M71.58,91.65a4.4,4.4,0,0,1,1-2.9,3.54,3.54,0,0,1,5.19,0,4.35,4.35,0,0,1,1,2.9v.16a4.36,4.36,0,0,1-1,2.9,3.54,3.54,0,0,1-5.19,0,4.32,4.32,0,0,1-1-2.9Zm1.44.16a3.78,3.78,0,0,0,.53,2.08,1.92,1.92,0,0,0,3.15,0,3.69,3.69,0,0,0,.53-2.08v-.16a3.7,3.7,0,0,0-.53-2.07,1.91,1.91,0,0,0-3.15,0A3.79,3.79,0,0,0,73,91.65Z"/><path class="cls-1" d="M80.19,91.87A5.32,5.32,0,0,1,81,88.79a2.64,2.64,0,0,1,2.29-1.17,2.79,2.79,0,0,1,1.32.3,2.6,2.6,0,0,1,1,.88l.18-1H86.9v8A3,3,0,0,1,86,98.07a3.61,3.61,0,0,1-2.56.82,5.07,5.07,0,0,1-1.23-.16,4.74,4.74,0,0,1-1.17-.43l.22-1.12a4,4,0,0,0,1,.36,5.16,5.16,0,0,0,1.16.13A2.09,2.09,0,0,0,85,97.19a2,2,0,0,0,.48-1.46v-.9a2.57,2.57,0,0,1-.93.75,2.77,2.77,0,0,1-1.25.26,2.72,2.72,0,0,1-2.27-1A4.4,4.4,0,0,1,80.19,92Zm1.44.16a3.32,3.32,0,0,0,.49,1.91,1.69,1.69,0,0,0,1.52.73,1.91,1.91,0,0,0,1.09-.3,2.22,2.22,0,0,0,.72-.84V89.89a2.18,2.18,0,0,0-.72-.81,2,2,0,0,0-1.08-.29,1.63,1.63,0,0,0-1.53.86,4.4,4.4,0,0,0-.49,2.22Z"/><path class="cls-1" d="M90.26,87.76l.1,1.18a2.9,2.9,0,0,1,1-1,2.67,2.67,0,0,1,1.36-.34,2.59,2.59,0,0,1,2,.75,3.33,3.33,0,0,1,.7,2.32v5H94v-5a2.11,2.11,0,0,0-.42-1.48,1.61,1.61,0,0,0-1.26-.44,2.2,2.2,0,0,0-1.13.27,1.84,1.84,0,0,0-.74.75v5.88H89V87.76Z"/><path class="cls-1" d="M99.05,85.73H97.61V84.26h1.44Zm0,10H97.61V87.76h1.44Z"/><path class="cls-1" d="M103.28,85.85v1.91h1.5v1.07h-1.5v4.81a1.1,1.1,0,0,0,.23.79.83.83,0,0,0,.61.22l.28,0a1.38,1.38,0,0,0,.26-.07l.19,1a1.21,1.21,0,0,1-.47.22,2.7,2.7,0,0,1-.62.08,1.87,1.87,0,0,1-1.4-.53,2.29,2.29,0,0,1-.52-1.67V88.83h-1.26V87.76h1.26V85.85Z"/><path class="cls-1" d="M107.89,85.73h-1.45V84.26h1.45Zm0,10h-1.45V87.76h1.45Z"/><path class="cls-1" d="M112.75,93.35l.13.56h0l.14-.56,1.82-5.59h1.47l-2.91,7.93h-1.09l-2.95-7.93h1.48Z"/><path class="cls-1" d="M120.84,95.84a3.36,3.36,0,0,1-2.67-1.09,4.23,4.23,0,0,1-1-2.87v-.32a4.16,4.16,0,0,1,1-2.83,3.11,3.11,0,0,1,2.41-1.11,2.89,2.89,0,0,1,2.38,1,4.08,4.08,0,0,1,.8,2.63V92h-5.07l0,0a3.3,3.3,0,0,0,.52,1.94,1.85,1.85,0,0,0,1.62.74,3.62,3.62,0,0,0,1.28-.21,2.74,2.74,0,0,0,.95-.57l.56.94a3.45,3.45,0,0,1-1.12.69A4.39,4.39,0,0,1,120.84,95.84Zm-.23-7.09a1.6,1.6,0,0,0-1.25.58,2.75,2.75,0,0,0-.6,1.49v0h3.57v-.12a2.3,2.3,0,0,0-.42-1.42A1.52,1.52,0,0,0,120.61,88.75Z"/><path class="cls-1" d="M135.89,92a4.4,4.4,0,0,1-.82,2.76,2.72,2.72,0,0,1-2.27,1,3.21,3.21,0,0,1-1.28-.24,2.5,2.5,0,0,1-.94-.74v3.87h-1.45v-11h1.11l.23,1a2.65,2.65,0,0,1,1-.87,2.92,2.92,0,0,1,1.35-.3,2.65,2.65,0,0,1,2.29,1.16,5.26,5.26,0,0,1,.82,3.09Zm-1.45-.16a4.09,4.09,0,0,0-.53-2.21,1.71,1.71,0,0,0-1.56-.87,1.88,1.88,0,0,0-1.06.28,2.11,2.11,0,0,0-.71.77v3.83a2,2,0,0,0,.71.77,2,2,0,0,0,1.07.27,1.78,1.78,0,0,0,1.56-.75,3.28,3.28,0,0,0,.52-1.93Z"/><path class="cls-1" d="M140.94,95.84a3.34,3.34,0,0,1-2.66-1.09,4.18,4.18,0,0,1-1-2.87v-.32a4.12,4.12,0,0,1,1-2.83,3.09,3.09,0,0,1,2.4-1.11,2.91,2.91,0,0,1,2.39,1,4.08,4.08,0,0,1,.79,2.63V92h-5.07l0,0a3.3,3.3,0,0,0,.53,1.94,1.83,1.83,0,0,0,1.61.74,3.63,3.63,0,0,0,1.29-.21,2.79,2.79,0,0,0,.94-.57l.57.94a3.57,3.57,0,0,1-1.12.69A4.44,4.44,0,0,1,140.94,95.84Zm-.23-7.09a1.6,1.6,0,0,0-1.25.58,2.82,2.82,0,0,0-.6,1.49l0,0h3.57v-.12a2.3,2.3,0,0,0-.42-1.42A1.56,1.56,0,0,0,140.71,88.75Z"/><path class="cls-1" d="M149.26,89l-.74-.05a1.65,1.65,0,0,0-1,.27A1.82,1.82,0,0,0,147,90v5.66h-1.44V87.76h1.29l.14,1.16a2.71,2.71,0,0,1,.83-1,1.94,1.94,0,0,1,1.14-.34,1.56,1.56,0,0,1,.31,0l.24.06Z"/><path class="cls-1" d="M151.47,95.69V88.83h-1.23V87.76h1.23v-1a2.68,2.68,0,0,1,.67-2,2.43,2.43,0,0,1,1.85-.69,2.89,2.89,0,0,1,.5,0l.56.11-.18,1.1a2.16,2.16,0,0,0-.32,0,2.42,2.42,0,0,0-.39,0,1.15,1.15,0,0,0-.94.37,1.76,1.76,0,0,0-.3,1.1v1h1.43v1.07h-1.43v6.86Z"/><path class="cls-1" d="M155.47,91.65a4.4,4.4,0,0,1,.95-2.9A3.23,3.23,0,0,1,159,87.62a3.19,3.19,0,0,1,2.6,1.13,4.35,4.35,0,0,1,1,2.9v.16a4.36,4.36,0,0,1-.95,2.9,3.54,3.54,0,0,1-5.19,0,4.32,4.32,0,0,1-1-2.9Zm1.45.16a3.69,3.69,0,0,0,.53,2.08,1.91,1.91,0,0,0,3.14,0,3.69,3.69,0,0,0,.54-2.08v-.16a3.71,3.71,0,0,0-.54-2.07,1.78,1.78,0,0,0-1.58-.83,1.73,1.73,0,0,0-1.56.83,3.7,3.7,0,0,0-.53,2.07Z"/><path class="cls-1" d="M168.08,89l-.74-.05a1.65,1.65,0,0,0-1,.27,1.73,1.73,0,0,0-.6.77v5.66h-1.45V87.76h1.29l.14,1.16a2.81,2.81,0,0,1,.83-1,1.94,1.94,0,0,1,1.14-.34,1.56,1.56,0,0,1,.31,0l.24.06Z"/><path class="cls-1" d="M170.88,87.76l.1,1a2.73,2.73,0,0,1,1-.87,2.94,2.94,0,0,1,1.39-.31,2.49,2.49,0,0,1,1.36.36,2.22,2.22,0,0,1,.85,1.1,3.1,3.1,0,0,1,1-1.07,2.63,2.63,0,0,1,1.44-.39,2.36,2.36,0,0,1,1.91.83,3.79,3.79,0,0,1,.7,2.5v4.74h-1.44V90.93a2.66,2.66,0,0,0-.4-1.65,1.46,1.46,0,0,0-1.21-.49,1.51,1.51,0,0,0-1.19.51,2.17,2.17,0,0,0-.54,1.3v5.09h-1.45V90.93A2.66,2.66,0,0,0,174,89.3a1.47,1.47,0,0,0-1.2-.51,2,2,0,0,0-1.08.27,1.73,1.73,0,0,0-.65.76v5.87h-1.44V87.76Z"/><path class="cls-1" d="M187.57,95.69c0-.24-.09-.45-.12-.64a4.91,4.91,0,0,1,0-.55,3.47,3.47,0,0,1-1,1,2.78,2.78,0,0,1-1.4.38,2.61,2.61,0,0,1-1.89-.63,2.34,2.34,0,0,1-.64-1.75,2.05,2.05,0,0,1,.91-1.78,4.39,4.39,0,0,1,2.5-.64h1.57v-.78a1.47,1.47,0,0,0-.43-1.1,1.66,1.66,0,0,0-1.2-.41,1.78,1.78,0,0,0-1.14.35,1.09,1.09,0,0,0-.43.85h-1.37v0a1.88,1.88,0,0,1,.81-1.59,3.38,3.38,0,0,1,2.22-.71,3.26,3.26,0,0,1,2.17.68,2.43,2.43,0,0,1,.82,2v3.82a7.27,7.27,0,0,0,0,.82,5.4,5.4,0,0,0,.16.78Zm-2.4-1.06a2.58,2.58,0,0,0,1.42-.4,2,2,0,0,0,.82-.92V92h-1.62a2.08,2.08,0,0,0-1.4.44,1.29,1.29,0,0,0-.52,1,1.11,1.11,0,0,0,.33.84A1.39,1.39,0,0,0,185.17,94.63Z"/><path class="cls-1" d="M192.23,87.76l.1,1.18a3,3,0,0,1,1-1,2.64,2.64,0,0,1,1.36-.34,2.59,2.59,0,0,1,2,.75,3.29,3.29,0,0,1,.7,2.32v5h-1.44v-5a2.16,2.16,0,0,0-.41-1.48,1.65,1.65,0,0,0-1.27-.44,2.22,2.22,0,0,0-1.13.27,1.82,1.82,0,0,0-.73.75v5.88h-1.45V87.76Z"/><path class="cls-1" d="M202.62,94.71a1.67,1.67,0,0,0,1.16-.44,1.37,1.37,0,0,0,.5-1.09h1.3l0,0a2.3,2.3,0,0,1-.88,1.82,3.37,3.37,0,0,1-4.69-.34,4.37,4.37,0,0,1-.91-2.83v-.31a4.42,4.42,0,0,1,.91-2.82,3.14,3.14,0,0,1,2.58-1.13,3,3,0,0,1,2.17.82,2.59,2.59,0,0,1,.82,2l0,0h-1.31a1.77,1.77,0,0,0-.47-1.23,1.56,1.56,0,0,0-1.19-.51,1.66,1.66,0,0,0-1.55.83,3.77,3.77,0,0,0-.49,2v.31a3.91,3.91,0,0,0,.48,2A1.66,1.66,0,0,0,202.62,94.71Z"/><path class="cls-1" d="M210.6,95.84a3.34,3.34,0,0,1-2.66-1.09,4.18,4.18,0,0,1-1-2.87v-.32a4.12,4.12,0,0,1,1-2.83,3.09,3.09,0,0,1,2.41-1.11,2.9,2.9,0,0,1,2.38,1,4.08,4.08,0,0,1,.79,2.63V92h-5.07l0,0A3.3,3.3,0,0,0,209,94a1.83,1.83,0,0,0,1.61.74,3.63,3.63,0,0,0,1.29-.21,2.83,2.83,0,0,0,1-.57l.56.94a3.57,3.57,0,0,1-1.12.69A4.44,4.44,0,0,1,210.6,95.84Zm-.22-7.09a1.62,1.62,0,0,0-1.26.58,2.82,2.82,0,0,0-.6,1.49l0,0h3.57v-.12a2.3,2.3,0,0,0-.42-1.42A1.55,1.55,0,0,0,210.38,88.75Z"/><path class="cls-1" d="M223.77,95.69c-.05-.24-.09-.45-.11-.64a3.31,3.31,0,0,1,0-.55,3.47,3.47,0,0,1-1.05,1,2.75,2.75,0,0,1-1.4.38,2.59,2.59,0,0,1-1.88-.63,2.31,2.31,0,0,1-.65-1.75,2.06,2.06,0,0,1,.92-1.78A4.33,4.33,0,0,1,222,91h1.57v-.78a1.43,1.43,0,0,0-.43-1.1,1.66,1.66,0,0,0-1.2-.41,1.75,1.75,0,0,0-1.13.35,1.06,1.06,0,0,0-.43.85h-1.37l0,0a1.93,1.93,0,0,1,.81-1.59,3.4,3.4,0,0,1,2.22-.71,3.24,3.24,0,0,1,2.17.68,2.43,2.43,0,0,1,.82,2v3.82a7.22,7.22,0,0,0,0,.82,3.61,3.61,0,0,0,.16.78Zm-2.39-1.06a2.55,2.55,0,0,0,1.41-.4,2,2,0,0,0,.82-.92V92H222a2,2,0,0,0-1.39.44,1.3,1.3,0,0,0-.53,1,1.11,1.11,0,0,0,.33.84A1.42,1.42,0,0,0,221.38,94.63Z"/><path class="cls-1" d="M228.44,87.76l.1,1.18a2.9,2.9,0,0,1,1-1,2.67,2.67,0,0,1,1.36-.34,2.61,2.61,0,0,1,2,.75,3.33,3.33,0,0,1,.7,2.32v5h-1.45v-5a2.11,2.11,0,0,0-.41-1.48,1.62,1.62,0,0,0-1.26-.44,2.2,2.2,0,0,0-1.13.27,1.84,1.84,0,0,0-.74.75v5.88h-1.44V87.76Z"/><path class="cls-1" d="M235.34,91.87a5.32,5.32,0,0,1,.82-3.08,2.63,2.63,0,0,1,2.29-1.17,2.85,2.85,0,0,1,1.23.25,2.46,2.46,0,0,1,.92.75V84.26H242V95.69h-1.1l-.22-1a2.65,2.65,0,0,1-1,.87,2.93,2.93,0,0,1-1.33.29,2.73,2.73,0,0,1-2.27-1,4.4,4.4,0,0,1-.82-2.76Zm1.45.16a3.33,3.33,0,0,0,.49,1.92,1.7,1.7,0,0,0,1.52.72,1.93,1.93,0,0,0,1.08-.29,2.13,2.13,0,0,0,.72-.82v-3.7a2.08,2.08,0,0,0-.72-.78,1.86,1.86,0,0,0-1.07-.29,1.63,1.63,0,0,0-1.53.86,4.4,4.4,0,0,0-.49,2.22Z"/><path class="cls-1" d="M2.23,105.76l.11,1a2.73,2.73,0,0,1,1-.87,2.94,2.94,0,0,1,1.39-.31,2.49,2.49,0,0,1,1.36.36,2.22,2.22,0,0,1,.85,1.1,3,3,0,0,1,1-1.07,2.57,2.57,0,0,1,1.43-.39,2.36,2.36,0,0,1,1.91.83A3.79,3.79,0,0,1,12,109v4.74H10.52v-4.76a2.66,2.66,0,0,0-.4-1.65,1.46,1.46,0,0,0-1.21-.49,1.51,1.51,0,0,0-1.19.51,2.17,2.17,0,0,0-.54,1.3v5.09H5.73v-4.76a2.59,2.59,0,0,0-.42-1.63,1.43,1.43,0,0,0-1.19-.51,2,2,0,0,0-1.08.27,1.73,1.73,0,0,0-.65.76v5.87H1v-7.93Z"/><path class="cls-1" d="M17.34,113.84a3.36,3.36,0,0,1-2.67-1.09,4.23,4.23,0,0,1-.95-2.87v-.32a4.16,4.16,0,0,1,1-2.83,3.11,3.11,0,0,1,2.41-1.11,2.89,2.89,0,0,1,2.38,1,4.08,4.08,0,0,1,.8,2.63V110H15.22l0,0a3.3,3.3,0,0,0,.53,1.94,1.83,1.83,0,0,0,1.61.74,3.58,3.58,0,0,0,1.28-.21,2.74,2.74,0,0,0,.95-.57l.56.94a3.45,3.45,0,0,1-1.12.69A4.39,4.39,0,0,1,17.34,113.84Zm-.23-7.09a1.6,1.6,0,0,0-1.25.58,2.75,2.75,0,0,0-.6,1.49v0h3.58v-.12a2.24,2.24,0,0,0-.43-1.42A1.52,1.52,0,0,0,17.11,106.75Z"/><path class="cls-1" d="M23.2,105.76l.1,1.18a2.9,2.9,0,0,1,1-1,2.67,2.67,0,0,1,1.36-.34,2.57,2.57,0,0,1,2,.75,3.29,3.29,0,0,1,.71,2.32v5H26.9v-5a2.11,2.11,0,0,0-.42-1.48,1.61,1.61,0,0,0-1.26-.44,2.2,2.2,0,0,0-1.13.27,1.84,1.84,0,0,0-.74.75v5.88H21.91v-7.93Z"/><path class="cls-1" d="M32.44,103.85v1.91h1.5v1.07h-1.5v4.81a1.1,1.1,0,0,0,.23.79.83.83,0,0,0,.61.22l.28,0a1.38,1.38,0,0,0,.26-.07l.19,1a1.21,1.21,0,0,1-.47.22,2.7,2.7,0,0,1-.62.08,1.87,1.87,0,0,1-1.4-.53,2.29,2.29,0,0,1-.52-1.67v-4.81H29.74v-1.07H31v-1.91Z"/><path class="cls-1" d="M40.36,113.69c0-.24-.09-.45-.12-.64a4.91,4.91,0,0,1,0-.55,3.47,3.47,0,0,1-1.05,1,2.78,2.78,0,0,1-1.4.38,2.61,2.61,0,0,1-1.89-.63,2.34,2.34,0,0,1-.64-1.75,2.05,2.05,0,0,1,.91-1.78,4.39,4.39,0,0,1,2.5-.64H40.2v-.78a1.47,1.47,0,0,0-.43-1.1,1.66,1.66,0,0,0-1.2-.41,1.73,1.73,0,0,0-1.13.35A1.08,1.08,0,0,0,37,108H35.63v0a1.88,1.88,0,0,1,.81-1.59,3.38,3.38,0,0,1,2.22-.71,3.26,3.26,0,0,1,2.17.68,2.43,2.43,0,0,1,.82,2v3.82a7.27,7.27,0,0,0,0,.82,5.4,5.4,0,0,0,.16.78ZM38,112.63a2.58,2.58,0,0,0,1.42-.4,2,2,0,0,0,.82-.92V110H38.58a2.08,2.08,0,0,0-1.4.44,1.29,1.29,0,0,0-.52,1,1.11,1.11,0,0,0,.33.84A1.39,1.39,0,0,0,38,112.63Z"/><path class="cls-1" d="M45.29,113.69H43.85V102.26h1.44Z"/><path class="cls-1" d="M52.68,106.82a3.07,3.07,0,0,1,1-.89,2.79,2.79,0,0,1,1.32-.31,2.56,2.56,0,0,1,2,.76,3.36,3.36,0,0,1,.7,2.34v5H56.25v-5a2.11,2.11,0,0,0-.42-1.45,1.58,1.58,0,0,0-1.26-.47,2.34,2.34,0,0,0-1.12.25,2.09,2.09,0,0,0-.77.71v5.94H51.24V102.26h1.44Z"/><path class="cls-1" d="M63.05,113.84a3.36,3.36,0,0,1-2.67-1.09,4.23,4.23,0,0,1-1-2.87v-.32a4.16,4.16,0,0,1,1-2.83,3.11,3.11,0,0,1,2.41-1.11,2.92,2.92,0,0,1,2.39,1,4.14,4.14,0,0,1,.79,2.63V110H60.93l0,0a3.23,3.23,0,0,0,.53,1.94,1.83,1.83,0,0,0,1.61.74,3.58,3.58,0,0,0,1.28-.21,2.74,2.74,0,0,0,1-.57l.57.94a3.62,3.62,0,0,1-1.13.69A4.39,4.39,0,0,1,63.05,113.84Zm-.23-7.09a1.6,1.6,0,0,0-1.25.58,2.75,2.75,0,0,0-.6,1.49v0h3.58v-.12a2.24,2.24,0,0,0-.43-1.42A1.52,1.52,0,0,0,62.82,106.75Z"/><path class="cls-1" d="M72.49,113.69c0-.24-.09-.45-.11-.64a3.31,3.31,0,0,1,0-.55,3.47,3.47,0,0,1-1,1,2.78,2.78,0,0,1-1.4.38,2.59,2.59,0,0,1-1.88-.63,2.31,2.31,0,0,1-.65-1.75,2,2,0,0,1,.92-1.78,4.33,4.33,0,0,1,2.49-.64h1.57v-.78a1.43,1.43,0,0,0-.43-1.1,1.66,1.66,0,0,0-1.2-.41,1.73,1.73,0,0,0-1.13.35,1.08,1.08,0,0,0-.44.85H67.76v0a1.93,1.93,0,0,1,.81-1.59,3.38,3.38,0,0,1,2.22-.71,3.26,3.26,0,0,1,2.17.68,2.43,2.43,0,0,1,.82,2v3.82c0,.28,0,.56,0,.82a4.36,4.36,0,0,0,.17.78Zm-2.4-1.06a2.56,2.56,0,0,0,1.42-.4,2,2,0,0,0,.82-.92V110H70.71a2.08,2.08,0,0,0-1.4.44,1.29,1.29,0,0,0-.52,1,1.11,1.11,0,0,0,.33.84A1.39,1.39,0,0,0,70.09,112.63Z"/><path class="cls-1" d="M77.43,113.69H76V102.26h1.45Z"/><path class="cls-1" d="M81.65,103.85v1.91h1.5v1.07h-1.5v4.81a1.1,1.1,0,0,0,.23.79.85.85,0,0,0,.61.22l.28,0a1.2,1.2,0,0,0,.26-.07l.2,1a1.34,1.34,0,0,1-.48.22,2.7,2.7,0,0,1-.62.08,1.88,1.88,0,0,1-1.4-.53,2.29,2.29,0,0,1-.52-1.67v-4.81H79v-1.07h1.26v-1.91Z"/><path class="cls-1" d="M86.14,106.82a3,3,0,0,1,1-.89,2.79,2.79,0,0,1,1.32-.31,2.55,2.55,0,0,1,2,.76,3.31,3.31,0,0,1,.71,2.34v5H89.71v-5a2.11,2.11,0,0,0-.42-1.45,1.58,1.58,0,0,0-1.26-.47,2.34,2.34,0,0,0-1.12.25,2,2,0,0,0-.77.71v5.94H84.7V102.26h1.44Z"/><path class="cls-1" d="M98.51,103.73H97.07v-1.47h1.44Zm0,10H97.07v-7.93h1.44Z"/><path class="cls-1" d="M105.34,111.56a1,1,0,0,0-.36-.78,3.53,3.53,0,0,0-1.38-.53,5.8,5.8,0,0,1-2.15-.84,1.69,1.69,0,0,1-.75-1.45,2.11,2.11,0,0,1,.83-1.66,3.26,3.26,0,0,1,2.13-.68,3.16,3.16,0,0,1,2.18.73,2.08,2.08,0,0,1,.8,1.71v0h-1.38a1.25,1.25,0,0,0-.45-.93,1.61,1.61,0,0,0-1.14-.42,1.64,1.64,0,0,0-1.14.35,1.08,1.08,0,0,0-.38.82.86.86,0,0,0,.33.72,3.65,3.65,0,0,0,1.34.47A5.73,5.73,0,0,1,106,110a1.77,1.77,0,0,1,.75,1.47,2.06,2.06,0,0,1-.85,1.72,4.07,4.07,0,0,1-4.62-.1,2.19,2.19,0,0,1-.83-1.79l0,0h1.37a1.35,1.35,0,0,0,.58,1.13,2.16,2.16,0,0,0,1.25.35,2,2,0,0,0,1.2-.32A1,1,0,0,0,105.34,111.56Z"/><path class="cls-1" d="M113.18,111.56a1,1,0,0,0-.36-.78,3.47,3.47,0,0,0-1.37-.53,5.73,5.73,0,0,1-2.15-.84,1.69,1.69,0,0,1-.75-1.45,2.1,2.1,0,0,1,.82-1.66,3.26,3.26,0,0,1,2.13-.68,3.2,3.2,0,0,1,2.19.73,2.14,2.14,0,0,1,.8,1.71l0,0h-1.38a1.25,1.25,0,0,0-.45-.93,1.61,1.61,0,0,0-1.14-.42,1.63,1.63,0,0,0-1.13.35,1,1,0,0,0-.38.82.88.88,0,0,0,.32.72,3.64,3.64,0,0,0,1.35.47,5.68,5.68,0,0,1,2.21.87,1.77,1.77,0,0,1,.75,1.47,2.06,2.06,0,0,1-.85,1.72,4.07,4.07,0,0,1-4.62-.1,2.18,2.18,0,0,1-.82-1.79v0h1.38a1.32,1.32,0,0,0,.57,1.13,2.18,2.18,0,0,0,1.25.35,2,2,0,0,0,1.21-.32A1,1,0,0,0,113.18,111.56Z"/><path class="cls-1" d="M121.45,112.52a2.74,2.74,0,0,1-1,1,2.6,2.6,0,0,1-1.35.34,2.51,2.51,0,0,1-2-.83,3.79,3.79,0,0,1-.73-2.57v-4.68h1.44v4.69a2.92,2.92,0,0,0,.38,1.74,1.37,1.37,0,0,0,1.16.48,2.34,2.34,0,0,0,1.27-.31,1.92,1.92,0,0,0,.76-.88v-5.72h1.44v7.93h-1.29Z"/><path class="cls-1" d="M128.23,113.84a3.36,3.36,0,0,1-2.67-1.09,4.23,4.23,0,0,1-1-2.87v-.32a4.16,4.16,0,0,1,1-2.83,3.11,3.11,0,0,1,2.41-1.11,2.89,2.89,0,0,1,2.38,1,4.08,4.08,0,0,1,.8,2.63V110h-5.07l0,0a3.23,3.23,0,0,0,.53,1.94,1.82,1.82,0,0,0,1.61.74,3.62,3.62,0,0,0,1.28-.21,2.74,2.74,0,0,0,1-.57l.56.94a3.45,3.45,0,0,1-1.12.69A4.39,4.39,0,0,1,128.23,113.84Zm-.23-7.09a1.6,1.6,0,0,0-1.25.58,2.75,2.75,0,0,0-.6,1.49v0h3.57v-.12a2.3,2.3,0,0,0-.42-1.42A1.52,1.52,0,0,0,128,106.75Z"/><path class="cls-1" d="M137.4,111.56a1,1,0,0,0-.36-.78,3.47,3.47,0,0,0-1.37-.53,5.73,5.73,0,0,1-2.15-.84,1.69,1.69,0,0,1-.75-1.45,2.1,2.1,0,0,1,.82-1.66,3.27,3.27,0,0,1,2.14-.68,3.19,3.19,0,0,1,2.18.73,2.14,2.14,0,0,1,.8,1.71l0,0h-1.37a1.25,1.25,0,0,0-.45-.93,1.88,1.88,0,0,0-2.28-.07,1.08,1.08,0,0,0-.38.82.86.86,0,0,0,.33.72,3.5,3.5,0,0,0,1.34.47,5.68,5.68,0,0,1,2.21.87,1.78,1.78,0,0,1,.76,1.47,2.07,2.07,0,0,1-.86,1.72,4.05,4.05,0,0,1-4.61-.1,2.16,2.16,0,0,1-.83-1.79v0h1.38a1.32,1.32,0,0,0,.57,1.13,2.18,2.18,0,0,0,1.25.35,2,2,0,0,0,1.21-.32A1,1,0,0,0,137.4,111.56Z"/><path class="cls-1" d="M145.81,106.82a3,3,0,0,1,1-.89,2.79,2.79,0,0,1,1.32-.31,2.53,2.53,0,0,1,2,.76,3.31,3.31,0,0,1,.71,2.34v5h-1.44v-5a2.11,2.11,0,0,0-.42-1.45,1.58,1.58,0,0,0-1.26-.47,2.34,2.34,0,0,0-1.12.25,2,2,0,0,0-.77.71v5.94h-1.44V102.26h1.44Z"/><path class="cls-1" d="M157.76,113.69c0-.24-.08-.45-.11-.64a4.89,4.89,0,0,1-.05-.55,3.47,3.47,0,0,1-1,1,2.71,2.71,0,0,1-1.39.38,2.6,2.6,0,0,1-1.89-.63,2.35,2.35,0,0,1-.65-1.75,2.06,2.06,0,0,1,.92-1.78A4.36,4.36,0,0,1,156,109h1.56v-.78a1.46,1.46,0,0,0-.42-1.1,1.66,1.66,0,0,0-1.2-.41,1.78,1.78,0,0,0-1.14.35,1.06,1.06,0,0,0-.43.85H153v0a1.89,1.89,0,0,1,.8-1.59,3.42,3.42,0,0,1,2.23-.71,3.26,3.26,0,0,1,2.17.68,2.46,2.46,0,0,1,.82,2v3.82a7.27,7.27,0,0,0,0,.82,4.32,4.32,0,0,0,.16.78Zm-2.39-1.06a2.55,2.55,0,0,0,1.41-.4,1.91,1.91,0,0,0,.82-.92V110H156a2.05,2.05,0,0,0-1.39.44,1.29,1.29,0,0,0-.52,1,1.11,1.11,0,0,0,.33.84A1.39,1.39,0,0,0,155.37,112.63Z"/><path class="cls-1" d="M163.68,111.35l.12.56h0l.14-.56,1.83-5.59h1.47l-2.92,7.93h-1.09l-3-7.93h1.48Z"/><path class="cls-1" d="M171.76,113.84a3.34,3.34,0,0,1-2.66-1.09,4.18,4.18,0,0,1-1-2.87v-.32a4.12,4.12,0,0,1,1-2.83,3.1,3.1,0,0,1,2.4-1.11,2.91,2.91,0,0,1,2.39,1,4.08,4.08,0,0,1,.79,2.63V110h-5.07l0,0a3.3,3.3,0,0,0,.53,1.94,1.83,1.83,0,0,0,1.61.74,3.63,3.63,0,0,0,1.29-.21,2.83,2.83,0,0,0,.95-.57l.56.94a3.57,3.57,0,0,1-1.12.69A4.44,4.44,0,0,1,171.76,113.84Zm-.23-7.09a1.58,1.58,0,0,0-1.24.58,2.75,2.75,0,0,0-.61,1.49l0,0h3.57v-.12a2.3,2.3,0,0,0-.42-1.42A1.56,1.56,0,0,0,171.53,106.75Z"/><path class="cls-1" d="M186.83,110a4.34,4.34,0,0,1-.83,2.76,2.71,2.71,0,0,1-2.26,1,2.87,2.87,0,0,1-1.38-.31,2.49,2.49,0,0,1-1-.92l-.23,1.08h-1.11V102.26h1.44v4.44a2.58,2.58,0,0,1,.93-.81,2.92,2.92,0,0,1,1.29-.27,2.64,2.64,0,0,1,2.29,1.17,5.32,5.32,0,0,1,.82,3.08Zm-1.45-.16a4.29,4.29,0,0,0-.5-2.22,1.65,1.65,0,0,0-1.52-.86,2,2,0,0,0-1.13.32,2.35,2.35,0,0,0-.73.88v3.43a2.43,2.43,0,0,0,.73.92,1.88,1.88,0,0,0,1.14.33,1.72,1.72,0,0,0,1.52-.73,3.32,3.32,0,0,0,.49-1.91Z"/><path class="cls-1" d="M191.87,113.84a3.36,3.36,0,0,1-2.67-1.09,4.23,4.23,0,0,1-.95-2.87v-.32a4.16,4.16,0,0,1,1-2.83,3.11,3.11,0,0,1,2.41-1.11,2.89,2.89,0,0,1,2.38,1,4.08,4.08,0,0,1,.8,2.63V110h-5.07l0,0a3.3,3.3,0,0,0,.52,1.94,1.85,1.85,0,0,0,1.62.74,3.62,3.62,0,0,0,1.28-.21,2.74,2.74,0,0,0,.95-.57l.56.94a3.45,3.45,0,0,1-1.12.69A4.39,4.39,0,0,1,191.87,113.84Zm-.23-7.09a1.6,1.6,0,0,0-1.25.58,2.75,2.75,0,0,0-.6,1.49v0h3.58v-.12a2.31,2.31,0,0,0-.43-1.42A1.52,1.52,0,0,0,191.64,106.75Z"/><path class="cls-1" d="M199.72,113.84a3.36,3.36,0,0,1-2.67-1.09,4.23,4.23,0,0,1-1-2.87v-.32a4.16,4.16,0,0,1,1-2.83,3.11,3.11,0,0,1,2.41-1.11,2.92,2.92,0,0,1,2.39,1,4.14,4.14,0,0,1,.79,2.63V110H197.6l0,0a3.23,3.23,0,0,0,.53,1.94,1.83,1.83,0,0,0,1.61.74,3.58,3.58,0,0,0,1.28-.21,2.74,2.74,0,0,0,.95-.57l.57.94a3.62,3.62,0,0,1-1.13.69A4.39,4.39,0,0,1,199.72,113.84Zm-.23-7.09a1.6,1.6,0,0,0-1.25.58,2.75,2.75,0,0,0-.6,1.49v0h3.58v-.12a2.31,2.31,0,0,0-.43-1.42A1.52,1.52,0,0,0,199.49,106.75Z"/><path class="cls-1" d="M205.58,105.76l.1,1.18a2.9,2.9,0,0,1,1-1,2.67,2.67,0,0,1,1.36-.34,2.61,2.61,0,0,1,2,.75,3.33,3.33,0,0,1,.7,2.32v5h-1.44v-5a2.11,2.11,0,0,0-.42-1.48,1.61,1.61,0,0,0-1.26-.44,2.2,2.2,0,0,0-1.13.27,1.84,1.84,0,0,0-.74.75v5.88h-1.44v-7.93Z"/><path class="cls-1" d="M5.82,131.69c-.05-.24-.09-.45-.12-.64a4.91,4.91,0,0,1,0-.55,3.39,3.39,0,0,1-1.06,1,2.71,2.71,0,0,1-1.39.38,2.6,2.6,0,0,1-1.89-.63,2.35,2.35,0,0,1-.65-1.75,2.06,2.06,0,0,1,.92-1.78,4.39,4.39,0,0,1,2.5-.64H5.66v-.78a1.47,1.47,0,0,0-.43-1.1,1.66,1.66,0,0,0-1.2-.41,1.78,1.78,0,0,0-1.14.35,1.09,1.09,0,0,0-.43.85H1.09v0a1.88,1.88,0,0,1,.81-1.59,3.38,3.38,0,0,1,2.22-.71,3.26,3.26,0,0,1,2.17.68,2.46,2.46,0,0,1,.82,2v3.82a7.27,7.27,0,0,0,0,.82,4.32,4.32,0,0,0,.16.78Zm-2.4-1.06a2.52,2.52,0,0,0,1.41-.4,2,2,0,0,0,.83-.92V128H4a2.08,2.08,0,0,0-1.4.44,1.29,1.29,0,0,0-.52,1,1.11,1.11,0,0,0,.33.84A1.39,1.39,0,0,0,3.42,130.63Z"/><path class="cls-1" d="M13.8,129.56a1,1,0,0,0-.36-.78,3.46,3.46,0,0,0-1.38-.53,5.8,5.8,0,0,1-2.15-.84A1.69,1.69,0,0,1,9.16,126,2.11,2.11,0,0,1,10,124.3a3.26,3.26,0,0,1,2.13-.68,3.16,3.16,0,0,1,2.18.73,2.08,2.08,0,0,1,.8,1.71v0H13.71a1.25,1.25,0,0,0-.45-.93,1.61,1.61,0,0,0-1.14-.42,1.65,1.65,0,0,0-1.14.35,1.07,1.07,0,0,0-.37.82.85.85,0,0,0,.32.72,3.64,3.64,0,0,0,1.35.47,5.68,5.68,0,0,1,2.21.87,1.77,1.77,0,0,1,.75,1.47,2.06,2.06,0,0,1-.85,1.72,3.48,3.48,0,0,1-2.23.67,3.5,3.5,0,0,1-2.39-.77,2.19,2.19,0,0,1-.83-1.79l0-.05h1.38a1.32,1.32,0,0,0,.57,1.13,2.16,2.16,0,0,0,1.25.35,2,2,0,0,0,1.2-.32A1,1,0,0,0,13.8,129.56Z"/><path class="cls-1" d="M21.64,129.56a1,1,0,0,0-.36-.78,3.47,3.47,0,0,0-1.37-.53,5.8,5.8,0,0,1-2.15-.84A1.69,1.69,0,0,1,17,126a2.1,2.1,0,0,1,.82-1.66,3.27,3.27,0,0,1,2.14-.68,3.18,3.18,0,0,1,2.18.73,2.11,2.11,0,0,1,.8,1.71l0,0H21.56a1.25,1.25,0,0,0-.45-.93,1.88,1.88,0,0,0-2.28-.07,1.08,1.08,0,0,0-.38.82.86.86,0,0,0,.33.72,3.5,3.5,0,0,0,1.34.47,5.68,5.68,0,0,1,2.21.87,1.75,1.75,0,0,1,.76,1.47,2.07,2.07,0,0,1-.86,1.72,3.48,3.48,0,0,1-2.23.67,3.48,3.48,0,0,1-2.38-.77,2.19,2.19,0,0,1-.83-1.79v-.05h1.38a1.32,1.32,0,0,0,.57,1.13,2.2,2.2,0,0,0,1.25.35,2,2,0,0,0,1.21-.32A1,1,0,0,0,21.64,129.56Z"/><path class="cls-1" d="M24.54,127.65a4.35,4.35,0,0,1,1-2.9,3.19,3.19,0,0,1,2.58-1.13,3.23,3.23,0,0,1,2.61,1.13,4.4,4.4,0,0,1,.95,2.9v.16a4.36,4.36,0,0,1-.95,2.9,3.2,3.2,0,0,1-2.59,1.13,3.24,3.24,0,0,1-2.6-1.13,4.32,4.32,0,0,1-1-2.9Zm1.45.16a3.69,3.69,0,0,0,.53,2.08,1.75,1.75,0,0,0,1.58.82,1.73,1.73,0,0,0,1.56-.82,3.69,3.69,0,0,0,.54-2.08v-.16a3.71,3.71,0,0,0-.54-2.07,1.77,1.77,0,0,0-1.58-.83,1.73,1.73,0,0,0-1.56.83,3.7,3.7,0,0,0-.53,2.07Z"/><path class="cls-1" d="M36.56,130.71a1.67,1.67,0,0,0,1.16-.44,1.4,1.4,0,0,0,.5-1.09h1.3l0,0a2.29,2.29,0,0,1-.87,1.82,3.37,3.37,0,0,1-4.69-.34,4.37,4.37,0,0,1-.91-2.83v-.31a4.36,4.36,0,0,1,.91-2.82,3.14,3.14,0,0,1,2.58-1.13,3,3,0,0,1,2.17.82,2.58,2.58,0,0,1,.81,2v0H38.22a1.77,1.77,0,0,0-.47-1.23,1.56,1.56,0,0,0-1.19-.51,1.66,1.66,0,0,0-1.55.83,3.77,3.77,0,0,0-.49,2v.31a3.91,3.91,0,0,0,.48,2A1.66,1.66,0,0,0,36.56,130.71Z"/><path class="cls-1" d="M42.82,121.73H41.38v-1.47h1.44Zm0,10H41.38v-7.93h1.44Z"/><path class="cls-1" d="M49.91,131.69c0-.24-.09-.45-.12-.64a4.91,4.91,0,0,1,0-.55,3.47,3.47,0,0,1-1,1,2.78,2.78,0,0,1-1.4.38,2.59,2.59,0,0,1-1.88-.63,2.31,2.31,0,0,1-.65-1.75,2,2,0,0,1,.92-1.78,4.33,4.33,0,0,1,2.49-.64h1.57v-.78a1.43,1.43,0,0,0-.43-1.1,1.66,1.66,0,0,0-1.2-.41,1.73,1.73,0,0,0-1.13.35,1.08,1.08,0,0,0-.44.85H45.18v0a1.88,1.88,0,0,1,.81-1.59,3.38,3.38,0,0,1,2.22-.71,3.26,3.26,0,0,1,2.17.68,2.43,2.43,0,0,1,.82,2v3.82c0,.28,0,.56,0,.82a5.4,5.4,0,0,0,.16.78Zm-2.4-1.06a2.56,2.56,0,0,0,1.42-.4,2,2,0,0,0,.82-.92V128H48.13a2.08,2.08,0,0,0-1.4.44,1.29,1.29,0,0,0-.52,1,1.11,1.11,0,0,0,.33.84A1.39,1.39,0,0,0,47.51,130.63Z"/><path class="cls-1" d="M55.29,121.85v1.91h1.5v1.07h-1.5v4.81a1.1,1.1,0,0,0,.23.79.85.85,0,0,0,.61.22l.28,0a1.38,1.38,0,0,0,.26-.07l.2,1a1.34,1.34,0,0,1-.48.22,2.7,2.7,0,0,1-.62.08,1.87,1.87,0,0,1-1.4-.53,2.29,2.29,0,0,1-.52-1.67v-4.81H52.59v-1.07h1.26v-1.91Z"/><path class="cls-1" d="M61.62,131.84A3.33,3.33,0,0,1,59,130.75a4.18,4.18,0,0,1-1-2.87v-.32a4.12,4.12,0,0,1,1-2.83,3.09,3.09,0,0,1,2.4-1.11,2.91,2.91,0,0,1,2.39,1,4.08,4.08,0,0,1,.79,2.63V128H59.5l0,0A3.3,3.3,0,0,0,60,130a1.83,1.83,0,0,0,1.61.74,3.63,3.63,0,0,0,1.29-.21,2.79,2.79,0,0,0,.94-.57l.57.94a3.68,3.68,0,0,1-1.12.69A4.48,4.48,0,0,1,61.62,131.84Zm-.23-7.09a1.6,1.6,0,0,0-1.25.58,2.75,2.75,0,0,0-.6,1.49v0h3.58v-.12a2.24,2.24,0,0,0-.43-1.42A1.52,1.52,0,0,0,61.39,124.75Z"/><path class="cls-1" d="M65.86,127.87a5.24,5.24,0,0,1,.82-3.08A2.62,2.62,0,0,1,69,123.62a2.85,2.85,0,0,1,1.23.25,2.46,2.46,0,0,1,.92.75v-4.36h1.44v11.43h-1.1l-.22-1a2.65,2.65,0,0,1-1,.87,3,3,0,0,1-1.33.29,2.72,2.72,0,0,1-2.27-1.05,4.34,4.34,0,0,1-.82-2.76Zm1.44.16a3.41,3.41,0,0,0,.49,1.92,1.73,1.73,0,0,0,1.53.72,1.93,1.93,0,0,0,1.08-.29,2.31,2.31,0,0,0,.72-.82v-3.7a2.26,2.26,0,0,0-.72-.78,1.86,1.86,0,0,0-1.07-.29,1.63,1.63,0,0,0-1.53.86,4.4,4.4,0,0,0-.5,2.22Z"/><path class="cls-1" d="M80.47,128.8l.19,1h0l.19-1,1.58-5h1.16l1.59,5,.2,1.14h0l.23-1.14,1.17-5h1.51l-2.3,7.93H84.92l-1.57-4.83-.3-1.26h0l-.28,1.26-1.54,4.83H80l-2.3-7.93h1.5Z"/><path class="cls-1" d="M91.36,121.73H89.91v-1.47h1.45Zm0,10H89.91v-7.93h1.45Z"/><path class="cls-1" d="M95.58,121.85v1.91h1.5v1.07h-1.5v4.81a1.1,1.1,0,0,0,.23.79.85.85,0,0,0,.61.22l.28,0a1.38,1.38,0,0,0,.26-.07l.2,1a1.34,1.34,0,0,1-.48.22,2.7,2.7,0,0,1-.62.08,1.88,1.88,0,0,1-1.4-.53,2.29,2.29,0,0,1-.52-1.67v-4.81H92.88v-1.07h1.26v-1.91Z"/><path class="cls-1" d="M100.07,124.82a3.07,3.07,0,0,1,1-.89,2.79,2.79,0,0,1,1.32-.31,2.57,2.57,0,0,1,2,.76,3.36,3.36,0,0,1,.7,2.34v5h-1.44v-5a2.11,2.11,0,0,0-.42-1.45,1.58,1.58,0,0,0-1.26-.47,2.34,2.34,0,0,0-1.12.25,2,2,0,0,0-.77.71v5.94H98.63V120.26h1.44Z"/><path class="cls-1" d="M115.49,129.56a1,1,0,0,0-.36-.78,3.53,3.53,0,0,0-1.38-.53,5.8,5.8,0,0,1-2.15-.84,1.69,1.69,0,0,1-.75-1.45,2.11,2.11,0,0,1,.83-1.66,3.26,3.26,0,0,1,2.13-.68,3.16,3.16,0,0,1,2.18.73,2.08,2.08,0,0,1,.8,1.71v0H115.4a1.25,1.25,0,0,0-.45-.93,1.61,1.61,0,0,0-1.14-.42,1.64,1.64,0,0,0-1.14.35,1.07,1.07,0,0,0-.37.82.85.85,0,0,0,.32.72,3.64,3.64,0,0,0,1.35.47,5.74,5.74,0,0,1,2.21.87,1.77,1.77,0,0,1,.75,1.47,2.06,2.06,0,0,1-.85,1.72,4.07,4.07,0,0,1-4.62-.1,2.19,2.19,0,0,1-.83-1.79l0-.05H112a1.32,1.32,0,0,0,.57,1.13,2.16,2.16,0,0,0,1.25.35,2,2,0,0,0,1.2-.32A1,1,0,0,0,115.49,129.56Z"/><path class="cls-1" d="M120.29,131.69h-1.45V120.26h1.45Z"/><path class="cls-1" d="M125.79,131.84a3.36,3.36,0,0,1-2.67-1.09,4.23,4.23,0,0,1-1-2.87v-.32a4.16,4.16,0,0,1,1-2.83,3.11,3.11,0,0,1,2.41-1.11,2.89,2.89,0,0,1,2.38,1,4.08,4.08,0,0,1,.8,2.63V128h-5.07l0,0a3.23,3.23,0,0,0,.53,1.94,1.82,1.82,0,0,0,1.61.74,3.58,3.58,0,0,0,1.28-.21,2.74,2.74,0,0,0,1-.57l.56.94a3.45,3.45,0,0,1-1.12.69A4.39,4.39,0,0,1,125.79,131.84Zm-.23-7.09a1.6,1.6,0,0,0-1.25.58,2.75,2.75,0,0,0-.6,1.49v0h3.58v-.12a2.31,2.31,0,0,0-.43-1.42A1.52,1.52,0,0,0,125.56,124.75Z"/><path class="cls-1" d="M133.64,131.84a3.33,3.33,0,0,1-2.66-1.09,4.18,4.18,0,0,1-1-2.87v-.32a4.12,4.12,0,0,1,1-2.83,3.07,3.07,0,0,1,2.4-1.11,2.88,2.88,0,0,1,2.38,1,4,4,0,0,1,.8,2.63V128h-5.07l0,0A3.3,3.3,0,0,0,132,130a1.83,1.83,0,0,0,1.61.74,3.58,3.58,0,0,0,1.28-.21,2.74,2.74,0,0,0,1-.57l.57.94a3.68,3.68,0,0,1-1.12.69A4.48,4.48,0,0,1,133.64,131.84Zm-.23-7.09a1.6,1.6,0,0,0-1.25.58,2.75,2.75,0,0,0-.6,1.49v0h3.58v-.12a2.24,2.24,0,0,0-.43-1.42A1.52,1.52,0,0,0,133.41,124.75Z"/><path class="cls-1" d="M145,128a4.34,4.34,0,0,1-.82,2.76,2.71,2.71,0,0,1-2.26,1.05,3.23,3.23,0,0,1-1.29-.24,2.5,2.5,0,0,1-.94-.74v3.87h-1.44v-11h1.1l.23,1a2.6,2.6,0,0,1,1-.87,2.86,2.86,0,0,1,1.35-.3,2.63,2.63,0,0,1,2.28,1.16,5.26,5.26,0,0,1,.82,3.09Zm-1.44-.16a4.18,4.18,0,0,0-.53-2.21,1.73,1.73,0,0,0-1.57-.87,1.93,1.93,0,0,0-1.06.28,2.2,2.2,0,0,0-.71.77v3.83a1.89,1.89,0,0,0,1.79,1A1.77,1.77,0,0,0,143,130a3.29,3.29,0,0,0,.53-1.93Z"/><path class="cls-1" d="M150.13,127.87a5.24,5.24,0,0,1,.82-3.08,2.63,2.63,0,0,1,2.29-1.17,2.85,2.85,0,0,1,1.23.25,2.46,2.46,0,0,1,.92.75v-4.36h1.44v11.43h-1.1l-.22-1a2.65,2.65,0,0,1-1,.87,2.93,2.93,0,0,1-1.33.29,2.73,2.73,0,0,1-2.27-1.05,4.4,4.4,0,0,1-.82-2.76Zm1.45.16a3.33,3.33,0,0,0,.49,1.92,1.7,1.7,0,0,0,1.52.72,1.93,1.93,0,0,0,1.08-.29,2.13,2.13,0,0,0,.72-.82v-3.7a2.17,2.17,0,0,0-.72-.78,1.84,1.84,0,0,0-1.07-.29,1.63,1.63,0,0,0-1.53.86,4.4,4.4,0,0,0-.49,2.22Z"/><path class="cls-1" d="M162.27,131.84a3.33,3.33,0,0,1-2.66-1.09,4.18,4.18,0,0,1-1-2.87v-.32a4.12,4.12,0,0,1,1-2.83,3.07,3.07,0,0,1,2.4-1.11,2.91,2.91,0,0,1,2.39,1,4.08,4.08,0,0,1,.79,2.63V128h-5.07l0,0a3.3,3.3,0,0,0,.53,1.94,1.83,1.83,0,0,0,1.61.74,3.54,3.54,0,0,0,1.28-.21,2.74,2.74,0,0,0,.95-.57l.57.94a3.68,3.68,0,0,1-1.12.69A4.48,4.48,0,0,1,162.27,131.84Zm-.23-7.09a1.6,1.6,0,0,0-1.25.58,2.75,2.75,0,0,0-.6,1.49v0h3.58v-.12a2.24,2.24,0,0,0-.43-1.42A1.52,1.52,0,0,0,162,124.75Z"/><path class="cls-1" d="M173.59,128a4.34,4.34,0,0,1-.82,2.76,2.71,2.71,0,0,1-2.26,1.05,3.23,3.23,0,0,1-1.29-.24,2.5,2.5,0,0,1-.94-.74v3.87h-1.44v-11H168l.22,1a2.6,2.6,0,0,1,1-.87,2.89,2.89,0,0,1,1.35-.3,2.66,2.66,0,0,1,2.29,1.16,5.33,5.33,0,0,1,.81,3.09Zm-1.44-.16a4.18,4.18,0,0,0-.53-2.21,1.73,1.73,0,0,0-1.57-.87,1.93,1.93,0,0,0-1.06.28,2.2,2.2,0,0,0-.71.77v3.83a1.89,1.89,0,0,0,1.79,1,1.77,1.77,0,0,0,1.55-.75,3.29,3.29,0,0,0,.53-1.93Z"/><path class="cls-1" d="M179.12,125l-.74-.05a1.66,1.66,0,0,0-1,.27,1.73,1.73,0,0,0-.6.77v5.66h-1.44v-7.93h1.28l.14,1.16a2.81,2.81,0,0,1,.83-1,1.94,1.94,0,0,1,1.14-.34,1.56,1.56,0,0,1,.31,0l.24.06Z"/><path class="cls-1" d="M182.18,121.73h-1.45v-1.47h1.45Zm0,10h-1.45v-7.93h1.45Z"/><path class="cls-1" d="M187,129.35l.12.56h.05l.14-.56,1.82-5.59h1.47l-2.91,7.93h-1.09l-2.95-7.93h1.47Z"/><path class="cls-1" d="M196.7,131.69c0-.24-.09-.45-.11-.64a3.31,3.31,0,0,1-.05-.55,3.47,3.47,0,0,1-1,1,2.75,2.75,0,0,1-1.4.38,2.59,2.59,0,0,1-1.88-.63,2.31,2.31,0,0,1-.65-1.75,2.06,2.06,0,0,1,.92-1.78A4.33,4.33,0,0,1,195,127h1.57v-.78a1.43,1.43,0,0,0-.43-1.1,1.66,1.66,0,0,0-1.2-.41,1.75,1.75,0,0,0-1.13.35,1.06,1.06,0,0,0-.43.85H192l0,0a1.93,1.93,0,0,1,.81-1.59,3.4,3.4,0,0,1,2.22-.71,3.24,3.24,0,0,1,2.17.68,2.43,2.43,0,0,1,.82,2v3.82a7.22,7.22,0,0,0,.05.82,3.61,3.61,0,0,0,.16.78Zm-2.4-1.06a2.56,2.56,0,0,0,1.42-.4,2,2,0,0,0,.82-.92V128h-1.62a2,2,0,0,0-1.39.44,1.3,1.3,0,0,0-.53,1,1.11,1.11,0,0,0,.33.84A1.41,1.41,0,0,0,194.3,130.63Z"/><path class="cls-1" d="M202.08,121.85v1.91h1.5v1.07h-1.5v4.81a1.1,1.1,0,0,0,.23.79.86.86,0,0,0,.62.22l.27,0a1.2,1.2,0,0,0,.26-.07l.2,1a1.34,1.34,0,0,1-.48.22,2.7,2.7,0,0,1-.62.08,1.88,1.88,0,0,1-1.4-.53,2.29,2.29,0,0,1-.52-1.67v-4.81h-1.26v-1.07h1.26v-1.91Z"/><path class="cls-1" d="M206.69,121.73h-1.44v-1.47h1.44Zm0,10h-1.44v-7.93h1.44Z"/><path class="cls-1" d="M208.57,127.65a4.35,4.35,0,0,1,1-2.9,3.53,3.53,0,0,1,5.18,0,4.35,4.35,0,0,1,1,2.9v.16a4.36,4.36,0,0,1-.95,2.9,3.54,3.54,0,0,1-5.19,0,4.32,4.32,0,0,1-1-2.9Zm1.45.16a3.69,3.69,0,0,0,.53,2.08,1.91,1.91,0,0,0,3.14,0,3.69,3.69,0,0,0,.54-2.08v-.16a3.71,3.71,0,0,0-.54-2.07,1.78,1.78,0,0,0-1.58-.83,1.73,1.73,0,0,0-1.56.83,3.7,3.7,0,0,0-.53,2.07Z"/><path class="cls-1" d="M218.72,123.76l.11,1.18a2.9,2.9,0,0,1,1-1,2.67,2.67,0,0,1,1.36-.34,2.59,2.59,0,0,1,2,.75,3.29,3.29,0,0,1,.71,2.32v5h-1.45v-5a2.11,2.11,0,0,0-.41-1.48,1.64,1.64,0,0,0-1.26-.44,2.24,2.24,0,0,0-1.14.27,1.82,1.82,0,0,0-.73.75v5.88h-1.44v-7.93Z"/><line class="cls-2" x1="4.5" x2="4.5" y2="56.5"/><circle class="cls-1" cx="4" cy="56.5" r="4"/></g></g></svg>