<svg xmlns="http://www.w3.org/2000/svg" viewBox="0 0 244.3 86.92"><defs><style>.cls-1{fill:#fff;}.cls-2{fill:none;stroke:#fff;stroke-miterlimit:10;}</style></defs><title>text9</title><g id="Layer_2" data-name="Layer 2"><g id="Layer_1-2" data-name="Layer 1"><path class="cls-1" d="M64.6,8.83h-4l-1,2.75H58.16L62,.92h1.24L67,11.58H65.54ZM61,7.62h3.18L62.64,3.05h0Z"/><path class="cls-1" d="M75.14,7.92a4.4,4.4,0,0,1-.82,2.76,2.73,2.73,0,0,1-2.27,1.05,3.18,3.18,0,0,1-1.28-.24,2.33,2.33,0,0,1-.94-.74v3.88H68.38v-11h1.11l.23,1a2.58,2.58,0,0,1,1-.87A2.92,2.92,0,0,1,72,3.51a2.64,2.64,0,0,1,2.29,1.17,5.3,5.3,0,0,1,.82,3.08Zm-1.45-.16a4.14,4.14,0,0,0-.53-2.21,1.71,1.71,0,0,0-1.56-.87A2,2,0,0,0,70.54,5a2.06,2.06,0,0,0-.71.78V9.57a1.93,1.93,0,0,0,1.78,1,1.76,1.76,0,0,0,1.55-.75,3.25,3.25,0,0,0,.53-1.94Z"/><path class="cls-1" d="M83.66,7.92a4.34,4.34,0,0,1-.82,2.76,2.71,2.71,0,0,1-2.26,1.05,3.23,3.23,0,0,1-1.29-.24,2.4,2.4,0,0,1-.94-.74v3.88H76.91v-11H78l.23,1a2.6,2.6,0,0,1,1-.87,2.86,2.86,0,0,1,1.35-.3,2.61,2.61,0,0,1,2.28,1.17,5.22,5.22,0,0,1,.82,3.08Zm-1.44-.16a4.23,4.23,0,0,0-.53-2.21,1.73,1.73,0,0,0-1.57-.87A2,2,0,0,0,79.06,5a2.14,2.14,0,0,0-.71.78V9.57a2.08,2.08,0,0,0,.71.76,2,2,0,0,0,1.08.28,1.77,1.77,0,0,0,1.55-.75,3.32,3.32,0,0,0,.53-1.94Z"/><path class="cls-1" d="M89.18,4.93l-.74,0a1.65,1.65,0,0,0-1,.27,1.7,1.7,0,0,0-.6.76v5.66H85.43V3.66h1.29l.14,1.15a2.81,2.81,0,0,1,.83-1,1.94,1.94,0,0,1,1.14-.34l.31,0,.24.06Z"/><path class="cls-1" d="M90.2,7.54a4.37,4.37,0,0,1,1-2.89,3.53,3.53,0,0,1,5.19,0,4.35,4.35,0,0,1,1,2.9v.17a4.38,4.38,0,0,1-1,2.9,3.23,3.23,0,0,1-2.6,1.12,3.19,3.19,0,0,1-2.59-1.13,4.31,4.31,0,0,1-1-2.89Zm1.44.17a3.74,3.74,0,0,0,.54,2.08,1.91,1.91,0,0,0,3.14,0,3.74,3.74,0,0,0,.54-2.08V7.54a3.71,3.71,0,0,0-.54-2.07,1.78,1.78,0,0,0-1.58-.83,1.73,1.73,0,0,0-1.56.83,3.71,3.71,0,0,0-.54,2.07Z"/><path class="cls-1" d="M101.6,6.58l1.68-2.92H105L102.4,7.57l2.64,4h-1.65l-1.76-3-1.76,3H98.2l2.64-4L98.27,3.66h1.67Z"/><path class="cls-1" d="M108,1.63h-1.44V.15H108Zm0,10h-1.44V3.66H108Z"/><path class="cls-1" d="M111.52,3.66l.1,1a2.7,2.7,0,0,1,1-.88A2.94,2.94,0,0,1,114,3.51a2.41,2.41,0,0,1,1.36.37A2.19,2.19,0,0,1,116.21,5a2.92,2.92,0,0,1,1-1.07,2.62,2.62,0,0,1,1.43-.39,2.4,2.4,0,0,1,1.92.83,3.84,3.84,0,0,1,.7,2.5v4.74h-1.44V6.83a2.6,2.6,0,0,0-.41-1.66,1.46,1.46,0,0,0-1.2-.49,1.55,1.55,0,0,0-1.2.51,2.27,2.27,0,0,0-.53,1.3v5.09H115V6.83a2.55,2.55,0,0,0-.42-1.63,1.41,1.41,0,0,0-1.19-.52,2,2,0,0,0-1.08.27,1.73,1.73,0,0,0-.65.76v5.87h-1.45V3.66Z"/><path class="cls-1" d="M128.21,11.58c-.05-.24-.08-.45-.11-.63a5.29,5.29,0,0,1,0-.56,3.47,3.47,0,0,1-1.05,1,2.65,2.65,0,0,1-1.39.38,2.6,2.6,0,0,1-1.89-.63,2.33,2.33,0,0,1-.65-1.75A2,2,0,0,1,124,7.58a4.29,4.29,0,0,1,2.5-.64h1.56V6.15a1.46,1.46,0,0,0-.42-1.1,1.69,1.69,0,0,0-1.2-.41,1.73,1.73,0,0,0-1.14.36,1,1,0,0,0-.43.84h-1.37v0a1.87,1.87,0,0,1,.8-1.58,3.38,3.38,0,0,1,2.23-.72,3.31,3.31,0,0,1,2.17.68,2.46,2.46,0,0,1,.82,2V10a7.15,7.15,0,0,0,0,.82,4,4,0,0,0,.16.78Zm-2.39-1.05a2.56,2.56,0,0,0,1.41-.41,1.87,1.87,0,0,0,.82-.92V7.91h-1.62a2.1,2.1,0,0,0-1.39.44,1.31,1.31,0,0,0-.52,1,1.14,1.14,0,0,0,.32.84A1.44,1.44,0,0,0,125.82,10.53Z"/><path class="cls-1" d="M133.6,1.74V3.66h1.5V4.72h-1.5V9.54a1,1,0,0,0,.23.78.84.84,0,0,0,.61.23,1,1,0,0,0,.28,0l.25-.06.2,1a1.21,1.21,0,0,1-.47.22,2.27,2.27,0,0,1-.63.08,1.86,1.86,0,0,1-1.4-.53,2.32,2.32,0,0,1-.51-1.66V4.72H130.9V3.66h1.26V1.74Z"/><path class="cls-1" d="M139.93,11.73a3.36,3.36,0,0,1-2.67-1.09,4.21,4.21,0,0,1-.95-2.87V7.45a4.12,4.12,0,0,1,1-2.82,3.08,3.08,0,0,1,2.41-1.12,2.87,2.87,0,0,1,2.38,1,4.07,4.07,0,0,1,.8,2.63v.76h-5.07l0,0a3.26,3.26,0,0,0,.52,1.93,1.85,1.85,0,0,0,1.62.75,3.62,3.62,0,0,0,1.28-.21,2.76,2.76,0,0,0,.95-.58l.56.94a3.45,3.45,0,0,1-1.12.69A4.39,4.39,0,0,1,139.93,11.73Zm-.23-7.09a1.58,1.58,0,0,0-1.25.59,2.68,2.68,0,0,0-.6,1.49v0h3.57V6.64A2.31,2.31,0,0,0,141,5.21,1.52,1.52,0,0,0,139.7,4.64Z"/><path class="cls-1" d="M146.06,11.58h-1.45V.15h1.45Z"/><path class="cls-1" d="M150.7,8.64l.26,1h0l1.95-6h1.6l-3.33,9.14a4.22,4.22,0,0,1-.86,1.39,2,2,0,0,1-1.51.59,2.74,2.74,0,0,1-.45,0,4,4,0,0,1-.42-.08l.15-1.13h.26l.38,0a.89.89,0,0,0,.76-.41,4.31,4.31,0,0,0,.49-.9l.34-.83-2.94-7.76H149Z"/><path class="cls-1" d="M165,8h1.47V9.12H165v2.46H163.6V9.12H159V8.31L163.52.92H165Zm-4.47,0h3V3h0l-.14.37Z"/><path class="cls-1" d="M174.56,7.82a4.22,4.22,0,0,1-.92,2.86,3.43,3.43,0,0,1-4.94,0,4.17,4.17,0,0,1-.93-2.86V4.68a4.24,4.24,0,0,1,.92-2.86A3.13,3.13,0,0,1,171.16.76a3.16,3.16,0,0,1,2.48,1.06,4.24,4.24,0,0,1,.92,2.86Zm-1.44-3.44a2.94,2.94,0,0,0-.51-1.82,1.75,1.75,0,0,0-1.45-.66,1.71,1.71,0,0,0-1.44.66,2.93,2.93,0,0,0-.5,1.82V8.11a2.94,2.94,0,0,0,.51,1.82,1.73,1.73,0,0,0,1.44.68,1.7,1.7,0,0,0,1.44-.67,3,3,0,0,0,.51-1.83Z"/><path class="cls-1" d="M176.15,3a2.2,2.2,0,0,1,.6-1.57,2.33,2.33,0,0,1,3.21,0,2.18,2.18,0,0,1,.6,1.57v.56a2.17,2.17,0,0,1-.6,1.56,2.08,2.08,0,0,1-1.59.63,2.12,2.12,0,0,1-2.22-2.19Zm1.07.56a1.43,1.43,0,0,0,.3.92,1,1,0,0,0,.85.38,1,1,0,0,0,.83-.38,1.45,1.45,0,0,0,.29-.92V3a1.48,1.48,0,0,0-.3-.93,1,1,0,0,0-.83-.38,1,1,0,0,0-.85.38,1.54,1.54,0,0,0-.29.93Zm1.52,7.24-.79-.49L183.15,2l.8.49ZM181.32,9a2.18,2.18,0,0,1,.59-1.56,2.14,2.14,0,0,1,1.61-.63,2.12,2.12,0,0,1,1.6.63,2.19,2.19,0,0,1,.6,1.56v.58a2.17,2.17,0,0,1-.6,1.56,2.09,2.09,0,0,1-1.59.63,2.12,2.12,0,0,1-1.61-.63,2.17,2.17,0,0,1-.6-1.56Zm1.06.58a1.43,1.43,0,0,0,.3.92,1,1,0,0,0,.85.38,1,1,0,0,0,.83-.38,1.43,1.43,0,0,0,.3-.92V9a1.46,1.46,0,0,0-.31-.92,1,1,0,0,0-.83-.38,1,1,0,0,0-.84.38,1.45,1.45,0,0,0-.3.92Z"/><path class="cls-1" d="M190.8,7.54a4.37,4.37,0,0,1,.95-2.89,3.53,3.53,0,0,1,5.19,0,4.35,4.35,0,0,1,1,2.9v.17a4.34,4.34,0,0,1-1,2.9,3.56,3.56,0,0,1-5.19,0,4.35,4.35,0,0,1-.95-2.89Zm1.44.17a3.82,3.82,0,0,0,.53,2.08,1.92,1.92,0,0,0,3.15,0,3.74,3.74,0,0,0,.53-2.08V7.54a3.71,3.71,0,0,0-.54-2.07,1.9,1.9,0,0,0-3.14,0,3.79,3.79,0,0,0-.53,2.07Z"/><path class="cls-1" d="M200.26,11.58V4.72H199V3.66h1.24v-1a2.73,2.73,0,0,1,.66-2A2.46,2.46,0,0,1,202.77,0a2.92,2.92,0,0,1,.51,0l.56.11-.18,1.1-.32-.05-.39,0a1.16,1.16,0,0,0-.94.38,1.71,1.71,0,0,0-.3,1.09v1h1.43V4.72h-1.43v6.86Z"/><path class="cls-1" d="M216.59,11.58h-1.44L210,3.44h0v8.13h-1.45V.92H210l5.13,8.13h.05V.92h1.44Z"/><path class="cls-1" d="M218.55,7.54a4.37,4.37,0,0,1,.95-2.89,3.53,3.53,0,0,1,5.19,0,4.35,4.35,0,0,1,1,2.9v.17a4.38,4.38,0,0,1-1,2.9,3.23,3.23,0,0,1-2.6,1.12,3.19,3.19,0,0,1-2.59-1.13,4.31,4.31,0,0,1-1-2.89Zm1.44.17a3.74,3.74,0,0,0,.54,2.08,1.91,1.91,0,0,0,3.14,0,3.74,3.74,0,0,0,.54-2.08V7.54a3.71,3.71,0,0,0-.54-2.07,1.78,1.78,0,0,0-1.58-.83,1.73,1.73,0,0,0-1.56.83A3.71,3.71,0,0,0,220,7.54Z"/><path class="cls-1" d="M231.16,4.93l-.74,0a1.65,1.65,0,0,0-1,.27,1.7,1.7,0,0,0-.6.76v5.66h-1.45V3.66h1.29l.14,1.15a2.81,2.81,0,0,1,.83-1,1.94,1.94,0,0,1,1.14-.34l.31,0,.24.06Z"/><path class="cls-1" d="M234.8,1.74V3.66h1.5V4.72h-1.5V9.54a1,1,0,0,0,.23.78.82.82,0,0,0,.61.23,1,1,0,0,0,.28,0l.25-.06.2,1a1.37,1.37,0,0,1-.47.22,2.32,2.32,0,0,1-.63.08,1.86,1.86,0,0,1-1.4-.53,2.32,2.32,0,0,1-.52-1.66V4.72h-1.26V3.66h1.26V1.74Z"/><path class="cls-1" d="M239.29,4.72a2.93,2.93,0,0,1,1-.89,2.81,2.81,0,0,1,1.33-.32,2.55,2.55,0,0,1,2,.76,3.36,3.36,0,0,1,.71,2.34v5h-1.45v-5a2.13,2.13,0,0,0-.42-1.45,1.61,1.61,0,0,0-1.25-.47,2.32,2.32,0,0,0-1.12.25,2,2,0,0,0-.77.71v5.94h-1.45V.15h1.45Z"/><path class="cls-1" d="M64.6,26.83h-4l-1,2.75H58.16L62,18.92h1.24L67,29.58H65.54ZM61,25.62h3.18l-1.55-4.57h0Z"/><path class="cls-1" d="M69.67,21.66l.1,1a2.7,2.7,0,0,1,1-.88,2.94,2.94,0,0,1,1.39-.31,2.43,2.43,0,0,1,1.36.37A2.25,2.25,0,0,1,74.36,23a2.92,2.92,0,0,1,1-1.07,2.62,2.62,0,0,1,1.43-.39,2.4,2.4,0,0,1,1.92.83,3.84,3.84,0,0,1,.7,2.5v4.74H78V24.83a2.6,2.6,0,0,0-.41-1.66,1.46,1.46,0,0,0-1.2-.49,1.55,1.55,0,0,0-1.2.51,2.27,2.27,0,0,0-.53,1.3v5.09H73.16V24.83a2.55,2.55,0,0,0-.41-1.63,1.41,1.41,0,0,0-1.19-.52,2,2,0,0,0-1.08.27,1.73,1.73,0,0,0-.65.76v5.87H68.38V21.66Z"/><path class="cls-1" d="M84.77,29.73a3.35,3.35,0,0,1-2.66-1.09,4.21,4.21,0,0,1-1-2.87v-.32a4.07,4.07,0,0,1,1-2.82,3.08,3.08,0,0,1,2.41-1.12,2.87,2.87,0,0,1,2.38,1,4.07,4.07,0,0,1,.8,2.63v.76H82.66l0,0a3.26,3.26,0,0,0,.52,1.93,1.84,1.84,0,0,0,1.61.75,3.63,3.63,0,0,0,1.29-.21,2.86,2.86,0,0,0,1-.58l.56.94a3.57,3.57,0,0,1-1.12.69A4.41,4.41,0,0,1,84.77,29.73Zm-.22-7.09a1.56,1.56,0,0,0-1.25.59,2.76,2.76,0,0,0-.61,1.49l0,0h3.57v-.11a2.31,2.31,0,0,0-.42-1.43A1.52,1.52,0,0,0,84.55,22.64Z"/><path class="cls-1" d="M93.09,22.93l-.74,0a1.65,1.65,0,0,0-1,.27,1.7,1.7,0,0,0-.6.76v5.66H89.34V21.66h1.29l.14,1.15a2.81,2.81,0,0,1,.83-1,1.94,1.94,0,0,1,1.14-.34l.31,0,.24.06Z"/><path class="cls-1" d="M96.16,19.63H94.71V18.15h1.45Zm0,10H94.71V21.66h1.45Z"/><path class="cls-1" d="M101.52,28.61a1.68,1.68,0,0,0,1.17-.45,1.4,1.4,0,0,0,.5-1.08h1.3l0,0a2.27,2.27,0,0,1-.88,1.82A3.36,3.36,0,0,1,99,28.6,4.37,4.37,0,0,1,98,25.77v-.31A4.35,4.35,0,0,1,99,22.65a3.11,3.11,0,0,1,2.57-1.14,3,3,0,0,1,2.18.82,2.61,2.61,0,0,1,.81,2v.05h-1.31a1.74,1.74,0,0,0-.48-1.24,1.54,1.54,0,0,0-1.19-.51,1.66,1.66,0,0,0-1.54.83,3.79,3.79,0,0,0-.49,2v.31a4,4,0,0,0,.48,2A1.68,1.68,0,0,0,101.52,28.61Z"/><path class="cls-1" d="M111.1,29.58Q111,29.22,111,29a5.27,5.27,0,0,1,0-.56,3.47,3.47,0,0,1-1,1,2.68,2.68,0,0,1-1.4.38,2.61,2.61,0,0,1-1.89-.63,2.33,2.33,0,0,1-.64-1.75,2,2,0,0,1,.91-1.77,4.31,4.31,0,0,1,2.5-.64h1.57v-.79a1.47,1.47,0,0,0-.43-1.1,1.66,1.66,0,0,0-1.2-.41,1.73,1.73,0,0,0-1.14.36,1.06,1.06,0,0,0-.43.84h-1.37v0a1.89,1.89,0,0,1,.81-1.58,3.79,3.79,0,0,1,4.39,0,2.43,2.43,0,0,1,.82,2V28a7.15,7.15,0,0,0,0,.82,4.9,4.9,0,0,0,.16.78Zm-2.4-1a2.57,2.57,0,0,0,1.42-.41,1.92,1.92,0,0,0,.82-.92V25.91h-1.62a2.13,2.13,0,0,0-1.4.44,1.31,1.31,0,0,0-.52,1,1.11,1.11,0,0,0,.33.84A1.39,1.39,0,0,0,108.7,28.53Z"/><path class="cls-1" d="M115.76,21.66l.11,1.17a2.78,2.78,0,0,1,1-1,2.92,2.92,0,0,1,3.34.4,3.29,3.29,0,0,1,.71,2.32v5h-1.45v-5a2.18,2.18,0,0,0-.41-1.49,1.69,1.69,0,0,0-1.27-.44,2.22,2.22,0,0,0-1.13.27,2,2,0,0,0-.73.75v5.88h-1.45V21.66Z"/><path class="cls-1" d="M131.6,29.58c0-.24-.09-.45-.11-.63a3.53,3.53,0,0,1-.05-.56,3.47,3.47,0,0,1-1.05,1,2.68,2.68,0,0,1-1.4.38,2.61,2.61,0,0,1-1.89-.63,2.33,2.33,0,0,1-.64-1.75,2,2,0,0,1,.92-1.77,4.25,4.25,0,0,1,2.49-.64h1.57v-.79a1.43,1.43,0,0,0-.43-1.1,1.66,1.66,0,0,0-1.2-.41,1.68,1.68,0,0,0-1.13.36,1,1,0,0,0-.44.84h-1.37v0a1.89,1.89,0,0,1,.81-1.58,3.79,3.79,0,0,1,4.39,0,2.43,2.43,0,0,1,.82,2V28a7.15,7.15,0,0,0,0,.82,4.9,4.9,0,0,0,.16.78Zm-2.4-1a2.57,2.57,0,0,0,1.42-.41,1.92,1.92,0,0,0,.82-.92V25.91h-1.62a2.13,2.13,0,0,0-1.4.44,1.31,1.31,0,0,0-.52,1,1.11,1.11,0,0,0,.33.84A1.39,1.39,0,0,0,129.2,28.53Z"/><path class="cls-1" d="M134.65,25.76a5.32,5.32,0,0,1,.81-3.08,2.64,2.64,0,0,1,2.29-1.17,2.75,2.75,0,0,1,1.24.26,2.59,2.59,0,0,1,.91.74V18.15h1.45V29.58h-1.11l-.22-1a2.54,2.54,0,0,1-1,.86,2.79,2.79,0,0,1-1.32.29,2.71,2.71,0,0,1-2.27-1.05,4.34,4.34,0,0,1-.82-2.76Zm1.44.16a3.33,3.33,0,0,0,.49,1.92,1.71,1.71,0,0,0,1.52.72,2,2,0,0,0,1.09-.29,2.19,2.19,0,0,0,.71-.82v-3.7a2.08,2.08,0,0,0-.72-.78,1.91,1.91,0,0,0-1.06-.29,1.66,1.66,0,0,0-1.54.86,4.4,4.4,0,0,0-.49,2.22Z"/><path class="cls-1" d="M148.53,28.41a2.74,2.74,0,0,1-1,1,2.6,2.6,0,0,1-1.35.34,2.53,2.53,0,0,1-2-.82,3.82,3.82,0,0,1-.73-2.58V21.66h1.44v4.68a3,3,0,0,0,.38,1.75,1.4,1.4,0,0,0,1.16.47,2.34,2.34,0,0,0,1.27-.31,1.92,1.92,0,0,0,.76-.88V21.66h1.44v7.92h-1.29Z"/><path class="cls-1" d="M153.58,29.58h-1.44V18.15h1.44Z"/><path class="cls-1" d="M157.81,19.74v1.92h1.5v1.06h-1.5v4.82a1.08,1.08,0,0,0,.23.78.85.85,0,0,0,.61.23,1,1,0,0,0,.28,0l.26-.06.2,1a1.34,1.34,0,0,1-.48.22,2.25,2.25,0,0,1-.62.08,1.85,1.85,0,0,1-1.4-.53,2.28,2.28,0,0,1-.52-1.66V22.72h-1.26V21.66h1.26V19.74Z"/><path class="cls-1" d="M165.47,27.45a1,1,0,0,0-.37-.78,3.63,3.63,0,0,0-1.37-.53,5.63,5.63,0,0,1-2.15-.84,1.69,1.69,0,0,1-.75-1.45,2.08,2.08,0,0,1,.82-1.65,3.22,3.22,0,0,1,2.14-.69,3.18,3.18,0,0,1,2.18.73,2.11,2.11,0,0,1,.8,1.71l0,0h-1.37a1.25,1.25,0,0,0-.45-.93,1.61,1.61,0,0,0-1.14-.42,1.64,1.64,0,0,0-1.14.35,1.08,1.08,0,0,0-.38.82.86.86,0,0,0,.33.72,3.4,3.4,0,0,0,1.34.47,5.84,5.84,0,0,1,2.21.87,1.76,1.76,0,0,1,.76,1.48,2.12,2.12,0,0,1-.85,1.72,3.56,3.56,0,0,1-2.23.66,3.44,3.44,0,0,1-2.39-.77,2.19,2.19,0,0,1-.83-1.79v0H162a1.36,1.36,0,0,0,.57,1.12,2.22,2.22,0,0,0,1.26.36,1.94,1.94,0,0,0,1.2-.33A1,1,0,0,0,165.47,27.45Z"/><path class="cls-1" d="M175.71,29.73a3.34,3.34,0,0,1-2.66-1.09,4.17,4.17,0,0,1-1-2.87v-.32a4.08,4.08,0,0,1,1-2.82,3.08,3.08,0,0,1,2.41-1.12,2.88,2.88,0,0,1,2.38,1,4.06,4.06,0,0,1,.79,2.63v.76h-5.07l0,0a3.26,3.26,0,0,0,.53,1.93,1.84,1.84,0,0,0,1.61.75A3.63,3.63,0,0,0,177,28.4a2.86,2.86,0,0,0,.95-.58l.56.94a3.57,3.57,0,0,1-1.12.69A4.44,4.44,0,0,1,175.71,29.73Zm-.22-7.09a1.56,1.56,0,0,0-1.25.59,2.69,2.69,0,0,0-.61,1.49l0,0h3.57v-.11a2.31,2.31,0,0,0-.42-1.43A1.54,1.54,0,0,0,175.49,22.64Z"/><path class="cls-1" d="M183,24.58l1.69-2.92h1.68l-2.57,3.91,2.64,4h-1.65l-1.76-3-1.76,3h-1.67l2.65-4-2.57-3.91h1.66Z"/><path class="cls-1" d="M194.58,25.92a4.34,4.34,0,0,1-.82,2.76,2.72,2.72,0,0,1-2.27,1.05,3.21,3.21,0,0,1-1.28-.24,2.4,2.4,0,0,1-.94-.74v3.88h-1.44v-11h1.1l.23,1a2.6,2.6,0,0,1,1-.87,2.85,2.85,0,0,1,1.34-.3,2.63,2.63,0,0,1,2.29,1.17,5.22,5.22,0,0,1,.82,3.08Zm-1.44-.16a4.14,4.14,0,0,0-.54-2.21,1.71,1.71,0,0,0-1.56-.87A2,2,0,0,0,190,23a2.14,2.14,0,0,0-.71.78v3.83a2.08,2.08,0,0,0,.71.76,2,2,0,0,0,1.08.28,1.77,1.77,0,0,0,1.55-.75,3.32,3.32,0,0,0,.53-1.94Z"/><path class="cls-1" d="M199.63,29.73A3.34,3.34,0,0,1,197,28.64a4.17,4.17,0,0,1-1-2.87v-.32a4.08,4.08,0,0,1,1-2.82,3.08,3.08,0,0,1,2.41-1.12,2.87,2.87,0,0,1,2.38,1,4.06,4.06,0,0,1,.79,2.63v.76h-5.06l0,0a3.26,3.26,0,0,0,.53,1.93,1.84,1.84,0,0,0,1.61.75,3.63,3.63,0,0,0,1.29-.21,2.86,2.86,0,0,0,1-.58l.56.94a3.57,3.57,0,0,1-1.12.69A4.41,4.41,0,0,1,199.63,29.73Zm-.22-7.09a1.56,1.56,0,0,0-1.25.59,2.76,2.76,0,0,0-.61,1.49l0,0h3.57v-.11a2.31,2.31,0,0,0-.42-1.43A1.54,1.54,0,0,0,199.41,22.64Z"/><path class="cls-1" d="M208,22.93l-.74,0a1.65,1.65,0,0,0-1,.27,1.7,1.7,0,0,0-.6.76v5.66H204.2V21.66h1.29l.14,1.15a2.81,2.81,0,0,1,.83-1,1.94,1.94,0,0,1,1.14-.34l.31,0,.24.06Z"/><path class="cls-1" d="M211,19.63h-1.44V18.15H211Zm0,10h-1.44V21.66H211Z"/><path class="cls-1" d="M216.51,29.73a3.35,3.35,0,0,1-2.66-1.09,4.21,4.21,0,0,1-.95-2.87v-.32a4.12,4.12,0,0,1,1-2.82,3.08,3.08,0,0,1,2.41-1.12,2.87,2.87,0,0,1,2.38,1,4.07,4.07,0,0,1,.8,2.63v.76H214.4l0,0a3.26,3.26,0,0,0,.52,1.93,1.84,1.84,0,0,0,1.61.75,3.63,3.63,0,0,0,1.29-.21,2.76,2.76,0,0,0,.95-.58l.56.94a3.45,3.45,0,0,1-1.12.69A4.41,4.41,0,0,1,216.51,29.73Zm-.22-7.09a1.58,1.58,0,0,0-1.25.59,2.76,2.76,0,0,0-.61,1.49l0,0H218v-.11a2.31,2.31,0,0,0-.42-1.43A1.52,1.52,0,0,0,216.29,22.64Z"/><path class="cls-1" d="M222.37,21.66l.11,1.17a2.78,2.78,0,0,1,1-1,2.92,2.92,0,0,1,3.34.4,3.29,3.29,0,0,1,.71,2.32v5h-1.45v-5a2.18,2.18,0,0,0-.41-1.49,1.68,1.68,0,0,0-1.26-.44,2.24,2.24,0,0,0-1.14.27,2,2,0,0,0-.73.75v5.88h-1.45V21.66Z"/><path class="cls-1" d="M232.76,28.61a1.68,1.68,0,0,0,1.16-.45,1.37,1.37,0,0,0,.5-1.08h1.31l0,0a2.27,2.27,0,0,1-.88,1.82,3.37,3.37,0,0,1-4.69-.34,4.42,4.42,0,0,1-.91-2.83v-.31a4.36,4.36,0,0,1,.92-2.81,3.09,3.09,0,0,1,2.57-1.14,3,3,0,0,1,2.17.82,2.59,2.59,0,0,1,.82,2l0,.05h-1.31a1.73,1.73,0,0,0-.47-1.24,1.54,1.54,0,0,0-1.19-.51,1.67,1.67,0,0,0-1.55.83,3.89,3.89,0,0,0-.49,2v.31a4,4,0,0,0,.48,2A1.68,1.68,0,0,0,232.76,28.61Z"/><path class="cls-1" d="M240.74,29.73a3.35,3.35,0,0,1-2.66-1.09,4.16,4.16,0,0,1-1-2.87v-.32a4.07,4.07,0,0,1,1-2.82,3.08,3.08,0,0,1,2.41-1.12,2.87,2.87,0,0,1,2.38,1,4.07,4.07,0,0,1,.8,2.63v.76h-5.07l0,0a3.26,3.26,0,0,0,.53,1.93,1.84,1.84,0,0,0,1.61.75A3.63,3.63,0,0,0,242,28.4a2.86,2.86,0,0,0,.95-.58l.56.94a3.57,3.57,0,0,1-1.12.69A4.41,4.41,0,0,1,240.74,29.73Zm-.22-7.09a1.56,1.56,0,0,0-1.25.59,2.76,2.76,0,0,0-.61,1.49l0,0h3.57v-.11a2.31,2.31,0,0,0-.42-1.43A1.54,1.54,0,0,0,240.52,22.64Z"/><path class="cls-1" d="M58.56,43.54a4.37,4.37,0,0,1,.95-2.89,3.53,3.53,0,0,1,5.19,0,4.35,4.35,0,0,1,1,2.9v.17a4.38,4.38,0,0,1-1,2.9,3.23,3.23,0,0,1-2.6,1.12,3.19,3.19,0,0,1-2.59-1.13,4.31,4.31,0,0,1-1-2.89Zm1.44.17a3.74,3.74,0,0,0,.54,2.08,1.75,1.75,0,0,0,1.57.82,1.77,1.77,0,0,0,1.57-.82,3.74,3.74,0,0,0,.54-2.08v-.17a3.71,3.71,0,0,0-.54-2.07,1.78,1.78,0,0,0-1.58-.83,1.73,1.73,0,0,0-1.56.83A3.71,3.71,0,0,0,60,43.54Z"/><path class="cls-1" d="M70.57,46.61a1.68,1.68,0,0,0,1.17-.45,1.4,1.4,0,0,0,.5-1.08h1.3l0,0a2.27,2.27,0,0,1-.88,1.82A3.37,3.37,0,0,1,68,46.6a4.42,4.42,0,0,1-.9-2.83v-.31A4.35,4.35,0,0,1,68,40.65a3.1,3.1,0,0,1,2.57-1.14,3,3,0,0,1,2.17.82,2.59,2.59,0,0,1,.82,2v0H72.24a1.74,1.74,0,0,0-.48-1.24,1.54,1.54,0,0,0-1.19-.51,1.67,1.67,0,0,0-1.55.83,3.88,3.88,0,0,0-.48,2v.31a4,4,0,0,0,.48,2A1.66,1.66,0,0,0,70.57,46.61Z"/><path class="cls-1" d="M78.42,46.61a1.68,1.68,0,0,0,1.17-.45,1.4,1.4,0,0,0,.5-1.08h1.3l0,0a2.27,2.27,0,0,1-.88,1.82,3.36,3.36,0,0,1-4.68-.34,4.37,4.37,0,0,1-.91-2.83v-.31a4.35,4.35,0,0,1,.91-2.81,3.11,3.11,0,0,1,2.57-1.14,3,3,0,0,1,2.18.82,2.61,2.61,0,0,1,.81,2v0H80.09a1.74,1.74,0,0,0-.48-1.24,1.54,1.54,0,0,0-1.19-.51,1.69,1.69,0,0,0-1.55.83,3.88,3.88,0,0,0-.48,2v.31a4,4,0,0,0,.48,2A1.68,1.68,0,0,0,78.42,46.61Z"/><path class="cls-1" d="M88,47.58q-.07-.36-.12-.63a5.27,5.27,0,0,1,0-.56,3.47,3.47,0,0,1-1,1,2.68,2.68,0,0,1-1.4.38,2.61,2.61,0,0,1-1.89-.63,2.33,2.33,0,0,1-.64-1.75,2,2,0,0,1,.91-1.77,4.31,4.31,0,0,1,2.5-.64h1.57v-.79a1.47,1.47,0,0,0-.43-1.1,1.66,1.66,0,0,0-1.2-.41,1.68,1.68,0,0,0-1.13.36,1,1,0,0,0-.44.84H83.27v0a1.86,1.86,0,0,1,.81-1.58,3.79,3.79,0,0,1,4.39,0,2.46,2.46,0,0,1,.82,2V46a7.15,7.15,0,0,0,0,.82,4.9,4.9,0,0,0,.16.78Zm-2.4-1A2.59,2.59,0,0,0,87,46.12a1.92,1.92,0,0,0,.82-.92V43.91H86.22a2.13,2.13,0,0,0-1.4.44,1.31,1.31,0,0,0-.52,1,1.11,1.11,0,0,0,.33.84A1.39,1.39,0,0,0,85.6,46.53Z"/><path class="cls-1" d="M96,45.45a1,1,0,0,0-.36-.78,3.62,3.62,0,0,0-1.38-.53,5.63,5.63,0,0,1-2.15-.84,1.69,1.69,0,0,1-.75-1.45,2.09,2.09,0,0,1,.83-1.65,3.64,3.64,0,0,1,4.32,0A2.1,2.1,0,0,1,97.28,42v0H95.89a1.25,1.25,0,0,0-.45-.93,1.61,1.61,0,0,0-1.14-.42,1.65,1.65,0,0,0-1.14.35,1.07,1.07,0,0,0-.37.82.88.88,0,0,0,.32.72,3.47,3.47,0,0,0,1.35.47,5.84,5.84,0,0,1,2.21.87,1.77,1.77,0,0,1,.75,1.48,2.09,2.09,0,0,1-.85,1.72,3.54,3.54,0,0,1-2.23.66A3.45,3.45,0,0,1,92,47a2.19,2.19,0,0,1-.83-1.79l0,0h1.38a1.31,1.31,0,0,0,.57,1.12,2.16,2.16,0,0,0,1.25.36,1.94,1.94,0,0,0,1.2-.33A1,1,0,0,0,96,45.45Z"/><path class="cls-1" d="M100.78,37.63H99.33V36.15h1.45Zm0,9.95H99.33V39.66h1.45Z"/><path class="cls-1" d="M102.66,43.54a4.37,4.37,0,0,1,1-2.89,3.53,3.53,0,0,1,5.19,0,4.35,4.35,0,0,1,1,2.9v.17a4.38,4.38,0,0,1-1,2.9,3.23,3.23,0,0,1-2.6,1.12,3.19,3.19,0,0,1-2.59-1.13,4.31,4.31,0,0,1-1-2.89Zm1.44.17a3.82,3.82,0,0,0,.53,2.08,1.92,1.92,0,0,0,3.15,0,3.74,3.74,0,0,0,.53-2.08v-.17a3.7,3.7,0,0,0-.53-2.07,1.91,1.91,0,0,0-3.15,0,3.79,3.79,0,0,0-.53,2.07Z"/><path class="cls-1" d="M112.81,39.66l.1,1.17a2.89,2.89,0,0,1,1-1,2.54,2.54,0,0,1,1.35-.35,2.59,2.59,0,0,1,2,.75,3.29,3.29,0,0,1,.7,2.32v5h-1.44v-5a2.18,2.18,0,0,0-.41-1.49,1.69,1.69,0,0,0-1.27-.44,2.22,2.22,0,0,0-1.13.27,2,2,0,0,0-.73.75v5.88h-1.45V39.66Z"/><path class="cls-1" d="M124.92,47.58c0-.24-.09-.45-.11-.63a3.53,3.53,0,0,1,0-.56,3.47,3.47,0,0,1-1.05,1,2.68,2.68,0,0,1-1.4.38,2.63,2.63,0,0,1-1.89-.63,2.33,2.33,0,0,1-.64-1.75,2,2,0,0,1,.92-1.77,4.25,4.25,0,0,1,2.49-.64h1.57v-.79a1.43,1.43,0,0,0-.43-1.1,1.66,1.66,0,0,0-1.2-.41A1.68,1.68,0,0,0,122,41a1,1,0,0,0-.44.84h-1.37v0a1.89,1.89,0,0,1,.81-1.58,3.79,3.79,0,0,1,4.39,0,2.43,2.43,0,0,1,.82,2V46a7.15,7.15,0,0,0,0,.82,4,4,0,0,0,.17.78Zm-2.4-1a2.57,2.57,0,0,0,1.42-.41,1.92,1.92,0,0,0,.82-.92V43.91h-1.62a2.13,2.13,0,0,0-1.4.44,1.31,1.31,0,0,0-.52,1,1.11,1.11,0,0,0,.33.84A1.39,1.39,0,0,0,122.52,46.53Z"/><path class="cls-1" d="M129.85,47.58h-1.44V36.15h1.44Z"/><path class="cls-1" d="M137.36,37.63h-1.44V36.15h1.44Zm0,9.95h-1.44V39.66h1.44Z"/><path class="cls-1" d="M140.87,39.66l.1,1.17a2.89,2.89,0,0,1,1-1,2.54,2.54,0,0,1,1.35-.35,2.59,2.59,0,0,1,2,.75,3.29,3.29,0,0,1,.7,2.32v5h-1.44v-5a2.18,2.18,0,0,0-.41-1.49,1.69,1.69,0,0,0-1.27-.44,2.22,2.22,0,0,0-1.13.27,2,2,0,0,0-.74.75v5.88h-1.44V39.66Z"/><path class="cls-1" d="M152.71,45.45a1,1,0,0,0-.36-.78,3.63,3.63,0,0,0-1.37-.53,5.63,5.63,0,0,1-2.15-.84,1.69,1.69,0,0,1-.75-1.45,2.08,2.08,0,0,1,.82-1.65,3.64,3.64,0,0,1,4.32,0A2.11,2.11,0,0,1,154,42l0,0h-1.37a1.25,1.25,0,0,0-.45-.93A1.88,1.88,0,0,0,149.9,41a1.08,1.08,0,0,0-.38.82.86.86,0,0,0,.33.72,3.34,3.34,0,0,0,1.34.47,5.84,5.84,0,0,1,2.21.87,1.76,1.76,0,0,1,.76,1.48,2.1,2.1,0,0,1-.86,1.72,3.54,3.54,0,0,1-2.23.66,3.43,3.43,0,0,1-2.38-.77,2.16,2.16,0,0,1-.83-1.79v0h1.38a1.31,1.31,0,0,0,.57,1.12,2.19,2.19,0,0,0,1.25.36,2,2,0,0,0,1.21-.33A1,1,0,0,0,152.71,45.45Z"/><path class="cls-1" d="M155.61,43.54a4.33,4.33,0,0,1,1-2.89,3.17,3.17,0,0,1,2.58-1.14,3.22,3.22,0,0,1,2.6,1.13,4.35,4.35,0,0,1,1,2.9v.17a4.38,4.38,0,0,1-1,2.9,3.56,3.56,0,0,1-5.19,0,4.31,4.31,0,0,1-1-2.89Zm1.45.17a3.74,3.74,0,0,0,.53,2.08,1.91,1.91,0,0,0,3.14,0,3.74,3.74,0,0,0,.54-2.08v-.17a3.71,3.71,0,0,0-.54-2.07,1.78,1.78,0,0,0-1.58-.83,1.73,1.73,0,0,0-1.56.83,3.7,3.7,0,0,0-.53,2.07Z"/><path class="cls-1" d="M165.77,39.66l.1,1a2.67,2.67,0,0,1,1-.88,2.94,2.94,0,0,1,1.39-.31,2.41,2.41,0,0,1,1.36.37,2.19,2.19,0,0,1,.85,1.09,3,3,0,0,1,1-1.07,2.57,2.57,0,0,1,1.43-.39,2.39,2.39,0,0,1,1.91.83,3.79,3.79,0,0,1,.7,2.5v4.74h-1.44V42.83a2.67,2.67,0,0,0-.4-1.66,1.46,1.46,0,0,0-1.2-.49,1.52,1.52,0,0,0-1.2.51,2.22,2.22,0,0,0-.54,1.3v5.09h-1.45V42.83a2.55,2.55,0,0,0-.42-1.63,1.4,1.4,0,0,0-1.18-.52,2,2,0,0,0-1.09.27,1.79,1.79,0,0,0-.65.76v5.87h-1.44V39.66Z"/><path class="cls-1" d="M178.88,39.66l.1,1.17a2.78,2.78,0,0,1,1-1,2.92,2.92,0,0,1,3.34.4,3.29,3.29,0,0,1,.71,2.32v5h-1.44v-5a2.12,2.12,0,0,0-.42-1.49,1.68,1.68,0,0,0-1.26-.44,2.2,2.2,0,0,0-1.13.27,2,2,0,0,0-.74.75v5.88h-1.44V39.66Z"/><path class="cls-1" d="M187.67,37.63h-1.44V36.15h1.44Zm0,9.95h-1.44V39.66h1.44Z"/><path class="cls-1" d="M194.76,47.58c0-.24-.09-.45-.11-.63a5.29,5.29,0,0,1-.05-.56,3.47,3.47,0,0,1-1,1,2.65,2.65,0,0,1-1.39.38,2.6,2.6,0,0,1-1.89-.63,2.33,2.33,0,0,1-.65-1.75,2,2,0,0,1,.92-1.77,4.25,4.25,0,0,1,2.49-.64h1.57v-.79a1.46,1.46,0,0,0-.42-1.1,1.69,1.69,0,0,0-1.2-.41,1.73,1.73,0,0,0-1.14.36,1,1,0,0,0-.43.84H190l0,0a1.91,1.91,0,0,1,.81-1.58,3.38,3.38,0,0,1,2.23-.72,3.29,3.29,0,0,1,2.16.68,2.43,2.43,0,0,1,.82,2V46a7.08,7.08,0,0,0,.05.82,4,4,0,0,0,.16.78Zm-2.39-1a2.56,2.56,0,0,0,1.41-.41,1.92,1.92,0,0,0,.82-.92V43.91H193a2.1,2.1,0,0,0-1.39.44,1.32,1.32,0,0,0-.53,1,1.11,1.11,0,0,0,.33.84A1.42,1.42,0,0,0,192.37,46.53Z"/><line class="cls-2" x1="0.45" y1="86.71" x2="35.45" y2="12.71"/><ellipse class="cls-1" cx="35.35" cy="12.67" rx="3.92" ry="3.97" transform="translate(1.76 29.45) rotate(-46.27)"/></g></g></svg>