<svg xmlns="http://www.w3.org/2000/svg" viewBox="0 0 174.69 165.63"><defs><style>.cls-1{fill:#fff;}.cls-2{fill:none;stroke:#fff;stroke-miterlimit:10;}</style></defs><title>text6</title><g id="Layer_2" data-name="Layer 2"><g id="Layer_1-2" data-name="Layer 1"><path class="cls-1" d="M6.44,8.68h-4l-.95,2.75H0L3.85.76H5.08L8.85,11.43H7.38ZM2.84,7.47H6L4.48,2.89H4.43Z"/><path class="cls-1" d="M11.78,11.43H10.33V0h1.45Z"/><path class="cls-1" d="M18.6,9.29a1,1,0,0,0-.36-.77A3.47,3.47,0,0,0,16.87,8a5.8,5.8,0,0,1-2.15-.84A1.71,1.71,0,0,1,14,5.7,2.09,2.09,0,0,1,14.79,4a3.22,3.22,0,0,1,2.14-.69,3.2,3.2,0,0,1,2.18.74,2.09,2.09,0,0,1,.8,1.7l0,0H18.52a1.25,1.25,0,0,0-.45-.93,1.62,1.62,0,0,0-1.14-.42,1.64,1.64,0,0,0-1.14.34,1.09,1.09,0,0,0-.38.82.86.86,0,0,0,.33.73,3.5,3.5,0,0,0,1.34.47,5.53,5.53,0,0,1,2.21.87,1.78,1.78,0,0,1,.76,1.47,2.07,2.07,0,0,1-.86,1.72,3.48,3.48,0,0,1-2.23.67,3.48,3.48,0,0,1-2.38-.77A2.16,2.16,0,0,1,13.75,9V9h1.38a1.33,1.33,0,0,0,.57,1.13,2.26,2.26,0,0,0,1.25.35,2,2,0,0,0,1.21-.32A1,1,0,0,0,18.6,9.29Z"/><path class="cls-1" d="M21.5,7.39a4.35,4.35,0,0,1,1-2.9A3.17,3.17,0,0,1,25,3.35a3.23,3.23,0,0,1,2.61,1.14,4.38,4.38,0,0,1,1,2.9v.16a4.36,4.36,0,0,1-1,2.9,3.23,3.23,0,0,1-2.59,1.13,3.24,3.24,0,0,1-2.6-1.13,4.34,4.34,0,0,1-1-2.9ZM23,7.55a3.72,3.72,0,0,0,.53,2.08,1.91,1.91,0,0,0,3.14,0,3.72,3.72,0,0,0,.54-2.08V7.39a3.71,3.71,0,0,0-.54-2.07A1.78,1.78,0,0,0,25,4.49a1.73,1.73,0,0,0-1.56.83A3.7,3.7,0,0,0,23,7.39Z"/><path class="cls-1" d="M31.63,11.07l-1.1,2.25h-.86L30.18,11V9.81h1.45Z"/><path class="cls-1" d="M38.61,1.47H37.17V0h1.44Zm0,10H37.17V3.5h1.44Z"/><path class="cls-1" d="M42.84,1.59V3.5h1.5V4.57h-1.5V9.38a1.13,1.13,0,0,0,.23.79.83.83,0,0,0,.61.22l.28,0,.26-.07.19,1a1.21,1.21,0,0,1-.47.22,2.7,2.7,0,0,1-.62.08,1.87,1.87,0,0,1-1.4-.53,2.31,2.31,0,0,1-.52-1.67V4.57H40.14V3.5H41.4V1.59Z"/><path class="cls-1" d="M49.28,7.61a5.32,5.32,0,0,1,.82-3.08,2.65,2.65,0,0,1,2.29-1.18,2.82,2.82,0,0,1,1.23.26,2.46,2.46,0,0,1,.92.75V0H56V11.43H54.88l-.22-1a2.65,2.65,0,0,1-1,.87,2.92,2.92,0,0,1-1.32.29,2.74,2.74,0,0,1-2.28-1.05,4.41,4.41,0,0,1-.82-2.77Zm1.45.15a3.37,3.37,0,0,0,.49,1.93,1.71,1.71,0,0,0,1.52.72,1.91,1.91,0,0,0,1.09-.3,2.05,2.05,0,0,0,.71-.82V5.6a2.08,2.08,0,0,0-.72-.78,1.83,1.83,0,0,0-1.06-.29,1.65,1.65,0,0,0-1.54.85,4.44,4.44,0,0,0-.49,2.23Z"/><path class="cls-1" d="M57.8,7.39a4.4,4.4,0,0,1,1-2.9,3.52,3.52,0,0,1,5.19,0,4.34,4.34,0,0,1,1,2.9v.16a4.36,4.36,0,0,1-1,2.9,3.54,3.54,0,0,1-5.19,0,4.34,4.34,0,0,1-1-2.9Zm1.45.16a3.72,3.72,0,0,0,.53,2.08,1.91,1.91,0,0,0,3.14,0,3.72,3.72,0,0,0,.54-2.08V7.39a3.71,3.71,0,0,0-.54-2.07,1.78,1.78,0,0,0-1.58-.83,1.73,1.73,0,0,0-1.56.83,3.7,3.7,0,0,0-.53,2.07Z"/><path class="cls-1" d="M70,11.58a3.36,3.36,0,0,1-2.67-1.09,4.25,4.25,0,0,1-1-2.87V7.29a4.16,4.16,0,0,1,1-2.82,3.12,3.12,0,0,1,2.41-1.12,2.87,2.87,0,0,1,2.38,1A4.08,4.08,0,0,1,72.9,7v.76H67.83l0,0a3.3,3.3,0,0,0,.52,1.94,1.87,1.87,0,0,0,1.62.74,3.62,3.62,0,0,0,1.28-.21,2.9,2.9,0,0,0,1-.57l.56.94a3.45,3.45,0,0,1-1.12.69A4.39,4.39,0,0,1,70,11.58Zm-.23-7.09a1.57,1.57,0,0,0-1.25.58,2.75,2.75,0,0,0-.6,1.49v0h3.58V6.48A2.36,2.36,0,0,0,71,5.05,1.54,1.54,0,0,0,69.72,4.49Z"/><path class="cls-1" d="M79.12,9.29a1,1,0,0,0-.36-.77A3.47,3.47,0,0,0,77.39,8a5.8,5.8,0,0,1-2.15-.84,1.71,1.71,0,0,1-.75-1.45A2.09,2.09,0,0,1,75.31,4a3.62,3.62,0,0,1,4.32,0,2.09,2.09,0,0,1,.8,1.7l0,0H79a1.25,1.25,0,0,0-.45-.93,1.9,1.9,0,0,0-2.28-.08,1.09,1.09,0,0,0-.38.82.86.86,0,0,0,.33.73,3.5,3.5,0,0,0,1.34.47,5.53,5.53,0,0,1,2.21.87,1.78,1.78,0,0,1,.76,1.47,2.07,2.07,0,0,1-.86,1.72,4.05,4.05,0,0,1-4.61-.1A2.16,2.16,0,0,1,74.27,9V9h1.38a1.33,1.33,0,0,0,.57,1.13,2.26,2.26,0,0,0,1.25.35,2,2,0,0,0,1.21-.32A1,1,0,0,0,79.12,9.29Z"/><path class="cls-1" d="M87.65,1.47H86.21V0h1.44Zm0,10H86.21V3.5h1.44Z"/><path class="cls-1" d="M91.16,3.5l.1,1a2.72,2.72,0,0,1,1-.87,3,3,0,0,1,1.39-.32A2.49,2.49,0,0,1,95,3.72a2.18,2.18,0,0,1,.85,1.1,3,3,0,0,1,1-1.07,2.58,2.58,0,0,1,1.43-.4,2.37,2.37,0,0,1,1.91.84,3.77,3.77,0,0,1,.7,2.5v4.74H99.44V6.67A2.64,2.64,0,0,0,99,5a1.48,1.48,0,0,0-1.2-.48,1.52,1.52,0,0,0-1.2.51,2.17,2.17,0,0,0-.54,1.3v5.09H94.65V6.67A2.66,2.66,0,0,0,94.24,5a1.46,1.46,0,0,0-1.19-.51A2,2,0,0,0,92,4.8a1.73,1.73,0,0,0-.65.76v5.87H89.87V3.5Z"/><path class="cls-1" d="M109.73,7.76a4.35,4.35,0,0,1-.82,2.77,2.71,2.71,0,0,1-2.26,1.05,3.06,3.06,0,0,1-1.29-.25,2.38,2.38,0,0,1-.94-.73v3.87H103V3.5h1.1l.23,1a2.63,2.63,0,0,1,1-.88,2.86,2.86,0,0,1,1.35-.3,2.61,2.61,0,0,1,2.28,1.17,5.26,5.26,0,0,1,.82,3.09Zm-1.44-.15a4.24,4.24,0,0,0-.53-2.22,1.75,1.75,0,0,0-1.57-.86,1.91,1.91,0,0,0-1.06.28,2.11,2.11,0,0,0-.71.77V9.41a2.11,2.11,0,0,0,.71.77,2,2,0,0,0,1.08.27,1.77,1.77,0,0,0,1.55-.75,3.32,3.32,0,0,0,.53-1.94Z"/><path class="cls-1" d="M116.37,11.43c0-.24-.08-.45-.11-.64a5.11,5.11,0,0,1-.05-.55,3.47,3.47,0,0,1-1,1,2.71,2.71,0,0,1-1.39.38,2.6,2.6,0,0,1-1.89-.63,2.36,2.36,0,0,1-.65-1.75,2.06,2.06,0,0,1,.92-1.78,4.36,4.36,0,0,1,2.5-.64h1.56V6a1.45,1.45,0,0,0-.42-1.1,1.64,1.64,0,0,0-1.2-.41,1.78,1.78,0,0,0-1.14.35,1.06,1.06,0,0,0-.43.84l-1.37,0v0a1.89,1.89,0,0,1,.8-1.58,3.38,3.38,0,0,1,2.23-.72,3.26,3.26,0,0,1,2.17.69,2.44,2.44,0,0,1,.82,2V9.83a7.27,7.27,0,0,0,0,.82,4.32,4.32,0,0,0,.16.78ZM114,10.37a2.55,2.55,0,0,0,1.41-.4,1.91,1.91,0,0,0,.82-.92V7.76h-1.62a2.05,2.05,0,0,0-1.39.44,1.29,1.29,0,0,0-.52,1,1.07,1.07,0,0,0,.33.83A1.35,1.35,0,0,0,114,10.37Z"/><path class="cls-1" d="M122.9,10.45a1.71,1.71,0,0,0,1.16-.44,1.39,1.39,0,0,0,.5-1.09h1.31l0,0a2.27,2.27,0,0,1-.88,1.83,3.16,3.16,0,0,1-2.11.79,3.12,3.12,0,0,1-2.58-1.14,4.38,4.38,0,0,1-.91-2.82V7.31a4.36,4.36,0,0,1,.92-2.82,3.09,3.09,0,0,1,2.57-1.14,3,3,0,0,1,2.17.82,2.59,2.59,0,0,1,.82,2l0,0h-1.31A1.72,1.72,0,0,0,124.09,5a1.54,1.54,0,0,0-1.19-.51,1.67,1.67,0,0,0-1.55.82,3.92,3.92,0,0,0-.49,2v.31a3.94,3.94,0,0,0,.48,2A1.66,1.66,0,0,0,122.9,10.45Z"/><path class="cls-1" d="M129.61,1.59V3.5h1.5V4.57h-1.5V9.38a1.13,1.13,0,0,0,.23.79.83.83,0,0,0,.61.22l.28,0,.26-.07.19,1a1.21,1.21,0,0,1-.47.22,2.7,2.7,0,0,1-.62.08,1.87,1.87,0,0,1-1.4-.53,2.31,2.31,0,0,1-.52-1.67V4.57h-1.26V3.5h1.26V1.59Z"/><path class="cls-1" d="M138.39,1.59V3.5h1.5V4.57h-1.5V9.38a1.13,1.13,0,0,0,.23.79.85.85,0,0,0,.61.22l.28,0,.26-.07.2,1a1.34,1.34,0,0,1-.48.22,2.7,2.7,0,0,1-.62.08,1.87,1.87,0,0,1-1.4-.53A2.31,2.31,0,0,1,137,9.38V4.57h-1.26V3.5H137V1.59Z"/><path class="cls-1" d="M141.1,7.39a4.4,4.4,0,0,1,1-2.9,3.52,3.52,0,0,1,5.19,0,4.34,4.34,0,0,1,1,2.9v.16a4.36,4.36,0,0,1-.95,2.9,3.54,3.54,0,0,1-5.19,0,4.34,4.34,0,0,1-1-2.9Zm1.44.16a3.72,3.72,0,0,0,.54,2.08,1.91,1.91,0,0,0,3.14,0,3.72,3.72,0,0,0,.54-2.08V7.39a3.71,3.71,0,0,0-.54-2.07,1.78,1.78,0,0,0-1.58-.83,1.73,1.73,0,0,0-1.56.83,3.71,3.71,0,0,0-.54,2.07Z"/><path class="cls-1" d="M153.35,7.39a4.35,4.35,0,0,1,1-2.9,3.17,3.17,0,0,1,2.58-1.14,3.23,3.23,0,0,1,2.61,1.14,4.38,4.38,0,0,1,.95,2.9v.16a4.36,4.36,0,0,1-.95,2.9,3.54,3.54,0,0,1-5.19,0,4.34,4.34,0,0,1-1-2.9Zm1.45.16a3.72,3.72,0,0,0,.53,2.08,1.75,1.75,0,0,0,1.58.82,1.73,1.73,0,0,0,1.56-.82A3.72,3.72,0,0,0,159,7.55V7.39a3.71,3.71,0,0,0-.54-2.07,1.77,1.77,0,0,0-1.58-.83,1.73,1.73,0,0,0-1.56.83,3.7,3.7,0,0,0-.53,2.07Z"/><path class="cls-1" d="M167.25,10.25a2.69,2.69,0,0,1-1,1,2.72,2.72,0,0,1-1.36.34,2.57,2.57,0,0,1-2-.83,3.86,3.86,0,0,1-.72-2.58V3.5h1.44V8.19A3,3,0,0,0,164,9.93a1.39,1.39,0,0,0,1.17.48,2.46,2.46,0,0,0,1.27-.31,2,2,0,0,0,.76-.89V3.5h1.44v7.93h-1.3Z"/><path class="cls-1" d="M174.49,4.78l-.74,0a1.65,1.65,0,0,0-1,.27,1.86,1.86,0,0,0-.61.76v5.67h-1.44V3.5H172l.14,1.16a2.81,2.81,0,0,1,.83-1,2,2,0,0,1,1.14-.35,1.55,1.55,0,0,1,.31,0l.24.06Z"/><path class="cls-1" d="M3.88,28.45A1.74,1.74,0,0,0,5.05,28a1.41,1.41,0,0,0,.49-1.09H6.85l0,0A2.27,2.27,0,0,1,6,28.79a3.14,3.14,0,0,1-2.11.79A3.12,3.12,0,0,1,1.3,28.44a4.37,4.37,0,0,1-.9-2.82v-.31a4.36,4.36,0,0,1,.91-2.82,3.1,3.1,0,0,1,2.57-1.14,3,3,0,0,1,2.17.82,2.59,2.59,0,0,1,.82,2v0H5.54A1.72,1.72,0,0,0,5.07,23a1.54,1.54,0,0,0-1.19-.51,1.67,1.67,0,0,0-1.55.82,3.92,3.92,0,0,0-.48,2v.31a3.94,3.94,0,0,0,.48,2A1.65,1.65,0,0,0,3.88,28.45Z"/><path class="cls-1" d="M8.25,25.39a4.35,4.35,0,0,1,.95-2.9,3.19,3.19,0,0,1,2.58-1.14,3.23,3.23,0,0,1,2.61,1.14,4.33,4.33,0,0,1,.95,2.9v.16a4.31,4.31,0,0,1-.95,2.9,3.22,3.22,0,0,1-2.59,1.13,3.25,3.25,0,0,1-2.6-1.13,4.38,4.38,0,0,1-.95-2.9Zm1.44.16a3.8,3.8,0,0,0,.53,2.08,1.75,1.75,0,0,0,1.58.82,1.75,1.75,0,0,0,1.57-.82,3.8,3.8,0,0,0,.53-2.08v-.16a3.71,3.71,0,0,0-.54-2.07,1.77,1.77,0,0,0-1.58-.83,1.74,1.74,0,0,0-1.56.83,3.79,3.79,0,0,0-.53,2.07Z"/><path class="cls-1" d="M18.4,21.5l.1,1.18a2.9,2.9,0,0,1,1-1,2.67,2.67,0,0,1,1.36-.35,2.56,2.56,0,0,1,2,.76,3.27,3.27,0,0,1,.7,2.31v5H22.1v-5A2.09,2.09,0,0,0,21.68,23a1.61,1.61,0,0,0-1.26-.44,2.33,2.33,0,0,0-1.13.26,2,2,0,0,0-.74.75v5.89H17.11V21.5Z"/><path class="cls-1" d="M30.24,27.29a1,1,0,0,0-.36-.77A3.47,3.47,0,0,0,28.51,26a5.73,5.73,0,0,1-2.15-.84,1.71,1.71,0,0,1-.75-1.45A2.09,2.09,0,0,1,26.43,22a3.62,3.62,0,0,1,4.32.05,2.12,2.12,0,0,1,.8,1.7l0,.05H30.15a1.25,1.25,0,0,0-.45-.93,1.61,1.61,0,0,0-1.14-.42,1.62,1.62,0,0,0-1.13.34,1.06,1.06,0,0,0-.38.82.88.88,0,0,0,.32.73,3.64,3.64,0,0,0,1.35.47,5.53,5.53,0,0,1,2.21.87,1.77,1.77,0,0,1,.75,1.47,2.06,2.06,0,0,1-.85,1.72,3.48,3.48,0,0,1-2.23.67,3.5,3.5,0,0,1-2.39-.77A2.18,2.18,0,0,1,25.39,27V27h1.38a1.33,1.33,0,0,0,.57,1.13,2.26,2.26,0,0,0,1.25.35,2,2,0,0,0,1.21-.32A1,1,0,0,0,30.24,27.29Z"/><path class="cls-1" d="M33.14,25.39a4.4,4.4,0,0,1,1-2.9,3.52,3.52,0,0,1,5.19,0,4.34,4.34,0,0,1,1,2.9v.16a4.36,4.36,0,0,1-1,2.9,3.54,3.54,0,0,1-5.19,0,4.34,4.34,0,0,1-1-2.9Zm1.44.16a3.72,3.72,0,0,0,.54,2.08,1.91,1.91,0,0,0,3.14,0,3.72,3.72,0,0,0,.54-2.08v-.16a3.71,3.71,0,0,0-.54-2.07,1.78,1.78,0,0,0-1.58-.83,1.73,1.73,0,0,0-1.56.83,3.71,3.71,0,0,0-.54,2.07Z"/><path class="cls-1" d="M43.56,29.43H42.12V18h1.44Z"/><path class="cls-1" d="M47.34,19.47H45.9V18h1.44Zm0,10H45.9V21.5h1.44Z"/><path class="cls-1" d="M49.23,25.61a5.32,5.32,0,0,1,.82-3.08,2.64,2.64,0,0,1,2.29-1.18,2.85,2.85,0,0,1,1.23.26,2.46,2.46,0,0,1,.92.75V18h1.45V29.43H54.83l-.22-1a2.65,2.65,0,0,1-1,.87,2.93,2.93,0,0,1-1.33.29,2.73,2.73,0,0,1-2.27-1,4.41,4.41,0,0,1-.82-2.77Zm1.45.15a3.37,3.37,0,0,0,.49,1.93,1.7,1.7,0,0,0,1.52.72,1.86,1.86,0,0,0,1.08-.3,2,2,0,0,0,.72-.82V23.6a2.08,2.08,0,0,0-.72-.78,1.83,1.83,0,0,0-1.06-.29,1.65,1.65,0,0,0-1.54.85,4.44,4.44,0,0,0-.49,2.23Z"/><path class="cls-1" d="M63,29.43c-.05-.24-.09-.45-.11-.64a3.41,3.41,0,0,1-.05-.55,3.47,3.47,0,0,1-1,1,2.78,2.78,0,0,1-1.4.38A2.59,2.59,0,0,1,58.47,29a2.32,2.32,0,0,1-.65-1.75,2,2,0,0,1,.92-1.78,4.33,4.33,0,0,1,2.49-.64H62.8V24a1.42,1.42,0,0,0-.43-1.1,1.62,1.62,0,0,0-1.2-.41,1.73,1.73,0,0,0-1.13.35,1.07,1.07,0,0,0-.44.84l-1.37,0v-.05A1.92,1.92,0,0,1,59,22.07a3.33,3.33,0,0,1,2.22-.72,3.26,3.26,0,0,1,2.17.69,2.41,2.41,0,0,1,.82,2v3.82c0,.28,0,.56,0,.82a4.36,4.36,0,0,0,.17.78Zm-2.4-1.06A2.56,2.56,0,0,0,62,28a2,2,0,0,0,.82-.92V25.76H61.18a2.08,2.08,0,0,0-1.4.44,1.29,1.29,0,0,0-.52,1,1.07,1.07,0,0,0,.33.83A1.35,1.35,0,0,0,60.56,28.37Z"/><path class="cls-1" d="M68.34,19.59V21.5h1.5v1.07h-1.5v4.81a1.13,1.13,0,0,0,.23.79.85.85,0,0,0,.61.22l.28,0,.26-.07.2,1a1.34,1.34,0,0,1-.48.22,2.7,2.7,0,0,1-.62.08,1.88,1.88,0,0,1-1.4-.53,2.31,2.31,0,0,1-.52-1.67V22.57H65.64V21.5H66.9V19.59Z"/><path class="cls-1" d="M74.67,29.58A3.34,3.34,0,0,1,72,28.49a4.2,4.2,0,0,1-1-2.87v-.33a4.11,4.11,0,0,1,1-2.82,3.1,3.1,0,0,1,2.4-1.12,2.89,2.89,0,0,1,2.39,1A4.08,4.08,0,0,1,77.62,25v.76H72.55l0,0a3.3,3.3,0,0,0,.53,1.94,1.85,1.85,0,0,0,1.61.74A3.63,3.63,0,0,0,76,28.24a3,3,0,0,0,.94-.57l.57.94a3.57,3.57,0,0,1-1.12.69A4.48,4.48,0,0,1,74.67,29.58Zm-.23-7.09a1.57,1.57,0,0,0-1.25.58,2.82,2.82,0,0,0-.6,1.49v0h3.58v-.12a2.29,2.29,0,0,0-.43-1.43A1.54,1.54,0,0,0,74.44,22.49Z"/><path class="cls-1" d="M84.26,21.5l.1,1a2.67,2.67,0,0,1,1-.87,2.9,2.9,0,0,1,1.38-.32,2.49,2.49,0,0,1,1.36.37,2.25,2.25,0,0,1,.86,1.1,2.92,2.92,0,0,1,1-1.07,2.6,2.6,0,0,1,1.43-.4,2.35,2.35,0,0,1,1.91.84,3.77,3.77,0,0,1,.7,2.5v4.74H92.54V24.67a2.64,2.64,0,0,0-.4-1.66,1.48,1.48,0,0,0-1.2-.48,1.52,1.52,0,0,0-1.2.51,2.23,2.23,0,0,0-.54,1.3v5.09H87.75V24.67A2.66,2.66,0,0,0,87.34,23a1.45,1.45,0,0,0-1.19-.51,2,2,0,0,0-1.09.27,1.73,1.73,0,0,0-.65.76v5.87H83V21.5Z"/><path class="cls-1" d="M99.36,29.58a3.34,3.34,0,0,1-2.66-1.09,4.2,4.2,0,0,1-1-2.87v-.33a4.11,4.11,0,0,1,1-2.82,3.1,3.1,0,0,1,2.4-1.12,2.89,2.89,0,0,1,2.39,1,4.08,4.08,0,0,1,.79,2.63v.76H97.24l0,0a3.3,3.3,0,0,0,.53,1.94,1.85,1.85,0,0,0,1.61.74,3.63,3.63,0,0,0,1.29-.21,3,3,0,0,0,.94-.57l.57.94a3.57,3.57,0,0,1-1.12.69A4.48,4.48,0,0,1,99.36,29.58Zm-.23-7.09a1.57,1.57,0,0,0-1.25.58,2.82,2.82,0,0,0-.6,1.49v0h3.58v-.12a2.29,2.29,0,0,0-.43-1.43A1.54,1.54,0,0,0,99.13,22.49Z"/><path class="cls-1" d="M105.22,21.5l.1,1a2.67,2.67,0,0,1,1-.87,2.94,2.94,0,0,1,1.39-.32,2.46,2.46,0,0,1,1.35.37,2.19,2.19,0,0,1,.86,1.1,2.92,2.92,0,0,1,1-1.07,2.6,2.6,0,0,1,1.43-.4,2.35,2.35,0,0,1,1.91.84,3.77,3.77,0,0,1,.71,2.5v4.74H113.5V24.67a2.64,2.64,0,0,0-.4-1.66,1.48,1.48,0,0,0-1.2-.48,1.55,1.55,0,0,0-1.2.51,2.29,2.29,0,0,0-.54,1.3v5.09h-1.45V24.67A2.59,2.59,0,0,0,108.3,23a1.45,1.45,0,0,0-1.19-.51,2,2,0,0,0-1.08.27,1.69,1.69,0,0,0-.66.76v5.87h-1.44V21.5Z"/><path class="cls-1" d="M116.7,25.39a4.35,4.35,0,0,1,1-2.9,3.17,3.17,0,0,1,2.58-1.14,3.23,3.23,0,0,1,2.61,1.14,4.38,4.38,0,0,1,1,2.9v.16a4.36,4.36,0,0,1-1,2.9,3.54,3.54,0,0,1-5.19,0,4.34,4.34,0,0,1-1-2.9Zm1.45.16a3.72,3.72,0,0,0,.53,2.08,1.91,1.91,0,0,0,3.14,0,3.72,3.72,0,0,0,.54-2.08v-.16a3.71,3.71,0,0,0-.54-2.07,1.77,1.77,0,0,0-1.58-.83,1.73,1.73,0,0,0-1.56.83,3.7,3.7,0,0,0-.53,2.07Z"/><path class="cls-1" d="M129.32,22.78l-.74-.05a1.68,1.68,0,0,0-1,.27,1.76,1.76,0,0,0-.6.76v5.67h-1.44V21.5h1.29l.13,1.16a2.83,2.83,0,0,1,.84-1,1.94,1.94,0,0,1,1.13-.35,1.55,1.55,0,0,1,.31,0l.24.06Z"/><path class="cls-1" d="M133.37,26.49l.26,1h0l2-6h1.61l-3.34,9.14A4,4,0,0,1,133,32a2,2,0,0,1-1.51.6c-.12,0-.27,0-.45,0l-.41-.08.14-1.14.26,0,.39,0a.88.88,0,0,0,.75-.41,4,4,0,0,0,.49-.91l.35-.83-2.95-7.76h1.61Z"/><path class="cls-1" d="M147.09,29.43c-.05-.24-.08-.45-.11-.64a5.11,5.11,0,0,1,0-.55,3.47,3.47,0,0,1-1.05,1,2.75,2.75,0,0,1-1.4.38A2.59,2.59,0,0,1,142.6,29,2.36,2.36,0,0,1,142,27.2a2.06,2.06,0,0,1,.92-1.78,4.33,4.33,0,0,1,2.49-.64h1.57V24a1.45,1.45,0,0,0-.42-1.1,1.65,1.65,0,0,0-1.2-.41,1.78,1.78,0,0,0-1.14.35,1.06,1.06,0,0,0-.43.84l-1.37,0,0-.05a1.92,1.92,0,0,1,.81-1.58,3.38,3.38,0,0,1,2.23-.72,3.24,3.24,0,0,1,2.16.69,2.41,2.41,0,0,1,.82,2v3.82a7.22,7.22,0,0,0,0,.82,4.32,4.32,0,0,0,.16.78Zm-2.39-1.06a2.55,2.55,0,0,0,1.41-.4,2,2,0,0,0,.82-.92V25.76h-1.62a2.05,2.05,0,0,0-1.39.44,1.3,1.3,0,0,0-.53,1,1.07,1.07,0,0,0,.33.83A1.37,1.37,0,0,0,144.7,28.37Z"/><path class="cls-1" d="M151.76,21.5l.1,1.18a2.81,2.81,0,0,1,1-1,2.67,2.67,0,0,1,1.36-.35,2.56,2.56,0,0,1,2,.76,3.27,3.27,0,0,1,.7,2.31v5h-1.44v-5A2.09,2.09,0,0,0,155,23a1.61,1.61,0,0,0-1.26-.44,2.3,2.3,0,0,0-1.13.26,2,2,0,0,0-.74.75v5.89h-1.44V21.5Z"/><path class="cls-1" d="M158.66,25.61a5.32,5.32,0,0,1,.82-3.08,2.65,2.65,0,0,1,2.29-1.18,2.82,2.82,0,0,1,1.23.26,2.46,2.46,0,0,1,.92.75V18h1.45V29.43h-1.11l-.22-1a2.65,2.65,0,0,1-1,.87,2.92,2.92,0,0,1-1.32.29,2.74,2.74,0,0,1-2.28-1,4.41,4.41,0,0,1-.82-2.77Zm1.45.15a3.37,3.37,0,0,0,.49,1.93,1.71,1.71,0,0,0,1.52.72,1.91,1.91,0,0,0,1.09-.3,2.05,2.05,0,0,0,.71-.82V23.6a2.08,2.08,0,0,0-.72-.78,1.83,1.83,0,0,0-1.06-.29,1.65,1.65,0,0,0-1.54.85,4.44,4.44,0,0,0-.49,2.23Z"/><path class="cls-1" d="M3.88,46.45A1.74,1.74,0,0,0,5.05,46a1.41,1.41,0,0,0,.49-1.09H6.85l0,0A2.27,2.27,0,0,1,6,46.79a3.14,3.14,0,0,1-2.11.79A3.12,3.12,0,0,1,1.3,46.44a4.37,4.37,0,0,1-.9-2.82v-.31a4.36,4.36,0,0,1,.91-2.82,3.1,3.1,0,0,1,2.57-1.14,3,3,0,0,1,2.17.82,2.59,2.59,0,0,1,.82,2v0H5.54A1.72,1.72,0,0,0,5.07,41a1.54,1.54,0,0,0-1.19-.51,1.67,1.67,0,0,0-1.55.82,3.92,3.92,0,0,0-.48,2v.31a3.94,3.94,0,0,0,.48,2A1.65,1.65,0,0,0,3.88,46.45Z"/><path class="cls-1" d="M13.45,47.43c0-.24-.08-.45-.11-.64a5.11,5.11,0,0,1-.05-.55,3.47,3.47,0,0,1-1,1,2.71,2.71,0,0,1-1.39.38A2.6,2.6,0,0,1,9,47a2.36,2.36,0,0,1-.65-1.75,2.06,2.06,0,0,1,.92-1.78,4.36,4.36,0,0,1,2.5-.64h1.56V42a1.45,1.45,0,0,0-.42-1.1,1.62,1.62,0,0,0-1.2-.41,1.78,1.78,0,0,0-1.14.35,1.06,1.06,0,0,0-.43.84l-1.37,0v-.05a1.89,1.89,0,0,1,.8-1.58,3.38,3.38,0,0,1,2.23-.72,3.26,3.26,0,0,1,2.17.69,2.44,2.44,0,0,1,.82,2v3.82a7.27,7.27,0,0,0,0,.82,4.32,4.32,0,0,0,.16.78Zm-2.39-1.06a2.55,2.55,0,0,0,1.41-.4,1.91,1.91,0,0,0,.82-.92V43.76H11.67a2.05,2.05,0,0,0-1.39.44,1.29,1.29,0,0,0-.52,1,1.07,1.07,0,0,0,.33.83A1.35,1.35,0,0,0,11.06,46.37Z"/><path class="cls-1" d="M18.12,39.5l.1,1.18a2.92,2.92,0,0,1,1-1,2.64,2.64,0,0,1,1.35-.35,2.56,2.56,0,0,1,2,.76,3.27,3.27,0,0,1,.7,2.31v5H21.82v-5A2.09,2.09,0,0,0,21.4,41a1.61,1.61,0,0,0-1.26-.44,2.33,2.33,0,0,0-1.13.26,2,2,0,0,0-.74.75v5.89H16.83V39.5Z"/><path class="cls-1" d="M26.65,39.5l.1,1.18a2.81,2.81,0,0,1,1-1,2.67,2.67,0,0,1,1.36-.35,2.54,2.54,0,0,1,2,.76,3.28,3.28,0,0,1,.71,2.31v5H30.34v-5A2.1,2.1,0,0,0,29.93,41a1.64,1.64,0,0,0-1.26-.44,2.3,2.3,0,0,0-1.13.26,2,2,0,0,0-.74.75v5.89H25.36V39.5Z"/><path class="cls-1" d="M33.54,43.39a4.35,4.35,0,0,1,1-2.9,3.17,3.17,0,0,1,2.58-1.14,3.23,3.23,0,0,1,2.61,1.14,4.38,4.38,0,0,1,1,2.9v.16a4.36,4.36,0,0,1-1,2.9,3.54,3.54,0,0,1-5.19,0,4.34,4.34,0,0,1-1-2.9Zm1.45.16a3.72,3.72,0,0,0,.53,2.08,1.75,1.75,0,0,0,1.58.82,1.73,1.73,0,0,0,1.56-.82,3.72,3.72,0,0,0,.54-2.08v-.16a3.71,3.71,0,0,0-.54-2.07,1.77,1.77,0,0,0-1.58-.83,1.73,1.73,0,0,0-1.56.83A3.7,3.7,0,0,0,35,43.39Z"/><path class="cls-1" d="M44.41,37.59V39.5h1.51v1.07H44.41v4.81a1.08,1.08,0,0,0,.24.79.82.82,0,0,0,.61.22l.27,0,.26-.07.2,1a1.34,1.34,0,0,1-.48.22,2.64,2.64,0,0,1-.62.08,1.88,1.88,0,0,1-1.4-.53A2.31,2.31,0,0,1,43,45.38V40.57H41.71V39.5H43V37.59Z"/><path class="cls-1" d="M54.94,40.78l-.74-.05a1.65,1.65,0,0,0-1,.27,1.71,1.71,0,0,0-.61.76v5.67H51.19V39.5h1.29l.14,1.16a2.71,2.71,0,0,1,.83-1,2,2,0,0,1,1.14-.35,1.63,1.63,0,0,1,.31,0l.24.06Z"/><path class="cls-1" d="M59.58,47.58a3.34,3.34,0,0,1-2.66-1.09,4.2,4.2,0,0,1-1-2.87v-.33a4.11,4.11,0,0,1,1-2.82,3.12,3.12,0,0,1,2.41-1.12,2.87,2.87,0,0,1,2.38,1A4.08,4.08,0,0,1,62.53,43v.76H57.47l0,0A3.3,3.3,0,0,0,58,45.71a1.85,1.85,0,0,0,1.61.74,3.63,3.63,0,0,0,1.29-.21,3,3,0,0,0,1-.57l.56.94a3.57,3.57,0,0,1-1.12.69A4.41,4.41,0,0,1,59.58,47.58Zm-.22-7.09a1.55,1.55,0,0,0-1.25.58,2.83,2.83,0,0,0-.61,1.49l0,0h3.57v-.12a2.35,2.35,0,0,0-.42-1.43A1.56,1.56,0,0,0,59.36,40.49Z"/><path class="cls-1" d="M65.44,39.5l.1,1a2.67,2.67,0,0,1,1-.87,2.94,2.94,0,0,1,1.39-.32,2.51,2.51,0,0,1,1.36.37,2.23,2.23,0,0,1,.85,1.1,2.92,2.92,0,0,1,1-1.07,2.63,2.63,0,0,1,1.43-.4,2.37,2.37,0,0,1,1.92.84,3.82,3.82,0,0,1,.7,2.5v4.74H73.73V42.67A2.64,2.64,0,0,0,73.32,41a1.48,1.48,0,0,0-1.2-.48,1.55,1.55,0,0,0-1.2.51,2.22,2.22,0,0,0-.53,1.3v5.09H68.94V42.67A2.59,2.59,0,0,0,68.52,41a1.43,1.43,0,0,0-1.19-.51,2,2,0,0,0-1.08.27,1.67,1.67,0,0,0-.65.76v5.87H64.15V39.5Z"/><path class="cls-1" d="M76.93,43.39a4.35,4.35,0,0,1,.95-2.9,3.19,3.19,0,0,1,2.58-1.14,3.23,3.23,0,0,1,2.61,1.14,4.33,4.33,0,0,1,1,2.9v.16a4.31,4.31,0,0,1-1,2.9,3.54,3.54,0,0,1-5.19,0,4.38,4.38,0,0,1-.95-2.9Zm1.44.16a3.8,3.8,0,0,0,.53,2.08,1.92,1.92,0,0,0,3.15,0,3.8,3.8,0,0,0,.53-2.08v-.16A3.71,3.71,0,0,0,82,41.32a1.77,1.77,0,0,0-1.58-.83,1.74,1.74,0,0,0-1.56.83,3.79,3.79,0,0,0-.53,2.07Z"/><path class="cls-1" d="M88.32,45.09l.13.56h0l.14-.56,1.82-5.59h1.48L89,47.43H87.92L85,39.5h1.48Z"/><path class="cls-1" d="M96.41,47.58a3.33,3.33,0,0,1-2.66-1.09,4.2,4.2,0,0,1-1-2.87v-.33a4.11,4.11,0,0,1,1-2.82,3.08,3.08,0,0,1,2.4-1.12,2.89,2.89,0,0,1,2.39,1A4.08,4.08,0,0,1,99.36,43v.76H94.29l0,0a3.3,3.3,0,0,0,.53,1.94,1.85,1.85,0,0,0,1.61.74,3.54,3.54,0,0,0,1.28-.21,2.9,2.9,0,0,0,1-.57l.57.94a3.68,3.68,0,0,1-1.12.69A4.48,4.48,0,0,1,96.41,47.58Zm-.23-7.09a1.57,1.57,0,0,0-1.25.58,2.75,2.75,0,0,0-.6,1.49v0h3.58v-.12a2.29,2.29,0,0,0-.43-1.43A1.54,1.54,0,0,0,96.18,40.49Z"/><path class="cls-1" d="M106.71,37.59V39.5h1.51v1.07h-1.51v4.81a1.13,1.13,0,0,0,.23.79.86.86,0,0,0,.62.22l.27,0,.26-.07.2,1a1.34,1.34,0,0,1-.48.22,2.64,2.64,0,0,1-.62.08,1.88,1.88,0,0,1-1.4-.53,2.31,2.31,0,0,1-.52-1.67V40.57H104V39.5h1.26V37.59Z"/><path class="cls-1" d="M109.42,43.39a4.35,4.35,0,0,1,1-2.9,3.51,3.51,0,0,1,5.18,0,4.34,4.34,0,0,1,1,2.9v.16a4.36,4.36,0,0,1-1,2.9,3.54,3.54,0,0,1-5.19,0,4.34,4.34,0,0,1-1-2.9Zm1.45.16a3.72,3.72,0,0,0,.53,2.08,1.91,1.91,0,0,0,3.14,0,3.72,3.72,0,0,0,.54-2.08v-.16a3.71,3.71,0,0,0-.54-2.07,1.78,1.78,0,0,0-1.58-.83,1.73,1.73,0,0,0-1.56.83,3.7,3.7,0,0,0-.53,2.07Z"/><path class="cls-1" d="M120.82,42.42l1.68-2.92h1.69l-2.57,3.92,2.64,4h-1.65l-1.76-3-1.76,3h-1.67l2.65-4L117.5,39.5h1.66Z"/><path class="cls-1" d="M127.24,37.47h-1.45V36h1.45Zm0,10h-1.45V39.5h1.45Z"/><path class="cls-1" d="M130.74,39.5l.11,1.18a2.81,2.81,0,0,1,1-1,2.67,2.67,0,0,1,1.36-.35,2.56,2.56,0,0,1,2,.76,3.28,3.28,0,0,1,.71,2.31v5h-1.45v-5A2.1,2.1,0,0,0,134,41a1.64,1.64,0,0,0-1.26-.44,2.34,2.34,0,0,0-1.14.26,2,2,0,0,0-.73.75v5.89h-1.44V39.5Z"/><path class="cls-1" d="M142.59,45.29a1,1,0,0,0-.36-.77,3.53,3.53,0,0,0-1.38-.53,5.8,5.8,0,0,1-2.15-.84A1.71,1.71,0,0,1,138,41.7a2.1,2.1,0,0,1,.83-1.66,3.21,3.21,0,0,1,2.13-.69,3.16,3.16,0,0,1,2.18.74,2.06,2.06,0,0,1,.8,1.7v.05H142.5a1.25,1.25,0,0,0-.45-.93,1.61,1.61,0,0,0-1.14-.42,1.64,1.64,0,0,0-1.14.34,1.09,1.09,0,0,0-.38.82.86.86,0,0,0,.33.73,3.65,3.65,0,0,0,1.34.47,5.58,5.58,0,0,1,2.22.87,1.77,1.77,0,0,1,.75,1.47,2.06,2.06,0,0,1-.85,1.72,4.07,4.07,0,0,1-4.62-.1,2.19,2.19,0,0,1-.83-1.79l0-.05h1.37a1.38,1.38,0,0,0,.57,1.13,2.29,2.29,0,0,0,1.26.35,2,2,0,0,0,1.2-.32A1,1,0,0,0,142.59,45.29Z"/><path class="cls-1" d="M147.4,47.43H146V46h1.44Z"/><line class="cls-2" x1="43.49" y1="165.46" x2="9.9" y2="69.95"/><ellipse class="cls-1" cx="9.9" cy="69.95" rx="3.98" ry="3.92" transform="translate(-44.65 25.06) rotate(-42.5)"/></g></g></svg>