<svg xmlns="http://www.w3.org/2000/svg" viewBox="0 0 268.26 110.66"><defs><style>.cls-1{fill:#fcfcfc;}.cls-2{fill:none;stroke:#fff;stroke-miterlimit:10;}.cls-3{fill:#fff;}</style></defs><title>text11</title><g id="Layer_2" data-name="Layer 2"><g id="Layer_1-2" data-name="Layer 1"><path class="cls-1" d="M5.15,77.22H1.94l-.76,2.2H0l3.08-8.53h1l3,8.53H5.9Zm-2.88-1H4.82L3.58,72.6h0Z"/><path class="cls-1" d="M13.59,76.49a3.46,3.46,0,0,1-.66,2.21,2.18,2.18,0,0,1-1.81.84A2.35,2.35,0,0,1,10,79.3a2.1,2.1,0,0,1-.77-.74l-.19.86H8.17V70.28H9.33v3.55a2,2,0,0,1,.74-.64,2.23,2.23,0,0,1,1-.23,2.13,2.13,0,0,1,1.83.94,4.22,4.22,0,0,1,.66,2.47Zm-1.16-.12a3.48,3.48,0,0,0-.4-1.78,1.32,1.32,0,0,0-1.22-.69,1.56,1.56,0,0,0-.9.26,1.9,1.9,0,0,0-.58.7v2.75a1.87,1.87,0,0,0,.58.73,1.49,1.49,0,0,0,.91.27A1.4,1.4,0,0,0,12,78a2.72,2.72,0,0,0,.39-1.54Z"/><path class="cls-1" d="M14.72,76.19a3.46,3.46,0,0,1,.77-2.31A2.53,2.53,0,0,1,17.55,73a2.61,2.61,0,0,1,2.09.91,3.49,3.49,0,0,1,.76,2.32v.13a3.45,3.45,0,0,1-.76,2.32,2.58,2.58,0,0,1-2.07.9,2.58,2.58,0,0,1-2.08-.9,3.47,3.47,0,0,1-.77-2.32Zm1.16.13A3.07,3.07,0,0,0,16.3,78a1.44,1.44,0,0,0,1.27.65A1.4,1.4,0,0,0,18.82,78a3,3,0,0,0,.43-1.67v-.13a3.08,3.08,0,0,0-.43-1.66,1.42,1.42,0,0,0-1.27-.66,1.4,1.4,0,0,0-1.25.66,3.08,3.08,0,0,0-.42,1.66Z"/><path class="cls-1" d="M25.84,78.48a2.16,2.16,0,0,1-.77.79,2.11,2.11,0,0,1-1.08.27,2.05,2.05,0,0,1-1.62-.66,3.05,3.05,0,0,1-.58-2.06V73.08H23v3.75a2.39,2.39,0,0,0,.29,1.4,1.13,1.13,0,0,0,.94.38,1.94,1.94,0,0,0,1-.25,1.57,1.57,0,0,0,.61-.71V73.08H27v6.34h-1Z"/><path class="cls-1" d="M30.24,71.55v1.53h1.2v.86h-1.2v3.85a.87.87,0,0,0,.18.62.7.7,0,0,0,.49.19l.23,0,.2-.06.16.79a1.12,1.12,0,0,1-.38.18,2.14,2.14,0,0,1-.5.06,1.51,1.51,0,0,1-1.12-.42,1.83,1.83,0,0,1-.41-1.33V73.94h-1v-.86h1V71.55Z"/><path class="cls-1" d="M35.85,75.63l.49-4.74h4.27v1h-3.3L37,74.37a2.4,2.4,0,0,1,.61-.34,2.2,2.2,0,0,1,.76-.13,2.3,2.3,0,0,1,1.85.74,3,3,0,0,1,.67,2.06,3.05,3.05,0,0,1-.68,2.07,2.57,2.57,0,0,1-2,.77A2.74,2.74,0,0,1,36.43,79a2,2,0,0,1-.69-1.74v0h1a1.43,1.43,0,0,0,.4,1.08,1.46,1.46,0,0,0,1,.38,1.37,1.37,0,0,0,1.14-.51,2.32,2.32,0,0,0,.4-1.42,2,2,0,0,0-.41-1.31,1.37,1.37,0,0,0-1.13-.51,1.82,1.82,0,0,0-1,.21,1.21,1.21,0,0,0-.45.63Z"/><path class="cls-1" d="M50.8,76.49a3.46,3.46,0,0,1-.66,2.21,2.16,2.16,0,0,1-1.81.84,2.48,2.48,0,0,1-1-.19,2,2,0,0,1-.76-.59v3.1H45.4V73.08h.88l.18.82a2.17,2.17,0,0,1,.78-.7A2.32,2.32,0,0,1,48.32,73a2.13,2.13,0,0,1,1.83.94,4.27,4.27,0,0,1,.65,2.47Zm-1.15-.12a3.36,3.36,0,0,0-.43-1.77A1.36,1.36,0,0,0,48,73.9a1.56,1.56,0,0,0-.85.23,1.71,1.71,0,0,0-.57.62v3.06a1.68,1.68,0,0,0,.57.61,1.57,1.57,0,0,0,.86.22,1.41,1.41,0,0,0,1.24-.6,2.58,2.58,0,0,0,.43-1.55Z"/><path class="cls-1" d="M54.84,79.54a2.69,2.69,0,0,1-2.13-.87,3.36,3.36,0,0,1-.76-2.3v-.25a3.26,3.26,0,0,1,.79-2.26,2.44,2.44,0,0,1,1.92-.9,2.3,2.3,0,0,1,1.91.8,3.25,3.25,0,0,1,.64,2.1v.61H53.15l0,0a2.65,2.65,0,0,0,.42,1.55,1.51,1.51,0,0,0,1.29.59,2.93,2.93,0,0,0,1-.16,2.49,2.49,0,0,0,.76-.46l.45.75a2.82,2.82,0,0,1-.89.55A3.64,3.64,0,0,1,54.84,79.54Zm-.18-5.67a1.27,1.27,0,0,0-1,.47,2.25,2.25,0,0,0-.48,1.19v0h2.86v-.09a1.85,1.85,0,0,0-.34-1.15A1.24,1.24,0,0,0,54.66,73.87Z"/><path class="cls-1" d="M61.5,74.1l-.59,0a1.34,1.34,0,0,0-.77.21,1.49,1.49,0,0,0-.49.61v4.53H58.5V73.08h1l.11.93a2.12,2.12,0,0,1,.67-.77,1.58,1.58,0,0,1,.91-.28.93.93,0,0,1,.24,0l.2,0Z"/><path class="cls-1" d="M65.11,78.64a1.38,1.38,0,0,0,.93-.35,1.12,1.12,0,0,0,.4-.87h1l0,0a1.82,1.82,0,0,1-.7,1.46,2.52,2.52,0,0,1-1.69.63,2.49,2.49,0,0,1-2.06-.9,3.49,3.49,0,0,1-.73-2.27v-.24a3.44,3.44,0,0,1,.73-2.25A2.49,2.49,0,0,1,65.11,73a2.38,2.38,0,0,1,1.74.66,2.08,2.08,0,0,1,.65,1.61v0h-1a1.41,1.41,0,0,0-.38-1,1.25,1.25,0,0,0-1-.41,1.33,1.33,0,0,0-1.24.66,3.08,3.08,0,0,0-.39,1.6v.24A3.24,3.24,0,0,0,63.86,78,1.36,1.36,0,0,0,65.11,78.64Z"/><path class="cls-1" d="M71.5,79.54a2.69,2.69,0,0,1-2.13-.87,3.36,3.36,0,0,1-.77-2.3v-.25a3.26,3.26,0,0,1,.79-2.26,2.47,2.47,0,0,1,1.92-.9,2.3,2.3,0,0,1,1.91.8,3.19,3.19,0,0,1,.64,2.1v.61H69.8v0a2.65,2.65,0,0,0,.42,1.55,1.48,1.48,0,0,0,1.29.59,2.88,2.88,0,0,0,1-.16,2.49,2.49,0,0,0,.76-.46l.45.75a2.82,2.82,0,0,1-.89.55A3.58,3.58,0,0,1,71.5,79.54Zm-.19-5.67a1.24,1.24,0,0,0-1,.47,2.18,2.18,0,0,0-.49,1.19v0H72.7v-.09a1.85,1.85,0,0,0-.34-1.15A1.21,1.21,0,0,0,71.31,73.87Z"/><path class="cls-1" d="M76.18,73.08l.09,1a2.3,2.3,0,0,1,.79-.79A2.18,2.18,0,0,1,78.15,73a2,2,0,0,1,1.58.61,2.59,2.59,0,0,1,.57,1.85v4H79.14v-4a1.73,1.73,0,0,0-.33-1.19,1.34,1.34,0,0,0-1-.35,1.69,1.69,0,0,0-.9.22,1.48,1.48,0,0,0-.59.6v4.7H75.15V73.08Z"/><path class="cls-1" d="M83.58,71.55v1.53h1.2v.86h-1.2v3.85a.87.87,0,0,0,.18.62.7.7,0,0,0,.49.19l.22,0,.21-.06.16.79a1.22,1.22,0,0,1-.38.18,2.2,2.2,0,0,1-.5.06,1.51,1.51,0,0,1-1.12-.42,1.83,1.83,0,0,1-.42-1.33V73.94h-1v-.86h1V71.55Z"/><path class="cls-1" d="M88.73,76.19a3.46,3.46,0,0,1,.76-2.31A2.56,2.56,0,0,1,91.56,73a2.59,2.59,0,0,1,2.08.91,3.49,3.49,0,0,1,.77,2.32v.13a3.45,3.45,0,0,1-.77,2.32,2.55,2.55,0,0,1-2.07.9,2.6,2.6,0,0,1-2.08-.9,3.47,3.47,0,0,1-.76-2.32Zm1.15.13A3,3,0,0,0,90.31,78a1.54,1.54,0,0,0,2.51,0,3,3,0,0,0,.43-1.67v-.13a3,3,0,0,0-.43-1.66,1.42,1.42,0,0,0-1.26-.66,1.39,1.39,0,0,0-1.25.66,3,3,0,0,0-.43,1.66Z"/><path class="cls-1" d="M96.3,79.42V73.94h-1v-.86h1v-.8a2.19,2.19,0,0,1,.53-1.57,2,2,0,0,1,1.48-.55,2.69,2.69,0,0,1,.4,0l.45.09-.14.88-.26,0-.31,0a.9.9,0,0,0-.75.3,1.4,1.4,0,0,0-.25.88v.8H98.6v.86H97.45v5.48Z"/><path class="cls-1" d="M107.31,77.22H104.1l-.76,2.2h-1.18l3.08-8.53h1l3,8.53h-1.18Zm-2.87-1H107l-1.25-3.66h0Z"/><path class="cls-1" d="M111.37,73.08l.08.83a2.21,2.21,0,0,1,.79-.7,2.45,2.45,0,0,1,1.11-.25,2,2,0,0,1,1.09.3,1.75,1.75,0,0,1,.68.88,2.35,2.35,0,0,1,.79-.86,2.09,2.09,0,0,1,1.15-.32,1.93,1.93,0,0,1,1.53.67,3.06,3.06,0,0,1,.56,2v3.79H118v-3.8a2.07,2.07,0,0,0-.33-1.33,1.16,1.16,0,0,0-1-.39,1.25,1.25,0,0,0-1,.41,1.88,1.88,0,0,0-.43,1v4.07h-1.16v-3.8a2.07,2.07,0,0,0-.33-1.3,1.14,1.14,0,0,0-1-.42,1.56,1.56,0,0,0-.87.22,1.42,1.42,0,0,0-.52.61v4.69h-1.15V73.08Z"/><path class="cls-1" d="M123.45,79.54a2.69,2.69,0,0,1-2.13-.87,3.36,3.36,0,0,1-.76-2.3v-.25a3.3,3.3,0,0,1,.78-2.26,2.48,2.48,0,0,1,1.93-.9,2.31,2.31,0,0,1,1.91.8,3.25,3.25,0,0,1,.63,2.1v.61h-4l0,0a2.65,2.65,0,0,0,.42,1.55,1.48,1.48,0,0,0,1.29.59,3,3,0,0,0,1-.16,2.61,2.61,0,0,0,.76-.46l.45.75a3,3,0,0,1-.9.55A3.58,3.58,0,0,1,123.45,79.54Zm-.18-5.67a1.26,1.26,0,0,0-1,.47,2.25,2.25,0,0,0-.48,1.19v0h2.86v-.09a1.91,1.91,0,0,0-.34-1.15A1.24,1.24,0,0,0,123.27,73.87Z"/><path class="cls-1" d="M130.11,74.1l-.59,0a1.32,1.32,0,0,0-.77.21,1.49,1.49,0,0,0-.49.61v4.53h-1.15V73.08h1l.11.93a2.12,2.12,0,0,1,.67-.77,1.56,1.56,0,0,1,.91-.28,1,1,0,0,1,.24,0l.2,0Z"/><path class="cls-1" d="M132.56,71.46H131.4V70.28h1.16Zm0,8H131.4V73.08h1.16Z"/><path class="cls-1" d="M136.85,78.64a1.36,1.36,0,0,0,.93-.35,1.12,1.12,0,0,0,.4-.87h1l0,0a1.82,1.82,0,0,1-.7,1.46,2.52,2.52,0,0,1-1.69.63,2.49,2.49,0,0,1-2.06-.9,3.49,3.49,0,0,1-.73-2.27v-.24a3.49,3.49,0,0,1,.73-2.25,2.49,2.49,0,0,1,2.06-.92,2.38,2.38,0,0,1,1.74.66,2.08,2.08,0,0,1,.65,1.61v0h-1a1.37,1.37,0,0,0-.38-1,1.25,1.25,0,0,0-1-.41,1.34,1.34,0,0,0-1.24.66,3.08,3.08,0,0,0-.39,1.6v.24a3.13,3.13,0,0,0,.39,1.62A1.33,1.33,0,0,0,136.85,78.64Z"/><path class="cls-1" d="M144.51,79.42q-.06-.28-.09-.51a3.13,3.13,0,0,1,0-.44,2.6,2.6,0,0,1-.84.77,2.21,2.21,0,0,1-1.12.3,2,2,0,0,1-1.5-.5,1.86,1.86,0,0,1-.52-1.4,1.62,1.62,0,0,1,.73-1.42,3.46,3.46,0,0,1,2-.51h1.25v-.63a1.14,1.14,0,0,0-.34-.88,1.33,1.33,0,0,0-1-.33,1.45,1.45,0,0,0-.91.28.86.86,0,0,0-.34.68h-1.1v0a1.5,1.5,0,0,1,.65-1.26,3,3,0,0,1,3.51,0,1.94,1.94,0,0,1,.66,1.58v3q0,.35,0,.66a3.25,3.25,0,0,0,.13.62Zm-1.92-.84a2.07,2.07,0,0,0,1.13-.32,1.57,1.57,0,0,0,.66-.74v-1h-1.29a1.65,1.65,0,0,0-1.12.35,1,1,0,0,0-.42.82.87.87,0,0,0,.26.67A1.09,1.09,0,0,0,142.59,78.58Z"/><path class="cls-1" d="M148.24,73.08l.08,1a2.41,2.41,0,0,1,.8-.79,2.18,2.18,0,0,1,1.09-.28,2,2,0,0,1,1.58.61,2.59,2.59,0,0,1,.57,1.85v4H151.2v-4a1.73,1.73,0,0,0-.33-1.19,1.34,1.34,0,0,0-1-.35,1.73,1.73,0,0,0-.91.22,1.52,1.52,0,0,0-.58.6v4.7h-1.16V73.08Z"/><path class="cls-1" d="M157.72,77.72a.77.77,0,0,0-.29-.62,2.81,2.81,0,0,0-1.1-.43,4.57,4.57,0,0,1-1.72-.67,1.37,1.37,0,0,1-.6-1.16,1.65,1.65,0,0,1,.66-1.32,2.88,2.88,0,0,1,3.45,0,1.67,1.67,0,0,1,.64,1.37v0h-1.1a1,1,0,0,0-.36-.74,1.27,1.27,0,0,0-.91-.34,1.32,1.32,0,0,0-.92.28.85.85,0,0,0-.3.65.7.7,0,0,0,.26.58,2.85,2.85,0,0,0,1.08.38,4.46,4.46,0,0,1,1.77.7,1.4,1.4,0,0,1,.6,1.17,1.67,1.67,0,0,1-.68,1.38,3.29,3.29,0,0,1-3.7-.08,1.78,1.78,0,0,1-.66-1.44v0H155a1.05,1.05,0,0,0,.45.9,1.77,1.77,0,0,0,1,.28,1.55,1.55,0,0,0,1-.26A.79.79,0,0,0,157.72,77.72Z"/><path class="cls-1" d="M164.89,71.55v1.53h1.21v.86h-1.21v3.85a.87.87,0,0,0,.19.62.68.68,0,0,0,.49.19l.22,0,.21-.06.15.79a1,1,0,0,1-.38.18,2.05,2.05,0,0,1-.49.06,1.49,1.49,0,0,1-1.12-.42,1.83,1.83,0,0,1-.42-1.33V73.94h-1v-.86h1V71.55Z"/><path class="cls-1" d="M171.23,79.42q-.06-.28-.09-.51a3.13,3.13,0,0,1,0-.44,2.82,2.82,0,0,1-.84.77,2.21,2.21,0,0,1-1.12.3,2.07,2.07,0,0,1-1.51-.5,1.9,1.9,0,0,1-.51-1.4,1.62,1.62,0,0,1,.73-1.42,3.46,3.46,0,0,1,2-.51h1.25v-.63a1.14,1.14,0,0,0-.34-.88,1.33,1.33,0,0,0-1-.33,1.43,1.43,0,0,0-.91.28.87.87,0,0,0-.35.68h-1.09v0a1.51,1.51,0,0,1,.64-1.26,2.72,2.72,0,0,1,1.78-.58,2.67,2.67,0,0,1,1.74.55,1.93,1.93,0,0,1,.65,1.58v3c0,.23,0,.45,0,.66a3.25,3.25,0,0,0,.13.62Zm-1.92-.84a2.07,2.07,0,0,0,1.13-.32,1.57,1.57,0,0,0,.66-.74v-1h-1.3a1.64,1.64,0,0,0-1.11.35,1,1,0,0,0-.42.82.87.87,0,0,0,.26.67A1.09,1.09,0,0,0,169.31,78.58Z"/><path class="cls-1" d="M175.68,76.5h-.59v2.92h-1.15V70.28h1.15v5.3h.58l1.9-2.5H179L176.65,76l2.51,3.41h-1.37Z"/><path class="cls-1" d="M182.59,79.54a2.69,2.69,0,0,1-2.13-.87,3.36,3.36,0,0,1-.76-2.3v-.25a3.3,3.3,0,0,1,.78-2.26,2.48,2.48,0,0,1,1.93-.9,2.31,2.31,0,0,1,1.91.8,3.25,3.25,0,0,1,.63,2.1v.61h-4l0,0a2.65,2.65,0,0,0,.42,1.55,1.48,1.48,0,0,0,1.29.59,3,3,0,0,0,1-.16,2.61,2.61,0,0,0,.76-.46l.45.75a3,3,0,0,1-.9.55A3.58,3.58,0,0,1,182.59,79.54Zm-.18-5.67a1.26,1.26,0,0,0-1,.47,2.17,2.17,0,0,0-.48,1.19v0h2.86v-.09a1.91,1.91,0,0,0-.34-1.15A1.24,1.24,0,0,0,182.41,73.87Z"/><path class="cls-1" d="M4.27,92.12A.77.77,0,0,0,4,91.5a2.9,2.9,0,0,0-1.1-.43,4.64,4.64,0,0,1-1.72-.67,1.37,1.37,0,0,1-.6-1.16,1.65,1.65,0,0,1,.66-1.32,2.57,2.57,0,0,1,1.71-.56A2.57,2.57,0,0,1,4.68,88a1.69,1.69,0,0,1,.63,1.37v0H4.2a1,1,0,0,0-.36-.74,1.25,1.25,0,0,0-.91-.34,1.27,1.27,0,0,0-.91.28.85.85,0,0,0-.3.65.67.67,0,0,0,.26.58,2.72,2.72,0,0,0,1.07.38,4.46,4.46,0,0,1,1.77.7A1.41,1.41,0,0,1,5.43,92a1.65,1.65,0,0,1-.69,1.38A2.78,2.78,0,0,1,3,94a2.78,2.78,0,0,1-1.91-.62,1.72,1.72,0,0,1-.66-1.44v0H1.5a1.06,1.06,0,0,0,.46.9A1.75,1.75,0,0,0,3,93a1.59,1.59,0,0,0,1-.26A.77.77,0,0,0,4.27,92.12Z"/><path class="cls-1" d="M8.11,93.82H7V84.68H8.11Z"/><path class="cls-1" d="M12.51,94a2.69,2.69,0,0,1-2.13-.88,3.35,3.35,0,0,1-.76-2.29v-.26a3.3,3.3,0,0,1,.78-2.26,2.48,2.48,0,0,1,1.93-.9,2.31,2.31,0,0,1,1.91.8,3.25,3.25,0,0,1,.63,2.1v.61h-4l0,0a2.65,2.65,0,0,0,.42,1.55,1.48,1.48,0,0,0,1.29.59,2.75,2.75,0,0,0,1-.17,2.39,2.39,0,0,0,.76-.45l.45.75a3,3,0,0,1-.9.55A3.57,3.57,0,0,1,12.51,94Zm-.18-5.68a1.26,1.26,0,0,0-1,.47,2.17,2.17,0,0,0-.48,1.19v0h2.86v-.09a1.93,1.93,0,0,0-.34-1.15A1.24,1.24,0,0,0,12.33,88.27Z"/><path class="cls-1" d="M18.79,94a2.69,2.69,0,0,1-2.13-.88,3.35,3.35,0,0,1-.76-2.29v-.26a3.3,3.3,0,0,1,.78-2.26,2.48,2.48,0,0,1,1.93-.9,2.31,2.31,0,0,1,1.91.8,3.25,3.25,0,0,1,.63,2.1v.61h-4l0,0a2.65,2.65,0,0,0,.42,1.55,1.48,1.48,0,0,0,1.29.59,2.75,2.75,0,0,0,1-.17,2.39,2.39,0,0,0,.76-.45l.45.75a3,3,0,0,1-.9.55A3.57,3.57,0,0,1,18.79,94Zm-.18-5.68a1.26,1.26,0,0,0-1,.47,2.25,2.25,0,0,0-.48,1.19v0H20v-.09a1.93,1.93,0,0,0-.34-1.15A1.24,1.24,0,0,0,18.61,88.27Z"/><path class="cls-1" d="M27.85,90.89a3.46,3.46,0,0,1-.66,2.21,2.17,2.17,0,0,1-1.81.85,2.56,2.56,0,0,1-1-.2,2,2,0,0,1-.75-.59v3.1H22.45V87.48h.88l.18.82a2.14,2.14,0,0,1,.78-.69,2.33,2.33,0,0,1,1.08-.25,2.13,2.13,0,0,1,1.83.94,4.27,4.27,0,0,1,.65,2.47Zm-1.15-.12A3.36,3.36,0,0,0,26.27,89,1.36,1.36,0,0,0,25,88.3a1.54,1.54,0,0,0-.85.23,1.71,1.71,0,0,0-.57.62v3.06a1.68,1.68,0,0,0,.57.61A1.55,1.55,0,0,0,25,93a1.41,1.41,0,0,0,1.24-.6,2.63,2.63,0,0,0,.43-1.55Z"/><path class="cls-1" d="M30.52,85.86H29.36V84.68h1.16Zm0,8H29.36V87.48h1.16Z"/><path class="cls-1" d="M33.32,87.48l.08,1a2.41,2.41,0,0,1,.8-.79,2.18,2.18,0,0,1,1.09-.28,2.05,2.05,0,0,1,1.58.6,2.62,2.62,0,0,1,.57,1.86v4H36.28v-4A1.73,1.73,0,0,0,36,88.65a1.34,1.34,0,0,0-1-.35,1.73,1.73,0,0,0-.91.22,1.52,1.52,0,0,0-.58.6v4.7H32.29V87.48Z"/><path class="cls-1" d="M38.91,90.77a4.22,4.22,0,0,1,.65-2.47,2.11,2.11,0,0,1,1.82-.94,2.28,2.28,0,0,1,1.07.25,2,2,0,0,1,.76.7l.14-.83h.92v6.38a2.4,2.4,0,0,1-.71,1.87,2.92,2.92,0,0,1-2,.65,4.52,4.52,0,0,1-1-.12,3.91,3.91,0,0,1-.93-.35l.17-.89a3.64,3.64,0,0,0,.81.28,4.22,4.22,0,0,0,.93.11A1.72,1.72,0,0,0,42.74,95a1.63,1.63,0,0,0,.38-1.17v-.72a2.23,2.23,0,0,1-.74.6,2.31,2.31,0,0,1-1,.21,2.18,2.18,0,0,1-1.81-.85,3.46,3.46,0,0,1-.65-2.21Zm1.15.12a2.72,2.72,0,0,0,.39,1.54,1.38,1.38,0,0,0,1.22.58,1.53,1.53,0,0,0,.87-.24,1.82,1.82,0,0,0,.58-.67V89.18a1.79,1.79,0,0,0-.58-.64,1.52,1.52,0,0,0-.86-.24,1.31,1.31,0,0,0-1.22.69,3.48,3.48,0,0,0-.4,1.78Z"/><path class="cls-1" d="M54.32,90.89a3.46,3.46,0,0,1-.66,2.21,2.18,2.18,0,0,1-1.81.85,2.56,2.56,0,0,1-1-.2,2,2,0,0,1-.75-.59v3.1H48.91V87.48h.89l.18.82a2.2,2.2,0,0,1,.77-.69,2.33,2.33,0,0,1,1.08-.25,2.1,2.1,0,0,1,1.83.94,4.2,4.2,0,0,1,.66,2.47Zm-1.16-.12A3.36,3.36,0,0,0,52.74,89a1.37,1.37,0,0,0-1.25-.7,1.52,1.52,0,0,0-.85.23,1.56,1.56,0,0,0-.57.62v3.06a1.53,1.53,0,0,0,.57.61,1.55,1.55,0,0,0,.86.22,1.42,1.42,0,0,0,1.24-.6,2.63,2.63,0,0,0,.42-1.55Z"/><path class="cls-1" d="M57,85.86H55.83V84.68H57Zm0,8H55.83V87.48H57Z"/><path class="cls-1" d="M60,93.82H58.85V84.68H60Z"/><path class="cls-1" d="M63,93.82H61.88V84.68H63Z"/><path class="cls-1" d="M68.49,92.12a.77.77,0,0,0-.29-.62,2.9,2.9,0,0,0-1.1-.43,4.64,4.64,0,0,1-1.72-.67,1.37,1.37,0,0,1-.6-1.16,1.65,1.65,0,0,1,.66-1.32,2.57,2.57,0,0,1,1.71-.56,2.53,2.53,0,0,1,1.74.59,1.67,1.67,0,0,1,.64,1.37v0h-1.1a1,1,0,0,0-.36-.74,1.25,1.25,0,0,0-.91-.34,1.27,1.27,0,0,0-.91.28.85.85,0,0,0-.3.65.67.67,0,0,0,.26.58,2.72,2.72,0,0,0,1.07.38,4.46,4.46,0,0,1,1.77.7,1.4,1.4,0,0,1,.6,1.17A1.64,1.64,0,0,1,69,93.41a3.23,3.23,0,0,1-3.69-.08,1.72,1.72,0,0,1-.66-1.44v0h1.1a1.06,1.06,0,0,0,.46.9,1.73,1.73,0,0,0,1,.28,1.59,1.59,0,0,0,1-.26A.79.79,0,0,0,68.49,92.12Z"/><path class="cls-1" d="M72.09,93.54l-.88,1.79h-.69l.41-1.85v-1h1.16Z"/><path class="cls-1" d="M80.33,93.82q-.06-.28-.09-.51a2.12,2.12,0,0,1,0-.44,2.82,2.82,0,0,1-.84.77,2.22,2.22,0,0,1-1.12.31,2.07,2.07,0,0,1-1.51-.51,1.9,1.9,0,0,1-.52-1.4A1.64,1.64,0,0,1,77,90.62a3.43,3.43,0,0,1,2-.51H80.2v-.63a1.17,1.17,0,0,0-.34-.88,1.33,1.33,0,0,0-1-.33,1.43,1.43,0,0,0-.91.28.87.87,0,0,0-.35.68H76.55v0a1.49,1.49,0,0,1,.64-1.26A2.7,2.7,0,0,1,79,87.36a2.67,2.67,0,0,1,1.74.55,2,2,0,0,1,.65,1.58v3.05a4.68,4.68,0,0,0,0,.66,2.63,2.63,0,0,0,.13.62ZM78.41,93a2.07,2.07,0,0,0,1.13-.32,1.53,1.53,0,0,0,.66-.74v-1H78.9a1.64,1.64,0,0,0-1.11.35,1,1,0,0,0-.42.82.87.87,0,0,0,.26.67A1.09,1.09,0,0,0,78.41,93Z"/><path class="cls-1" d="M91.41,90.89a3.52,3.52,0,0,1-.65,2.21A2.19,2.19,0,0,1,89,94a2.49,2.49,0,0,1-1-.2,2,2,0,0,1-.76-.59v3.1H86V87.48h.88l.19.82a2,2,0,0,1,.77-.69,2.33,2.33,0,0,1,1.08-.25,2.13,2.13,0,0,1,1.83.94,4.27,4.27,0,0,1,.65,2.47Zm-1.15-.12A3.27,3.27,0,0,0,89.83,89a1.36,1.36,0,0,0-1.25-.7,1.56,1.56,0,0,0-.85.23,1.71,1.71,0,0,0-.57.62v3.06a1.68,1.68,0,0,0,.57.61,1.57,1.57,0,0,0,.86.22,1.44,1.44,0,0,0,1.25-.6,2.63,2.63,0,0,0,.42-1.55Z"/><path class="cls-1" d="M95.46,94a2.67,2.67,0,0,1-2.13-.88,3.36,3.36,0,0,1-.77-2.29v-.26a3.26,3.26,0,0,1,.79-2.26,2.46,2.46,0,0,1,1.92-.9,2.3,2.3,0,0,1,1.91.8,3.25,3.25,0,0,1,.64,2.1v.61H93.76l0,0a2.58,2.58,0,0,0,.43,1.55,1.48,1.48,0,0,0,1.29.59,2.66,2.66,0,0,0,1-.17,2.29,2.29,0,0,0,.76-.45l.45.75a2.82,2.82,0,0,1-.89.55A3.57,3.57,0,0,1,95.46,94Zm-.19-5.68a1.27,1.27,0,0,0-1,.47,2.25,2.25,0,0,0-.48,1.19v0h2.86v-.09a1.87,1.87,0,0,0-.34-1.15A1.21,1.21,0,0,0,95.27,88.27Z"/><path class="cls-1" d="M102.11,88.5l-.59,0a1.34,1.34,0,0,0-.77.21,1.4,1.4,0,0,0-.48.61v4.53H99.11V87.48h1l.11.93a2.21,2.21,0,0,1,.67-.77,1.58,1.58,0,0,1,.91-.28l.25,0,.19.05Z"/><path class="cls-1" d="M105.72,93a1.36,1.36,0,0,0,.93-.35,1.12,1.12,0,0,0,.4-.87h1l0,0a1.83,1.83,0,0,1-.7,1.46,2.52,2.52,0,0,1-1.69.64,2.5,2.5,0,0,1-2.06-.91,3.48,3.48,0,0,1-.73-2.26v-.25a3.44,3.44,0,0,1,.73-2.25,2.49,2.49,0,0,1,2.06-.92,2.38,2.38,0,0,1,1.74.66,2.08,2.08,0,0,1,.65,1.61v0h-1a1.41,1.41,0,0,0-.38-1,1.25,1.25,0,0,0-1-.41,1.33,1.33,0,0,0-1.24.66,3.08,3.08,0,0,0-.39,1.6v.25a3.12,3.12,0,0,0,.39,1.61A1.33,1.33,0,0,0,105.72,93Z"/><path class="cls-1" d="M112.11,94a2.69,2.69,0,0,1-2.13-.88,3.36,3.36,0,0,1-.77-2.29v-.26a3.31,3.31,0,0,1,.79-2.26,2.48,2.48,0,0,1,1.93-.9,2.29,2.29,0,0,1,1.9.8,3.19,3.19,0,0,1,.64,2.1v.61h-4.06v0a2.65,2.65,0,0,0,.42,1.55,1.48,1.48,0,0,0,1.29.59,2.75,2.75,0,0,0,1-.17,2.34,2.34,0,0,0,.75-.45l.46.75a3,3,0,0,1-.9.55A3.57,3.57,0,0,1,112.11,94Zm-.18-5.68a1.25,1.25,0,0,0-1,.47,2.18,2.18,0,0,0-.49,1.19l0,0h2.85v-.09a1.87,1.87,0,0,0-.34-1.15A1.21,1.21,0,0,0,111.93,88.27Z"/><path class="cls-1" d="M116.79,87.48l.09,1a2.3,2.3,0,0,1,.79-.79,2.18,2.18,0,0,1,1.09-.28,2.09,2.09,0,0,1,1.59.6,2.67,2.67,0,0,1,.56,1.86v4h-1.16v-4a1.73,1.73,0,0,0-.33-1.19,1.33,1.33,0,0,0-1-.35,1.69,1.69,0,0,0-.9.22,1.48,1.48,0,0,0-.59.6v4.7h-1.16V87.48Z"/><path class="cls-1" d="M124.19,86v1.53h1.2v.86h-1.2v3.85a.87.87,0,0,0,.18.62.66.66,0,0,0,.49.19l.23,0,.2-.06.16.79a1,1,0,0,1-.38.18,2.23,2.23,0,0,1-.5.07,1.51,1.51,0,0,1-1.12-.43,1.83,1.83,0,0,1-.41-1.33V88.34h-1v-.86h1V86Z"/><path class="cls-1" d="M130.52,93.82q-.06-.28-.09-.51c0-.14,0-.29,0-.44a2.6,2.6,0,0,1-.84.77,2.16,2.16,0,0,1-1.11.31,2.06,2.06,0,0,1-1.51-.51,1.86,1.86,0,0,1-.52-1.4,1.64,1.64,0,0,1,.74-1.42,3.43,3.43,0,0,1,2-.51h1.25v-.63a1.14,1.14,0,0,0-.34-.88,1.3,1.3,0,0,0-1-.33,1.42,1.42,0,0,0-.9.28.87.87,0,0,0-.35.68h-1.1v0a1.53,1.53,0,0,1,.65-1.26,2.7,2.7,0,0,1,1.78-.58,2.62,2.62,0,0,1,1.73.55,1.94,1.94,0,0,1,.66,1.58v3.05q0,.34,0,.66a4.26,4.26,0,0,0,.13.62ZM128.61,93a2.1,2.1,0,0,0,1.13-.32,1.55,1.55,0,0,0,.65-.74v-1H129.1a1.65,1.65,0,0,0-1.12.35,1,1,0,0,0-.42.82.85.85,0,0,0,.27.67A1.06,1.06,0,0,0,128.61,93Z"/><path class="cls-1" d="M133,90.77a4.29,4.29,0,0,1,.65-2.47,2.13,2.13,0,0,1,1.83-.94,2.27,2.27,0,0,1,1.06.25,2.14,2.14,0,0,1,.77.7l.14-.83h.92v6.38a2.43,2.43,0,0,1-.71,1.87,3,3,0,0,1-2.05.65,4.44,4.44,0,0,1-1-.12,3.83,3.83,0,0,1-.94-.35l.18-.89a3.55,3.55,0,0,0,.8.28,4.36,4.36,0,0,0,.93.11,1.72,1.72,0,0,0,1.23-.38,1.63,1.63,0,0,0,.38-1.17v-.72a2,2,0,0,1-.74.6,2.26,2.26,0,0,1-1,.21,2.19,2.19,0,0,1-1.82-.85,3.52,3.52,0,0,1-.65-2.21Zm1.15.12a2.65,2.65,0,0,0,.4,1.54,1.37,1.37,0,0,0,1.21.58,1.49,1.49,0,0,0,.87-.24,1.74,1.74,0,0,0,.58-.67V89.18a1.79,1.79,0,0,0-.58-.64,1.5,1.5,0,0,0-.86-.24,1.31,1.31,0,0,0-1.22.69,3.58,3.58,0,0,0-.4,1.78Z"/><path class="cls-1" d="M142.67,94a2.69,2.69,0,0,1-2.13-.88,3.35,3.35,0,0,1-.76-2.29v-.26a3.3,3.3,0,0,1,.78-2.26,2.48,2.48,0,0,1,1.93-.9,2.31,2.31,0,0,1,1.91.8,3.25,3.25,0,0,1,.63,2.1v.61H141l0,0a2.65,2.65,0,0,0,.42,1.55,1.48,1.48,0,0,0,1.29.59,2.75,2.75,0,0,0,1-.17,2.39,2.39,0,0,0,.76-.45l.45.75a3,3,0,0,1-.9.55A3.57,3.57,0,0,1,142.67,94Zm-.18-5.68a1.26,1.26,0,0,0-1,.47,2.17,2.17,0,0,0-.48,1.19v0h2.86v-.09a1.93,1.93,0,0,0-.34-1.15A1.24,1.24,0,0,0,142.49,88.27Z"/><path class="cls-1" d="M150.91,86v1.53h1.21v.86h-1.21v3.85a.87.87,0,0,0,.19.62.63.63,0,0,0,.49.19l.22,0,.21-.06.15.79a.9.9,0,0,1-.38.18,2.15,2.15,0,0,1-.5.07,1.49,1.49,0,0,1-1.11-.43,1.83,1.83,0,0,1-.42-1.33V88.34h-1v-.86h1V86Z"/><path class="cls-1" d="M154.51,88.33a2.27,2.27,0,0,1,.8-.71,2.22,2.22,0,0,1,1.06-.26A2.09,2.09,0,0,1,158,88a2.69,2.69,0,0,1,.56,1.88v4h-1.15v-4a1.66,1.66,0,0,0-.34-1.16,1.27,1.27,0,0,0-1-.38,2,2,0,0,0-.9.2,1.67,1.67,0,0,0-.61.57v4.75h-1.16V84.68h1.16Z"/><path class="cls-1" d="M164.07,93.82q-.06-.28-.09-.51a3.13,3.13,0,0,1,0-.44,2.82,2.82,0,0,1-.84.77A2.22,2.22,0,0,1,162,94a2.07,2.07,0,0,1-1.51-.51A1.9,1.9,0,0,1,160,92a1.64,1.64,0,0,1,.73-1.42,3.46,3.46,0,0,1,2-.51h1.25v-.63a1.14,1.14,0,0,0-.34-.88,1.33,1.33,0,0,0-1-.33,1.43,1.43,0,0,0-.91.28.87.87,0,0,0-.35.68h-1.09v0a1.51,1.51,0,0,1,.64-1.26,2.72,2.72,0,0,1,1.78-.58,2.67,2.67,0,0,1,1.74.55,1.93,1.93,0,0,1,.65,1.58v3.05c0,.23,0,.45,0,.66a3.25,3.25,0,0,0,.13.62ZM162.15,93a2.07,2.07,0,0,0,1.13-.32,1.53,1.53,0,0,0,.66-.74v-1h-1.3a1.64,1.64,0,0,0-1.11.35,1,1,0,0,0-.42.82.87.87,0,0,0,.26.67A1.09,1.09,0,0,0,162.15,93Z"/><path class="cls-1" d="M168.38,86v1.53h1.2v.86h-1.2v3.85a.87.87,0,0,0,.18.62.64.64,0,0,0,.49.19l.22,0,.21-.06.15.79a.9.9,0,0,1-.38.18,2.07,2.07,0,0,1-.49.07,1.5,1.5,0,0,1-1.12-.43,1.83,1.83,0,0,1-.42-1.33V88.34h-1v-.86h1V86Z"/><path class="cls-1" d="M175,88.33a2.46,2.46,0,0,1,.8-.71,2.25,2.25,0,0,1,1.06-.26,2.07,2.07,0,0,1,1.58.61,2.69,2.69,0,0,1,.57,1.88v4H177.8v-4a1.71,1.71,0,0,0-.33-1.16,1.3,1.3,0,0,0-1-.38,2,2,0,0,0-.9.2,1.75,1.75,0,0,0-.61.57v4.75h-1.16V84.68H175Z"/><path class="cls-1" d="M184.51,93.82q-.06-.28-.09-.51c0-.14,0-.29,0-.44a2.6,2.6,0,0,1-.84.77,2.19,2.19,0,0,1-1.11.31,2.06,2.06,0,0,1-1.51-.51,1.86,1.86,0,0,1-.52-1.4,1.64,1.64,0,0,1,.73-1.42,3.46,3.46,0,0,1,2-.51h1.25v-.63a1.14,1.14,0,0,0-.34-.88,1.3,1.3,0,0,0-1-.33,1.45,1.45,0,0,0-.91.28.86.86,0,0,0-.34.68h-1.1v0a1.5,1.5,0,0,1,.65-1.26,2.7,2.7,0,0,1,1.78-.58,2.64,2.64,0,0,1,1.73.55,1.94,1.94,0,0,1,.66,1.58v3.05q0,.34,0,.66a4.26,4.26,0,0,0,.13.62ZM182.6,93a2.12,2.12,0,0,0,1.13-.32,1.55,1.55,0,0,0,.65-.74v-1h-1.29a1.65,1.65,0,0,0-1.12.35,1,1,0,0,0-.42.82.85.85,0,0,0,.27.67A1.06,1.06,0,0,0,182.6,93Z"/><path class="cls-1" d="M190.9,92.12a.77.77,0,0,0-.29-.62,2.9,2.9,0,0,0-1.1-.43,4.57,4.57,0,0,1-1.72-.67,1.37,1.37,0,0,1-.6-1.16,1.65,1.65,0,0,1,.66-1.32,2.57,2.57,0,0,1,1.71-.56,2.53,2.53,0,0,1,1.74.59,1.67,1.67,0,0,1,.64,1.37v0h-1.1a1,1,0,0,0-.36-.74,1.49,1.49,0,0,0-1.82-.06.83.83,0,0,0-.31.65.7.7,0,0,0,.26.58,2.85,2.85,0,0,0,1.08.38,4.46,4.46,0,0,1,1.77.7,1.4,1.4,0,0,1,.6,1.17,1.64,1.64,0,0,1-.68,1.38,3.23,3.23,0,0,1-3.69-.08,1.76,1.76,0,0,1-.67-1.44l0,0h1.1a1.08,1.08,0,0,0,.45.9,1.78,1.78,0,0,0,1,.28,1.59,1.59,0,0,0,1-.26A.79.79,0,0,0,190.9,92.12Z"/><path class="cls-1" d="M.32,105.17A4.22,4.22,0,0,1,1,102.7a2.1,2.1,0,0,1,1.83-.94,2.17,2.17,0,0,1,1,.21,2,2,0,0,1,.74.6V99.08H5.68v9.14H4.8l-.18-.8a2.09,2.09,0,0,1-.76.69,2.28,2.28,0,0,1-1.07.23A2.17,2.17,0,0,1,1,107.5a3.46,3.46,0,0,1-.66-2.21Zm1.16.12a2.7,2.7,0,0,0,.39,1.54,1.38,1.38,0,0,0,1.22.58,1.53,1.53,0,0,0,.87-.24,1.73,1.73,0,0,0,.57-.65v-3a1.85,1.85,0,0,0-.58-.63,1.54,1.54,0,0,0-.85-.23,1.32,1.32,0,0,0-1.23.69,3.56,3.56,0,0,0-.39,1.78Z"/><path class="cls-1" d="M7.14,105a3.46,3.46,0,0,1,.76-2.31,2.56,2.56,0,0,1,2.07-.92,2.59,2.59,0,0,1,2.08.91,3.49,3.49,0,0,1,.76,2.32v.13a3.45,3.45,0,0,1-.76,2.32,2.58,2.58,0,0,1-2.07.9,2.58,2.58,0,0,1-2.08-.9,3.47,3.47,0,0,1-.76-2.32Zm1.15.13a3,3,0,0,0,.43,1.67,1.41,1.41,0,0,0,1.26.65,1.4,1.4,0,0,0,1.25-.65,3,3,0,0,0,.43-1.67V105a3,3,0,0,0-.43-1.66,1.42,1.42,0,0,0-1.26-.66,1.39,1.39,0,0,0-1.25.66A3,3,0,0,0,8.29,105Z"/><path class="cls-1" d="M18.25,107.28a2.09,2.09,0,0,1-.77.79,2.11,2.11,0,0,1-1.08.27,2.05,2.05,0,0,1-1.62-.66,3.11,3.11,0,0,1-.58-2.06v-3.74h1.16v3.75a2.38,2.38,0,0,0,.3,1.4,1.12,1.12,0,0,0,.93.38,1.91,1.91,0,0,0,1-.25,1.57,1.57,0,0,0,.61-.71v-4.57h1.16v6.34h-1Z"/><path class="cls-1" d="M26.46,105.29a3.46,3.46,0,0,1-.66,2.21,2.17,2.17,0,0,1-1.81.84,2.38,2.38,0,0,1-1.1-.24,2.1,2.1,0,0,1-.77-.74l-.19.86h-.88V99.08H22.2v3.55a2.06,2.06,0,0,1,.74-.64,2.28,2.28,0,0,1,1-.23,2.1,2.1,0,0,1,1.82.94,4.22,4.22,0,0,1,.66,2.47Zm-1.15-.12a3.58,3.58,0,0,0-.4-1.78,1.33,1.33,0,0,0-1.23-.69,1.56,1.56,0,0,0-.9.26,2,2,0,0,0-.58.7v2.75a1.87,1.87,0,0,0,.58.73,1.5,1.5,0,0,0,.92.27,1.39,1.39,0,0,0,1.21-.58,2.72,2.72,0,0,0,.4-1.54Z"/><path class="cls-1" d="M29.12,108.22H28V99.08h1.16Z"/><path class="cls-1" d="M33.52,108.34a2.69,2.69,0,0,1-2.13-.87,3.36,3.36,0,0,1-.77-2.3v-.25a3.26,3.26,0,0,1,.79-2.26,2.46,2.46,0,0,1,1.92-.9,2.3,2.3,0,0,1,1.91.8,3.19,3.19,0,0,1,.64,2.1v.61H31.82l0,0a2.65,2.65,0,0,0,.43,1.55,1.48,1.48,0,0,0,1.29.59,2.88,2.88,0,0,0,1-.16,2.49,2.49,0,0,0,.76-.46l.45.75a2.82,2.82,0,0,1-.89.55A3.58,3.58,0,0,1,33.52,108.34Zm-.19-5.67a1.27,1.27,0,0,0-1,.47,2.25,2.25,0,0,0-.48,1.19v0h2.86v-.09a1.85,1.85,0,0,0-.34-1.15A1.21,1.21,0,0,0,33.33,102.67Z"/><path class="cls-1" d="M36.91,105.17a4.29,4.29,0,0,1,.65-2.47,2.13,2.13,0,0,1,1.83-.94,2.25,2.25,0,0,1,1,.21,2.13,2.13,0,0,1,.74.6V99.08h1.15v9.14h-.89l-.17-.8a2.12,2.12,0,0,1-.77.69,2.24,2.24,0,0,1-1.06.23,2.19,2.19,0,0,1-1.82-.84,3.52,3.52,0,0,1-.65-2.21Zm1.15.12a2.63,2.63,0,0,0,.4,1.54,1.37,1.37,0,0,0,1.21.58,1.49,1.49,0,0,0,.87-.24,1.67,1.67,0,0,0,.58-.65v-3a2,2,0,0,0-.58-.63,1.56,1.56,0,0,0-.85-.23,1.31,1.31,0,0,0-1.23.69,3.45,3.45,0,0,0-.4,1.78Z"/><path class="cls-1" d="M48.22,100.26H47.07V99.08h1.15Zm0,8H47.07v-6.34h1.15Z"/><path class="cls-1" d="M51,101.88l.08.94a2.38,2.38,0,0,1,.8-.78,2.14,2.14,0,0,1,1.08-.28,2.06,2.06,0,0,1,1.59.6,2.64,2.64,0,0,1,.56,1.86v4H54v-4a1.73,1.73,0,0,0-.33-1.19,1.34,1.34,0,0,0-1-.35,1.73,1.73,0,0,0-.91.22,1.55,1.55,0,0,0-.59.6v4.7H50v-6.34Z"/><path class="cls-1" d="M61.41,100.35v1.53h1.2v.86h-1.2v3.85a.87.87,0,0,0,.18.62.68.68,0,0,0,.49.19l.22,0,.21-.06.16.79a1.22,1.22,0,0,1-.38.18,2.2,2.2,0,0,1-.5.06,1.51,1.51,0,0,1-1.12-.42,1.83,1.83,0,0,1-.42-1.33v-3.85h-1v-.86h1v-1.53Z"/><path class="cls-1" d="M65,102.73a2.46,2.46,0,0,1,.8-.71,2.22,2.22,0,0,1,1.06-.26,2.07,2.07,0,0,1,1.58.61,2.69,2.69,0,0,1,.57,1.88v4H67.85v-4a1.66,1.66,0,0,0-.34-1.16,1.26,1.26,0,0,0-1-.38,2,2,0,0,0-.9.2,1.67,1.67,0,0,0-.61.57v4.75H63.84V99.08H65Z"/><path class="cls-1" d="M73.29,108.34a2.69,2.69,0,0,1-2.13-.87,3.36,3.36,0,0,1-.77-2.3v-.25a3.31,3.31,0,0,1,.79-2.26,2.48,2.48,0,0,1,1.93-.9,2.28,2.28,0,0,1,1.9.8,3.19,3.19,0,0,1,.64,2.1v.61H71.6l0,0a2.65,2.65,0,0,0,.42,1.55,1.48,1.48,0,0,0,1.29.59,3,3,0,0,0,1-.16,2.61,2.61,0,0,0,.76-.46l.45.75a3,3,0,0,1-.9.55A3.58,3.58,0,0,1,73.29,108.34Zm-.18-5.67a1.26,1.26,0,0,0-1,.47,2.18,2.18,0,0,0-.49,1.19l0,0H74.5v-.09a1.91,1.91,0,0,0-.34-1.15A1.24,1.24,0,0,0,73.11,102.67Z"/><path class="cls-1" d="M85.33,105.29a3.46,3.46,0,0,1-.66,2.21,2.16,2.16,0,0,1-1.81.84,2.56,2.56,0,0,1-1-.19,2,2,0,0,1-.75-.59v3.1H79.93v-8.78h.88l.18.82a2.17,2.17,0,0,1,.78-.7,2.32,2.32,0,0,1,1.08-.24,2.13,2.13,0,0,1,1.83.94,4.27,4.27,0,0,1,.65,2.47Zm-1.15-.12a3.36,3.36,0,0,0-.43-1.77,1.36,1.36,0,0,0-1.25-.7,1.54,1.54,0,0,0-.85.23,1.71,1.71,0,0,0-.57.62v3.06a1.68,1.68,0,0,0,.57.61,1.55,1.55,0,0,0,.86.22,1.41,1.41,0,0,0,1.24-.6,2.58,2.58,0,0,0,.43-1.55Z"/><path class="cls-1" d="M90.64,108.22q0-.28-.09-.51a3.15,3.15,0,0,1,0-.44,2.75,2.75,0,0,1-.85.77,2.15,2.15,0,0,1-1.11.3,2.07,2.07,0,0,1-1.51-.5,1.86,1.86,0,0,1-.52-1.4,1.63,1.63,0,0,1,.74-1.42,3.43,3.43,0,0,1,2-.51h1.26v-.63a1.17,1.17,0,0,0-.34-.88,1.34,1.34,0,0,0-1-.33,1.42,1.42,0,0,0-.9.28.87.87,0,0,0-.35.68H86.87l0,0a1.53,1.53,0,0,1,.65-1.26,2.7,2.7,0,0,1,1.78-.58,2.62,2.62,0,0,1,1.73.55,1.94,1.94,0,0,1,.66,1.58v3a4.68,4.68,0,0,0,0,.66,3.24,3.24,0,0,0,.12.62Zm-1.91-.84a2.1,2.1,0,0,0,1.13-.32,1.63,1.63,0,0,0,.66-.74v-1h-1.3a1.67,1.67,0,0,0-1.12.35,1.06,1.06,0,0,0-.41.82.85.85,0,0,0,.26.67A1.06,1.06,0,0,0,88.73,107.38Z"/><path class="cls-1" d="M97,106.52a.77.77,0,0,0-.29-.62,2.75,2.75,0,0,0-1.1-.43,4.64,4.64,0,0,1-1.72-.67,1.37,1.37,0,0,1-.6-1.16,1.65,1.65,0,0,1,.66-1.32,2.89,2.89,0,0,1,3.46,0,1.69,1.69,0,0,1,.63,1.37v0H97a1,1,0,0,0-.36-.74,1.25,1.25,0,0,0-.91-.34,1.27,1.27,0,0,0-.91.28.85.85,0,0,0-.3.65.67.67,0,0,0,.26.58,2.72,2.72,0,0,0,1.07.38,4.46,4.46,0,0,1,1.77.7,1.41,1.41,0,0,1,.61,1.17,1.65,1.65,0,0,1-.69,1.38,3.28,3.28,0,0,1-3.69-.08,1.72,1.72,0,0,1-.66-1.44v0h1.1a1.06,1.06,0,0,0,.46.9,1.75,1.75,0,0,0,1,.28,1.52,1.52,0,0,0,1-.26A.77.77,0,0,0,97,106.52Z"/><path class="cls-1" d="M101.23,100.35v1.53h1.2v.86h-1.2v3.85a.87.87,0,0,0,.18.62.68.68,0,0,0,.49.19l.22,0,.21-.06.16.79a1.22,1.22,0,0,1-.38.18,2.2,2.2,0,0,1-.5.06,1.51,1.51,0,0,1-1.12-.42,1.83,1.83,0,0,1-.42-1.33v-3.85h-1v-.86h1v-1.53Z"/><path class="cls-1" d="M108.25,100.35v1.53h1.2v.86h-1.2v3.85a.82.82,0,0,0,.19.62.66.66,0,0,0,.49.19l.22,0,.2-.06.16.79a1,1,0,0,1-.38.18,2.14,2.14,0,0,1-.5.06,1.51,1.51,0,0,1-1.12-.42,1.87,1.87,0,0,1-.41-1.33v-3.85h-1v-.86h1v-1.53Z"/><path class="cls-1" d="M112.31,105.91l.15.82h0l.16-.82,1.26-4h.93l1.27,4,.16.91h0l.19-.91.93-4h1.21l-1.84,6.34h-.93l-1.25-3.86-.24-1h0l-.22,1-1.23,3.86H112l-1.84-6.34h1.2Z"/><path class="cls-1" d="M119.5,105a3.51,3.51,0,0,1,.76-2.31,2.56,2.56,0,0,1,2.07-.92,2.61,2.61,0,0,1,2.09.91,3.54,3.54,0,0,1,.76,2.32v.13a3.45,3.45,0,0,1-.76,2.32,2.84,2.84,0,0,1-4.15,0,3.47,3.47,0,0,1-.77-2.32Zm1.16.13a3.07,3.07,0,0,0,.42,1.67,1.55,1.55,0,0,0,2.52,0,3.07,3.07,0,0,0,.43-1.67V105a3,3,0,0,0-.44-1.66,1.52,1.52,0,0,0-2.51,0,3.08,3.08,0,0,0-.42,1.66Z"/><path class="cls-1" d="M129.31,105.17a4.29,4.29,0,0,1,.65-2.47,2.13,2.13,0,0,1,1.83-.94,2.19,2.19,0,0,1,1,.21,2.13,2.13,0,0,1,.74.6V99.08h1.15v9.14h-.88l-.18-.8a2.12,2.12,0,0,1-.77.69,2.21,2.21,0,0,1-1.06.23,2.16,2.16,0,0,1-1.81-.84,3.46,3.46,0,0,1-.66-2.21Zm1.15.12a2.7,2.7,0,0,0,.4,1.54,1.38,1.38,0,0,0,1.22.58,1.48,1.48,0,0,0,.86-.24,1.67,1.67,0,0,0,.58-.65v-3a1.85,1.85,0,0,0-.58-.63,1.56,1.56,0,0,0-.85-.23,1.31,1.31,0,0,0-1.23.69,3.55,3.55,0,0,0-.4,1.78Z"/><path class="cls-1" d="M139,108.34a2.69,2.69,0,0,1-2.13-.87,3.36,3.36,0,0,1-.77-2.3v-.25a3.31,3.31,0,0,1,.79-2.26,2.48,2.48,0,0,1,1.93-.9,2.31,2.31,0,0,1,1.91.8,3.25,3.25,0,0,1,.63,2.1v.61h-4l0,0a2.65,2.65,0,0,0,.42,1.55,1.48,1.48,0,0,0,1.29.59,3,3,0,0,0,1-.16,2.61,2.61,0,0,0,.76-.46l.45.75a3,3,0,0,1-.9.55A3.58,3.58,0,0,1,139,108.34Zm-.18-5.67a1.26,1.26,0,0,0-1,.47,2.17,2.17,0,0,0-.48,1.19v0h2.86v-.09a1.91,1.91,0,0,0-.34-1.15A1.24,1.24,0,0,0,138.84,102.67Z"/><path class="cls-1" d="M145.2,107.44a1.4,1.4,0,0,0,.93-.35,1.15,1.15,0,0,0,.4-.87h1l0,0a1.84,1.84,0,0,1-.71,1.46,2.47,2.47,0,0,1-1.68.63,2.51,2.51,0,0,1-2.07-.9,3.54,3.54,0,0,1-.72-2.27v-.24a3.44,3.44,0,0,1,.73-2.25,2.48,2.48,0,0,1,2.06-.92,2.38,2.38,0,0,1,1.73.66,2.12,2.12,0,0,1,.66,1.61l0,0h-1a1.41,1.41,0,0,0-.38-1,1.25,1.25,0,0,0-1-.41,1.33,1.33,0,0,0-1.24.66,3.08,3.08,0,0,0-.39,1.6v.24a3.13,3.13,0,0,0,.38,1.62A1.35,1.35,0,0,0,145.2,107.44Z"/><path class="cls-1" d="M152.85,108.22q-.06-.28-.09-.51c0-.14,0-.29,0-.44a2.6,2.6,0,0,1-.84.77,2.15,2.15,0,0,1-1.11.3,2.06,2.06,0,0,1-1.51-.5,1.86,1.86,0,0,1-.52-1.4,1.63,1.63,0,0,1,.74-1.42,3.43,3.43,0,0,1,2-.51h1.25v-.63a1.14,1.14,0,0,0-.34-.88,1.3,1.3,0,0,0-1-.33,1.42,1.42,0,0,0-.9.28.87.87,0,0,0-.35.68h-1.1v0a1.53,1.53,0,0,1,.65-1.26,2.7,2.7,0,0,1,1.78-.58,2.62,2.62,0,0,1,1.73.55,1.94,1.94,0,0,1,.66,1.58v3q0,.34,0,.66a4.26,4.26,0,0,0,.13.62Zm-1.91-.84a2.1,2.1,0,0,0,1.13-.32,1.6,1.6,0,0,0,.65-.74v-1h-1.29a1.65,1.65,0,0,0-1.12.35,1,1,0,0,0-.42.82.86.86,0,0,0,.27.67A1.06,1.06,0,0,0,150.94,107.38Z"/><path class="cls-1" d="M155.29,105.17a4.29,4.29,0,0,1,.65-2.47,2.13,2.13,0,0,1,1.84-.94,2.17,2.17,0,0,1,1,.21,2.13,2.13,0,0,1,.74.6V99.08h1.15v9.14h-.88l-.18-.8a2.12,2.12,0,0,1-.77.69,2.21,2.21,0,0,1-1.06.23,2.16,2.16,0,0,1-1.81-.84,3.46,3.46,0,0,1-.66-2.21Zm1.16.12a2.7,2.7,0,0,0,.39,1.54,1.38,1.38,0,0,0,1.22.58,1.48,1.48,0,0,0,.86-.24,1.67,1.67,0,0,0,.58-.65v-3a1.85,1.85,0,0,0-.58-.63,1.56,1.56,0,0,0-.85-.23,1.31,1.31,0,0,0-1.23.69,3.56,3.56,0,0,0-.39,1.78Z"/><path class="cls-1" d="M165,108.34a2.69,2.69,0,0,1-2.13-.87,3.36,3.36,0,0,1-.76-2.3v-.25a3.3,3.3,0,0,1,.78-2.26,2.48,2.48,0,0,1,1.93-.9,2.31,2.31,0,0,1,1.91.8,3.25,3.25,0,0,1,.63,2.1v.61h-4.05l0,0a2.65,2.65,0,0,0,.42,1.55,1.48,1.48,0,0,0,1.29.59,3,3,0,0,0,1-.16,2.61,2.61,0,0,0,.76-.46l.45.75a3,3,0,0,1-.9.55A3.58,3.58,0,0,1,165,108.34Zm-.18-5.67a1.26,1.26,0,0,0-1,.47,2.17,2.17,0,0,0-.48,1.19v0h2.86v-.09a1.91,1.91,0,0,0-.34-1.15A1.24,1.24,0,0,0,164.82,102.67Z"/><path class="cls-1" d="M172.34,106.52a.74.74,0,0,0-.29-.62,2.75,2.75,0,0,0-1.1-.43,4.64,4.64,0,0,1-1.72-.67,1.37,1.37,0,0,1-.6-1.16,1.65,1.65,0,0,1,.66-1.32,2.89,2.89,0,0,1,3.46,0,1.69,1.69,0,0,1,.63,1.37v0h-1.1a1,1,0,0,0-.36-.74,1.25,1.25,0,0,0-.91-.34,1.27,1.27,0,0,0-.91.28.85.85,0,0,0-.3.65.67.67,0,0,0,.26.58,2.72,2.72,0,0,0,1.07.38,4.46,4.46,0,0,1,1.77.7,1.41,1.41,0,0,1,.61,1.17,1.65,1.65,0,0,1-.69,1.38,3.28,3.28,0,0,1-3.69-.08,1.72,1.72,0,0,1-.66-1.44v0h1.1a1.06,1.06,0,0,0,.46.9,1.75,1.75,0,0,0,1,.28,1.52,1.52,0,0,0,1-.26A.77.77,0,0,0,172.34,106.52Z"/><path class="cls-1" d="M176.19,108.22H175V107h1.15Z"/><line class="cls-2" x1="268.15" y1="0.49" x2="17.35" y2="58.84"/><ellipse class="cls-3" cx="17.24" cy="58.8" rx="3.92" ry="3.97" transform="translate(-37.17 30.62) rotate(-46.27)"/></g></g></svg>