<svg xmlns="http://www.w3.org/2000/svg" viewBox="0 0 55.19 71.81"><defs><style>.cls-1{fill:#4b925e;}.cls-2{fill:#32623f;}.cls-3{fill:#91dc5a;}.cls-4{fill:#64c37d;}.cls-5{fill:#fff;}.cls-6{fill:#1e2e3b;}.cls-7{fill:#3c5d76;}</style></defs><title>ailen</title><g id="Layer_2" data-name="Layer 2"><g id="Layer_4" data-name="Layer 4"><path class="cls-1" d="M49.61,8.38A6.2,6.2,0,1,0,39,10.15L37.27,14.8,43.08,17l1.75-4.66A6.17,6.17,0,0,0,49.61,8.38Z"/><path class="cls-2" d="M46,.4l-5.8,15.49L43.08,17l1.75-4.66A6.2,6.2,0,0,0,46,.4Z"/><path class="cls-3" d="M49.38,50.25l-4,10.65a3.1,3.1,0,1,1-5.81-2.17l9.8-26.15A14.47,14.47,0,0,0,22.27,22.43l-9.8,26.14a3.1,3.1,0,0,1-5.81-2.18l4-10.65L4.85,33.56l-4,10.65A13.45,13.45,0,0,0,8.73,61.52L33.9,71a13.45,13.45,0,0,0,17.3-7.87l4-10.65-5.81-2.18Z"/><path class="cls-4" d="M49.38,50.25l-4,10.65a3.1,3.1,0,1,1-5.81-2.17l9.8-26.15A14.3,14.3,0,0,0,40.9,14L21.31,66.23,33.9,71a13.45,13.45,0,0,0,17.3-7.87l4-10.65-5.81-2.18Z"/><path class="cls-5" d="M38.73,19.76a9.31,9.31,0,1,0,5.45,12A9.31,9.31,0,0,0,38.73,19.76Z"/><circle class="cls-6" cx="35.46" cy="28.47" r="3.1"/><path class="cls-7" d="M24.21,40.82a6.21,6.21,0,0,0,3.63,8h0a6.21,6.21,0,0,0,8-3.64Z"/><path class="cls-6" d="M30,43l-2.18,5.81a6.21,6.21,0,0,0,8-3.64Z"/></g></g></svg>