<svg xmlns="http://www.w3.org/2000/svg" viewBox="0 0 67.47 67.47"><defs><style>.cls-1{fill:#484686;}.cls-2{fill:#6858ad;}.cls-3{fill:#092339;}.cls-4{fill:#293560;}</style></defs><title>blackhole2</title><g id="Layer_2" data-name="Layer 2"><g id="Layer_4" data-name="Layer 4"><path class="cls-1" d="M14.25,17.69l39,32.09a25.24,25.24,0,0,0-39-32.09Z"/><path class="cls-2" d="M47,17.69c-10.77-8.86-25.4-8.86-32.7,0a25.24,25.24,0,1,0,39,32.09C60.52,40.91,57.71,26.55,47,17.69Z"/><path class="cls-3" d="M21.13,23.35,46.34,44.11A16.33,16.33,0,0,0,21.13,23.35Z"/><path class="cls-4" d="M41.28,24.56c-7-5.73-16-6.27-20.15-1.21A16.33,16.33,0,1,0,46.34,44.11C50.51,39.05,48.25,30.3,41.28,24.56Z"/><path class="cls-4" d="M67.3,22.28a1.11,1.11,0,0,0-2.21.21,32.31,32.31,0,0,1-9.74,26.36l-3,.22A24.13,24.13,0,0,1,15.11,18.4L19,13.23,29.88,8.94l-.74-1.17a34.51,34.51,0,0,0-29,37.42A1.11,1.11,0,0,0,2.38,45a32.26,32.26,0,0,1,9.74-26.36,34.52,34.52,0,0,0,6,46.95,1.11,1.11,0,1,0,1.41-1.72A32.21,32.21,0,0,1,7.77,38.33a34.49,34.49,0,0,0,37.42,29,1.09,1.09,0,0,0,.75-.4,1.11,1.11,0,0,0-1-1.81,32.09,32.09,0,0,1-23.64-7.21,34.48,34.48,0,0,1-2.8-2.59,34.51,34.51,0,0,0,47-5.92A1.11,1.11,0,1,0,63.85,48,32.21,32.21,0,0,1,38.33,59.7a34.49,34.49,0,0,0,29-37.42Z"/><path class="cls-3" d="M47.8,2.05A1.1,1.1,0,0,0,48,3.61,32.24,32.24,0,0,1,59.7,29.14,34.51,34.51,0,0,0,22.28.16a1.11,1.11,0,0,0,.21,2.22A32.09,32.09,0,0,1,46.13,9.59a34.48,34.48,0,0,1,2.8,2.59,34.51,34.51,0,0,0-47,5.92,1.11,1.11,0,1,0,1.71,1.41A32.24,32.24,0,0,1,29.14,7.77h.13A26.21,26.21,0,0,0,13.39,17l1.72,1.42A24.13,24.13,0,0,1,52.36,49.07l1.72,1.41q.66-.81,1.26-1.65v0a34.51,34.51,0,0,0-6-46.95A1.1,1.1,0,0,0,47.8,2.05Z"/></g></g></svg>