<svg xmlns="http://www.w3.org/2000/svg" viewBox="0 0 74.96 74.96"><defs><style>.cls-1{fill:#2a90de;}.cls-2{fill:#e36295;}.cls-3{fill:#2a669e;}</style></defs><title>blackhole3</title><g id="Layer_2" data-name="Layer 2"><g id="Layer_4" data-name="Layer 4"><path class="cls-1" d="M42.22,35.54a3.84,3.84,0,0,0-1-1.81,4.25,4.25,0,0,0-4.18-.95,6,6,0,0,0-2.69,1.58,5.51,5.51,0,0,0-1.67,4.78,3.85,3.85,0,0,0,1,2.09,4.27,4.27,0,0,0,4.19,1,6.14,6.14,0,0,0,2.69-1.58A5.48,5.48,0,0,0,42.22,35.54Z"/><path class="cls-2" d="M56.46,9.43C64.78,18,62.64,34,51.67,45.24c-6.09,6.25-14.78,7.47-19.4,2.73-2.05-2.1-1.79-5.83.42-8.83a5.51,5.51,0,0,1,1.67-4.78,6,6,0,0,1,2.69-1.58c-2.42-1.43-6.07-.65-8.73,2.09C22.22,41.12,21,50,25.65,54.76c8.32,8.53,24,6.34,34.92-4.91,9-9.22,13.52-20.85,13.12-31.08a25.86,25.86,0,0,0-6.49-11c-8.85-8.84-23.06-10-36.42-4.2C40.54,1.1,50.1,2.91,56.46,9.43Z"/><path class="cls-1" d="M14.39,25.11c11-11.25,26.6-13.45,34.92-4.91,4.62,4.73,3.43,13.64-2.66,19.89-2.67,2.73-6.31,3.51-8.73,2.08a4.28,4.28,0,0,1-4.19-.94,3.85,3.85,0,0,1-1-2.09c-2.21,3-2.47,6.73-.42,8.83,4.62,4.74,13.31,3.52,19.4-2.73C62.63,34,64.78,18,56.46,9.43,50.1,2.91,40.54,1.1,30.78,3.56A52.24,52.24,0,0,0,14.64,14.63C2.25,27-2.53,43.45,1.28,56.19.87,46,5.4,34.33,14.39,25.11Z"/><path class="cls-2" d="M18.5,65.53C10.18,57,12.33,41,23.29,29.72c6.1-6.25,14.78-7.47,19.4-2.73A5.54,5.54,0,0,1,44,31.71a7.36,7.36,0,0,1-1.82,3.83,5.45,5.45,0,0,1-1.6,5.06,6,6,0,0,1-2.69,1.58c2.42,1.43,6.06.65,8.73-2.09,6.09-6.24,7.28-15.15,2.66-19.89-8.32-8.53-24-6.33-34.92,4.91C5.4,34.33.87,46,1.28,56.19a25.94,25.94,0,0,0,6.48,11c8.85,8.84,23.06,10,36.42,4.2C34.42,73.86,24.86,72.05,18.5,65.53Z"/><path class="cls-1" d="M73.69,18.77c.4,10.23-4.13,21.86-13.12,31.08-11,11.24-26.6,13.44-34.92,4.91C21,50,22.22,41.11,28.32,34.87c2.66-2.74,6.31-3.52,8.73-2.09a4.25,4.25,0,0,1,4.18.95,3.84,3.84,0,0,1,1,1.81A7.42,7.42,0,0,0,44,31.71,5.53,5.53,0,0,0,42.69,27c-4.62-4.74-13.3-3.51-19.4,2.73C12.33,41,10.18,57,18.5,65.52,24.86,72,34.42,73.85,44.18,71.4A52.26,52.26,0,0,0,60.33,60.32C72.71,47.94,77.5,31.51,73.69,18.77Z"/><path class="cls-3" d="M39.56,52.11a11.08,11.08,0,0,1-8.18-3.26c-2.57-2.62-2.3-7.31.62-10.9l1.94,1.57c-2.09,2.57-2.43,5.9-.78,7.59a8.73,8.73,0,0,0,6.4,2.51,16.34,16.34,0,0,0,11.21-5.24c10.48-10.75,12.63-26,4.79-34.07A22.56,22.56,0,0,0,39,3.75c-9.78,0-20,4.78-28.17,13.11L9.7,18,7.91,16.24,9,15.11C17.6,6.31,28.52,1.26,39,1.26a25,25,0,0,1,18.39,7.3c8.77,9,6.62,25.85-4.8,37.55A18.6,18.6,0,0,1,39.56,52.11Z"/><path class="cls-3" d="M8,74.59l-.84-.86C-4.44,61.9-1.57,39.7,13.5,24.24,20,17.58,28.27,13.76,36.19,13.76a19,19,0,0,1,14,5.57C55.29,24.54,54.1,34.25,47.54,41c-3.23,3.32-7.88,4.16-10.81,2l1.5-2c1.9,1.42,5.2.68,7.52-1.71,5.62-5.75,6.81-13.89,2.67-18.14a16.59,16.59,0,0,0-12.23-4.82c-7.25,0-14.87,3.54-20.9,9.73C1.16,40.48-1.71,61.11,8.9,72l.83.85Z"/><path class="cls-3" d="M36,73.7a25,25,0,0,1-18.39-7.3C8.83,57.4,11,40.55,22.4,28.85a18.56,18.56,0,0,1,13-6,11.1,11.1,0,0,1,8.19,3.26C46,28.57,46,32.75,43.51,36.28l-2.06-1.42c1.72-2.5,1.88-5.44.35-7a8.69,8.69,0,0,0-6.4-2.51,16.34,16.34,0,0,0-11.21,5.24c-10.48,10.74-12.63,26-4.8,34.06A22.56,22.56,0,0,0,36,71.21c9.78,0,20-4.78,28.16-13.11L65.27,57l1.79,1.75L66,59.85C57.36,68.65,46.45,73.7,36,73.7Z"/><path class="cls-3" d="M38.77,61.21a19,19,0,0,1-14-5.58C19.67,50.42,20.87,40.71,27.42,34c3.23-3.31,7.88-4.15,10.81-2l-1.5,2c-1.9-1.42-5.2-.67-7.52,1.71-5.61,5.76-6.81,13.9-2.66,18.15a16.61,16.61,0,0,0,12.22,4.82c7.25,0,14.87-3.55,20.91-9.74,14.12-14.49,17-35.12,6.39-46l-.84-.85L67,.37l.84.85c11.54,11.84,8.67,34-6.4,49.49C55,57.38,46.69,61.21,38.77,61.21Z"/></g></g></svg>