<svg xmlns="http://www.w3.org/2000/svg" viewBox="0 0 45.46 37.48"><defs><style>.cls-1{fill:#2a90de;}.cls-2{fill:#e36295;}.cls-3{fill:#2a669e;}</style></defs><title>blackhole</title><g id="Layer_2" data-name="Layer 2"><g id="Layer_4" data-name="Layer 4"><path class="cls-1" d="M24.3,21a2,2,0,0,0,.82-.72,2.29,2.29,0,0,0,0-2.28A3.2,3.2,0,0,0,24,16.75a2.94,2.94,0,0,0-2.67-.29,2.06,2.06,0,0,0-1,.79,2.29,2.29,0,0,0,0,2.28,3.28,3.28,0,0,0,1.14,1.2A2.9,2.9,0,0,0,24.3,21Z"/><path class="cls-2" d="M39.51,25.2c-3.42,5.32-12,6.13-19.1,1.81-4-2.41-5.63-6.75-3.73-9.71.84-1.31,2.8-1.62,4.62-.84a2.94,2.94,0,0,1,2.67.29A3.2,3.2,0,0,1,25.11,18c.45-1.42-.39-3.21-2.13-4.26-4-2.41-8.71-2-10.6,1C9,20,12,27.84,19.1,32.16c5.84,3.54,12.4,4.5,17.64,3.06a13.68,13.68,0,0,0,4.92-4.67c3.51-5.64,2.39-13.12-2.19-19.34C41.91,16,42.12,21.13,39.51,25.2Z"/><path class="cls-1" d="M26.36,5.32c7.13,4.32,10.14,12.14,6.73,17.47-1.9,2.95-6.65,3.4-10.61,1-1.74-1.05-2.57-2.84-2.12-4.26a2.27,2.27,0,0,1,0-2.28,2.06,2.06,0,0,1,1-.79c-1.82-.78-3.78-.47-4.62.84-1.9,3-.23,7.3,3.73,9.71,7.13,4.32,15.68,3.51,19.1-1.82,2.61-4.06,2.4-9.23,0-14a27.88,27.88,0,0,0-7.66-7c-7.89-4.92-17-5.43-23.09-1.93C14,.82,20.52,1.77,26.36,5.32Z"/><path class="cls-2" d="M6,12.28C9.37,7,17.92,6.15,25,10.47c4,2.4,5.64,6.75,3.74,9.71a2.93,2.93,0,0,1-2.28,1.25A3.91,3.91,0,0,1,24.3,21a2.9,2.9,0,0,1-2.81-.22,3.28,3.28,0,0,1-1.14-1.2c-.45,1.42.39,3.21,2.13,4.26,4,2.4,8.71,1.95,10.6-1,3.42-5.33.41-13.15-6.72-17.47C20.52,1.77,14,.82,8.72,2.26A13.68,13.68,0,0,0,3.8,6.93C.29,12.56,1.41,20.05,6,26.27,3.55,21.51,3.34,16.35,6,12.28Z"/><path class="cls-1" d="M36.74,35.22c-5.24,1.44-11.8.49-17.64-3.06C12,27.84,9,20,12.38,14.69c1.89-3,6.64-3.41,10.6-1,1.74,1.05,2.58,2.84,2.13,4.26a2.29,2.29,0,0,1,0,2.28,2,2,0,0,1-.82.72,3.83,3.83,0,0,0,2.2.48,2.93,2.93,0,0,0,2.28-1.25c1.9-3,.23-7.31-3.73-9.71C17.92,6.15,9.37,7,6,12.28c-2.61,4.07-2.4,9.23,0,14a27.88,27.88,0,0,0,7.66,7C21.54,38.21,30.61,38.72,36.74,35.22Z"/><path class="cls-3" d="M15.41,21.57a5.93,5.93,0,0,1,.71-4.63c1.05-1.64,3.51-2.06,5.71-1l-.58,1.19c-1.58-.77-3.34-.55-4,.51a4.64,4.64,0,0,0-.53,3.6,8.72,8.72,0,0,0,4.05,5.18c6.82,4.13,15,3.41,18.19-1.6a12,12,0,0,0,1.41-9.37c-1.17-5.06-4.87-9.8-10.15-13L29.48,2,30.17.9l.72.44c5.58,3.38,9.5,8.42,10.75,13.83a13.2,13.2,0,0,1-1.58,10.38c-3.6,5.62-12.57,6.52-20,2A9.88,9.88,0,0,1,15.41,21.57Z"/><path class="cls-3" d="M0,7.91l.34-.54C5.08,0,16.91-1.19,26.7,4.75a17.24,17.24,0,0,1,8.14,10.48,10.12,10.12,0,0,1-1.2,7.92c-2.09,3.25-7.25,3.79-11.51,1.21C20,23.08,19,20.78,19.82,19l1.22.54c-.51,1.15.27,2.77,1.78,3.69,3.65,2.21,8,1.85,9.7-.8a8.81,8.81,0,0,0,1-6.9A15.94,15.94,0,0,0,26,5.88C16.83.31,5.81,1.3,1.46,8.09l-.34.54Z"/><path class="cls-3" d="M3.82,22.31A13.27,13.27,0,0,1,5.39,11.92C9,6.31,18,5.4,25.39,9.91a9.88,9.88,0,0,1,4.66,6,5.94,5.94,0,0,1-.71,4.63c-1,1.53-3.15,2-5.27,1.17l.49-1.23c1.5.59,3,.32,3.66-.66a4.62,4.62,0,0,0,.54-3.61A8.68,8.68,0,0,0,24.7,11c-6.81-4.13-15-3.42-18.19,1.6A12,12,0,0,0,5.11,22C6.28,27.07,10,31.8,15.26,35l.72.43-.69,1.14-.72-.44C9,32.75,5.07,27.71,3.82,22.31Z"/><path class="cls-3" d="M10.61,22.25a10.12,10.12,0,0,1,1.21-7.92c2.09-3.25,7.25-3.8,11.51-1.21,2.1,1.27,3.09,3.58,2.31,5.35l-1.22-.53c.51-1.15-.27-2.77-1.78-3.69-3.65-2.21-8-1.85-9.7.8a8.81,8.81,0,0,0-1,6.9,15.88,15.88,0,0,0,7.54,9.64c9.18,5.57,20.19,4.58,24.55-2.2l.34-.54,1.12.72-.34.53c-4.74,7.39-16.57,8.57-26.36,2.63A17.31,17.31,0,0,1,10.61,22.25Z"/></g></g></svg>