<svg xmlns="http://www.w3.org/2000/svg" viewBox="0 0 194.34 194.34"><defs><style>.cls-1{fill:#484686;}.cls-2{fill:#6858ad;}.cls-3{fill:#092339;}.cls-4{fill:#293560;}</style></defs><title>blackhole3_1</title><g id="Layer_2" data-name="Layer 2"><g id="Layer_4" data-name="Layer 4"><path class="cls-1" d="M41.39,50.7,153,143.64A72.6,72.6,0,1,0,41.39,50.7Z"/><path class="cls-2" d="M135.44,51.23c-30.81-25.66-72.91-25.9-94-.53A72.6,72.6,0,0,0,153,143.64C174.09,118.27,166.25,76.9,135.44,51.23Z"/><path class="cls-3" d="M61.08,67.1l72.19,60.14A47,47,0,0,0,61.08,67.1Z"/><path class="cls-4" d="M119,70.92c-19.93-16.6-45.88-18.31-58-3.82a47,47,0,1,0,72.19,60.14C145.34,112.74,139,87.53,119,70.92Z"/><path class="cls-4" d="M193.93,64.77a3.2,3.2,0,0,0-6.38.59A92.77,92.77,0,0,1,159.09,141l-8.6.59A69.4,69.4,0,0,1,43.85,52.75L55,38,86.51,25.78,84.38,22.4a99.28,99.28,0,0,0-84,107.17A3.2,3.2,0,1,0,6.8,129,92.75,92.75,0,0,1,35.26,53.35,99.28,99.28,0,0,0,51.66,188.5a3.21,3.21,0,0,0,4.11-4.93A92.77,92.77,0,0,1,22.4,110a99.3,99.3,0,0,0,107.17,84,3.21,3.21,0,0,0,2.9-3.49,3.19,3.19,0,0,0-3.48-2.89,92.28,92.28,0,0,1-67.88-21.14,94.67,94.67,0,0,1-8-7.49A99.29,99.29,0,0,0,188.5,142.68a3.21,3.21,0,0,0-4.93-4.1A92.73,92.73,0,0,1,110,171.94a99.3,99.3,0,0,0,84-107.17Z"/><path class="cls-3" d="M138.17,6.26a3.2,3.2,0,0,0,.41,4.51,92.73,92.73,0,0,1,33.36,73.61A99.28,99.28,0,0,0,64.78.42a3.2,3.2,0,1,0,.58,6.38,92.25,92.25,0,0,1,67.87,21.13,94.91,94.91,0,0,1,8,7.5A99.27,99.27,0,0,0,5.85,51.66a3.2,3.2,0,1,0,4.92,4.1A92.79,92.79,0,0,1,84.38,22.4l.37,0A75.46,75.46,0,0,0,38.93,48.65l4.92,4.1a69.4,69.4,0,1,1,106.64,88.84l4.92,4.1c1.29-1.54,2.5-3.12,3.65-4.74l0,.05A99.29,99.29,0,0,0,142.68,5.85,3.2,3.2,0,0,0,138.17,6.26Z"/></g></g></svg>