<svg xmlns="http://www.w3.org/2000/svg" viewBox="0 0 116.61 116.6"><defs><style>.cls-1{fill:#74c6ff;}.cls-2{fill:#0c6bc3;}.cls-3{fill:#168de2;}.cls-4{fill:#003170;}</style></defs><title>blueplanet</title><g id="Layer_2" data-name="Layer 2"><g id="Layer_4" data-name="Layer 4"><path class="cls-1" d="M8.21,88.11A56.8,56.8,0,0,1,3,76.61,58.28,58.28,0,0,1,87.14,7.66a57,57,0,0,1,13.54,10.59,59.3,59.3,0,0,1,7.73,10.24A58.13,58.13,0,0,1,116.5,61.8,58.28,58.28,0,0,1,38.23,113"/><path class="cls-2" d="M116.5,61.8a58.51,58.51,0,0,1-4.72,19.74,91.13,91.13,0,0,0-87.72,24A58.16,58.16,0,0,1,10,90.93,111.47,111.47,0,0,1,116.5,61.8Z"/><path class="cls-3" d="M28.49,8.22a58.16,58.16,0,0,1,58.65-.56A161,161,0,0,0,7.68,29.38,57.92,57.92,0,0,1,28.49,8.22Z"/><path class="cls-1" d="M100.68,18.25c-4-.3-7.94-.51-12-.5A151.09,151.09,0,0,0,1.47,45.38a58.29,58.29,0,0,1,6.21-16A161,161,0,0,1,87.14,7.66,57,57,0,0,1,100.68,18.25Z"/><path class="cls-4" d="M108.41,28.49a57.25,57.25,0,0,1,6.87,17.42A126.48,126.48,0,0,0,3,76.61a57.78,57.78,0,0,1-1.5-31.23A151.09,151.09,0,0,1,88.71,17.75c4,0,8,.2,12,.5a59.3,59.3,0,0,1,7.73,10.24Z"/><path class="cls-3" d="M115.28,45.91A56.92,56.92,0,0,1,116.5,61.8,111.47,111.47,0,0,0,10,90.93c-.61-.92-1.22-1.85-1.78-2.82A56.8,56.8,0,0,1,3,76.61,126.48,126.48,0,0,1,115.28,45.91Z"/><path class="cls-3" d="M111.78,81.54a58,58,0,0,1-8.34,13.69A75.83,75.83,0,0,0,38.23,113h0a58.22,58.22,0,0,1-14.14-7.53A91.13,91.13,0,0,1,111.78,81.54Z"/><path class="cls-1" d="M88.72,93.79a75.81,75.81,0,0,1,14.72,1.44A58.36,58.36,0,0,1,38.23,113,75.63,75.63,0,0,1,88.72,93.79Z"/></g></g></svg>