<svg xmlns="http://www.w3.org/2000/svg" viewBox="0 0 308.94 308.9"><defs><style>.cls-1{fill:#2a90de;}.cls-2{fill:#2379ba;}.cls-3{fill:#67ab73;}.cls-4{fill:#d0d7df;}.cls-5{fill:#61a16c;}</style></defs><title>earth</title><g id="Layer_2" data-name="Layer 2"><g id="Layer_4" data-name="Layer 4"><g id="surface1"><path class="cls-1" d="M308.51,154.26A154.26,154.26,0,1,1,154.26,0,154.25,154.25,0,0,1,308.51,154.26Z"/><path class="cls-2" d="M250,33.34c0,.41,0,.82,0,1.23A236.76,236.76,0,0,1,50.45,268.36,154.26,154.26,0,0,0,258.91,40.93Q254.59,37,250,33.34Z"/><path class="cls-3" d="M95.75,159.58,74.47,133H37.24v47.87l26.59,21.28v42.55h26.6V234.05L117,196.81V159.58Z"/><path class="cls-3" d="M234.05,127.66H212.77v-26.6h.59L196.81,79.79H138.3V117l21.28,31.92h31.91v63.83h21.28l21.28-26.6V164.9l21.27-37.24Z"/><path class="cls-3" d="M37.24,133v-26.6H58.51L79.79,63.83V42.55H48A155,155,0,0,0,23.8,72q-3.42,5.43-6.38,11.15l0,.06a152.74,152.74,0,0,0-13.45,36.5l-.07.31q-1.45,6.38-2.37,13Z"/><path class="cls-3" d="M164.9,26.6H143.62V58.51h74.47L250,101.06h21.61l19-19a154.34,154.34,0,0,0-18.52-27.35l-.24-.28q-2.49-2.93-5.11-5.72l-.58-.6c-1.67-1.77-3.39-3.51-5.16-5.19l-.64-.62q-2.7-2.55-5.51-5a5.89,5.89,0,0,0-.53-.44c-2-1.73-4.09-3.4-6.2-5h0a154.08,154.08,0,0,0-43.8-23.52L204,8.27q-3.84-1.3-7.77-2.42l-.31-.09c-2.68-.75-5.4-1.43-8.14-2Z"/><path class="cls-4" d="M111.7,21.28H42.55a10.64,10.64,0,0,0,0,21.27h5.39l.23-.22,31.62.22H111.7a10.64,10.64,0,1,0,0-21.27Z"/><path class="cls-4" d="M58.51,159.58H10.64a10.64,10.64,0,1,0,0,21.27H58.51a10.64,10.64,0,1,0,0-21.27Z"/><path class="cls-4" d="M58.51,159.58H10.64a10.64,10.64,0,1,0,0,21.27H58.51a10.64,10.64,0,1,0,0-21.27Z"/><path class="cls-4" d="M111.7,244.68H37.24a10.64,10.64,0,0,0,0,21.28H111.7a10.64,10.64,0,1,0,0-21.28Z"/><path class="cls-4" d="M297.88,148.94h-26.6a10.64,10.64,0,1,0,0,21.27h26.6a10.64,10.64,0,0,0,10.46-8.86c0-.94,0-1.89.07-2.84A10.61,10.61,0,0,0,297.88,148.94Z"/><path class="cls-4" d="M295.68,215.87a13.17,13.17,0,0,0-8.44-3.1H151.6a13.3,13.3,0,1,0,0,26.59H287.24a13.24,13.24,0,0,0,8.44-23.49Z"/><path class="cls-4" d="M175.53,292.56h39.9a13.3,13.3,0,0,0,0-26.6h-39.9a13.3,13.3,0,0,0,0,26.6Z"/><path class="cls-5" d="M79.79,53.19V42.55H48c-3.53,3.37-6.86,7-10.07,10.64Z"/><path class="cls-2" d="M111.7,42.55H79.79V53.19H111.7a10.58,10.58,0,0,0,9.17-16A10.62,10.62,0,0,1,111.7,42.55Z"/><path class="cls-1" d="M138.3,111.7H119.68a13.3,13.3,0,0,0,0,26.6h32.81L138.3,117Z"/><path class="cls-2" d="M263.3,111.7H212.77v16h42.55l-6.08,10.64H263.3a13.3,13.3,0,1,0,0-26.6Z"/><path class="cls-5" d="M234.05,127.66H212.77v-16H138.3V117l14.19,21.28h96.75l6.08-10.64Z"/><path class="cls-4" d="M263.3,101.06H119.68a13.3,13.3,0,0,0,0,26.6H263.3a13.3,13.3,0,1,0,0-26.6Z"/><path class="cls-2" d="M297.88,170.21h-26.6a10.58,10.58,0,0,1-9.16-5.31,10.56,10.56,0,0,0,9.16,15.95h26.6A10.56,10.56,0,0,0,307,175.6q.58-4.26.94-8.6a10.88,10.88,0,0,0-.92-2.06A10.58,10.58,0,0,1,297.88,170.21Z"/><path class="cls-2" d="M151.6,239.37a13.32,13.32,0,0,1-12.18-8A13.3,13.3,0,0,0,151.6,250H275.16q4.08-5.15,7.74-10.63Z"/><path class="cls-2" d="M122.34,266a10.59,10.59,0,0,0-1.47-5.32A10.62,10.62,0,0,1,111.7,266H47.94A153.32,153.32,0,0,0,60.35,276.6H111.7A10.64,10.64,0,0,0,122.34,266Z"/><path class="cls-2" d="M215.43,292.56H175.54a13.31,13.31,0,0,1-12.18-8,13.3,13.3,0,0,0,12.18,18.61h18.9a153.06,153.06,0,0,0,34.23-13.82,13.14,13.14,0,0,0-1.06-4.79A13.31,13.31,0,0,1,215.43,292.56Z"/><path class="cls-5" d="M69.15,180.85a10.62,10.62,0,0,0-1.47-5.32,10.59,10.59,0,0,1-9.17,5.32H37.24l13.29,10.64h8A10.64,10.64,0,0,0,69.15,180.85Z"/><path class="cls-5" d="M212.77,212.77l21.28-26.6V164.9l21.27-37.24H231a236.73,236.73,0,0,1-39.49,62.67v22.44Z"/><path class="cls-5" d="M263.3,101.06h8.31l18.94-18.94c-.3-.56-.59-1.13-.9-1.7q-1.06-2-2.19-3.87c-.69-1.18-1.4-2.36-2.13-3.52s-1.48-2.37-2.25-3.54-1.6-2.4-2.45-3.59-1.53-2.16-2.32-3.22c-.9-1.22-1.83-2.42-2.76-3.62-.78-1-1.56-2-2.36-2.94-1.06-1.26-2.13-2.5-3.19-3.72-.75-.85-1.5-1.7-2.27-2.54-1.15-1.25-2.34-2.48-3.53-3.72-.77-.77-1.52-1.55-2.3-2.3-1.25-1.22-2.53-2.4-3.82-3.58-.78-.71-1.56-1.43-2.35-2.13-1.32-1.15-2.66-2.27-4-3.38-.56-.46-1.13-.93-1.71-1.38,0,.39,0,.79,0,1.19a236.7,236.7,0,0,1-7,57.15l7,9.35Z"/><path class="cls-2" d="M37.24,191.49H50.53L37.24,180.85H10.64a10.58,10.58,0,0,1-9.09-5.21l0,.06C2.14,180.2,3,184.64,4,189a10.36,10.36,0,0,0,6.66,2.49Z"/></g></g></g></svg>