<svg xmlns="http://www.w3.org/2000/svg" viewBox="0 0 306.74 308.62"><defs><style>.cls-1{fill:#ffb546;}.cls-2{fill:#bdc3c7;}.cls-3{fill:#e6e6e6;}.cls-4{fill:#95a5a5;}</style></defs><title>moon2</title><g id="Layer_2" data-name="Layer 2"><g id="Layer_4" data-name="Layer 4"><path class="cls-1" d="M213.26,46.17a119.1,119.1,0,1,0-167,167.19C43.33,209.54,213.26,46.17,213.26,46.17Z"/><circle class="cls-2" cx="160.73" cy="162.61" r="146"/><path class="cls-3" d="M251.1,277.28c2.74-2.16,5.24-4.49,7.79-6.79A182.42,182.42,0,0,0,51.57,65.82,145.94,145.94,0,0,0,251.1,277.28Z"/><circle class="cls-4" cx="175.84" cy="122.82" r="7.3"/><circle class="cls-4" cx="86.54" cy="174.61" r="7.3"/><circle class="cls-4" cx="253.61" cy="168.42" r="18.25"/><path class="cls-4" d="M87.24,234.47a40.15,40.15,0,0,0-56.39-6.68c-.19.14-.36.32-.54.47a144.84,144.84,0,0,0,54.35,58.81A40.12,40.12,0,0,0,87.24,234.47Z"/><path class="cls-4" d="M71.67,102.67a32.53,32.53,0,0,0-2.8-53.43,145.26,145.26,0,0,0-40.14,51.27A32.76,32.76,0,0,0,71.67,102.67Z"/></g></g></svg>