<svg xmlns="http://www.w3.org/2000/svg" viewBox="0 0 122.4 122.4"><defs><style>.cls-1{fill:#bdc3c7;}.cls-2{fill:#e6e6e6;}.cls-3{fill:#95a5a5;}</style></defs><title>moon</title><g id="Layer_2" data-name="Layer 2"><g id="Layer_4" data-name="Layer 4"><circle class="cls-1" cx="61.2" cy="61.2" r="61.2"/><path class="cls-2" d="M99.08,109.27c1.15-.91,2.2-1.88,3.27-2.85a76.47,76.47,0,0,0-86.9-85.79,61.17,61.17,0,0,0,83.63,88.64Z"/><circle class="cls-3" cx="67.54" cy="44.52" r="3.06"/><circle class="cls-3" cx="30.1" cy="66.23" r="3.06"/><circle class="cls-3" cx="100.13" cy="63.64" r="7.65"/><path class="cls-3" d="M30.4,91.32a16.84,16.84,0,0,0-23.64-2.8l-.23.2a61.79,61.79,0,0,0,6.6,10.36,60.82,60.82,0,0,0,16.19,14.29A16.83,16.83,0,0,0,30.4,91.32Z"/><path class="cls-3" d="M23.87,36.08a13.77,13.77,0,0,0,2.29-19.34,13.54,13.54,0,0,0-3.46-3.06A60.91,60.91,0,0,0,5.87,35.17,13.73,13.73,0,0,0,23.87,36.08Z"/></g></g></svg>