<svg xmlns="http://www.w3.org/2000/svg" viewBox="0 0 30.73 44.68"><defs><style>.cls-1{fill:#d1bee5;}.cls-2{fill:#f2edf9;}.cls-3{fill:#daccf1;}.cls-4{fill:#dfd2f2;}.cls-5{fill:#5628b4;}.cls-6{fill:#9c81d3;}.cls-7{fill:#e7455f;}.cls-8{fill:#ab0058;}.cls-9{fill:#e9e0f6;}.cls-10{fill:#d7cbed;}</style></defs><title>person</title><g id="Layer_2" data-name="Layer 2"><g id="Layer_4" data-name="Layer 4"><path class="cls-1" d="M4.66,21.34l5.6-13.87a3.62,3.62,0,0,1,4.72-2l12.31,5a3.62,3.62,0,0,1,2,4.72L23.69,29A3.62,3.62,0,0,1,19,31l-12.31-5A3.62,3.62,0,0,1,4.66,21.34Z"/><path class="cls-2" d="M11.82,7.63,6.23,10a3.62,3.62,0,0,0-1.94,2L2.63,16.07a4,4,0,0,0,2.28,5.37,3.83,3.83,0,0,0,2.5-.06L2.63,33.22,16.91,39l4.76-11.8A3.8,3.8,0,0,0,23.43,29a4,4,0,0,0,5.36-2.28l1.67-4.13a3.62,3.62,0,0,0,0-2.78l-2.37-5.59a3.65,3.65,0,0,0-2-1.94L14.6,7.6a3.62,3.62,0,0,0-2.78,0Z"/><circle class="cls-2" cx="21.78" cy="6.35" r="6.35"/><circle class="cls-3" cx="22.49" cy="8.02" r="4.54"/><path class="cls-4" d="M25.68,15.54A9.65,9.65,0,0,0,28,14.13a3.61,3.61,0,0,0-1.94-1.88L25,11.8a6.3,6.3,0,0,1-.72.4,6.36,6.36,0,0,1-8.33-3.36,1.82,1.82,0,0,0-3.35,1.41h0A10,10,0,0,0,25.68,15.54Z"/><circle class="cls-5" cx="21.78" cy="6.35" r="4.54"/><path class="cls-6" d="M23.2,9.7a3.64,3.64,0,0,1-4.76-1.93.91.91,0,1,1,1.67-.71,1.81,1.81,0,1,0,2.23-2.43A.91.91,0,0,1,22.9,2.9h0a3.63,3.63,0,0,1,2.34,4.57,3.69,3.69,0,0,1-2,2.23Z"/><path class="cls-2" d="M7.42,41.91l6.25-15.47L6.53,23.55.28,39a3.86,3.86,0,0,0,2.13,5h0a3.86,3.86,0,0,0,5-2.13Z"/><path class="cls-4" d="M11.46,28.48a1.29,1.29,0,0,0-1.67.71h0L5.18,40.6a1.8,1.8,0,0,1-2.36,1L0,40.46A3.84,3.84,0,0,0,2.41,44h0a3.86,3.86,0,0,0,5-2.13h0l4.75-11.76A1.28,1.28,0,0,0,11.46,28.48Z"/><path class="cls-2" d="M15.58,42.27l5.23-13-7.14-2.88L8.44,39.38a3.86,3.86,0,0,0,2.13,5h0a3.86,3.86,0,0,0,5-2.13Z"/><path class="cls-4" d="M19.62,28.84a1.28,1.28,0,0,0-1.67.71h0L13.34,41A1.82,1.82,0,0,1,11,42L8.16,40.82a3.87,3.87,0,0,0,2.4,3.58h0a3.86,3.86,0,0,0,5-2.13h0l4.74-11.76A1.28,1.28,0,0,0,19.62,28.84Z"/><path class="cls-7" d="M3.11,32h0a1.27,1.27,0,0,1,1.67-.71l4.76,1.92a1.29,1.29,0,0,1,.71,1.67h0a1.28,1.28,0,0,1-1.67.71L3.82,33.7A1.28,1.28,0,0,1,3.11,32Z"/><path class="cls-8" d="M5.49,33a1.27,1.27,0,0,1,1.67-.71l2.38,1a1.3,1.3,0,0,1,.71,1.67h0a1.28,1.28,0,0,1-1.67.71l-2.38-1A1.28,1.28,0,0,1,5.49,33Z"/><path class="cls-7" d="M11.21,32.53h0a1.29,1.29,0,0,1,1.67-.71l4.76,1.93a1.28,1.28,0,0,1,.71,1.67h0a1.3,1.3,0,0,1-1.67.71L11.92,34.2A1.27,1.27,0,0,1,11.21,32.53Z"/><path class="cls-4" d="M9.84,15.37a1.28,1.28,0,1,0-2.38-1h0l-2.8,6.92.25.11a3.83,3.83,0,0,0,2.5-.06Z"/><path class="cls-8" d="M14.78,34h0a1.28,1.28,0,0,1,1.67-.7l1.19.48a1.28,1.28,0,0,1,.71,1.67h0a1.3,1.3,0,0,1-1.67.71l-1.19-.48A1.28,1.28,0,0,1,14.78,34Z"/><path class="cls-7" d="M3.41,14.16h0a1.27,1.27,0,0,1,1.67-.71l4.76,1.92A1.29,1.29,0,0,1,10.55,17h0a1.29,1.29,0,0,1-1.67.71L4.12,15.83A1.28,1.28,0,0,1,3.41,14.16Z"/><path class="cls-1" d="M7.93,21.52h0a1.27,1.27,0,0,1,1.67-.71l1.39.56A1.28,1.28,0,0,1,11.7,23h0a1.28,1.28,0,0,1-1.67.71l-1.4-.56A1.28,1.28,0,0,1,7.93,21.52Z"/><path class="cls-1" d="M12.69,23.44h0a1.28,1.28,0,0,1,1.67-.71l1.39.56A1.28,1.28,0,0,1,16.46,25h0a1.28,1.28,0,0,1-1.67.7l-1.39-.56A1.27,1.27,0,0,1,12.69,23.44Z"/><path class="cls-1" d="M17.45,25.36h0a1.29,1.29,0,0,1,1.67-.71l1.39.57a1.27,1.27,0,0,1,.71,1.67h0a1.29,1.29,0,0,1-1.67.71L18.16,27A1.27,1.27,0,0,1,17.45,25.36Z"/><path class="cls-8" d="M7.47,15.8h0a1.28,1.28,0,0,1,1.67-.71l.7.28A1.28,1.28,0,0,1,10.55,17h0a1.29,1.29,0,0,1-1.67.71l-.7-.28A1.28,1.28,0,0,1,7.47,15.8Z"/><path class="cls-9" d="M16.45,14.13l3.77,1.52a1.82,1.82,0,0,1,1,2.36l-1.36,3.37a1.82,1.82,0,0,1-2.37,1l-3.77-1.52a1.82,1.82,0,0,1-1-2.37l1.36-3.36A1.8,1.8,0,0,1,16.45,14.13Z"/><circle class="cls-10" cx="20.59" cy="5.87" r="1.81"/><path class="cls-4" d="M23.43,29a2.5,2.5,0,0,0,.25.09l2.82-7a1.29,1.29,0,0,0-.71-1.67,1.27,1.27,0,0,0-1.67.71l-2.45,6.05A3.8,3.8,0,0,0,23.43,29Z"/><path class="cls-7" d="M22.45,21.85h0a1.27,1.27,0,0,1,1.67-.71l4.76,1.92a1.29,1.29,0,0,1,.71,1.67h0a1.28,1.28,0,0,1-1.67.71l-4.77-1.92A1.28,1.28,0,0,1,22.45,21.85Z"/><path class="cls-8" d="M26.51,23.49h0a1.27,1.27,0,0,1,1.67-.71l.7.28a1.29,1.29,0,0,1,.71,1.67h0a1.28,1.28,0,0,1-1.67.71l-.7-.28A1.28,1.28,0,0,1,26.51,23.49Z"/><path class="cls-4" d="M12.94,19.39h0a1.27,1.27,0,0,1,1.67-.71l3.77,1.52a1.28,1.28,0,0,1,.71,1.67h0a1.28,1.28,0,0,1-1.67.7l-3.77-1.52A1.28,1.28,0,0,1,12.94,19.39Z"/></g></g></svg>