<svg xmlns="http://www.w3.org/2000/svg" viewBox="0 0 92.36 101.64"><defs><style>.cls-1{fill:#d1bee5;}.cls-2{fill:#f2edf9;}.cls-3{fill:#daccf1;}.cls-4{fill:#dfd2f2;}.cls-5{fill:#5628b4;}.cls-6{fill:#9c81d3;}.cls-7{fill:#e7455f;}.cls-8{fill:#ab0058;}.cls-9{fill:#e9e0f6;}.cls-10{fill:#d7cbed;}</style></defs><title>person2</title><g id="Layer_2" data-name="Layer 2"><g id="Layer_4" data-name="Layer 4"><path class="cls-1" d="M24.86,40,48,10.58A9.07,9.07,0,0,1,60.73,9L86.87,29.55a9.09,9.09,0,0,1,1.54,12.76L65.3,71.76A9.09,9.09,0,0,1,52.54,73.3L26.4,52.8A9.09,9.09,0,0,1,24.86,40Z"/><path class="cls-2" d="M51.62,12,36.54,13.86a9.08,9.08,0,0,0-6.06,3.41L23.66,26c-3.5,4.46-3,11.32,1.74,14.49a9.56,9.56,0,0,0,6.05,1.6L11.73,67.18,42.06,91l19.64-25a9.65,9.65,0,0,0,3,5.5c4.2,3.81,11,2.7,14.5-1.76l6.89-8.78A9.1,9.1,0,0,0,88,54.19L86.13,39.12a9.08,9.08,0,0,0-3.41-6.06L58.31,13.91A9,9,0,0,0,51.62,12Z"/><circle class="cls-2" cx="76.46" cy="15.9" r="15.9"/><circle class="cls-3" cx="77.01" cy="20.41" r="11.36"/><path class="cls-4" d="M79.46,40.71a25,25,0,0,0,6.63-1.77,9,9,0,0,0-3.37-5.88l-2.33-1.83a15.54,15.54,0,0,1-2,.46A15.92,15.92,0,0,1,60.68,17.81a4.54,4.54,0,1,0-9,1.08h0A25,25,0,0,0,79.46,40.71Z"/><circle class="cls-5" cx="76.46" cy="15.9" r="11.36"/><path class="cls-6" d="M77.55,24.92A9.09,9.09,0,0,1,67.44,17,2.27,2.27,0,1,1,72,16.45a4.54,4.54,0,1,0,7-4.32,2.27,2.27,0,1,1,2.55-3.76h0a9.09,9.09,0,0,1-4,16.55Z"/><path class="cls-2" d="M17.21,91.42,43,58.56,27.83,46.66,2.06,79.51A9.63,9.63,0,0,0,3.69,93h0a9.63,9.63,0,0,0,13.52-1.63Z"/><path class="cls-4" d="M36.26,61.94a3.2,3.2,0,0,0-4.51.54h0l-19,24.22a4.53,4.53,0,0,1-6.37.77l-6-4.68A9.62,9.62,0,0,0,3.69,93h0a9.63,9.63,0,0,0,13.52-1.63h0l19.59-25A3.21,3.21,0,0,0,36.26,61.94Z"/><path class="cls-2" d="M36.59,98l21.57-27.5L43,58.56,21.42,86.05a9.64,9.64,0,0,0,1.64,13.53h0A9.65,9.65,0,0,0,36.59,98Z"/><path class="cls-4" d="M55.62,68.47a3.22,3.22,0,0,0-4.51.54h0l-19,24.23a4.53,4.53,0,0,1-6.37.77l-6-4.69a9.63,9.63,0,0,0,3.3,10.26h0A9.63,9.63,0,0,0,36.57,98h0l19.6-25A3.21,3.21,0,0,0,55.62,68.47Z"/><path class="cls-7" d="M13.71,64.66h0a3.2,3.2,0,0,1,4.5-.55l10.11,7.94a3.2,3.2,0,0,1,.55,4.5h0a3.22,3.22,0,0,1-4.51.54L14.26,69.17A3.21,3.21,0,0,1,13.71,64.66Z"/><path class="cls-8" d="M18.77,68.62a3.21,3.21,0,0,1,4.51-.54l5,4a3.21,3.21,0,0,1,.55,4.51h0a3.21,3.21,0,0,1-4.51.55l-5.06-4A3.21,3.21,0,0,1,18.77,68.62Z"/><path class="cls-7" d="M32.84,71.5h0A3.21,3.21,0,0,1,37.35,71l10.11,7.94A3.2,3.2,0,0,1,48,83.4h0a3.21,3.21,0,0,1-4.51.54L33.38,76A3.22,3.22,0,0,1,32.84,71.5Z"/><path class="cls-4" d="M41.47,29.28a3.21,3.21,0,1,0-5-4h0L24.89,40c.18.14.32.31.51.44a9.54,9.54,0,0,0,6.05,1.6Z"/><path class="cls-8" d="M40.42,77.45h0a3.21,3.21,0,0,1,4.51-.55l2.53,2a3.2,3.2,0,0,1,.54,4.5h0a3.21,3.21,0,0,1-4.51.54L41,82A3.21,3.21,0,0,1,40.42,77.45Z"/><path class="cls-7" d="M26.85,21.89h0a3.2,3.2,0,0,1,4.51-.54l10.11,7.93A3.21,3.21,0,0,1,42,33.79h0a3.21,3.21,0,0,1-4.51.54L27.4,26.4A3.21,3.21,0,0,1,26.85,21.89Z"/><path class="cls-1" d="M32.6,42.73h0a3.21,3.21,0,0,1,4.51-.54l3,2.32A3.21,3.21,0,0,1,40.62,49h0a3.21,3.21,0,0,1-4.51.55l-3-2.33A3.21,3.21,0,0,1,32.6,42.73Z"/><path class="cls-1" d="M42.71,50.67h0a3.21,3.21,0,0,1,4.51-.54l3,2.32A3.22,3.22,0,0,1,50.73,57h0a3.21,3.21,0,0,1-4.51.55l-3-2.33A3.2,3.2,0,0,1,42.71,50.67Z"/><path class="cls-1" d="M52.82,58.6h0a3.21,3.21,0,0,1,4.51-.55l3,2.33a3.21,3.21,0,0,1,.55,4.51h0a3.21,3.21,0,0,1-4.51.54l-3-2.32A3.21,3.21,0,0,1,52.82,58.6Z"/><path class="cls-8" d="M35.48,28.66h0A3.21,3.21,0,0,1,40,28.11l1.48,1.17A3.21,3.21,0,0,1,42,33.79h0a3.21,3.21,0,0,1-4.51.54L36,33.17A3.21,3.21,0,0,1,35.48,28.66Z"/><path class="cls-9" d="M58.24,30.88l8,6.29A4.54,4.54,0,0,1,67,43.55L61.41,50.7a4.54,4.54,0,0,1-6.37.77l-8-6.29a4.55,4.55,0,0,1-.77-6.38l5.61-7.15A4.55,4.55,0,0,1,58.24,30.88Z"/><circle class="cls-10" cx="73.93" cy="13.92" r="4.54"/><path class="cls-4" d="M64.69,71.43c.18.15.38.25.56.39L76.85,57a3.21,3.21,0,1,0-5-4L61.7,65.93a9.65,9.65,0,0,0,3,5.5Z"/><path class="cls-7" d="M67.29,53.62h0a3.21,3.21,0,0,1,4.51-.54L81.91,61a3.21,3.21,0,0,1,.54,4.51h0a3.21,3.21,0,0,1-4.51.55L67.83,58.12A3.2,3.2,0,0,1,67.29,53.62Z"/><path class="cls-8" d="M75.92,60.39h0a3.2,3.2,0,0,1,4.5-.55L81.91,61a3.21,3.21,0,0,1,.54,4.51h0a3.21,3.21,0,0,1-4.51.55L76.46,64.9A3.2,3.2,0,0,1,75.92,60.39Z"/><path class="cls-4" d="M46.13,41.1h0a3.21,3.21,0,0,1,4.51-.55l8,6.29a3.21,3.21,0,0,1,.54,4.51h0a3.21,3.21,0,0,1-4.51.55l-8-6.29A3.21,3.21,0,0,1,46.13,41.1Z"/></g></g></svg>