<svg xmlns="http://www.w3.org/2000/svg" viewBox="0 0 40 40"><defs><style>.cls-1{fill:#f9c38a;}.cls-2{fill:#ffd199;}.cls-3{fill:#ffd8ae;}.cls-4{fill:#f3d55b;}.cls-5{fill:#f9eab0;}</style></defs><title>planet5_1</title><g id="Layer_2" data-name="Layer 2"><g id="Layer_4" data-name="Layer 4"><circle class="cls-1" cx="20.48" cy="19.52" r="14.23"/><circle class="cls-2" cx="18.4" cy="17.44" r="10.07"/><circle class="cls-3" cx="16.31" cy="14.66" r="5.21"/><path class="cls-4" d="M8.33,5.29H7.23L5.55,3.61V2.51a.69.69,0,1,0-1.38,0v1.1L2.49,5.29H1.39A.69.69,0,0,0,.69,6a.7.7,0,0,0,.7.7h1.1L4.17,8.35v1.1a.69.69,0,1,0,1.38,0V8.35L7.23,6.68h1.1A.71.71,0,0,0,9,6,.7.7,0,0,0,8.33,5.29Z"/><circle class="cls-4" cx="34.71" cy="37.92" r="0.69"/><circle class="cls-4" cx="38.18" cy="24.03" r="0.69"/><circle class="cls-4" cx="3.47" cy="16.39" r="0.69"/><circle class="cls-4" cx="16.66" cy="17.09" r="0.69"/><circle class="cls-4" cx="21.52" cy="38.61" r="0.69"/><path class="cls-5" d="M24.27,6.2Z"/><path class="cls-5" d="M39.85.15C39-.74,34.36,2.3,28.21,7.59a12.34,12.34,0,0,1,1.16.85A58.37,58.37,0,0,1,38,2c-1.41,2.65-6.67,9.61-16.5,19.44S4.68,36.56,2,38a63.89,63.89,0,0,1,7.3-9.64,12.25,12.25,0,0,1-.84-1.16C2.66,33.84-.78,38.91.15,39.85c1.36,1.35,11.34-6.43,22.3-17.39S41.2,1.51,39.85.15Z"/></g></g></svg>