<svg xmlns="http://www.w3.org/2000/svg" viewBox="0 0 220.73 148.03"><defs><style>.cls-1{fill:#db8f35;}.cls-2{fill:#c06515;}.cls-3{fill:#ffecc5;}.cls-4{fill:#ffcb5a;}</style></defs><title>planet6</title><g id="Layer_2" data-name="Layer 2"><g id="Layer_4" data-name="Layer 4"><path class="cls-1" d="M54.63,24.43a74,74,0,1,1-18.87,55,74.09,74.09,0,0,1,18.87-55"/><path class="cls-1" d="M180.3,52.22A74,74,0,1,1,35.76,79.44l1.05-.07c36.59-3.94,47.49,1.31,73.84-3S145.33,62.9,180.3,52.22Z"/><path class="cls-2" d="M170.89,32.54a72.78,72.78,0,0,1,9.41,19.68c-35,10.68-43.36,19.83-69.65,24.13s-37.25-.92-73.84,3l-1.05.06a73,73,0,0,1,4.79-32.17c.81.24,26.8,7.66,45.1,3.9,18.63-3.76,29.06-9,43.88-12.49a322.54,322.54,0,0,1,41.36-6.14Z"/><path class="cls-3" d="M170.89,32.54a322.54,322.54,0,0,0-41.36,6.14c-14.82,3.48-25.25,8.73-43.88,12.49-18.3,3.76-44.29-3.66-45.1-3.9a74,74,0,0,1,14-22.83h0a86.54,86.54,0,0,0,30.91.29c17.41-2.92,29.72-8,43.2-10a213,213,0,0,1,22-2.22,73.63,73.63,0,0,1,20.17,20Z"/><path class="cls-1" d="M150.72,12.52a213,213,0,0,0-22,2.22c-13.48,1.94-25.79,7.06-43.2,10a86.54,86.54,0,0,1-30.91-.29,74,74,0,0,1,96.09-11.91Z"/><path class="cls-4" d="M175,37.64c14.57,1.7,31.8,8,33.56,16.79,3.49,17.54-37.7,40.49-92,51.23S15.43,110.91,11.93,93.37c-1.74-8.78,7.68-18.89,24.32-28.16L38.1,54.65C13.46,66.72-3,82.2.45,99.31a25.64,25.64,0,0,0,11.73,16.38c18.49,12.37,60.43,14.42,106.84,5.24,52.92-10.5,107.19-35.36,101.26-65.17a25.68,25.68,0,0,0-11.73-16.37c-8.81-5.89-22.93-9.44-40.33-10.55Z"/></g></g></svg>