<svg xmlns="http://www.w3.org/2000/svg" viewBox="0 0 484.05 483.94"><defs><style>.cls-1{fill:#be163a;}.cls-2{fill:#f1476f;}.cls-3{fill:#ffcc75;}.cls-4{fill:#ffa836;}</style></defs><title>planet3</title><g id="Layer_2" data-name="Layer 2"><g id="Layer_4" data-name="Layer 4"><path class="cls-1" d="M393.47,334.77A14.18,14.18,0,0,1,419,326.24c6.94,9.24,13.47,18.31,19.42,27A14.19,14.19,0,0,1,415,369.27c-5.72-8.33-12-17.08-18.71-26A14.09,14.09,0,0,1,393.47,334.77Z"/><path class="cls-2" d="M101.38,52.38a14.18,14.18,0,0,1,22.05-11.79C134.27,47.83,145.8,56,157.7,65a14.18,14.18,0,1,1-17,22.68c-11.47-8.61-22.56-16.5-33-23.43A14.2,14.2,0,0,1,101.38,52.38Z"/><path class="cls-3" d="M386.26,386.26A204,204,0,1,0,97.69,97.69,204,204,0,0,0,386.26,386.26Z"/><path class="cls-4" d="M386.26,386.26a204,204,0,0,0,0-288.57h0L97.69,386.26a204.06,204.06,0,0,0,288.57,0Z"/><path class="cls-2" d="M0,31.67C0,22,2.86,14.28,8.57,8.57,18.81-1.67,35.55-2.74,58.3,5.4,76,11.71,97.86,23.55,123.43,40.59A14.19,14.19,0,0,1,107.7,64.2c-52.22-34.81-74.77-37.42-79-35.54-2,4.48,1,28.37,38.84,83.94,33.28,48.88,82.94,107.13,139.83,164s115.13,106.54,164,139.82c55.58,37.84,79.47,40.83,83.94,38.84,2-4.57-1.12-29-40.26-86a14.18,14.18,0,1,1,23.38-16c18.78,27.35,32,50.8,39.14,69.71,3.43,9,13.85,36.43-2.17,52.45-10.24,10.24-27,11.3-49.75,3.16-17.65-6.32-39.57-18.18-65.16-35.23C309.08,409.06,247.57,357,187.27,296.68S74.89,174.86,40.63,123.48C23.58,97.9,11.73,76,5.41,58.32Q0,43.2,0,31.67Z"/><path class="cls-1" d="M475.38,475.38c16-16,5.59-43.44,2.16-52.45-7.19-18.91-20.35-42.36-39.14-69.71a14.18,14.18,0,1,0-23.38,16c39.14,57,42.29,81.44,40.27,86-4.48,2-28.36-1-84-38.84-48.88-33.28-107.13-82.93-164-139.82h0l-20.06,20.05h0c60.31,60.3,121.82,112.38,173.2,146.63,25.58,17.05,47.5,28.9,65.16,35.23C448.39,486.68,465.13,485.62,475.38,475.38Z"/></g></g></svg>