<svg xmlns="http://www.w3.org/2000/svg" viewBox="0 0 62.99 63.03"><defs><style>.cls-1{fill:#2a90de;}.cls-2{fill:#2683c9;}.cls-3{fill:#2379ba;}.cls-4{fill:#2a669e;}</style></defs><title>planet7</title><g id="Layer_2" data-name="Layer 2"><g id="Layer_4" data-name="Layer 4"><g id="surface1"><path class="cls-1" d="M61.5,40.81A31.46,31.46,0,1,1,40.81,1.43,31.45,31.45,0,0,1,61.5,40.81Z"/><path class="cls-2" d="M57.43,13.72a2.17,2.17,0,0,0-.07.24,48.27,48.27,0,0,1-53,33.43A31.46,31.46,0,0,0,58.71,15.74C58.31,15.05,57.88,14.37,57.43,13.72Z"/><path class="cls-3" d="M24.42,39.5c.89-2.86-1.63-6.19-5.64-7.44s-8,.07-8.86,2.93,1.64,6.19,5.64,7.43S23.53,42.36,24.42,39.5Z"/><path class="cls-4" d="M39.86,38.66a18.28,18.28,0,0,1-8.71-6A20.42,20.42,0,0,0,21.33,26L21.14,26a20.48,20.48,0,0,0-11.86-.09,18.33,18.33,0,0,1-8.83.37c-.12.72-.23,1.43-.3,2.15A20.45,20.45,0,0,0,9.89,28a18.31,18.31,0,0,1,10.6.08l.2.06a18.34,18.34,0,0,1,8.81,6,20.31,20.31,0,0,0,9.7,6.61l19.29,6.11.36.11c.36-.64.7-1.29,1-2Z"/><path class="cls-4" d="M25.49,46.84a18.31,18.31,0,0,1-10.6-.08l-.2-.06a18.25,18.25,0,0,1-8.77-6A20.46,20.46,0,0,0,.74,36.2l-.3.48c.13.76.28,1.51.47,2.25a18.57,18.57,0,0,1,3.32,3.19,20.42,20.42,0,0,0,9.82,6.65l.19.06a20.51,20.51,0,0,0,11.92.07,18.24,18.24,0,0,1,10.48,0l16.62,5.2c.58-.55,1.14-1.14,1.68-1.75L37.28,46.87A20.41,20.41,0,0,0,25.49,46.84Z"/><path class="cls-4" d="M8.19,52.62l30.44,9.47A31.66,31.66,0,0,0,42.34,61L5.77,49.6A29.36,29.36,0,0,0,8.19,52.62Z"/><path class="cls-4" d="M37.44,25.9a60.71,60.71,0,0,0,23.24,7.79l2.13.25h0c.06-.73.1-1.45.11-2.17l-2-.24A58.67,58.67,0,0,1,38.53,24a60.7,60.7,0,0,0-23-7.77L4.71,14.91c-.41.66-.78,1.34-1.15,2l11.65,1.46A58.71,58.71,0,0,1,37.44,25.9Z"/><path class="cls-4" d="M19.47,5.91c.61.3,1.21.62,1.81,1A50.35,50.35,0,0,0,31,11a51.07,51.07,0,0,0,10.38,2.08,48.73,48.73,0,0,1,17.84,5.23l1.07.53a31.18,31.18,0,0,0-1.63-3.21A50.78,50.78,0,0,0,41.59,11,48.65,48.65,0,0,1,22.33,5c-.62-.35-1.25-.68-1.88-1a19.72,19.72,0,0,0-2.32-1,30.42,30.42,0,0,0-2.71,1.43A19.52,19.52,0,0,1,19.47,5.91Z"/><path class="cls-3" d="M24.42,39.5c.89-2.86-1.63-6.19-5.64-7.44s-8,.07-8.86,2.93,1.64,6.19,5.64,7.43S23.53,42.36,24.42,39.5Z"/><path class="cls-4" d="M39.86,38.66a18.28,18.28,0,0,1-8.71-6A20.42,20.42,0,0,0,21.33,26L21.14,26a20.48,20.48,0,0,0-11.86-.09,18.33,18.33,0,0,1-8.83.37c-.12.72-.23,1.43-.3,2.15A20.45,20.45,0,0,0,9.89,28a18.31,18.31,0,0,1,10.6.08l.2.06a18.34,18.34,0,0,1,8.81,6,20.31,20.31,0,0,0,9.7,6.61l19.29,6.11.36.11c.36-.64.7-1.29,1-2Z"/><path class="cls-4" d="M25.49,46.84a18.31,18.31,0,0,1-10.6-.08l-.2-.06a18.25,18.25,0,0,1-8.77-6A20.46,20.46,0,0,0,.74,36.2l-.3.48c.13.76.28,1.51.47,2.25a18.57,18.57,0,0,1,3.32,3.19,20.42,20.42,0,0,0,9.82,6.65l.19.06a20.51,20.51,0,0,0,11.92.07,18.24,18.24,0,0,1,10.48,0l16.62,5.2c.58-.55,1.14-1.14,1.68-1.75L37.28,46.87A20.41,20.41,0,0,0,25.49,46.84Z"/><path class="cls-4" d="M8.19,52.62l30.44,9.47A31.66,31.66,0,0,0,42.34,61L5.77,49.6A29.36,29.36,0,0,0,8.19,52.62Z"/><path class="cls-4" d="M37.44,25.9a60.71,60.71,0,0,0,23.24,7.79l2.13.25h0c.06-.73.1-1.45.11-2.17l-2-.24A58.67,58.67,0,0,1,38.53,24a60.7,60.7,0,0,0-23-7.77L4.71,14.91c-.41.66-.78,1.34-1.15,2l11.65,1.46A58.71,58.71,0,0,1,37.44,25.9Z"/><path class="cls-4" d="M19.47,5.91c.61.3,1.21.62,1.81,1A50.35,50.35,0,0,0,31,11a51.07,51.07,0,0,0,10.38,2.08,48.73,48.73,0,0,1,17.84,5.23l1.07.53a31.18,31.18,0,0,0-1.63-3.21A50.78,50.78,0,0,0,41.59,11,48.65,48.65,0,0,1,22.33,5c-.62-.35-1.25-.68-1.88-1a19.72,19.72,0,0,0-2.32-1,30.42,30.42,0,0,0-2.71,1.43A19.52,19.52,0,0,1,19.47,5.91Z"/></g></g></g></svg>