<svg xmlns="http://www.w3.org/2000/svg" viewBox="0 0 222.04 222.03"><defs><style>.cls-1{fill:#ffecc5;}.cls-2{fill:#8a4325;}.cls-3{fill:#db8f35;}.cls-4{fill:#c06515;}</style></defs><title>planet</title><g id="Layer_2" data-name="Layer 2"><g id="Layer_4" data-name="Layer 4"><path class="cls-1" d="M2.46,87.86A111,111,0,0,1,162,12.42a110.93,110.93,0,0,1,48.74,147.3A110.92,110.92,0,0,1,68.68,213.58a108.19,108.19,0,0,1-26.06-15.11,109.77,109.77,0,0,1-26.26-29.53l-.72-1.16A110.84,110.84,0,0,1,2.46,87.91"/><path class="cls-1" d="M42.62,198.47a109.77,109.77,0,0,1-26.26-29.53C28.57,156.2,47.06,150.79,63.61,143c15.69-7.38,29.1-23.79,47.44-27.56,17.18-3.57,36.34,0,54.68-1.2,17.91-1.16,37.74-15.35,55.7-14.92a110.79,110.79,0,0,1-10.67,60.38c-11.73-2.41-17.9-5.31-28.91-5.65-12.64-.38-19.69,3-31,4.83-12.5,2-34.7,2.41-45.46,6.42-11.88,4.44-19.26,11.15-28.87,17.18-10.9,6.9-26.11,8.16-33.92,16Z"/><path class="cls-2" d="M197.54,180.62a111.09,111.09,0,0,1-128.86,33c10.81-6.47,30.31-10,43.82-14.86,13.22-4.78,25.34-12.65,40-14.92,14-2.12,30.6-1.35,45.08-3.18Z"/><path class="cls-3" d="M181.85,154.07c11,.34,17.18,3.24,28.91,5.65a109.37,109.37,0,0,1-13.22,20.9c-14.48,1.83-31.08,1.06-45.08,3.18-14.62,2.27-26.74,10.14-40,14.92-13.51,4.87-33,8.39-43.82,14.86a108.19,108.19,0,0,1-26.06-15.11c7.81-7.81,23-9.07,33.92-16,9.61-6,17-12.74,28.87-17.18,10.76-4,33-4.44,45.46-6.42,11.29-1.79,18.34-5.21,31-4.83Z"/><path class="cls-1" d="M54.3,15.61A110.87,110.87,0,0,1,162,12.42a226.58,226.58,0,0,0-24.81-2.36c-12.64-.34-22.1,5.45-33.4,7.24A281.16,281.16,0,0,0,60.76,29.51c-11.87,4.44-30.45,10.91-40,17A109.7,109.7,0,0,1,54.3,15.61Z"/><path class="cls-1" d="M91.6,39.06c16.46-3.52,34.85,3.67,51.45,2.22,17.66-1.54,27.8-11.77,43.39-11.77a112,112,0,0,1,20,24.76,109.35,109.35,0,0,1,11.87,28c-23.17-4.25-27.8,2.46-55.26,4.82-17.62,1.55-39-4.77-58.69.1-19.16,4.68-34.89,20-51.44,27.9-19.84,9.45-32.73,12-48.17,27.89A110.35,110.35,0,0,1,2.46,87.91v0c.82-1,13.13-15.74,43.92-24.62C61.92,58.76,74.61,42.68,91.6,39.06Z"/><path class="cls-4" d="M63.61,143c-16.55,7.77-35,13.18-47.25,25.92l-.72-1.16A111,111,0,0,1,4.73,143c15.44-15.93,28.33-18.44,48.17-27.89,16.55-7.87,32.28-23.22,51.44-27.9,19.65-4.87,41.07,1.45,58.69-.1,27.46-2.36,32.09-9.07,55.26-4.82a108.15,108.15,0,0,1,3.14,17c-18-.43-37.79,13.76-55.7,14.92-18.34,1.15-37.5-2.37-54.68,1.2C92.71,119.23,79.3,135.64,63.61,143Z"/><path class="cls-3" d="M2.46,87.86A111.26,111.26,0,0,1,20.71,46.5c9.6-6.08,28.18-12.55,40.05-17A281.16,281.16,0,0,1,103.81,17.3c11.3-1.79,20.76-7.58,33.4-7.24A226.58,226.58,0,0,1,162,12.42a111.35,111.35,0,0,1,24.42,17.09c-15.59,0-25.73,10.23-43.39,11.77-16.6,1.45-35-5.74-51.45-2.22-17,3.62-29.68,19.7-45.22,24.18C15.59,72.12,3.28,86.89,2.46,87.86Z"/></g></g></svg>