<svg xmlns="http://www.w3.org/2000/svg" viewBox="0 0 425.95 426.36"><defs><style>.cls-1{fill:#7d6599;}.cls-2{fill:#3d324c;}.cls-3{fill:#894b9d;}.cls-4{fill:#804169;}.cls-5{fill:#bdc3c7;}</style></defs><title>planet2</title><g id="Layer_2" data-name="Layer 2"><g id="Layer_4" data-name="Layer 4"><path class="cls-1" d="M418.06,178.49l-28.63-75.61a122.87,122.87,0,0,0-76.34-72.67L235.28,6c-35.23-11.75-74.14-5.88-105,14.68L62.78,66.18c-2.2,1.47-5.14,3.67-7.34,5.14a119.43,119.43,0,0,0-47,85.15L1.12,238a121.22,121.22,0,0,0,37.44,98.36L98,392.1c27.16,25.69,63.87,37.44,100.57,31.56l80.75-11.74a122.67,122.67,0,0,0,80-47,73.12,73.12,0,0,0,8.07-12.48L409.25,282C427.6,251.89,431.27,213,418.06,178.49Z"/><path class="cls-2" d="M358.6,366.41a128.93,128.93,0,0,1-80,47l-80.74,11.74c-36.71,5.14-73.41-5.87-100.57-31.56L37.82,337.78A123.63,123.63,0,0,1,.39,239.41l7.33-81.47c2.94-33.77,20.56-64.6,47-85.15a124.85,124.85,0,0,0-25,63.12L22.41,217.4c-2.94,36.7,10.27,72.67,37.43,98.36l59.46,55.78c27.16,25.7,63.86,37.44,100.57,31.57l80.74-11.75C321.9,387.7,341.72,379.62,358.6,366.41Z"/><path class="cls-1" d="M382.09,169a44,44,0,1,1-44-44A44,44,0,0,1,382.09,169Z"/><path class="cls-1" d="M161.88,146.93a44,44,0,1,1-44-44.05A44,44,0,0,1,161.88,146.93Z"/><path class="cls-3" d="M110.49,271.71a22,22,0,1,1-22-22A22,22,0,0,1,110.49,271.71Z"/><path class="cls-3" d="M257.3,88.2a22,22,0,1,1-22-22A22,22,0,0,1,257.3,88.2Z"/><path class="cls-3" d="M308.69,293.74A14.68,14.68,0,1,1,294,279.06,14.68,14.68,0,0,1,308.69,293.74Z"/><path class="cls-4" d="M227.94,227.67a22,22,0,1,1-22-22A22,22,0,0,1,227.94,227.67Z"/><path class="cls-4" d="M205.19,367.87a22,22,0,1,1-22-22A22,22,0,0,1,205.19,367.87Z"/><path class="cls-5" d="M352.73,271.71a7.35,7.35,0,0,1-7.34-7.34c0-.73,0-2.2.73-2.93s.74-1.47,1.47-2.21a6.71,6.71,0,0,1,8.08-1.46c2.2.73,2.93,2.2,3.67,3.67.73.73.73,2.2.73,2.93a6.65,6.65,0,0,1-2.2,5.14c-.74.74-1.47,1.47-2.2,1.47C354.93,271.71,353.47,271.71,352.73,271.71Z"/><path class="cls-5" d="M220.6,315.76a7.36,7.36,0,0,1-7.34-7.34c0-.74,0-2.21.73-2.94s.74-1.47,1.47-2.2a6.7,6.7,0,0,1,8.08-1.47c2.2.74,2.93,2.2,3.67,3.67.73.73.73,2.2.73,2.94a6.63,6.63,0,0,1-2.2,5.13c-.74.74-1.47,1.47-2.2,1.47C222.8,315.76,221.34,315.76,220.6,315.76Z"/><path class="cls-5" d="M161.88,308.42a7.36,7.36,0,0,1-7.34-7.35c0-.73,0-2.2.73-2.93s.74-1.47,1.47-2.2a6.7,6.7,0,0,1,8.07-1.47c.74.73,1.47.73,2.21,1.47s1.46,1.47,1.46,2.2c.74.73.74,2.2.74,2.93,0,2.94-1.47,5.88-4.41,6.61C164.08,308.42,162.61,308.42,161.88,308.42Z"/><path class="cls-5" d="M227.94,161.61a7.36,7.36,0,0,1-7.34-7.35c0-.73,0-2.2.74-2.93s.73-1.47,1.46-2.2a6.71,6.71,0,0,1,8.08-1.47c.73.73,1.47.73,2.2,1.47s1.47,1.46,1.47,2.2c.73.73.73,2.2.73,2.93,0,2.94-1.47,5.88-4.4,6.61C230.14,161.61,228.68,161.61,227.94,161.61Z"/></g></g></svg>