<svg xmlns="http://www.w3.org/2000/svg" viewBox="0 0 148.42 146.53"><defs><style>.cls-1{fill:#9fbdc2;}.cls-2{fill:#9fcacc;}.cls-3{fill:#add7db;}.cls-4{fill:#f3d55b;}.cls-5{fill:#ecf0f1;}</style></defs><title>planet5</title><g id="Layer_2" data-name="Layer 2"><g id="Layer_4" data-name="Layer 4"><circle class="cls-1" cx="73.59" cy="76.23" r="48.3"/><circle class="cls-2" cx="70.4" cy="67.13" r="38.31"/><circle class="cls-3" cx="68.56" cy="60.36" r="30.95"/><path class="cls-4" d="M71.39,143l-4.2-4.7.16-3,4.69-4.2a2.1,2.1,0,1,0-2.8-3.13l-4.69,4.2-3-.16-4.2-4.7a2.1,2.1,0,0,0-3.13,2.8l4.2,4.7-.16,3L53.6,142a2.1,2.1,0,1,0,2.8,3.13l4.69-4.2,3,.17,4.2,4.69a2.1,2.1,0,0,0,3.13-2.8Z"/><circle class="cls-4" cx="77.69" cy="2.1" r="2.1"/><circle class="cls-4" cx="2.1" cy="78.23" r="2.1"/><circle class="cls-5" cx="6.05" cy="60.6" r="2.1"/><circle class="cls-4" cx="94.99" cy="11.98" r="2.1"/><circle class="cls-4" cx="146.32" cy="78.76" r="2.1"/><circle class="cls-4" cx="77.67" cy="113.45" r="2.1"/><circle class="cls-4" cx="56.27" cy="46.64" r="2.1"/><path class="cls-5" d="M37,107.69c-8.83,2.91-12.32,2.1-13,1.13-.77-1.14.14-5.82,9.11-15.4,8-8.5,19.67-18.17,33-27.24C95.75,46,118.47,38.77,121.19,42.64c.62.91.2,4.19-5,10.74.7,1.29,1.32,2.6,1.89,3.93a2,2,0,0,0,.8-.57c6.27-7.62,8.18-13,5.83-16.46-6.52-9.55-40,8.18-60.94,22.43C50.15,72,38.18,81.84,30,90.55c-9,9.66-12.25,16.61-9.51,20.63.14.2.29.39.45.58,2.68,3,8.59,2.89,18-.31a2,2,0,0,0,.9-.65C38.86,109.81,37.89,108.78,37,107.69Z"/></g></g></svg>