<svg xmlns="http://www.w3.org/2000/svg" viewBox="0 0 32.2 32.2"><defs><style>.cls-1{fill:#f9c38a;}.cls-2{fill:#ffd199;}.cls-3{fill:#ffd8ae;}.cls-4{fill:#f3d55b;}.cls-5{fill:#f9eab0;}</style></defs><title>planet4</title><g id="Layer_2" data-name="Layer 2"><g id="Layer_4" data-name="Layer 4"><circle class="cls-1" cx="16.49" cy="15.72" r="11.46"/><circle class="cls-2" cx="14.81" cy="14.04" r="8.1"/><circle class="cls-3" cx="13.14" cy="11.8" r="4.19"/><path class="cls-4" d="M6.71,4.26H5.82L4.47,2.91V2A.56.56,0,0,0,3.35,2v.89L2,4.26H1.12a.56.56,0,1,0,0,1.11H2L3.35,6.72v.89a.56.56,0,1,0,1.12,0V6.72L5.82,5.37h.89a.56.56,0,1,0,0-1.11Z"/><circle class="cls-4" cx="27.95" cy="30.53" r="0.56"/><circle class="cls-4" cx="30.74" cy="19.35" r="0.56"/><circle class="cls-4" cx="2.79" cy="13.2" r="0.56"/><circle class="cls-4" cx="13.41" cy="13.76" r="0.56"/><circle class="cls-4" cx="17.33" cy="31.09" r="0.56"/><path class="cls-5" d="M19.54,5Z"/><path class="cls-5" d="M32.08.12c-.71-.71-4.41,1.74-9.36,6,.32.21.63.44.93.68a46.51,46.51,0,0,1,6.92-5.15C29.44,3.77,25.2,9.37,17.29,17.29S3.77,29.44,1.64,30.57a50.48,50.48,0,0,1,5.87-7.76c-.24-.3-.46-.61-.67-.93C2.14,27.24-.63,31.33.12,32.08c1.09,1.09,9.13-5.18,18-14S33.17,1.21,32.08.12Z"/></g></g></svg>