<svg xmlns="http://www.w3.org/2000/svg" viewBox="0 0 28.93 23.42"><defs><style>.cls-1{fill:#d49e6c;}.cls-2{fill:#b68052;}.cls-3{fill:#9d693c;}</style></defs><title>rocks6</title><g id="Layer_2" data-name="Layer 2"><g id="Layer_4" data-name="Layer 4"><path class="cls-1" d="M20.47,23.36l-.34,0Z"/><path class="cls-1" d="M26.82,10.8a23.47,23.47,0,0,1-2.38-2.33l-1.2-1.25a.46.46,0,0,0-.5-.1,2.69,2.69,0,0,1-2.42-.63C19.21,5.64,18.87,4.54,19.18,4a.45.45,0,0,0-.11-.59,27.48,27.48,0,0,0-2.28-1.6l1.05.69C14.68,2.15,8.31,3.16,7.68,8a9.9,9.9,0,0,0,1.09,5.3l.31-.05c1.39-.17,2.6.32,2.69,1.1.07.6-.55,1.2-1.48,1.51a18.29,18.29,0,0,0,11.2,7.34c-.33.05-.67.09-1,.12,3-.26,5.66-1.32,7-3.52C28.27,18.45,30.65,13.71,26.82,10.8Zm-15.1-.86C9.78,9.43,8.43,8.12,8.72,7s2.1-1.55,4-1,3.29,1.82,3,2.91S13.67,10.46,11.72,9.94Zm4.85,9.49c-1.5-.06-2.69-.83-2.66-1.73s1.28-1.58,2.78-1.52,2.7.83,2.66,1.72S18.08,19.48,16.57,19.43Zm6.27-6.29c-.24.61-1.25.79-2.25.39S19,12.33,19.2,11.72s1.25-.78,2.25-.39S23.08,12.54,22.84,13.14Zm2.45,5.32c-.76.72-1.72.95-2.15.51s-.16-1.41.6-2.14,1.73-.95,2.16-.51S26.06,17.73,25.29,18.46Z"/><path class="cls-2" d="M10.29,15.9c.93-.31,1.55-.91,1.48-1.51-.09-.78-1.3-1.27-2.69-1.1l-.31.05A9.9,9.9,0,0,1,7.68,8c.63-4.88,7-5.89,10.16-5.53l-1.05-.69C12-1.1,8.27,0,5.22,1.52.53,3.82-.76,10,.4,14.67c1.22,4.9,6.83,6.37,12.25,7.8l.84.23a21.66,21.66,0,0,0,5.47.72h1.17l.34,0h0c.34,0,.68-.07,1-.12A18.29,18.29,0,0,1,10.29,15.9ZM8.26,2a3,3,0,0,1,2.08,0,.45.45,0,0,1,.24.59.46.46,0,0,1-.6.24,2.15,2.15,0,0,0-1.37,0,.38.38,0,0,1-.17,0A.46.46,0,0,1,8,2.59.44.44,0,0,1,8.26,2Zm-7,3.56A9.65,9.65,0,0,1,2.7,3.46a10.89,10.89,0,0,1,2-.36,6.17,6.17,0,0,0,1.91-.4.46.46,0,1,1,.4.82A7.1,7.1,0,0,1,4.82,4C3.47,4.15,2.07,4.31,1.29,5.56Zm5.24,6.87a.47.47,0,0,1-.49.42.82.82,0,0,0-.62.14.42.42,0,0,1-.28.1.49.49,0,0,1-.36-.18.46.46,0,0,1,.09-.64,1.76,1.76,0,0,1,1.24-.33A.46.46,0,0,1,6.53,12.43ZM3.2,8.33c.17-1.25.88-2.19,1.57-2.09s1.12,1.19.94,2.44-.88,2.18-1.58,2.09S3,9.57,3.2,8.33Zm3.51,8.44a.45.45,0,0,1-.45.4h0A2.63,2.63,0,0,1,4.28,16,2.44,2.44,0,0,1,4,13.85a.46.46,0,0,1,.58-.28.45.45,0,0,1,.28.58A1.5,1.5,0,0,0,5,15.48a1.74,1.74,0,0,0,1.27.79A.45.45,0,0,1,6.71,16.77Zm0-1.78c-.09-.71.81-1.42,2-1.65a17.56,17.56,0,0,0,1.52,2.56,4,4,0,0,1-.87.19C8,16.26,6.82,15.77,6.73,15Zm7.36,7.84a8,8,0,0,1-.78-1,3.9,3.9,0,0,0-1.46-1.45c-.82-.37-1.94-.89-2.13-2a.45.45,0,0,1,.37-.52.44.44,0,0,1,.52.36c.11.65,1,1,1.62,1.34a4.72,4.72,0,0,1,1.82,1.75,4.07,4.07,0,0,0,2.34,1.94s0,0,0,0A22.07,22.07,0,0,1,14.09,22.83Z"/><ellipse class="cls-2" cx="16.63" cy="17.8" rx="1.62" ry="2.72" transform="translate(-1.78 33.76) rotate(-87.85)"/><ellipse class="cls-2" cx="21.02" cy="12.43" rx="1.18" ry="1.95" transform="translate(1.77 27.46) rotate(-68.59)"/><ellipse class="cls-2" cx="24.52" cy="17.64" rx="1.91" ry="1.12" transform="translate(-5.39 21.85) rotate(-43.75)"/><ellipse class="cls-3" cx="4.46" cy="8.5" rx="2.28" ry="1.27" transform="translate(-4.59 11.72) rotate(-81.95)"/><path class="cls-3" d="M8.44,2.87a.38.38,0,0,0,.17,0,2.15,2.15,0,0,1,1.37,0,.46.46,0,0,0,.6-.24A.45.45,0,0,0,10.34,2,3,3,0,0,0,8.26,2,.44.44,0,0,0,8,2.59.46.46,0,0,0,8.44,2.87Z"/><path class="cls-3" d="M6.31,16.27A1.74,1.74,0,0,1,5,15.48a1.5,1.5,0,0,1-.16-1.33.45.45,0,0,0-.28-.58.46.46,0,0,0-.58.28A2.44,2.44,0,0,0,4.28,16a2.63,2.63,0,0,0,1.94,1.21h0a.45.45,0,0,0,0-.9Z"/><path class="cls-3" d="M4.87,12.27a.46.46,0,0,0-.09.64.49.49,0,0,0,.36.18.42.42,0,0,0,.28-.1A.82.82,0,0,1,6,12.85a.47.47,0,0,0,.49-.42.46.46,0,0,0-.42-.49A1.76,1.76,0,0,0,4.87,12.27Z"/><path class="cls-3" d="M8.77,13.34c-1.23.23-2.13.94-2,1.65s1.3,1.27,2.69,1.1a4,4,0,0,0,.87-.19A17.56,17.56,0,0,1,8.77,13.34Z"/><ellipse class="cls-2" cx="12.25" cy="7.97" rx="2.04" ry="3.65" transform="matrix(0.26, -0.97, 0.97, 0.26, 1.41, 17.77)"/><path class="cls-3" d="M7,3.52a.46.46,0,1,0-.4-.82,6.17,6.17,0,0,1-1.91.4,10.89,10.89,0,0,0-2,.36,9.65,9.65,0,0,0-1.41,2.1C2.07,4.31,3.47,4.15,4.82,4A7.1,7.1,0,0,0,7,3.52Z"/><path class="cls-3" d="M14.05,21.3a4.72,4.72,0,0,0-1.82-1.75c-.67-.31-1.51-.69-1.62-1.34a.44.44,0,0,0-.52-.36.45.45,0,0,0-.37.52c.19,1.11,1.31,1.63,2.13,2a3.9,3.9,0,0,1,1.46,1.45,8,8,0,0,0,.78,1,22.07,22.07,0,0,0,2.32.43s0,0,0,0A4.07,4.07,0,0,1,14.05,21.3Z"/></g></g></svg>