<svg xmlns="http://www.w3.org/2000/svg" viewBox="0 0 152 225.11"><defs><style>.cls-1{fill:#d49e6c;}.cls-2{fill:#b68052;}.cls-3{fill:#9d693c;}</style></defs><title>rocks</title><g id="Layer_2" data-name="Layer 2"><g id="Layer_4" data-name="Layer 4"><path class="cls-1" d="M46.31,47.48l-.58-.22Z"/><path class="cls-1" d="M66.36,31.82a44.69,44.69,0,0,1-2.1-5.64c-.31-.93-.64-1.93-1-3a.8.8,0,0,0-.73-.55c-1.19-.06-2.62-1.24-3.47-2.9-1.17-2.25-.89-4.32,0-4.94a.82.82,0,0,0,.28-1.05A47.46,47.46,0,0,0,56.87,9.4c.4.62.79,1.27,1.18,1.94-4.88-3-16.09-6.28-20.88,1.23a17.75,17.75,0,0,0-2.29,9.5c.18,0,.36.1.55.16,2.4.8,4,2.53,3.54,3.87-.34,1-1.82,1.53-3.58,1.33A33.06,33.06,0,0,0,48.06,48.07c-.58-.18-1.16-.37-1.74-.58,5.09,1.88,10.27,2.2,14.11-.4C62.84,45.46,70.39,39.53,66.36,31.82Zm-24-13c-2.79-2.34-4-5.51-2.68-7.07s4.64-.93,7.43,1.42,4,5.51,2.68,7.07S45.12,21.14,42.33,18.79ZM43,38c-2.41-1.25-3.76-3.43-3-4.87s3.31-1.59,5.72-.34,3.77,3.42,3,4.86S45.37,39.29,43,38ZM58,32.59c-.86.81-2.64.32-4-1.1s-1.73-3.22-.87-4,2.64-.32,4,1.09S58.9,31.78,58,32.59ZM58,43.17c-1.81.61-3.56.24-3.92-.82s.82-2.42,2.63-3,3.56-.23,3.92.83S59.78,42.57,58,43.17Z"/><path class="cls-2" d="M35.39,27.43c1.76.2,3.24-.29,3.58-1.33.45-1.34-1.14-3.07-3.54-3.87-.19-.06-.37-.12-.55-.16a17.75,17.75,0,0,1,2.29-9.5c4.79-7.51,16-4.25,20.88-1.23-.39-.67-.78-1.32-1.19-1.94C51.34,1,44.32-.09,38.18,0c-9.44.14-16.34,9.28-18,17.79-1.78,9,6.26,15.69,14,22.2l1.21,1a39.39,39.39,0,0,0,8.4,5.4l.53.25.48.21.34.14.13.06.43.17h0l.58.22h0c.58.21,1.16.4,1.74.58A33.06,33.06,0,0,1,35.39,27.43Zm7.39-24.3a5.41,5.41,0,0,1,3.44,1.53.81.81,0,0,1-.07,1.15A.82.82,0,0,1,45,5.74a3.84,3.84,0,0,0-2.28-1,.75.75,0,0,1-.31-.08.82.82,0,0,1-.47-.78A.8.8,0,0,1,42.78,3.13Zm-14.15.45a17,17,0,0,1,3.93-2.34,19.13,19.13,0,0,1,3.58,1A11.35,11.35,0,0,0,39.57,3a.82.82,0,0,1,0,1.64,12.6,12.6,0,0,1-4-.91C33.29,3,30.88,2.13,28.63,3.58Zm3.28,15.28a.84.84,0,0,1-1.12.3,1.51,1.51,0,0,0-1.13-.24.77.77,0,0,1-.52-.06.8.8,0,0,1-.45-.56.82.82,0,0,1,.62-1,3.14,3.14,0,0,1,2.29.42A.83.83,0,0,1,31.91,18.86ZM29.62,9.57c1.25-1.9,3.13-2.88,4.19-2.19s.9,2.81-.35,4.72S30.34,15,29.28,14.29,28.37,11.48,29.62,9.57Zm-.75,16.52a.81.81,0,0,1-1,.32l-.08,0a4.71,4.71,0,0,1-2.24-3.48,4.38,4.38,0,0,1,1.21-3.65.82.82,0,0,1,1.16,0,.81.81,0,0,1,0,1.15,2.78,2.78,0,0,0-.75,2.3A3.07,3.07,0,0,0,28.6,25,.81.81,0,0,1,28.87,26.09Zm1.39-2.89c.42-1.23,2.42-1.7,4.62-1.13a29.67,29.67,0,0,0,.51,5.36,8.66,8.66,0,0,1-1.58-.35C31.41,26.28,29.82,24.54,30.26,23.2Zm6,18.51a18.59,18.59,0,0,1-.51-2.26A6.83,6.83,0,0,0,34.5,36c-1-1.25-2.49-3-2-4.93a.82.82,0,0,1,1.58.43c-.31,1.14.76,2.42,1.62,3.44a8.35,8.35,0,0,1,1.62,4.27c.32,1.77.61,3.44,2.35,5l0,0A41.66,41.66,0,0,1,36.27,41.71Z"/><ellipse class="cls-2" cx="44.3" cy="35.43" rx="2.94" ry="4.92" transform="translate(-7.53 58.49) rotate(-62.64)"/><ellipse class="cls-2" cx="55.62" cy="30.03" rx="2.14" ry="3.53" transform="translate(-5.43 46.4) rotate(-43.38)"/><ellipse class="cls-2" cx="57.33" cy="41.25" rx="3.45" ry="2.03" transform="translate(-10.14 20.36) rotate(-18.53)"/><ellipse class="cls-3" cx="31.54" cy="10.83" rx="4.13" ry="2.3" transform="matrix(0.55, -0.84, 0.84, 0.55, 5.18, 31.26)"/><path class="cls-3" d="M42.4,4.68a.75.75,0,0,0,.31.08,3.84,3.84,0,0,1,2.28,1,.82.82,0,0,0,1.16.07.81.81,0,0,0,.07-1.15,5.41,5.41,0,0,0-3.44-1.53.8.8,0,0,0-.85.77A.82.82,0,0,0,42.4,4.68Z"/><path class="cls-3" d="M28.6,25a3.07,3.07,0,0,1-1.47-2.28,2.78,2.78,0,0,1,.75-2.3.81.81,0,0,0,0-1.15.82.82,0,0,0-1.16,0,4.38,4.38,0,0,0-1.21,3.65,4.71,4.71,0,0,0,2.24,3.48l.08,0A.82.82,0,0,0,28.6,25Z"/><path class="cls-3" d="M29.31,17.32a.82.82,0,0,0-.62,1,.8.8,0,0,0,.45.56.77.77,0,0,0,.52.06,1.51,1.51,0,0,1,1.13.24.84.84,0,0,0,1.12-.3.83.83,0,0,0-.31-1.12A3.14,3.14,0,0,0,29.31,17.32Z"/><path class="cls-3" d="M34.88,22.07c-2.2-.57-4.2-.1-4.62,1.13s1.15,3.08,3.55,3.88a8.66,8.66,0,0,0,1.58.35A29.67,29.67,0,0,1,34.88,22.07Z"/><ellipse class="cls-2" cx="44.7" cy="15.96" rx="3.69" ry="6.6" transform="translate(3.71 39.9) rotate(-49.93)"/><path class="cls-3" d="M39.59,4.65a.81.81,0,0,0,.81-.82A.82.82,0,0,0,39.57,3a11.35,11.35,0,0,1-3.43-.82,19.13,19.13,0,0,0-3.58-1,17,17,0,0,0-3.93,2.34c2.25-1.45,4.66-.63,7,.17A12.3,12.3,0,0,0,39.59,4.65Z"/><path class="cls-3" d="M37.37,39.17a8.35,8.35,0,0,0-1.62-4.27c-.86-1-1.93-2.3-1.62-3.44A.82.82,0,0,0,32.55,31c-.54,2,.9,3.68,2,4.93a6.83,6.83,0,0,1,1.26,3.49,18.59,18.59,0,0,0,.51,2.26,41.66,41.66,0,0,0,3.47,2.47l0,0C38,42.61,37.69,40.94,37.37,39.17Z"/><path class="cls-1" d="M66.47,108.1c.06-.19.12-.39.19-.59C66.59,107.71,66.53,107.91,66.47,108.1Z"/><path class="cls-1" d="M83.35,127.14a46.42,46.42,0,0,1,5.5-2.45l2.9-1.17a.82.82,0,0,0,.5-.77c0-1.2,1.07-2.69,2.67-3.65,2.18-1.3,4.25-1.15,4.93-.26a.82.82,0,0,0,1.07.21,45.88,45.88,0,0,0,4.21-2.78c-.59.44-1.21.88-1.85,1.31,2.7-5.07,5.26-16.46-2.53-20.77a17.82,17.82,0,0,0-9.63-1.7,5.59,5.59,0,0,1-.12.56c-.65,2.45-2.28,4.14-3.65,3.78-1.06-.28-1.64-1.72-1.55-3.49A33,33,0,0,0,66,109.89c.13-.59.29-1.18.47-1.78-1.56,5.2-1.56,10.39,1.27,14.06C69.52,124.48,75.91,131.64,83.35,127.14Zm11.51-24.8c2.16-2.93,5.25-4.32,6.89-3.1s1.21,4.57-1,7.5-5.26,4.32-6.9,3.11S92.69,105.27,94.86,102.34Zm-19.17,1.83c1.09-2.49,3.18-4,4.67-3.32s1.79,3.2.7,5.69-3.19,4-4.67,3.32S74.59,106.66,75.69,104.17Zm6.38,14.72c-.87-.81-.49-2.62.84-4s3.11-1.93,4-1.12.48,2.61-.85,4S82.93,119.7,82.07,118.89Zm-10.57.59c-.72-1.77-.46-3.55.58-4s2.46.67,3.18,2.44.46,3.54-.58,4S72.22,121.24,71.5,119.48Z"/><path class="cls-2" d="M85.8,96c-.09,1.77.49,3.21,1.55,3.49,1.37.36,3-1.33,3.65-3.78a5.59,5.59,0,0,0,.12-.56,17.82,17.82,0,0,1,9.63,1.7c7.79,4.31,5.23,15.7,2.53,20.77.64-.43,1.26-.87,1.85-1.31,8.09-6,8.7-13.11,8.22-19.24-.74-9.41-10.28-15.72-18.89-16.88-9-1.21-15.26,7.23-21.28,15.39l-.94,1.27a39,39,0,0,0-4.87,8.71l-.21.55-.18.5-.12.34a.78.78,0,0,0,0,.14l-.15.43v0c-.07.2-.13.4-.19.59h0c-.18.6-.34,1.19-.47,1.78A33,33,0,0,1,85.8,96Zm24.72,5.86a5.41,5.41,0,0,1-1.31,3.53.82.82,0,0,1-1.16-1.16,3.91,3.91,0,0,0,.84-2.34,1.13,1.13,0,0,1,0-.32.82.82,0,0,1,1.58.29Zm-1.33-14.09a17.26,17.26,0,0,1,2.58,3.77,19.39,19.39,0,0,1-.74,3.64,11.05,11.05,0,0,0-.6,3.47.83.83,0,0,1-.76.88.81.81,0,0,1-.87-.75,12.37,12.37,0,0,1,.65-4C110.1,92.34,110.77,89.88,109.19,87.73ZM94.14,92a.84.84,0,0,1-.37-1.1,1.46,1.46,0,0,0,.17-1.14.77.77,0,0,1,0-.52.81.81,0,0,1,1.54.07,3.17,3.17,0,0,1-.27,2.31A.82.82,0,0,1,94.14,92Zm9.12-2.86c2,1.13,3.08,2.94,2.45,4s-2.74,1.08-4.72,0-3.08-2.94-2.45-4S101.28,88,103.26,89.09Zm-16.53.28a.82.82,0,0,1-.38-1,.2.2,0,0,1,0-.08,4.71,4.71,0,0,1,3.33-2.46,4.38,4.38,0,0,1,3.71,1A.82.82,0,0,1,92.36,88,2.76,2.76,0,0,0,90,87.42,3.1,3.1,0,0,0,87.83,89,.81.81,0,0,1,86.73,89.37Zm3,1.21c1.26.33,1.85,2.31,1.42,4.54a30.13,30.13,0,0,0-5.31.84,7.17,7.17,0,0,1,.25-1.6C86.71,91.91,88.34,90.22,89.7,90.58ZM71.61,97.73a17.17,17.17,0,0,1,2.22-.65,6.89,6.89,0,0,0,3.41-1.48c1.18-1.12,2.8-2.67,4.79-2.25A.82.82,0,1,1,81.7,95c-1.16-.24-2.36.91-3.33,1.84a8.43,8.43,0,0,1-4.16,1.88c-1.75.42-3.4.82-4.83,2.65,0,0,0,0,0,0A40.94,40.94,0,0,1,71.61,97.73Z"/><ellipse class="cls-2" cx="78.37" cy="105.35" rx="4.92" ry="2.94" transform="translate(-49.65 134.56) rotate(-66.21)"/><ellipse class="cls-2" cx="84.47" cy="116.31" rx="3.53" ry="2.14" transform="translate(-58.19 98.64) rotate(-46.95)"/><ellipse class="cls-2" cx="73.38" cy="118.71" rx="2.03" ry="3.45" transform="translate(-39.28 36.34) rotate(-22.1)"/><ellipse class="cls-3" cx="102.13" cy="91.09" rx="2.3" ry="4.13" transform="translate(-27.59 134.67) rotate(-60.3)"/><path class="cls-3" d="M108.94,101.53a1.13,1.13,0,0,0,0,.32,3.91,3.91,0,0,1-.84,2.34.82.82,0,0,0,1.16,1.16,5.41,5.41,0,0,0,1.31-3.53.82.82,0,0,0-1.58-.29Z"/><path class="cls-3" d="M87.83,89A3.1,3.1,0,0,1,90,87.42a2.76,2.76,0,0,1,2.34.61.82.82,0,0,0,1.07-1.23,4.38,4.38,0,0,0-3.71-1,4.71,4.71,0,0,0-3.33,2.46.2.2,0,0,0,0,.08.82.82,0,0,0,.38,1A.81.81,0,0,0,87.83,89Z"/><path class="cls-3" d="M95.51,89.26a.82.82,0,0,0-1-.56.85.85,0,0,0-.54.49.84.84,0,0,0,0,.52,1.46,1.46,0,0,1-.17,1.14.84.84,0,0,0,.37,1.1.82.82,0,0,0,1.1-.38A3.17,3.17,0,0,0,95.51,89.26Z"/><path class="cls-3" d="M91.12,95.12c.43-2.23-.16-4.21-1.42-4.54s-3,1.33-3.64,3.78a7.17,7.17,0,0,0-.25,1.6A30.13,30.13,0,0,1,91.12,95.12Z"/><ellipse class="cls-2" cx="97.83" cy="104.54" rx="6.6" ry="3.69" transform="translate(-44.4 121.01) rotate(-53.51)"/><path class="cls-3" d="M108.8,98.74a.81.81,0,0,0,.87.75.82.82,0,0,0,.76-.88,11.05,11.05,0,0,1,.6-3.47,19.39,19.39,0,0,0,.74-3.64,17.26,17.26,0,0,0-2.58-3.77c1.58,2.15.91,4.61.26,7A12.37,12.37,0,0,0,108.8,98.74Z"/><path class="cls-3" d="M74.21,98.67a8.43,8.43,0,0,0,4.16-1.88c1-.93,2.17-2.08,3.33-1.84a.82.82,0,1,0,.33-1.6c-2-.42-3.61,1.13-4.79,2.25a6.89,6.89,0,0,1-3.41,1.48,17.17,17.17,0,0,0-2.22.65,40.94,40.94,0,0,0-2.26,3.62s0,0,0,0C70.81,99.49,72.46,99.09,74.21,98.67Z"/><path class="cls-1" d="M35.57,206.11c0-.2.07-.41.11-.61C35.64,205.7,35.6,205.91,35.57,206.11Z"/><path class="cls-1" d="M54.58,223a44.92,44.92,0,0,1,5.17-3.08c.86-.47,1.78-1,2.73-1.51a.79.79,0,0,0,.41-.82c-.16-1.18.75-2.8,2.23-3.94,2-1.54,4.08-1.64,4.86-.84a.81.81,0,0,0,1.08.08,43.91,43.91,0,0,0,3.86-3.25c-.53.51-1.1,1-1.69,1.51,2.09-5.35,3.29-17-5-20.32a17.74,17.74,0,0,0-9.76-.55,5.51,5.51,0,0,1-.06.57c-.35,2.51-1.77,4.38-3.17,4.18-1.08-.15-1.83-1.51-2-3.28a33,33,0,0,0-18,16.17c.06-.6.15-1.21.25-1.82-.93,5.35-.32,10.5,2.93,13.81C40.53,222,47.71,228.37,54.58,223Zm8.49-26c1.81-3.16,4.71-4.91,6.48-3.9s1.75,4.4-.06,7.56-4.71,4.91-6.48,3.9S61.27,200.21,63.07,197Zm-18.82,4.08c.8-2.6,2.7-4.33,4.25-3.85s2.16,3,1.37,5.56-2.7,4.33-4.25,3.85S43.46,203.72,44.25,201.12ZM52.32,215c-1-.7-.78-2.54.37-4.11s2.86-2.28,3.81-1.58.79,2.54-.36,4.11S53.28,215.68,52.32,215ZM41.9,216.81c-.92-1.67-.87-3.46.11-4s2.52.38,3.44,2,.88,3.46-.11,4S42.82,218.48,41.9,216.81Z"/><path class="cls-2" d="M53.33,191.77c.12,1.77.87,3.13,2,3.28,1.4.2,2.82-1.67,3.17-4.18a5.51,5.51,0,0,0,.06-.57,17.75,17.75,0,0,1,9.76.55c8.25,3.36,7,15,5,20.32.59-.5,1.16-1,1.69-1.51,7.32-7,7.09-14,5.89-20.07-1.84-9.27-12.06-14.41-20.75-14.54-9.12-.13-14.3,9-19.31,17.79L40,194.21a39.48,39.48,0,0,0-3.82,9.23c0,.19-.09.38-.14.57l-.12.51c0,.12-.06.24-.08.36l0,.14c0,.15-.07.3-.1.45v0c0,.2-.08.41-.11.61h0c-.1.61-.19,1.22-.25,1.82A33,33,0,0,1,53.33,191.77Zm25.24,2.91a5.44,5.44,0,0,1-.89,3.65.82.82,0,1,1-1.29-1,3.92,3.92,0,0,0,.56-2.43.7.7,0,0,1,0-.32.82.82,0,0,1,1.6.11Zm-3-13.85a17,17,0,0,1,3,3.45,19.19,19.19,0,0,1-.3,3.7,11.19,11.19,0,0,0-.2,3.52.81.81,0,1,1-1.6.31,12.34,12.34,0,0,1,.18-4.07C77,185.3,77.41,182.79,75.58,180.83Zm-14.44,6a.82.82,0,0,1-.5-1,1.47,1.47,0,0,0,0-1.16.78.78,0,0,1,0-.52.81.81,0,0,1,1.54-.11,3.12,3.12,0,0,1,0,2.33A.81.81,0,0,1,61.14,186.8Zm8.72-3.91c2.1.88,3.4,2.55,2.91,3.72s-2.6,1.4-4.7.51-3.4-2.56-2.91-3.73S67.76,182,69.86,182.89Zm-16.39,2.23a.82.82,0,0,1-.49-1,.31.31,0,0,1,0-.08,4.72,4.72,0,0,1,3-2.83,4.41,4.41,0,0,1,3.81.54.82.82,0,1,1-.93,1.35,2.75,2.75,0,0,0-2.39-.33,3.09,3.09,0,0,0-2,1.85A.82.82,0,0,1,53.47,185.12Zm3.1.85c1.29.18,2.11,2.07,1.94,4.33a30.47,30.47,0,0,0-5.18,1.47,8.15,8.15,0,0,1,.07-1.62C53.75,187.64,55.17,185.77,56.57,186ZM39.44,195.2a18.15,18.15,0,0,1,2.13-.91,6.93,6.93,0,0,0,3.21-1.86c1-1.26,2.47-3,4.5-2.81a.82.82,0,1,1-.15,1.63c-1.17-.1-2.23,1.18-3.09,2.22a8.37,8.37,0,0,1-3.9,2.36c-1.69.62-3.28,1.22-4.48,3.2l0,0A40.12,40.12,0,0,1,39.44,195.2Z"/><ellipse class="cls-2" cx="47.06" cy="201.98" rx="4.92" ry="2.94" transform="translate(-159.85 187.87) rotate(-72.98)"/><ellipse class="cls-2" cx="54.41" cy="212.13" rx="3.53" ry="2.14" transform="translate(-148.8 130.49) rotate(-53.73)"/><ellipse class="cls-2" cx="43.68" cy="215.83" rx="2.03" ry="3.45" transform="translate(-98.81 47.94) rotate(-28.88)"/><ellipse class="cls-3" cx="68.96" cy="185" rx="2.3" ry="4.13" transform="translate(-128.29 176.47) rotate(-67.08)"/><path class="cls-3" d="M77,194.57a.7.7,0,0,0,0,.32,3.92,3.92,0,0,1-.56,2.43.82.82,0,1,0,1.29,1,5.44,5.44,0,0,0,.89-3.65.82.82,0,0,0-1.6-.11Z"/><path class="cls-3" d="M54.53,184.64a3.09,3.09,0,0,1,2-1.85,2.75,2.75,0,0,1,2.39.33.82.82,0,0,0,1.14-.21.83.83,0,0,0-.21-1.14,4.41,4.41,0,0,0-3.81-.54,4.72,4.72,0,0,0-3,2.83.31.31,0,0,0,0,.08.81.81,0,0,0,1.55.5Z"/><path class="cls-3" d="M62.18,184a.81.81,0,0,0-1.54.11.78.78,0,0,0,0,.52,1.47,1.47,0,0,1,0,1.16.82.82,0,0,0,.5,1,.81.81,0,0,0,1-.5A3.12,3.12,0,0,0,62.18,184Z"/><path class="cls-3" d="M58.51,190.3c.17-2.26-.65-4.15-1.94-4.33s-2.82,1.67-3.17,4.18a8.15,8.15,0,0,0-.07,1.62A30.47,30.47,0,0,1,58.51,190.3Z"/><ellipse class="cls-2" cx="66.28" cy="198.87" rx="6.6" ry="3.69" transform="translate(-139.29 157.85) rotate(-60.28)"/><path class="cls-3" d="M76.49,191.81a.81.81,0,1,0,1.6-.31,11.19,11.19,0,0,1,.2-3.52,19.19,19.19,0,0,0,.3-3.7,17,17,0,0,0-3-3.45c1.83,2,1.45,4.47,1.09,6.91A12.34,12.34,0,0,0,76.49,191.81Z"/><path class="cls-3" d="M42.14,195.83a8.37,8.37,0,0,0,3.9-2.36c.86-1,1.92-2.32,3.09-2.22a.82.82,0,1,0,.15-1.63c-2-.18-3.46,1.55-4.5,2.81a6.93,6.93,0,0,1-3.21,1.86,18.15,18.15,0,0,0-2.13.91,40.12,40.12,0,0,0-1.81,3.86l0,0C38.86,197.05,40.45,196.45,42.14,195.83Z"/><path class="cls-1" d="M20.47,83.84l-.34,0Z"/><path class="cls-1" d="M26.82,71.28A24.3,24.3,0,0,1,24.44,69l-1.2-1.25a.45.45,0,0,0-.5-.1A2.75,2.75,0,0,1,20.32,67c-1.11-.86-1.45-2-1.14-2.49a.44.44,0,0,0-.11-.58,25.28,25.28,0,0,0-2.28-1.6c.34.21.69.44,1.05.68-3.16-.35-9.53.65-10.16,5.54a9.88,9.88,0,0,0,1.09,5.29l.31,0c1.39-.16,2.6.33,2.69,1.1.07.6-.55,1.2-1.48,1.51a18.29,18.29,0,0,0,11.2,7.34c-.33,0-.67.09-1,.12,3-.26,5.66-1.31,7-3.52C28.27,78.94,30.65,74.19,26.82,71.28Zm-15.1-.85c-1.94-.52-3.29-1.82-3-2.91s2.1-1.56,4-1,3.29,1.82,3,2.91S13.67,70.94,11.72,70.43Zm4.85,9.48c-1.5-.06-2.69-.83-2.66-1.73s1.28-1.57,2.78-1.52,2.7.83,2.66,1.73S18.08,80,16.57,79.91Zm6.27-6.28c-.24.61-1.25.78-2.25.39S19,72.81,19.2,72.2s1.25-.78,2.25-.39S23.08,73,22.84,73.63Zm2.45,5.31c-.76.73-1.72,1-2.15.51s-.16-1.4.6-2.13,1.73-1,2.16-.51S26.06,78.21,25.29,78.94Z"/><path class="cls-2" d="M10.29,76.38c.93-.31,1.55-.91,1.48-1.51-.09-.77-1.3-1.26-2.69-1.1l-.31,0a9.88,9.88,0,0,1-1.09-5.29c.63-4.89,7-5.89,10.16-5.54-.36-.24-.71-.47-1.05-.68C12,59.38,8.27,60.51,5.22,62,.53,64.31-.76,70.5.4,75.16c1.22,4.89,6.83,6.37,12.25,7.8l.84.22a21.66,21.66,0,0,0,5.47.73h1.17l.34,0h0c.34,0,.68-.07,1-.12A18.29,18.29,0,0,1,10.29,76.38Zm-2-13.9a3,3,0,0,1,2.08,0,.45.45,0,0,1,.24.59.46.46,0,0,1-.6.24,2.15,2.15,0,0,0-1.37,0l-.17,0A.44.44,0,0,1,8,63.07.45.45,0,0,1,8.26,62.48ZM1.29,66A9.59,9.59,0,0,1,2.7,64a10.17,10.17,0,0,1,2-.37,6.19,6.19,0,0,0,1.91-.39A.45.45,0,1,1,7,64a6.83,6.83,0,0,1-2.21.48C3.47,64.63,2.07,64.79,1.29,66Zm5.24,6.87a.47.47,0,0,1-.49.42.77.77,0,0,0-.62.15.47.47,0,0,1-.28.09.45.45,0,0,1-.36-.18.45.45,0,0,1,.09-.63,1.72,1.72,0,0,1,1.24-.33A.45.45,0,0,1,6.53,72.91ZM3.2,68.81c.17-1.25.88-2.18,1.57-2.08s1.12,1.19.94,2.44-.88,2.18-1.58,2.08S3,70.06,3.2,68.81Zm3.51,8.44a.45.45,0,0,1-.45.4h0a2.58,2.58,0,0,1-1.94-1.21A2.43,2.43,0,0,1,4,74.33a.46.46,0,0,1,.86.3A1.5,1.5,0,0,0,5,76a1.69,1.69,0,0,0,1.27.79A.45.45,0,0,1,6.71,77.25Zm0-1.77c-.09-.72.81-1.42,2-1.66a17,17,0,0,0,1.52,2.56,4.61,4.61,0,0,1-.87.2C8,76.74,6.82,76.25,6.73,75.48Zm7.36,7.84a9.8,9.8,0,0,1-.78-1,3.83,3.83,0,0,0-1.46-1.45c-.82-.38-1.94-.9-2.13-2a.45.45,0,0,1,.37-.52.45.45,0,0,1,.52.37c.11.64,1,1,1.62,1.34a4.59,4.59,0,0,1,1.82,1.75,4.14,4.14,0,0,0,2.34,1.94h0A22.06,22.06,0,0,1,14.09,83.32Z"/><ellipse class="cls-2" cx="16.63" cy="78.29" rx="1.62" ry="2.72" transform="translate(-62.22 91.97) rotate(-87.85)"/><ellipse class="cls-2" cx="21.02" cy="72.92" rx="1.18" ry="1.95" transform="translate(-54.54 65.87) rotate(-68.59)"/><ellipse class="cls-2" cx="24.52" cy="78.13" rx="1.91" ry="1.12" transform="translate(-47.22 38.64) rotate(-43.75)"/><ellipse class="cls-3" cx="4.46" cy="68.99" rx="2.28" ry="1.27" transform="translate(-64.48 63.73) rotate(-81.95)"/><path class="cls-3" d="M8.44,63.35l.17,0a2.15,2.15,0,0,1,1.37,0,.46.46,0,0,0,.6-.24.45.45,0,0,0-.24-.59,3,3,0,0,0-2.08,0,.45.45,0,0,0-.24.59A.44.44,0,0,0,8.44,63.35Z"/><path class="cls-3" d="M6.31,76.75A1.69,1.69,0,0,1,5,76a1.5,1.5,0,0,1-.16-1.33.46.46,0,0,0-.86-.3,2.43,2.43,0,0,0,.26,2.11,2.58,2.58,0,0,0,1.94,1.21h0a.45.45,0,0,0,0-.9Z"/><path class="cls-3" d="M4.87,72.76a.45.45,0,0,0-.09.63.45.45,0,0,0,.36.18.47.47,0,0,0,.28-.09A.77.77,0,0,1,6,73.33a.47.47,0,0,0,.49-.42.45.45,0,0,0-.42-.48A1.72,1.72,0,0,0,4.87,72.76Z"/><path class="cls-3" d="M8.77,73.82c-1.23.24-2.13.94-2,1.66s1.3,1.26,2.69,1.1a4.61,4.61,0,0,0,.87-.2A17,17,0,0,1,8.77,73.82Z"/><ellipse class="cls-2" cx="12.25" cy="68.45" rx="2.04" ry="3.65" transform="translate(-57.06 62.75) rotate(-75.15)"/><path class="cls-3" d="M7,64a.45.45,0,1,0-.4-.81,6.19,6.19,0,0,1-1.91.39,10.17,10.17,0,0,0-2,.37A9.59,9.59,0,0,0,1.29,66c.78-1.25,2.18-1.41,3.53-1.56A6.83,6.83,0,0,0,7,64Z"/><path class="cls-3" d="M14.05,81.79A4.59,4.59,0,0,0,12.23,80c-.67-.31-1.51-.7-1.62-1.34a.45.45,0,0,0-.52-.37.45.45,0,0,0-.37.52c.19,1.11,1.31,1.63,2.13,2a3.83,3.83,0,0,1,1.46,1.45,9.8,9.8,0,0,0,.78,1,22.06,22.06,0,0,0,2.32.42h0A4.14,4.14,0,0,1,14.05,81.79Z"/><path class="cls-1" d="M91.84,21.8a1.89,1.89,0,0,1,0-.23A1.89,1.89,0,0,0,91.84,21.8Z"/><path class="cls-1" d="M100.9,24.72a15.39,15.39,0,0,1,1.3-1.84l.71-.93a.3.3,0,0,0,0-.34,1.85,1.85,0,0,1,.17-1.68c.45-.83,1.15-1.18,1.54-1a.3.3,0,0,0,.38-.14,17.44,17.44,0,0,0,.83-1.69c-.11.25-.22.51-.35.77-.09-2.14-1.43-6.3-4.76-6.21a6.66,6.66,0,0,0-3.42,1.29c0,.06,0,.13.07.2.25.91.05,1.77-.46,1.91s-.86-.24-1.16-.83A12.32,12.32,0,0,0,92,22.46c-.07-.21-.13-.44-.19-.66.49,2,1.47,3.64,3.08,4.28C95.93,26.49,99.35,27.58,100.9,24.72Zm-1-10.17c.14-1.36.87-2.39,1.63-2.31s1.25,1.24,1.11,2.59-.87,2.39-1.63,2.31S99.75,15.9,99.89,14.55Zm-5.83,4.23c-.12-1,.27-1.89.87-2s1.19.69,1.31,1.7-.27,1.88-.87,2S94.18,19.79,94.06,18.78Zm4.85,3.52c-.43-.09-.65-.75-.49-1.46s.63-1.21,1.06-1.11.66.75.5,1.46S99.34,22.4,98.91,22.3Zm-3.29,2.2c-.57-.43-.82-1.05-.57-1.38s.92-.26,1.49.18.82,1.05.57,1.38S96.19,24.93,95.62,24.5Z"/><path class="cls-2" d="M95.76,14.21c.3.59.77.94,1.16.83s.71-1,.46-1.91c0-.07,0-.14-.07-.2a6.66,6.66,0,0,1,3.42-1.29c3.33-.09,4.67,4.07,4.76,6.21.13-.26.24-.52.35-.77a7.36,7.36,0,0,0-1-7.76c-2-2.89-6.3-3.11-9.29-1.84-3.14,1.32-3.54,5.22-3.93,9l-.06.59a15.05,15.05,0,0,0,.09,3.73,1.43,1.43,0,0,0,0,.22l0,.19,0,.14v.05a1,1,0,0,0,0,.17h0a1.89,1.89,0,0,0,0,.23h0c.06.22.12.45.19.66A12.32,12.32,0,0,1,95.76,14.21Zm9.07-2.81a2,2,0,0,1,.25,1.39.32.32,0,0,1-.38.22.31.31,0,0,1-.21-.38,1.47,1.47,0,0,0-.18-.91.21.21,0,0,1,0-.11.3.3,0,0,1,.14-.31A.31.31,0,0,1,104.83,11.4Zm-3.11-4.28a6.25,6.25,0,0,1,1.55.72,7,7,0,0,1,.45,1.31,4.34,4.34,0,0,0,.47,1.24.29.29,0,0,1-.08.42.3.3,0,0,1-.42-.07,5,5,0,0,1-.56-1.43C102.89,8.43,102.64,7.51,101.72,7.12Zm-4,4.21a.3.3,0,0,1-.33-.28.58.58,0,0,0-.16-.4.3.3,0,0,1,0-.43.3.3,0,0,1,.43,0A1.15,1.15,0,0,1,98,11,.3.3,0,0,1,97.68,11.33Zm2.39-2.65c.86,0,1.55.36,1.56.84s-.68.87-1.53.88-1.55-.36-1.56-.84S99.22,8.69,100.07,8.68ZM94.8,11.91a.3.3,0,0,1-.31-.25v0a1.8,1.8,0,0,1,.61-1.42,1.64,1.64,0,0,1,1.38-.39.31.31,0,1,1-.11.6,1.08,1.08,0,0,0-.87.25,1.19,1.19,0,0,0-.4.93A.3.3,0,0,1,94.8,11.91ZM96,11.74c.47-.13,1,.39,1.32,1.19a11.3,11.3,0,0,0-1.55,1.28,2.51,2.51,0,0,1-.22-.56C95.28,12.74,95.48,11.88,96,11.74Zm-4.47,5.74a6.05,6.05,0,0,1,.6-.63,2.67,2.67,0,0,0,.81-1.13c.17-.58.4-1.39,1.12-1.63a.3.3,0,0,1,.39.19.32.32,0,0,1-.2.39c-.41.14-.58.74-.72,1.22a3.1,3.1,0,0,1-1,1.4,2.82,2.82,0,0,0-1.05,1.77h0A14,14,0,0,1,91.52,17.48Z"/><ellipse class="cls-2" cx="95.15" cy="18.65" rx="1.1" ry="1.84" transform="translate(-1.53 11.33) rotate(-6.76)"/><ellipse class="cls-2" cx="99.2" cy="21.02" rx="1.32" ry="0.8" transform="translate(57.21 113.31) rotate(-77.5)"/><ellipse class="cls-2" cx="96.08" cy="23.9" rx="0.76" ry="1.29" transform="translate(18.8 85.79) rotate(-52.66)"/><ellipse class="cls-3" cx="100.09" cy="9.54" rx="1.54" ry="0.86" transform="translate(-0.13 1.49) rotate(-0.85)"/><path class="cls-3" d="M104.27,11.61a.21.21,0,0,0,0,.11,1.47,1.47,0,0,1,.18.91.31.31,0,0,0,.21.38.32.32,0,0,0,.38-.22,2,2,0,0,0-.25-1.39.31.31,0,0,0-.42-.1A.3.3,0,0,0,104.27,11.61Z"/><path class="cls-3" d="M95.09,11.59a1.19,1.19,0,0,1,.4-.93,1.08,1.08,0,0,1,.87-.25.31.31,0,1,0,.11-.6,1.64,1.64,0,0,0-1.38.39,1.8,1.8,0,0,0-.61,1.42v0a.3.3,0,0,0,.6-.07Z"/><path class="cls-3" d="M97.61,10.21a.3.3,0,0,0-.43,0,.3.3,0,0,0,0,.43.58.58,0,0,1,.16.4A.31.31,0,0,0,98,11,1.15,1.15,0,0,0,97.61,10.21Z"/><path class="cls-3" d="M97.31,12.93c-.29-.8-.85-1.32-1.32-1.19s-.71,1-.45,1.91a2.51,2.51,0,0,0,.22.56A11.3,11.3,0,0,1,97.31,12.93Z"/><ellipse class="cls-2" cx="101.26" cy="14.69" rx="2.47" ry="1.38" transform="translate(76.17 113.88) rotate(-84.06)"/><path class="cls-3" d="M103.69,10.74a.3.3,0,0,0,.42.07.29.29,0,0,0,.08-.42,4.34,4.34,0,0,1-.47-1.24,7,7,0,0,0-.45-1.31,6.25,6.25,0,0,0-1.55-.72c.92.39,1.17,1.31,1.41,2.19A5,5,0,0,0,103.69,10.74Z"/><path class="cls-3" d="M92.54,17.29a3.1,3.1,0,0,0,1-1.4c.14-.48.31-1.08.72-1.22a.32.32,0,0,0,.2-.39.3.3,0,0,0-.39-.19c-.72.24-1,1.05-1.12,1.63a2.67,2.67,0,0,1-.81,1.13,6.05,6.05,0,0,0-.6.63,14,14,0,0,0,0,1.59h0A2.82,2.82,0,0,1,92.54,17.29Z"/><path class="cls-1" d="M134.64,167.56l.24-.08Z"/><path class="cls-1" d="M132.41,177.81a17.64,17.64,0,0,1,2.16,1.23l1.09.68a.35.35,0,0,0,.38,0,2,2,0,0,1,1.86,0c1,.41,1.42,1.14,1.29,1.58a.32.32,0,0,0,.19.4,17.62,17.62,0,0,0,2,.73l-.89-.3c2.35-.33,6.76-2.25,6.3-5.89A7.42,7.42,0,0,0,145,172.6l-.22.1c-1,.38-1.93.25-2.14-.3s.17-1,.79-1.36a13.6,13.6,0,0,0-9.46-3.2l.71-.28c-2.11.75-3.84,2-4.37,3.85C129.94,172.56,129.1,176.43,132.41,177.81Zm11.05-2.21c1.5,0,2.72.7,2.71,1.54s-1.22,1.52-2.72,1.51-2.72-.7-2.72-1.54S142,175.6,143.46,175.6Zm-5.27-5.93c1.1-.24,2.1.09,2.24.75s-.63,1.37-1.72,1.61-2.1-.09-2.24-.74S137.1,169.91,138.19,169.67Zm-3.34,5.7c.05-.48.75-.79,1.55-.7s1.39.57,1.34,1.05-.76.8-1.55.7S134.79,175.86,134.85,175.37ZM132.08,172c.41-.67,1.07-1,1.46-.77s.38,1,0,1.65-1.06,1-1.46.77S131.67,172.67,132.08,172Z"/><path class="cls-2" d="M143.39,171c-.62.4-.95.94-.79,1.36s1.17.68,2.14.3l.22-.1a7.42,7.42,0,0,1,1.78,3.62c.46,3.64-4,5.56-6.3,5.89l.89.3a8.12,8.12,0,0,0,8.4-1.95c3-2.53,2.73-7.24,1-10.39s-6.12-3.32-10.29-3.33h-.66a16.75,16.75,0,0,0-4.08.5l-.23.06-.21.06-.15.05,0,0-.19.05h0l-.24.08h0l-.71.28A13.6,13.6,0,0,1,143.39,171Zm4.06,9.65a2.25,2.25,0,0,1-1.5.42.34.34,0,0,1,.11-.67,1.59,1.59,0,0,0,1-.29.34.34,0,0,1,.12-.06.32.32,0,0,1,.35.13A.34.34,0,0,1,147.45,180.69Zm4.36-3.87a6.92,6.92,0,0,1-.63,1.77,7.52,7.52,0,0,1-1.39.64,4.63,4.63,0,0,0-1.3.65.33.33,0,0,1-.47,0,.34.34,0,0,1,0-.48,5.28,5.28,0,0,1,1.5-.76C150.5,178.24,151.48,177.87,151.81,176.82Zm-5.06-4a.33.33,0,0,1,.27-.39.61.61,0,0,0,.42-.23.29.29,0,0,1,.18-.11.33.33,0,0,1,.35.53,1.24,1.24,0,0,1-.83.47A.34.34,0,0,1,146.75,172.84Zm3.17,2.34c.1.93-.23,1.74-.75,1.79s-1-.65-1.13-1.58.23-1.74.75-1.8S149.81,174.24,149.92,175.18Zm-4.12-5.44a.34.34,0,0,1,.25-.37h0a1.94,1.94,0,0,1,1.62.51,1.79,1.79,0,0,1,.58,1.48.34.34,0,0,1-.37.3.32.32,0,0,1-.3-.36,1.16,1.16,0,0,0-.37-.93,1.27,1.27,0,0,0-1.06-.33A.34.34,0,0,1,145.8,169.74Zm.32,1.29c.2.5-.31,1.17-1.16,1.57a12.19,12.19,0,0,0-1.57-1.56,2.51,2.51,0,0,1,.59-.3C145,170.35,145.91,170.49,146.12,171Zm-6.78-4.28a6.6,6.6,0,0,1,.76.58,2.84,2.84,0,0,0,1.32.77c.66.12,1.57.28,1.92,1.05a.34.34,0,1,1-.62.28c-.2-.45-.88-.57-1.42-.67a3.5,3.5,0,0,1-1.64-.92,3.08,3.08,0,0,0-2-1h0A15,15,0,0,1,139.34,166.75Z"/><ellipse class="cls-2" cx="138.45" cy="170.85" rx="2.03" ry="1.21" transform="matrix(0.98, -0.21, 0.21, 0.98, -33.41, 33.66)"/><ellipse class="cls-2" cx="136.29" cy="175.55" rx="0.88" ry="1.46" transform="translate(-54.31 289.83) rotate(-83.12)"/><ellipse class="cls-2" cx="132.79" cy="172.44" rx="1.42" ry="0.84" transform="matrix(0.53, -0.85, 0.85, 0.53, -83.71, 194.72)"/><ellipse class="cls-3" cx="148.98" cy="175.28" rx="0.95" ry="1.7" transform="translate(-18.82 17.92) rotate(-6.48)"/><path class="cls-3" d="M147.16,180.09a.34.34,0,0,0-.12.06,1.59,1.59,0,0,1-1,.29.34.34,0,0,0-.11.67,2.25,2.25,0,0,0,1.5-.42.34.34,0,0,0,.06-.47A.32.32,0,0,0,147.16,180.09Z"/><path class="cls-3" d="M146.19,170a1.27,1.27,0,0,1,1.06.33,1.16,1.16,0,0,1,.37.93.32.32,0,0,0,.3.36.34.34,0,0,0,.37-.3,1.79,1.79,0,0,0-.58-1.48,1.94,1.94,0,0,0-1.62-.51h0a.34.34,0,0,0,.14.66Z"/><path class="cls-3" d="M148,172.64a.33.33,0,0,0-.35-.53.29.29,0,0,0-.18.11.61.61,0,0,1-.42.23.33.33,0,0,0-.27.39.34.34,0,0,0,.39.27A1.24,1.24,0,0,0,148,172.64Z"/><path class="cls-3" d="M145,172.6c.85-.4,1.36-1.07,1.16-1.57s-1.17-.68-2.14-.29a2.51,2.51,0,0,0-.59.3A12.19,12.19,0,0,1,145,172.6Z"/><ellipse class="cls-2" cx="143.45" cy="177.13" rx="1.52" ry="2.72" transform="translate(-34.47 319.58) rotate(-89.68)"/><path class="cls-3" d="M148.05,179.36a.34.34,0,0,0,0,.48.33.33,0,0,0,.47,0,4.63,4.63,0,0,1,1.3-.65,7.52,7.52,0,0,0,1.39-.64,6.92,6.92,0,0,0,.63-1.77c-.33,1.05-1.31,1.42-2.26,1.78A5.28,5.28,0,0,0,148.05,179.36Z"/><path class="cls-3" d="M139.66,167.84a3.5,3.5,0,0,0,1.64.92c.54.1,1.22.22,1.42.67a.34.34,0,1,0,.62-.28c-.35-.77-1.26-.93-1.92-1.05a2.84,2.84,0,0,1-1.32-.77,6.6,6.6,0,0,0-.76-.58,15,15,0,0,0-1.75.13h0A3.08,3.08,0,0,1,139.66,167.84Z"/></g></g></svg>