<svg xmlns="http://www.w3.org/2000/svg" viewBox="0 0 15.05 19.89"><defs><style>.cls-1{fill:#d49e6c;}.cls-2{fill:#b68052;}.cls-3{fill:#9d693c;}</style></defs><title>rocks5</title><g id="Layer_2" data-name="Layer 2"><g id="Layer_4" data-name="Layer 4"><path class="cls-1" d="M.37,15.05l-.06-.22Z"/><path class="cls-1" d="M9.42,18a17.05,17.05,0,0,1,1.31-1.83c.22-.29.46-.6.7-.93a.29.29,0,0,0,0-.34,1.82,1.82,0,0,1,.17-1.68c.45-.84,1.15-1.18,1.54-1a.32.32,0,0,0,.38-.14,16.49,16.49,0,0,0,.83-1.7c-.11.26-.23.52-.35.78C13.93,9,12.59,4.81,9.26,4.9A6.66,6.66,0,0,0,5.84,6.18l.06.21c.26.91.06,1.77-.45,1.91s-.86-.24-1.17-.83A12.41,12.41,0,0,0,.55,15.72c-.06-.22-.13-.44-.18-.66.48,2,1.47,3.64,3.08,4.28C4.46,19.74,7.88,20.84,9.42,18ZM8.41,7.8c.14-1.35.87-2.39,1.63-2.31s1.26,1.24,1.12,2.6-.87,2.39-1.63,2.31S8.27,9.16,8.41,7.8ZM2.59,12c-.12-1,.27-1.88.87-1.95s1.19.69,1.31,1.7-.27,1.88-.88,2S2.71,13,2.59,12Zm4.85,3.53c-.43-.09-.65-.75-.5-1.46S7.58,12.89,8,13s.65.75.49,1.47S7.87,15.66,7.44,15.56Zm-3.29,2.2c-.57-.43-.82-1.05-.57-1.39s.92-.25,1.49.18.82,1.06.56,1.39S4.71,18.19,4.15,17.76Z"/><path class="cls-2" d="M4.28,7.47c.31.59.77.94,1.17.83s.71-1,.45-1.91l-.06-.21A6.66,6.66,0,0,1,9.26,4.9C12.59,4.81,13.93,9,14,11.11c.12-.26.24-.52.35-.78a7.39,7.39,0,0,0-1-7.75C11.33-.31,7.06-.53,4.07.73.93,2.06.53,6,.14,9.73l-.06.59a14.16,14.16,0,0,0,.09,3.73l0,.22c0,.06,0,.13,0,.19a.68.68,0,0,1,0,.14l0,.05,0,.17h0l.06.22h0c0,.22.12.44.18.66A12.41,12.41,0,0,1,4.28,7.47Zm9.08-2.81A2,2,0,0,1,13.6,6a.29.29,0,0,1-.37.22A.3.3,0,0,1,13,5.89,1.45,1.45,0,0,0,12.84,5a.34.34,0,0,1-.05-.11.32.32,0,0,1,.15-.31A.3.3,0,0,1,13.36,4.66ZM10.25.37a6.66,6.66,0,0,1,1.55.73,7,7,0,0,1,.45,1.31,3.9,3.9,0,0,0,.47,1.23.32.32,0,0,1-.08.43A.31.31,0,0,1,12.21,4a4.78,4.78,0,0,1-.55-1.42C11.42,1.68,11.17.77,10.25.37Zm-4,4.22a.31.31,0,0,1-.33-.28.6.6,0,0,0-.16-.4.33.33,0,0,1-.1-.17.32.32,0,0,1,.09-.26.3.3,0,0,1,.43,0,1.18,1.18,0,0,1,.35.79A.3.3,0,0,1,6.21,4.59ZM8.6,1.94c.85,0,1.55.36,1.56.83s-.68.87-1.53.89-1.55-.37-1.56-.84S7.75,2,8.6,1.94ZM3.33,5.17A.3.3,0,0,1,3,4.91v0a1.73,1.73,0,0,1,.61-1.42A1.63,1.63,0,0,1,5,3.07a.29.29,0,0,1,.24.36.3.3,0,0,1-.35.24A1,1,0,0,0,4,3.92a1.13,1.13,0,0,0-.4.93A.3.3,0,0,1,3.33,5.17ZM4.52,5c.47-.14,1,.39,1.32,1.19A11.37,11.37,0,0,0,4.28,7.47a4.08,4.08,0,0,1-.22-.56C3.81,6,4,5.14,4.52,5ZM.05,10.73c.19-.23.39-.43.59-.63A2.53,2.53,0,0,0,1.46,9c.16-.59.39-1.39,1.11-1.63A.3.3,0,0,1,3,7.54a.29.29,0,0,1-.19.38c-.42.15-.59.75-.72,1.23a3.22,3.22,0,0,1-1,1.39,2.78,2.78,0,0,0-1,1.77v0A14.19,14.19,0,0,1,.05,10.73Z"/><ellipse class="cls-2" cx="3.68" cy="11.91" rx="1.1" ry="1.84" transform="translate(-1.38 0.52) rotate(-6.76)"/><ellipse class="cls-2" cx="7.72" cy="14.27" rx="1.32" ry="0.8" transform="translate(-7.88 18.72) rotate(-77.5)"/><ellipse class="cls-2" cx="4.61" cy="17.16" rx="0.76" ry="1.29" transform="translate(-11.83 10.41) rotate(-52.66)"/><ellipse class="cls-3" cx="8.61" cy="2.8" rx="1.54" ry="0.86" transform="translate(-0.04 0.13) rotate(-0.85)"/><path class="cls-3" d="M12.79,4.87a.34.34,0,0,0,.05.11,1.45,1.45,0,0,1,.17.91.3.3,0,0,0,.22.37A.29.29,0,0,0,13.6,6a2,2,0,0,0-.24-1.38.3.3,0,0,0-.42-.1A.32.32,0,0,0,12.79,4.87Z"/><path class="cls-3" d="M3.62,4.85A1.13,1.13,0,0,1,4,3.92a1,1,0,0,1,.87-.25.3.3,0,0,0,.35-.24A.29.29,0,0,0,5,3.07a1.63,1.63,0,0,0-1.38.39A1.73,1.73,0,0,0,3,4.88v0a.31.31,0,0,0,.61-.06Z"/><path class="cls-3" d="M6.14,3.47a.3.3,0,0,0-.43,0,.32.32,0,0,0-.09.26.33.33,0,0,0,.1.17.6.6,0,0,1,.16.4.31.31,0,1,0,.61,0A1.18,1.18,0,0,0,6.14,3.47Z"/><path class="cls-3" d="M5.84,6.19C5.55,5.39,5,4.86,4.52,5s-.71,1-.46,1.91a4.08,4.08,0,0,0,.22.56A11.37,11.37,0,0,1,5.84,6.19Z"/><ellipse class="cls-2" cx="9.79" cy="7.95" rx="2.47" ry="1.38" transform="translate(0.87 16.86) rotate(-84.06)"/><path class="cls-3" d="M12.21,4a.31.31,0,0,0,.43.08.32.32,0,0,0,.08-.43,3.9,3.9,0,0,1-.47-1.23A7,7,0,0,0,11.8,1.1,6.66,6.66,0,0,0,10.25.37c.92.4,1.17,1.31,1.41,2.2A4.78,4.78,0,0,0,12.21,4Z"/><path class="cls-3" d="M1.07,10.54a3.22,3.22,0,0,0,1-1.39c.13-.48.3-1.08.72-1.23A.29.29,0,0,0,3,7.54a.3.3,0,0,0-.39-.19c-.72.24-.95,1-1.11,1.63A2.53,2.53,0,0,1,.64,10.1c-.2.2-.4.4-.59.63a14.19,14.19,0,0,0,0,1.6v0A2.78,2.78,0,0,1,1.07,10.54Z"/></g></g></svg>