<svg xmlns="http://www.w3.org/2000/svg" viewBox="0 0 22.07 16.12"><defs><style>.cls-1{fill:#d49e6c;}.cls-2{fill:#b68052;}.cls-3{fill:#9d693c;}</style></defs><title>rocks3</title><g id="Layer_2" data-name="Layer 2"><g id="Layer_4" data-name="Layer 4"><path class="cls-1" d="M4.71.83,5,.74Z"/><path class="cls-1" d="M2.49,11.08a18.44,18.44,0,0,1,2.15,1.23L5.73,13a.35.35,0,0,0,.38,0A2,2,0,0,1,8,13c1,.4,1.41,1.13,1.28,1.58a.34.34,0,0,0,.19.4c.69.3,1.33.53,2,.73l-.88-.3c2.34-.34,6.75-2.25,6.29-5.9A7.27,7.27,0,0,0,15,5.87L14.82,6c-1,.38-1.94.25-2.15-.29s.17-1,.79-1.37A13.7,13.7,0,0,0,4,1.1c.23-.09.47-.19.71-.27C2.6,1.57.87,2.84.34,4.67,0,5.82-.82,9.69,2.49,11.08Zm11-2.21c1.5,0,2.71.7,2.71,1.54S15,11.92,13.52,11.92s-2.72-.7-2.71-1.54S12,8.86,13.54,8.87ZM8.26,2.94c1.1-.24,2.1.09,2.25.74S9.88,5.06,8.78,5.3s-2.09-.09-2.24-.75S7.17,3.18,8.26,2.94ZM4.92,8.64c.06-.48.75-.8,1.55-.7s1.4.56,1.34,1-.75.79-1.55.7S4.86,9.12,4.92,8.64ZM2.15,5.27c.42-.67,1.07-1,1.46-.77s.38,1,0,1.65-1.07,1-1.46.77S1.74,5.93,2.15,5.27Z"/><path class="cls-2" d="M13.46,4.3c-.62.4-1,1-.79,1.37s1.17.67,2.15.29L15,5.87a7.27,7.27,0,0,1,1.78,3.61c.46,3.65-3.95,5.56-6.29,5.9l.88.3a8.12,8.12,0,0,0,8.4-1.95c2.95-2.53,2.73-7.24,1-10.39S14.71,0,10.53,0H9.88A15.85,15.85,0,0,0,5.79.5L5.56.56,5.35.62,5.2.67h0L5,.74H5L4.71.83h0C4.47.91,4.23,1,4,1.1A13.7,13.7,0,0,1,13.46,4.3ZM17.52,14a2.3,2.3,0,0,1-1.49.42.34.34,0,0,1-.28-.39.33.33,0,0,1,.38-.28,1.66,1.66,0,0,0,1-.29l.12-.06a.36.36,0,0,1,.36.12A.35.35,0,0,1,17.52,14Zm4.37-3.88a7.85,7.85,0,0,1-.63,1.78,8.17,8.17,0,0,1-1.39.64,4.85,4.85,0,0,0-1.31.64.32.32,0,0,1-.47,0,.33.33,0,0,1,0-.47,5.15,5.15,0,0,1,1.5-.76C20.57,11.51,21.55,11.13,21.89,10.08Zm-5.07-4a.35.35,0,0,1,.27-.39.63.63,0,0,0,.43-.22.32.32,0,0,1,.18-.12.39.39,0,0,1,.29.06.35.35,0,0,1,.06.48,1.33,1.33,0,0,1-.84.47A.34.34,0,0,1,16.82,6.1ZM20,8.44c.11.94-.23,1.74-.75,1.8s-1-.65-1.13-1.58.23-1.74.75-1.8S19.89,7.51,20,8.44ZM15.88,3a.34.34,0,0,1,.24-.38h0a2,2,0,0,1,1.63.51,1.81,1.81,0,0,1,.57,1.47.34.34,0,0,1-.67-.05,1.12,1.12,0,0,0-.37-.93,1.28,1.28,0,0,0-1.06-.34A.33.33,0,0,1,15.88,3Zm.32,1.28c.19.5-.32,1.18-1.17,1.58a12.19,12.19,0,0,0-1.57-1.56A3.29,3.29,0,0,1,14.05,4C15,3.62,16,3.75,16.2,4.29ZM9.42,0a7.78,7.78,0,0,1,.75.58,2.83,2.83,0,0,0,1.32.78c.66.12,1.57.28,1.92,1a.33.33,0,0,1-.17.44.34.34,0,0,1-.45-.17c-.2-.44-.87-.56-1.42-.66a3.42,3.42,0,0,1-1.63-.92,3.13,3.13,0,0,0-2.06-1h0C8.25.07,8.84,0,9.42,0Z"/><ellipse class="cls-2" cx="8.52" cy="4.12" rx="2.03" ry="1.21" transform="translate(-0.68 1.92) rotate(-12.38)"/><ellipse class="cls-2" cx="6.36" cy="8.81" rx="0.88" ry="1.46" transform="translate(-3.15 14.07) rotate(-83.12)"/><ellipse class="cls-2" cx="2.86" cy="5.71" rx="1.42" ry="0.84" transform="translate(-3.5 5.14) rotate(-58.28)"/><ellipse class="cls-3" cx="19.05" cy="8.55" rx="0.95" ry="1.7" transform="translate(-0.84 2.2) rotate(-6.48)"/><path class="cls-3" d="M17.23,13.36l-.12.06a1.66,1.66,0,0,1-1,.29.33.33,0,0,0-.38.28.34.34,0,0,0,.28.39A2.3,2.3,0,0,0,17.52,14a.35.35,0,0,0,.07-.48A.36.36,0,0,0,17.23,13.36Z"/><path class="cls-3" d="M16.26,3.29a1.28,1.28,0,0,1,1.06.34,1.12,1.12,0,0,1,.37.93.34.34,0,0,0,.67.05,1.81,1.81,0,0,0-.57-1.47,2,2,0,0,0-1.63-.51h0a.34.34,0,0,0-.24.38A.33.33,0,0,0,16.26,3.29Z"/><path class="cls-3" d="M18.05,5.91A.35.35,0,0,0,18,5.43a.39.39,0,0,0-.29-.06.32.32,0,0,0-.18.12.63.63,0,0,1-.43.22.35.35,0,0,0-.27.39.34.34,0,0,0,.39.28A1.33,1.33,0,0,0,18.05,5.91Z"/><path class="cls-3" d="M15,5.87c.85-.4,1.36-1.08,1.17-1.58S15,3.62,14.05,4a3.29,3.29,0,0,0-.59.31A12.19,12.19,0,0,1,15,5.87Z"/><ellipse class="cls-2" cx="13.53" cy="10.39" rx="1.52" ry="2.72" transform="matrix(0.01, -1, 1, 0.01, 3.06, 23.86)"/><path class="cls-3" d="M18.13,12.63a.33.33,0,0,0,0,.47.32.32,0,0,0,.47,0,4.85,4.85,0,0,1,1.31-.64,8.17,8.17,0,0,0,1.39-.64,7.85,7.85,0,0,0,.63-1.78c-.34,1.05-1.32,1.43-2.26,1.79A5.15,5.15,0,0,0,18.13,12.63Z"/><path class="cls-3" d="M9.74,1.11A3.42,3.42,0,0,0,11.37,2c.55.1,1.22.22,1.42.66a.34.34,0,0,0,.45.17.33.33,0,0,0,.17-.44c-.35-.77-1.26-.93-1.92-1A2.83,2.83,0,0,1,10.17.59,7.78,7.78,0,0,0,9.42,0C8.84,0,8.25.07,7.66.14h0A3.13,3.13,0,0,1,9.74,1.11Z"/></g></g></svg>