<svg xmlns="http://www.w3.org/2000/svg" viewBox="0 0 51.91 56.15"><defs><style>.cls-1{fill:#d49e6c;}.cls-2{fill:#b68052;}.cls-3{fill:#9d693c;}</style></defs><title>rocks7</title><g id="Layer_2" data-name="Layer 2"><g id="Layer_4" data-name="Layer 4"><path class="cls-1" d="M.45,34.83c0-.23.08-.45.13-.68C.53,34.38.49,34.6.45,34.83Z"/><path class="cls-1" d="M21.77,53.8a51.39,51.39,0,0,1,5.8-3.45c1-.53,2-1.09,3.07-1.69a.93.93,0,0,0,.46-.93c-.18-1.32.84-3.14,2.49-4.41,2.25-1.74,4.59-1.84,5.46-1a.91.91,0,0,0,1.21.1,52.15,52.15,0,0,0,4.33-3.66c-.6.57-1.23,1.14-1.9,1.7,2.34-6,3.69-19-5.56-22.79a19.92,19.92,0,0,0-10.94-.62c0,.21,0,.43-.07.64-.4,2.81-2,4.92-3.56,4.7-1.21-.18-2.06-1.7-2.19-3.69A37.07,37.07,0,0,0,.16,36.89c.07-.68.17-1.36.29-2-1,6-.37,11.77,3.28,15.49C6,52.67,14.07,59.8,21.77,53.8ZM31.3,24.66c2-3.55,5.28-5.51,7.27-4.37s2,4.93-.07,8.48-5.28,5.51-7.27,4.37S29.28,28.21,31.3,24.66ZM10.19,29.23c.89-2.91,3-4.84,4.77-4.31s2.42,3.33,1.53,6.24-3,4.85-4.76,4.32S9.3,32.15,10.19,29.23Zm9.06,15.55c-1.07-.78-.89-2.85.4-4.61s3.21-2.56,4.28-1.77.89,2.85-.41,4.61S20.31,45.57,19.25,44.78Zm-11.7,2c-1-1.87-1-3.88.13-4.49s2.83.42,3.86,2.3,1,3.88-.12,4.49S8.59,48.71,7.55,46.83Z"/><path class="cls-2" d="M20.37,18.75c.13,2,1,3.51,2.19,3.68,1.57.23,3.16-1.88,3.56-4.69,0-.21.05-.43.07-.64a19.92,19.92,0,0,1,10.94.62c9.25,3.77,7.9,16.79,5.56,22.79.67-.56,1.3-1.13,1.9-1.7,8.21-7.8,7.95-15.75,6.6-22.51C49.13,5.91,37.66.15,27.93,0,17.7-.15,11.88,10.07,6.26,20l-.88,1.54A44.25,44.25,0,0,0,1.11,31.84c-.06.21-.11.42-.16.64s-.1.38-.14.57l-.09.41,0,.15c0,.17-.07.34-.11.51v0c0,.23-.09.45-.13.68v0c-.12.68-.22,1.36-.29,2A37.07,37.07,0,0,1,20.37,18.75ZM48.68,22a6.05,6.05,0,0,1-1,4.1A.92.92,0,0,1,46.24,25a4.38,4.38,0,0,0,.62-2.73,1,1,0,0,1,0-.35.92.92,0,0,1,1.8.11ZM45.33,6.48a19.36,19.36,0,0,1,3.37,3.87,20.58,20.58,0,0,1-.34,4.15,12.74,12.74,0,0,0-.21,3.95.92.92,0,0,1-1.8.35,14,14,0,0,1,.2-4.57C47,11.5,47.38,8.68,45.33,6.48Zm-16.2,6.7A.93.93,0,0,1,28.57,12a1.69,1.69,0,0,0,0-1.3.91.91,0,0,1,.49-1.19.91.91,0,0,1,1.2.49,3.46,3.46,0,0,1,0,2.61A.92.92,0,0,1,29.13,13.18Zm9.78-4.39c2.36,1,3.82,2.86,3.26,4.17s-2.91,1.57-5.27.57-3.81-2.86-3.26-4.17S36.56,7.79,38.91,8.79Zm-18.37,2.5A.91.91,0,0,1,20,10.2a.16.16,0,0,1,0-.09,5.27,5.27,0,0,1,3.38-3.18,4.91,4.91,0,0,1,4.27.61.91.91,0,0,1,.24,1.27.92.92,0,0,1-1.28.24,3.08,3.08,0,0,0-2.68-.37,3.46,3.46,0,0,0-2.22,2.08A.92.92,0,0,1,20.54,11.29Zm3.46,1c1.45.21,2.37,2.33,2.19,4.87a33,33,0,0,0-5.81,1.64,8.59,8.59,0,0,1,.07-1.81C20.85,14.12,22.44,12,24,12.24ZM4.8,22.59a20.06,20.06,0,0,1,2.39-1,7.83,7.83,0,0,0,3.6-2.09c1.16-1.42,2.76-3.35,5-3.15a.92.92,0,0,1,.83,1,.91.91,0,0,1-1,.83c-1.32-.12-2.51,1.33-3.47,2.49A9.38,9.38,0,0,1,7.82,23.3c-1.89.71-3.68,1.37-5,3.59l0,0A44.16,44.16,0,0,1,4.8,22.59Z"/><ellipse class="cls-2" cx="13.34" cy="30.2" rx="5.52" ry="3.29" transform="translate(-19.44 34.12) rotate(-72.98)"/><ellipse class="cls-2" cx="21.59" cy="41.59" rx="3.96" ry="2.4" transform="translate(-24.72 34.38) rotate(-53.73)"/><ellipse class="cls-2" cx="9.55" cy="45.74" rx="2.28" ry="3.87" transform="translate(-20.9 10.3) rotate(-28.88)"/><ellipse class="cls-3" cx="37.91" cy="11.16" rx="2.58" ry="4.63" transform="translate(12.86 41.73) rotate(-67.08)"/><path class="cls-3" d="M46.88,21.9a1,1,0,0,0,0,.35A4.38,4.38,0,0,1,46.24,25a.92.92,0,0,0,1.44,1.13,6.05,6.05,0,0,0,1-4.1.92.92,0,0,0-1.8-.11Z"/><path class="cls-3" d="M21.72,10.76a3.46,3.46,0,0,1,2.22-2.08,3.08,3.08,0,0,1,2.68.37.92.92,0,0,0,1.28-.24.91.91,0,0,0-.24-1.27,4.91,4.91,0,0,0-4.27-.61A5.27,5.27,0,0,0,20,10.11a.16.16,0,0,0,0,.09.91.91,0,0,0,.56,1.09A.92.92,0,0,0,21.72,10.76Z"/><path class="cls-3" d="M30.3,10a.92.92,0,0,0-1.73.12.9.9,0,0,0,0,.58,1.69,1.69,0,0,1,0,1.3.93.93,0,0,0,.56,1.17.92.92,0,0,0,1.17-.56A3.46,3.46,0,0,0,30.3,10Z"/><path class="cls-3" d="M26.19,17.11c.18-2.54-.74-4.66-2.19-4.87s-3.15,1.88-3.55,4.7a8.59,8.59,0,0,0-.07,1.81A33.25,33.25,0,0,1,26.19,17.11Z"/><ellipse class="cls-2" cx="34.9" cy="26.72" rx="7.4" ry="4.14" transform="translate(-5.6 43.78) rotate(-60.28)"/><path class="cls-3" d="M46.35,18.8a.92.92,0,0,0,1.8-.35,12.74,12.74,0,0,1,.21-3.95,20.58,20.58,0,0,0,.34-4.15,19.36,19.36,0,0,0-3.37-3.87c2.05,2.2,1.63,5,1.22,7.75A14,14,0,0,0,46.35,18.8Z"/><path class="cls-3" d="M7.82,23.3a9.38,9.38,0,0,0,4.38-2.64c1-1.16,2.15-2.61,3.47-2.49a.91.91,0,0,0,1-.83.92.92,0,0,0-.83-1c-2.28-.2-3.88,1.73-5,3.15a7.83,7.83,0,0,1-3.6,2.09,20.06,20.06,0,0,0-2.39,1,44.16,44.16,0,0,0-2,4.34l0,0C4.14,24.67,5.93,24,7.82,23.3Z"/></g></g></svg>