<svg xmlns="http://www.w3.org/2000/svg" viewBox="0 0 84.01 29.41"><defs><style>.cls-1{fill:#fff294;}.cls-2{fill:#fff;}.cls-3{fill:#ffcf00;}.cls-4{fill:#ff9300;}.cls-5{fill:#d49e6c;}.cls-6{fill:#b68052;}</style></defs><title>rock2</title><g id="Layer_2" data-name="Layer 2"><g id="Layer_4" data-name="Layer 4"><path class="cls-1" d="M48.47,6.83A1.31,1.31,0,0,1,49.8,8.12l2.91,0a13.26,13.26,0,0,1,5.12-5.32L39.89,3a2,2,0,0,0-2,2h0a2,2,0,0,0,2,2Z"/><path class="cls-1" d="M53.86,22.82h0l-.19-.26,0,0-.17-.25,0-.05L53.26,22l0-.06a2.13,2.13,0,0,1-.16-.25v0c-.09-.15-.18-.29-.26-.45l-2.84,0a1.31,1.31,0,0,1-1.29,1.33l-8.54.11a2,2,0,0,0,0,3.94l18-.23A13.59,13.59,0,0,1,53.86,22.82Z"/><path class="cls-1" d="M39.53,16.13l-12.6.16a2,2,0,0,0-1.95,2h0a2,2,0,0,0,2,1.95L42.07,20A6.54,6.54,0,0,1,39.53,16.13Z"/><path class="cls-1" d="M41.94,9.54l-15.1.19a2,2,0,1,0,.05,3.93l12.6-.15A6.57,6.57,0,0,1,41.94,9.54Z"/><path class="cls-2" d="M52.55,20.74l-.1-.21-.06-.14-.09-.2c0-.05,0-.1-.07-.16s0-.12-.08-.19l-.06-.17c0-.07-.05-.13-.07-.19a1.46,1.46,0,0,1-.07-.19l-.06-.18a1.87,1.87,0,0,1-.07-.22c0-.05,0-.11,0-.17s-.05-.18-.08-.27l0-.12-.09-.39a.89.89,0,0,1,0-.14l-.06-.27,0-.17c0-.08,0-.17-.05-.25l0-.18,0-.26,0-.18,0-.26c0-.06,0-.12,0-.18l0-.28s0-.11,0-.17,0-.21,0-.31a.76.76,0,0,0,0-.15c0-.16,0-.31,0-.47a13.87,13.87,0,0,1,1.52-6.58l-2.91,0a1.31,1.31,0,0,1-1.3,1.33l-6.56.09a6.57,6.57,0,0,0-2.45,4l5.12-.07a1.32,1.32,0,0,1,0,2.63l-5.12.06A6.54,6.54,0,0,0,42.07,20L48.63,20A1.32,1.32,0,0,1,50,21.25l2.84,0-.2-.38A.93.93,0,0,0,52.55,20.74Z"/><path class="cls-3" d="M40.18,26.63l-5.9.07a1.32,1.32,0,0,0,0,2.63l34.13-.43a1.66,1.66,0,0,0,.22,0A23.49,23.49,0,0,1,58.2,26.4Z"/><path class="cls-3" d="M68.28,0h-.21L34,.45a1.31,1.31,0,1,0,0,2.62L39.89,3l17.94-.23A22.3,22.3,0,0,1,68.28,0Z"/><path class="cls-4" d="M27.42,3.16l1.31,0A1.31,1.31,0,0,0,30,1.81,1.3,1.3,0,0,0,28.7.51l-1.32,0a1.31,1.31,0,0,0-1.29,1.33A1.32,1.32,0,0,0,27.42,3.16Z"/><path class="cls-4" d="M29,26.77H27.71a1.32,1.32,0,0,0,0,2.63l1.31,0a1.31,1.31,0,1,0,0-2.62Z"/><path class="cls-3" d="M1.3,14A1.31,1.31,0,0,0,0,15.32,1.31,1.31,0,0,1,1.3,14Z"/><path class="cls-3" d="M0,15.32a1.31,1.31,0,0,0,1.33,1.29A1.31,1.31,0,0,1,0,15.32Z"/><path class="cls-3" d="M44.65,16.07a1.32,1.32,0,0,0,0-2.63l-5.12.07-12.6.15-13.78.18a1.31,1.31,0,1,1,0,2.62l13.79-.17,12.6-.16Z"/><path class="cls-4" d="M14.37,9.88l2.63,0a1.31,1.31,0,1,0,0-2.62l-2.62,0a1.31,1.31,0,1,0,0,2.62Z"/><path class="cls-3" d="M48.5,9.45a1.31,1.31,0,1,0,0-2.62l-8.53.11-17.72.22a1.31,1.31,0,1,0,0,2.62l4.59,0,15.1-.19Z"/><path class="cls-4" d="M17.13,20.35l-2.62,0a1.32,1.32,0,0,0,0,2.63l2.62,0a1.32,1.32,0,0,0,0-2.63Z"/><path class="cls-3" d="M48.67,22.58A1.31,1.31,0,0,0,50,21.25,1.32,1.32,0,0,0,48.63,20L42.07,20,27,20.23l-4.59.06a1.31,1.31,0,1,0,0,2.62l17.72-.22Z"/><path class="cls-5" d="M70.69,0a14.41,14.41,0,0,1,7.73,3c-.28,0-.56,0-.84,0-12.06.15-16.26,7.66-16.18,14.64.07,5.29,2.2,8.85,5.3,11.1-5.05-.45-9.94-2.24-12.84-5.93A13.69,13.69,0,0,0,58.2,26.4a23.49,23.49,0,0,0,10.46,2.47h1.09A14.44,14.44,0,0,0,70.69,0Z"/><path class="cls-5" d="M69.39,0h0Z"/><path class="cls-5" d="M70.05,0a5.44,5.44,0,0,1,.57,0A5.44,5.44,0,0,0,70.05,0Z"/><path class="cls-5" d="M53.46,22.28l.17.25Z"/><path class="cls-5" d="M53.23,21.93a2.13,2.13,0,0,1-.16-.25A2.13,2.13,0,0,0,53.23,21.93Z"/><path class="cls-5" d="M53.42,22.23,53.26,22Z"/><path class="cls-5" d="M53.85,22.82l-.19-.26Z"/><path class="cls-5" d="M52.45,20.53l.1.21Z"/><path class="cls-5" d="M51.23,15.6c0,.06,0,.12,0,.18S51.23,15.66,51.23,15.6Z"/><path class="cls-5" d="M52.3,20.19l.09.2Z"/><path class="cls-5" d="M52.6,20.84l.2.38c.08.15.17.3.26.44C52.89,21.39,52.74,21.12,52.6,20.84Z"/><path class="cls-5" d="M52.23,20c0-.06,0-.12-.08-.19S52.2,20,52.23,20Z"/><path class="cls-5" d="M51.2,15.14a.76.76,0,0,1,0,.15A.76.76,0,0,0,51.2,15.14Z"/><path class="cls-5" d="M51.37,16.93l0,.18Z"/><path class="cls-5" d="M51.31,16.49l0,.18Z"/><path class="cls-5" d="M51.45,17.36l0,.17Z"/><path class="cls-5" d="M51.27,16.05c0,.06,0,.12,0,.18S51.27,16.11,51.27,16.05Z"/><path class="cls-5" d="M51.66,18.33l0,.12Z"/><path class="cls-5" d="M51.54,17.8a.89.89,0,0,0,0,.14A.89.89,0,0,1,51.54,17.8Z"/><path class="cls-5" d="M52,19.48c0,.06,0,.12.07.19S52,19.54,52,19.48Z"/><path class="cls-5" d="M51.77,18.72c0,.06,0,.12,0,.17S51.79,18.78,51.77,18.72Z"/><path class="cls-5" d="M51.89,19.11l.06.18Z"/><path class="cls-4" d="M14.44,15.13a1.31,1.31,0,0,0-1.33-1.29L1.3,14a1.31,1.31,0,1,0,0,2.62l11.81-.15A1.31,1.31,0,0,0,14.44,15.13Z"/><path class="cls-6" d="M52.71,8.09a13.87,13.87,0,0,0-1.52,6.58c0,.16,0,.31,0,.47a.76.76,0,0,1,0,.15c0,.1,0,.21,0,.31s0,.12,0,.18l0,.27c0,.06,0,.12,0,.18l0,.26,0,.18,0,.26,0,.18c0,.08,0,.17.05.25l0,.17.06.27a.89.89,0,0,0,0,.14l.09.39,0,.12c0,.09.05.18.08.27s0,.12,0,.17a1.87,1.87,0,0,0,.07.22l.06.18a1.46,1.46,0,0,0,.07.19c0,.06,0,.12.07.19l.06.17c0,.07.05.13.08.19s.05.11.07.16l.09.2.06.14.1.21a.93.93,0,0,1,.05.1,8.2,8.2,0,0,0,.46.82v0a2.13,2.13,0,0,0,.16.25l0,.06.16.24,0,.05.17.25,0,0,.19.26h0c2.9,3.69,7.79,5.48,12.84,5.93-3.1-2.25-5.23-5.81-5.3-11.1-.08-7,4.12-14.49,16.18-14.64.28,0,.56,0,.84,0a14.41,14.41,0,0,0-7.73-3h-.07a5.44,5.44,0,0,0-.57,0h-.66L68.28,0A22.3,22.3,0,0,0,57.83,2.77,13.26,13.26,0,0,0,52.71,8.09Z"/></g></g></svg>