<svg xmlns="http://www.w3.org/2000/svg" viewBox="0 0 142.61 142.95"><defs><style>.cls-1{fill:#f06529;}.cls-2{fill:#fabc5f;}.cls-3{fill:#f04729;}</style></defs><title>rock</title><g id="Layer_2" data-name="Layer 2"><g id="Layer_4" data-name="Layer 4"><g id="surface1"><path class="cls-1" d="M12.61,90a29,29,0,1,0,40.47,40.32L142.61,0Z"/><path class="cls-2" d="M45.47,114.56a17,17,0,1,1-17-17A17,17,0,0,1,45.47,114.56Z"/><path class="cls-1" d="M0,79.48H4.57l.06,34H.1Z"/><path class="cls-1" d="M2.51,99l11.3-27.24L18,73.52,6.7,100.76Z"/><path class="cls-1" d="M7.37,93.92,49.79,41.66l3.52,2.86L10.89,96.78Z"/><path class="cls-1" d="M29.64,138.41l38.56-.07v4.54L29.65,143Z"/><path class="cls-1" d="M42.37,136.3l36.27-15.39,1.77,4.17-36.27,15.4Z"/><path class="cls-1" d="M46.4,132.08,91.71,95.67l2.85,3.54L49.25,135.62Z"/><path class="cls-3" d="M16.62,65,25.1,44.53l4.19,1.74L20.81,66.7Z"/><path class="cls-3" d="M52.64,38.15l4.53-5.58,3.52,2.86L56.16,41Z"/><path class="cls-3" d="M0,63.6H4.54l0,11.35H0Z"/><path class="cls-3" d="M85.48,118l11.33-4.55,1.69,4.21-11.33,4.55Z"/><path class="cls-3" d="M95.1,92.88,107.45,82.1l3,3.42L98.08,96.3Z"/><path class="cls-3" d="M72.74,138.33h6.81v4.53l-6.81,0Z"/></g></g></g></svg>