<svg xmlns="http://www.w3.org/2000/svg" viewBox="0 0 36.35 36.74"><defs><style>.cls-1{fill:#d49e6c;}.cls-2{fill:#b68052;}.cls-3{fill:#9d693c;}</style></defs><title>rocks2</title><g id="Layer_2" data-name="Layer 2"><g id="Layer_4" data-name="Layer 4"><path class="cls-1" d="M.8,21.23c0-.15.09-.3.13-.45C.89,20.93.84,21.08.8,21.23Z"/><path class="cls-1" d="M13.57,35.64a33,33,0,0,1,4.16-1.86c.69-.27,1.42-.57,2.19-.89a.62.62,0,0,0,.38-.58,3.72,3.72,0,0,1,2-2.76c1.64-1,3.22-.86,3.73-.19a.63.63,0,0,0,.81.15,34.59,34.59,0,0,0,3.19-2.1c-.45.34-.92.66-1.41,1,2.05-3.83,4-12.45-1.91-15.71a13.46,13.46,0,0,0-7.28-1.28c0,.13-.06.28-.1.42-.49,1.85-1.72,3.13-2.76,2.86-.8-.21-1.24-1.3-1.17-2.65a25,25,0,0,0-15,10.55c.1-.45.22-.9.35-1.35-1.18,3.94-1.18,7.86,1,10.64C3.1,33.62,7.93,39,13.57,35.64Zm8.7-18.76c1.64-2.22,4-3.27,5.22-2.36s.91,3.46-.73,5.68-4,3.27-5.21,2.35S20.63,19.09,22.27,16.88ZM7.77,18.26c.83-1.88,2.41-3,3.53-2.51s1.36,2.42.53,4.3-2.41,3-3.53,2.51S6.94,20.14,7.77,18.26Zm4.82,11.13c-.65-.61-.36-2,.64-3.05s2.36-1.46,3-.85.37,2-.64,3.06S13.25,30,12.59,29.39Zm-8,.45c-.54-1.34-.35-2.68.44-3s1.86.5,2.4,1.84.35,2.68-.44,3S5.14,31.17,4.6,29.84Z"/><path class="cls-2" d="M15.42,12c-.07,1.35.37,2.44,1.17,2.65,1,.27,2.27-1,2.76-2.86,0-.14.07-.29.1-.42a13.46,13.46,0,0,1,7.28,1.28C32.62,16,30.68,24.57,28.64,28.4c.49-.33,1-.65,1.41-1,6.12-4.57,6.57-9.92,6.21-14.55C35.7,5.74,28.48,1,22,.09,15.13-.83,10.43,5.55,5.87,11.73l-.71,1a29.25,29.25,0,0,0-3.68,6.59c-.06.14-.11.28-.16.41s-.1.25-.14.38l-.09.26,0,.1c0,.11-.07.22-.11.33v0c0,.15-.09.3-.13.45h0c-.13.45-.25.9-.35,1.35A25,25,0,0,1,15.42,12Zm18.7,4.44a4.12,4.12,0,0,1-1,2.67.62.62,0,1,1-.88-.88,3,3,0,0,0,.64-1.77.51.51,0,0,1,0-.24.64.64,0,0,1,.56-.39A.62.62,0,0,1,34.12,16.48Zm-1-10.66a12.9,12.9,0,0,1,2,2.85,15.5,15.5,0,0,1-.56,2.76,8.18,8.18,0,0,0-.46,2.62.63.63,0,0,1-.57.67.62.62,0,0,1-.66-.57,9.15,9.15,0,0,1,.49-3.05C33.8,9.3,34.31,7.45,33.11,5.82ZM21.73,9a.63.63,0,0,1-.28-.83,1.12,1.12,0,0,0,.13-.86.6.6,0,0,1,0-.4.62.62,0,0,1,.4-.37.63.63,0,0,1,.77.43,2.38,2.38,0,0,1-.21,1.75A.63.63,0,0,1,21.73,9Zm6.9-2.16c1.5.85,2.33,2.22,1.85,3.06s-2.07.81-3.57,0-2.33-2.23-1.85-3.06S27.13,6,28.63,6.85Zm-12.51.21a.61.61,0,0,1-.28-.77.14.14,0,0,1,0-.06,3.55,3.55,0,0,1,2.52-1.86,3.33,3.33,0,0,1,2.81.74.62.62,0,0,1-.81.94,2,2,0,0,0-1.77-.46A2.29,2.29,0,0,0,17,6.8.62.62,0,0,1,16.12,7.06ZM18.37,8c.95.25,1.4,1.74,1.08,3.43a22.72,22.72,0,0,0-4,.63,6.63,6.63,0,0,1,.19-1.2C16.11,9,17.34,7.7,18.37,8ZM4.68,13.38a13.1,13.1,0,0,1,1.68-.49,5.22,5.22,0,0,0,2.58-1.11c.89-.86,2.12-2,3.63-1.71a.63.63,0,0,1,.48.74.61.61,0,0,1-.73.47c-.88-.18-1.79.69-2.53,1.39A6.41,6.41,0,0,1,6.65,14.1,5.71,5.71,0,0,0,3,16.1s0,0,0,0A29.23,29.23,0,0,1,4.68,13.38Z"/><ellipse class="cls-2" cx="9.8" cy="19.15" rx="3.72" ry="2.22" transform="translate(-11.68 20.39) rotate(-66.21)"/><ellipse class="cls-2" cx="14.41" cy="27.44" rx="2.67" ry="1.62" transform="translate(-15.48 19.24) rotate(-46.95)"/><ellipse class="cls-2" cx="6.02" cy="29.26" rx="1.54" ry="2.61" transform="translate(-10.57 4.42) rotate(-22.1)"/><ellipse class="cls-3" cx="27.77" cy="8.36" rx="1.74" ry="3.12" transform="translate(6.75 28.34) rotate(-60.3)"/><path class="cls-3" d="M32.93,16.26a.69.69,0,0,0,0,.24,2.94,2.94,0,0,1-.63,1.77.62.62,0,1,0,.88.88,4.12,4.12,0,0,0,1-2.67.62.62,0,0,0-.63-.61A.64.64,0,0,0,32.93,16.26Z"/><path class="cls-3" d="M17,6.8a2.29,2.29,0,0,1,1.65-1.21,2,2,0,0,1,1.77.46.62.62,0,0,0,.81-.94,3.33,3.33,0,0,0-2.81-.74,3.55,3.55,0,0,0-2.52,1.86.14.14,0,0,0,0,.06.61.61,0,0,0,.28.77A.62.62,0,0,0,17,6.8Z"/><path class="cls-3" d="M22.77,7A.63.63,0,0,0,22,6.55a.62.62,0,0,0-.4.37.6.6,0,0,0,0,.4,1.12,1.12,0,0,1-.13.86.62.62,0,1,0,1.11.55A2.38,2.38,0,0,0,22.77,7Z"/><path class="cls-3" d="M19.45,11.41c.32-1.69-.13-3.18-1.08-3.43s-2.26,1-2.76,2.86a6.63,6.63,0,0,0-.19,1.2A22.72,22.72,0,0,1,19.45,11.41Z"/><ellipse class="cls-2" cx="24.52" cy="18.54" rx="4.99" ry="2.79" transform="translate(-4.97 27.22) rotate(-53.51)"/><path class="cls-3" d="M32.82,14.15a.62.62,0,0,0,.66.57.63.63,0,0,0,.57-.67,8.18,8.18,0,0,1,.46-2.62,15.5,15.5,0,0,0,.56-2.76,12.9,12.9,0,0,0-2-2.85c1.2,1.63.69,3.48.2,5.28A9.15,9.15,0,0,0,32.82,14.15Z"/><path class="cls-3" d="M6.65,14.1a6.41,6.41,0,0,0,3.14-1.43c.74-.7,1.65-1.57,2.53-1.39a.61.61,0,0,0,.73-.47.63.63,0,0,0-.48-.74c-1.51-.31-2.74.85-3.63,1.71a5.22,5.22,0,0,1-2.58,1.11,13.1,13.1,0,0,0-1.68.49A31.48,31.48,0,0,0,3,16.12s0,0,0,0A5.71,5.71,0,0,1,6.65,14.1Z"/></g></g></svg>