<svg xmlns="http://www.w3.org/2000/svg" viewBox="0 0 47.62 48.97"><defs><style>.cls-1{fill:#d49e6c;}.cls-2{fill:#b68052;}.cls-3{fill:#9d693c;}</style></defs><title>rocks4</title><g id="Layer_2" data-name="Layer 2"><g id="Layer_4" data-name="Layer 4"><path class="cls-1" d="M26.4,47.48l-.58-.22Z"/><path class="cls-1" d="M46.45,31.82a44.69,44.69,0,0,1-2.1-5.64c-.31-.93-.64-1.93-1-3a.82.82,0,0,0-.74-.55c-1.19-.06-2.62-1.24-3.47-2.9-1.16-2.25-.88-4.32.05-4.94a.82.82,0,0,0,.27-1.05A45.27,45.27,0,0,0,37,9.4c.4.62.8,1.27,1.19,1.94-4.89-3-16.1-6.28-20.89,1.23A17.84,17.84,0,0,0,15,22.07c.18,0,.36.1.55.16,2.4.8,4,2.53,3.55,3.87-.35,1-1.82,1.53-3.59,1.33A33.11,33.11,0,0,0,28.15,48.07c-.58-.18-1.16-.37-1.74-.58,5.09,1.88,10.27,2.2,14.11-.4C42.93,45.46,50.48,39.53,46.45,31.82Zm-24-13c-2.79-2.34-4-5.51-2.67-7.07s4.64-.93,7.43,1.42,4,5.51,2.67,7.07S25.21,21.14,22.42,18.79ZM23.05,38c-2.42-1.25-3.77-3.43-3-4.87s3.3-1.59,5.72-.34,3.76,3.42,3,4.86S25.46,39.29,23.05,38Zm15.09-5.45c-.86.81-2.64.32-4-1.1s-1.73-3.22-.87-4,2.64-.32,4,1.09S39,31.78,38.14,32.59Zm-.08,10.58c-1.81.61-3.56.24-3.92-.82s.82-2.42,2.63-3,3.57-.23,3.92.83S39.87,42.57,38.06,43.17Z"/><path class="cls-2" d="M15.48,27.43c1.77.2,3.24-.29,3.59-1.33.44-1.34-1.15-3.07-3.55-3.87-.19-.06-.37-.12-.55-.16a17.84,17.84,0,0,1,2.29-9.5c4.79-7.51,16-4.25,20.89-1.23C37.76,10.67,37.36,10,37,9.4,31.43,1,24.41-.09,18.27,0,8.83.15,1.94,9.29.25,17.8c-1.77,9,6.26,15.69,14,22.2l1.21,1a39.32,39.32,0,0,0,8.39,5.4l.53.25.49.21.34.14.13.06.42.17h0l.58.22h0c.58.21,1.16.4,1.74.58A33.11,33.11,0,0,1,15.48,27.43Zm7.4-24.3a5.38,5.38,0,0,1,3.43,1.53.81.81,0,0,1-1.22,1.08,3.9,3.9,0,0,0-2.29-1,.79.79,0,0,1-.31-.08A.82.82,0,0,1,22,3.9.81.81,0,0,1,22.88,3.13ZM8.72,3.58a17.23,17.23,0,0,1,3.93-2.34,19.45,19.45,0,0,1,3.59,1A11.22,11.22,0,0,0,19.67,3a.82.82,0,0,1,0,1.64,12.59,12.59,0,0,1-4-.91C13.38,3,11,2.13,8.72,3.58ZM12,18.86a.84.84,0,0,1-1.12.3,1.51,1.51,0,0,0-1.13-.24.77.77,0,0,1-.52-.06.83.83,0,0,1-.45-.56.82.82,0,0,1,.63-1,3.12,3.12,0,0,1,2.28.42A.82.82,0,0,1,12,18.86ZM9.71,9.57C11,7.67,12.84,6.69,13.9,7.38s.91,2.81-.34,4.72S10.43,15,9.37,14.29,8.46,11.48,9.71,9.57ZM9,26.09a.81.81,0,0,1-1,.32l-.08,0A4.73,4.73,0,0,1,5.6,22.89a4.39,4.39,0,0,1,1.22-3.65.81.81,0,0,1,1.15,0,.82.82,0,0,1,0,1.15,2.78,2.78,0,0,0-.76,2.3A3.1,3.1,0,0,0,8.69,25,.8.8,0,0,1,9,26.09Zm1.4-2.89c.41-1.23,2.41-1.7,4.61-1.13a30.6,30.6,0,0,0,.51,5.36,8.39,8.39,0,0,1-1.57-.35C11.5,26.28,9.91,24.54,10.36,23.2Zm6,18.51a16.8,16.8,0,0,1-.5-2.26A6.93,6.93,0,0,0,14.59,36c-1.05-1.25-2.49-3-1.94-4.93a.81.81,0,1,1,1.57.43c-.31,1.14.76,2.42,1.63,3.44a8.44,8.44,0,0,1,1.62,4.27c.31,1.77.6,3.44,2.34,5l0,0A40.23,40.23,0,0,1,16.36,41.71Z"/><ellipse class="cls-2" cx="24.4" cy="35.43" rx="2.94" ry="4.92" transform="translate(-18.29 40.81) rotate(-62.64)"/><ellipse class="cls-2" cx="35.71" cy="30.03" rx="2.14" ry="3.53" transform="translate(-10.87 32.73) rotate(-43.38)"/><ellipse class="cls-2" cx="37.42" cy="41.25" rx="3.45" ry="2.03" transform="translate(-11.17 14.03) rotate(-18.53)"/><ellipse class="cls-3" cx="11.64" cy="10.83" rx="4.13" ry="2.3" transform="matrix(0.55, -0.84, 0.84, 0.55, -3.81, 14.62)"/><path class="cls-3" d="M22.49,4.68a.79.79,0,0,0,.31.08,3.9,3.9,0,0,1,2.29,1,.81.81,0,0,0,1.22-1.08,5.38,5.38,0,0,0-3.43-1.53A.81.81,0,0,0,22,3.9.82.82,0,0,0,22.49,4.68Z"/><path class="cls-3" d="M8.69,25a3.1,3.1,0,0,1-1.47-2.28A2.78,2.78,0,0,1,8,20.39a.82.82,0,0,0,0-1.15.81.81,0,0,0-1.15,0A4.39,4.39,0,0,0,5.6,22.89a4.73,4.73,0,0,0,2.24,3.48l.08,0A.82.82,0,0,0,8.69,25Z"/><path class="cls-3" d="M9.41,17.32a.82.82,0,0,0-.18,1.54.77.77,0,0,0,.52.06,1.51,1.51,0,0,1,1.13.24.84.84,0,0,0,1.12-.3.82.82,0,0,0-.31-1.12A3.12,3.12,0,0,0,9.41,17.32Z"/><path class="cls-3" d="M15,22.07c-2.2-.57-4.2-.1-4.61,1.13s1.14,3.08,3.55,3.88a8.39,8.39,0,0,0,1.57.35A30.6,30.6,0,0,1,15,22.07Z"/><ellipse class="cls-2" cx="24.8" cy="15.96" rx="3.69" ry="6.6" transform="translate(-3.38 24.67) rotate(-49.93)"/><path class="cls-3" d="M19.69,4.65a.8.8,0,0,0,.8-.82A.82.82,0,0,0,19.67,3a11.22,11.22,0,0,1-3.43-.82,19.45,19.45,0,0,0-3.59-1A17.23,17.23,0,0,0,8.72,3.58c2.25-1.45,4.66-.63,7,.17A12.3,12.3,0,0,0,19.69,4.65Z"/><path class="cls-3" d="M17.47,39.17a8.44,8.44,0,0,0-1.62-4.27c-.87-1-1.94-2.3-1.63-3.44A.81.81,0,1,0,12.65,31c-.55,2,.89,3.68,1.94,4.93a6.93,6.93,0,0,1,1.27,3.49,16.8,16.8,0,0,0,.5,2.26,40.23,40.23,0,0,0,3.48,2.47l0,0C18.07,42.61,17.78,40.94,17.47,39.17Z"/></g></g></svg>