<svg xmlns="http://www.w3.org/2000/svg" viewBox="0 0 50.84 32.58"><defs><style>.cls-1{fill:#fff294;}.cls-2{fill:#fff;}.cls-3{fill:#ffcf00;}.cls-4{fill:#ff9300;}.cls-5{fill:#d49e6c;}.cls-6{fill:#b68052;}</style></defs><title>rock3</title><g id="Layer_2" data-name="Layer 2"><g id="Layer_4" data-name="Layer 4"><path class="cls-1" d="M31.29,11.47a.87.87,0,0,1,.35,1.19l1.72.94a8.88,8.88,0,0,1,4.75-1.42L27.53,6.39a1.33,1.33,0,0,0-1.8.53h0a1.33,1.33,0,0,0,.53,1.8Z"/><path class="cls-1" d="M29.17,22.61h0l0-.21v0a1.36,1.36,0,0,1,0-.2v0c0-.07,0-.13,0-.2v0a1.34,1.34,0,0,1,0-.2v0c0-.11,0-.23,0-.34l-1.67-.92a.88.88,0,0,1-1.2.35l-5-2.75a1.33,1.33,0,0,0-1.27,2.33l10.63,5.8A9.17,9.17,0,0,1,29.17,22.61Z"/><path class="cls-1" d="M23,14,15.55,9.9a1.32,1.32,0,0,0-1.79.53h0a1.32,1.32,0,0,0,.53,1.8l8.9,4.86A4.36,4.36,0,0,1,23,14Z"/><path class="cls-1" d="M26.57,10.9,17.67,6A1.33,1.33,0,0,0,16.4,8.36l7.43,4.06A4.4,4.4,0,0,1,26.57,10.9Z"/><path class="cls-2" d="M29.09,21a.92.92,0,0,0,0-.16.34.34,0,0,0,0-.1c0-.05,0-.1,0-.14s0-.08,0-.12,0-.09,0-.14a37898519264397.49,37898519264397.49,0,0,0,0-.26.59.59,0,0,1,0-.13.59.59,0,0,0,0-.13c0-.05,0-.1,0-.15a.52.52,0,0,1,0-.11c0-.06,0-.12.05-.19a.31.31,0,0,1,0-.08c0-.08,0-.17.07-.26l0-.09.06-.18,0-.11.06-.16s0-.07,0-.11l.06-.16.05-.12.07-.16a.37.37,0,0,1,.05-.11c0-.06.05-.12.07-.17l.06-.11a1.51,1.51,0,0,1,.09-.18,1,1,0,0,1,0-.1L30.3,17a9.28,9.28,0,0,1,3.06-3.36l-1.72-.94a.88.88,0,0,1-1.2.35L26.57,10.9a4.4,4.4,0,0,0-2.74,1.52l3,1.65A.88.88,0,1,1,26,15.61L23,14a4.36,4.36,0,0,0,.2,3.12l3.87,2.12a.88.88,0,0,1,.35,1.19l1.67.92c0-.1,0-.19,0-.29Z"/><path class="cls-3" d="M19.91,20.33l-3.48-1.91a.89.89,0,0,0-1.2.36A.88.88,0,0,0,15.58,20L35.71,31l.14.06a15.76,15.76,0,0,1-5.31-4.9Z"/><path class="cls-3" d="M45.13,14,45,13.94l-20.13-11A.88.88,0,1,0,24,4.49l3.49,1.9,10.58,5.79A14.81,14.81,0,0,1,45.13,14Z"/><path class="cls-4" d="M20.17,2.38,21,2.8a.88.88,0,0,0,.84-1.55L21,.83a.88.88,0,0,0-1.2.35A.89.89,0,0,0,20.17,2.38Z"/><path class="cls-4" d="M13.33,16.73l-.77-.42a.88.88,0,0,0-.85,1.55l.78.42a.88.88,0,0,0,.84-1.55Z"/><path class="cls-3" d="M1.31.11A.88.88,0,0,0,.11.46.88.88,0,0,1,1.31.11Z"/><path class="cls-3" d="M.11.46a.88.88,0,0,0,.35,1.2A.88.88,0,0,1,.11.46Z"/><path class="cls-3" d="M26,15.61a.88.88,0,1,0,.84-1.54l-3-1.65L16.4,8.36,8.27,3.92a.88.88,0,0,1-.84,1.54L15.55,9.9,23,14Z"/><path class="cls-4" d="M10.32,2l1.54.84a.88.88,0,0,0,1.2-.35.89.89,0,0,0-.35-1.2L11.16.47A.88.88,0,0,0,10,.82.89.89,0,0,0,10.32,2Z"/><path class="cls-3" d="M30.44,13a.88.88,0,1,0,.85-1.54l-5-2.75L15.81,3A.88.88,0,1,0,15,4.55L17.67,6l8.9,4.87Z"/><path class="cls-4" d="M8.48,9.05,6.93,8.21a.88.88,0,0,0-1.2.35.89.89,0,0,0,.36,1.2l1.54.84a.88.88,0,0,0,1.2-.35A.89.89,0,0,0,8.48,9.05Z"/><path class="cls-3" d="M26.21,20.75a.88.88,0,1,0,.85-1.54l-3.87-2.12-8.9-4.86-2.71-1.48a.88.88,0,1,0-.85,1.54L21.18,18Z"/><path class="cls-5" d="M46.54,14.82a9.67,9.67,0,0,1,3.54,4.31c-.16-.1-.32-.21-.49-.3-7.11-3.89-12.05-.87-14.3,3.24a8.83,8.83,0,0,0-.55,8.25c-2.81-1.93-5.09-4.59-5.57-7.71a9.11,9.11,0,0,0,1.37,3.52A15.76,15.76,0,0,0,35.85,31l.63.36A9.7,9.7,0,0,0,46.54,14.82Z"/><path class="cls-5" d="M45.79,14.36l.34.2Z"/><path class="cls-5" d="M46.18,14.59l.32.2Z"/><path class="cls-5" d="M29.12,22.16a1.36,1.36,0,0,0,0,.2A1.36,1.36,0,0,1,29.12,22.16Z"/><path class="cls-5" d="M29.1,21.88a1.34,1.34,0,0,1,0-.2A1.34,1.34,0,0,0,29.1,21.88Z"/><path class="cls-5" d="M29.11,22.12c0-.07,0-.13,0-.2S29.11,22.05,29.11,22.12Z"/><path class="cls-5" d="M29.17,22.6l0-.21Z"/><path class="cls-5" d="M29.1,20.8a.92.92,0,0,1,0,.16A.92.92,0,0,0,29.1,20.8Z"/><path class="cls-5" d="M30,17.51l-.06.11Z"/><path class="cls-5" d="M29.13,20.56s0,.09,0,.14S29.12,20.6,29.13,20.56Z"/><path class="cls-5" d="M29.09,21c0,.1,0,.19,0,.29s0,.23,0,.34Q29.07,21.35,29.09,21Z"/><path class="cls-5" d="M29.14,20.44c0-.05,0-.09,0-.14S29.15,20.39,29.14,20.44Z"/><path class="cls-5" d="M30.15,17.23a1,1,0,0,0,0,.1A1,1,0,0,1,30.15,17.23Z"/><path class="cls-5" d="M29.66,18.34s0,.07,0,.11S29.65,18.38,29.66,18.34Z"/><path class="cls-5" d="M29.77,18.06l-.05.12Z"/><path class="cls-5" d="M29.56,18.61l0,.11Z"/><path class="cls-5" d="M29.89,17.79a.37.37,0,0,0-.05.11A.37.37,0,0,1,29.89,17.79Z"/><path class="cls-5" d="M29.37,19.25a.31.31,0,0,0,0,.08A.31.31,0,0,1,29.37,19.25Z"/><path class="cls-5" d="M29.47,18.9l0,.09Z"/><path class="cls-5" d="M29.2,20a.69.69,0,0,0,0,.13A.69.69,0,0,1,29.2,20Z"/><path class="cls-5" d="M29.3,19.52a.52.52,0,0,0,0,.11A.52.52,0,0,1,29.3,19.52Z"/><path class="cls-5" d="M29.24,19.78a.59.59,0,0,1,0,.13A.59.59,0,0,0,29.24,19.78Z"/><path class="cls-4" d="M8.62,5.11a.86.86,0,0,0-.35-1.19L1.31.11A.88.88,0,0,0,.11.46a.88.88,0,0,0,.35,1.2l7,3.8A.87.87,0,0,0,8.62,5.11Z"/><path class="cls-6" d="M33.36,13.6A9.28,9.28,0,0,0,30.3,17l-.15.27a1,1,0,0,0,0,.1,1.51,1.51,0,0,0-.09.18l-.06.11c0,.05-.05.11-.07.17a.37.37,0,0,0-.05.11l-.07.16-.05.12-.06.16s0,.07,0,.11l-.06.16,0,.11-.06.18,0,.09c0,.09-.05.18-.07.26a.31.31,0,0,0,0,.08c0,.07,0,.13-.05.19a.52.52,0,0,0,0,.11.83.83,0,0,0,0,.15.59.59,0,0,1,0,.13.59.59,0,0,0,0,.13,37898519264397.49,37898519264397.49,0,0,1,0,.26c0,.05,0,.09,0,.14s0,.08,0,.12,0,.09,0,.14a.34.34,0,0,1,0,.1.92.92,0,0,1,0,.16V21q0,.31,0,.63v0a1.34,1.34,0,0,0,0,.2v0c0,.07,0,.13,0,.2v0a1.36,1.36,0,0,0,0,.2v0l0,.21h0c.48,3.12,2.76,5.78,5.57,7.71a8.83,8.83,0,0,1,.55-8.25c2.25-4.11,7.19-7.13,14.3-3.24.17.09.33.2.49.3a9.67,9.67,0,0,0-3.54-4.31l0,0-.32-.2,0,0-.34-.2L45.13,14a14.81,14.81,0,0,0-7-1.84A8.88,8.88,0,0,0,33.36,13.6Z"/></g></g></svg>