<svg xmlns="http://www.w3.org/2000/svg" viewBox="0 0 100.47 106.61"><defs><style>.cls-1{fill:#fff294;}.cls-2{fill:#fff;}.cls-3{fill:#ffcf00;}.cls-4{fill:#ff9300;}.cls-5{fill:#d49e6c;}.cls-6{fill:#b68052;}</style></defs><title>rock4</title><g id="Layer_2" data-name="Layer 2"><g id="Layer_4" data-name="Layer 4"><path class="cls-1" d="M55.79,66.94a2.11,2.11,0,0,1-3,.12l-3.2,3.46a21.48,21.48,0,0,1,.54,11.94L69.84,61.13a3.19,3.19,0,0,0-.17-4.51h0a3.2,3.2,0,0,0-4.51.18Z"/><path class="cls-1" d="M31,55.47h0l.51.05h.07l.48.07.1,0,.47.08h.1l.47.1h0l.81.19,3.12-3.37a2.12,2.12,0,0,1-.12-3L46.44,39.5a3.19,3.19,0,1,0-4.68-4.33L22,56.58A22.11,22.11,0,0,1,31,55.47Z"/><path class="cls-1" d="M54.82,46.08l13.84-15a3.19,3.19,0,0,0-.17-4.51h0a3.2,3.2,0,0,0-4.51.18L47.4,44.72A10.63,10.63,0,0,1,54.82,46.08Z"/><path class="cls-1" d="M59.88,56.26,76.46,38.32A3.19,3.19,0,1,0,71.78,34L57.94,49A10.59,10.59,0,0,1,59.88,56.26Z"/><path class="cls-2" d="M34.91,56.25l.35.12.24.08.33.11.26.1.31.12.29.12L37,57l.3.13.28.13.33.16.25.13.41.21a1,1,0,0,1,.17.1l.57.32.2.12.38.24.23.15.35.23.24.16.34.24.24.18.34.25.24.18.34.28.23.18.38.32.18.17.57.5a22.57,22.57,0,0,1,6,9.11l3.2-3.46a2.12,2.12,0,0,1-.12-3l7.21-7.8A10.59,10.59,0,0,0,57.94,49l-5.62,6.08a2.12,2.12,0,1,1-3.12-2.88l5.62-6.09a10.63,10.63,0,0,0-7.42-1.36l-7.21,7.8a2.11,2.11,0,0,1-3,.12L34.07,56l.67.19Z"/><path class="cls-3" d="M41.76,35.17l6.49-7a2.12,2.12,0,1,0-3.12-2.88L7.64,65.83a2,2,0,0,0-.22.29A38.19,38.19,0,0,1,22,56.58Z"/><path class="cls-3" d="M41.71,97.78a1.79,1.79,0,0,0,.25-.23L79.45,57a2.12,2.12,0,1,0-3.12-2.88l-6.49,7L50.13,82.46C49.05,87.19,46.42,92.36,41.71,97.78Z"/><path class="cls-4" d="M83.54,46.31,82.1,47.87a2.12,2.12,0,0,0,3.12,2.88l1.44-1.56a2.12,2.12,0,1,0-3.12-2.88Z"/><path class="cls-4" d="M54,21.91l1.44-1.56a2.12,2.12,0,1,0-3.12-2.88L50.9,19A2.12,2.12,0,0,0,54,21.91Z"/><path class="cls-3" d="M99.9,3.57a2.12,2.12,0,0,0-.12-3A2.12,2.12,0,0,1,99.9,3.57Z"/><path class="cls-3" d="M99.78.56a2.13,2.13,0,0,0-3,.12A2.13,2.13,0,0,1,99.78.56Z"/><path class="cls-3" d="M49.2,52.17a2.12,2.12,0,1,0,3.12,2.88L57.94,49,71.78,34,86.92,17.61a2.13,2.13,0,1,1-3.12-2.89L68.66,31.11l-13.84,15Z"/><path class="cls-4" d="M90.16,23.49l-2.88,3.12A2.13,2.13,0,1,0,90.4,29.5l2.88-3.12a2.13,2.13,0,0,0-3.12-2.89Z"/><path class="cls-3" d="M52.67,64.06a2.12,2.12,0,1,0,3.12,2.88L65.16,56.8,84.63,35.74a2.12,2.12,0,1,0-3.12-2.88l-5.05,5.46L59.88,56.26Z"/><path class="cls-4" d="M74.8,15.08,77.68,12a2.13,2.13,0,0,0-3.12-2.89l-2.88,3.12a2.13,2.13,0,1,0,3.12,2.89Z"/><path class="cls-3" d="M37.07,49.64a2.12,2.12,0,1,0,3.12,2.88l7.21-7.8L64,26.78,69,21.32a2.12,2.12,0,1,0-3.12-2.88L46.44,39.5Z"/><path class="cls-5" d="M39,100.6a23.24,23.24,0,0,1-12.15,5.73c.34-.31.68-.61,1-1,13.25-14.33,9.1-27.64.81-35.3-6.29-5.81-12.85-7.28-18.93-6.14,6.15-5.43,13.69-9.19,21.26-8.47a22.11,22.11,0,0,0-9,1.11A38.28,38.28,0,0,0,7.42,66.11C7,66.53,6.6,67,6.2,67.39A23.37,23.37,0,0,0,39,100.6Z"/><path class="cls-5" d="M40.52,99.12c-.21.23-.43.45-.65.67C40.09,99.57,40.31,99.35,40.52,99.12Z"/><path class="cls-5" d="M39.77,99.89l-.66.63Z"/><path class="cls-5" d="M32.08,55.6l-.48-.07Z"/><path class="cls-5" d="M32.75,55.71l.47.1Z"/><path class="cls-5" d="M32.18,55.62l.47.08Z"/><path class="cls-5" d="M31,55.47l.51.05Z"/><path class="cls-5" d="M35.26,56.37l-.35-.12Z"/><path class="cls-5" d="M42.42,60.42l-.23-.18Z"/><path class="cls-5" d="M35.83,56.56l-.33-.11Z"/><path class="cls-5" d="M34.74,56.2,34.07,56l-.81-.19C33.75,55.92,34.25,56.05,34.74,56.2Z"/><path class="cls-5" d="M36.09,56.66l.31.12Z"/><path class="cls-5" d="M43,60.91l-.18-.17Z"/><path class="cls-5" d="M40.69,59.11,40.45,59Z"/><path class="cls-5" d="M41.27,59.53,41,59.35Z"/><path class="cls-5" d="M40.1,58.72l-.23-.15Z"/><path class="cls-5" d="M41.85,60l-.24-.18Z"/><path class="cls-5" d="M38.72,57.89a1,1,0,0,0-.17-.1A1,1,0,0,1,38.72,57.89Z"/><path class="cls-5" d="M39.49,58.33l-.2-.12Z"/><path class="cls-5" d="M37,57l-.29-.13Z"/><path class="cls-5" d="M38.14,57.58l-.25-.13Z"/><path class="cls-5" d="M37.56,57.29l-.28-.13Z"/><path class="cls-4" d="M83.92,17.73a2.13,2.13,0,0,0,3-.12l13-14A2.13,2.13,0,1,0,96.78.68l-13,14A2.14,2.14,0,0,0,83.92,17.73Z"/><path class="cls-6" d="M49.59,70.52a22.57,22.57,0,0,0-6-9.11L43,60.9l-.18-.16-.38-.32-.23-.18L41.85,60l-.24-.18-.34-.25L41,59.35l-.34-.24L40.45,59l-.35-.23-.23-.15-.38-.24-.2-.12-.57-.32a1,1,0,0,0-.17-.1l-.41-.21-.25-.13-.33-.16-.28-.13L37,57l-.29-.13-.29-.12-.31-.12-.26-.1-.33-.11-.24-.08-.35-.12-.17,0c-.49-.15-1-.28-1.48-.38h0l-.47-.1-.1,0-.47-.07-.1,0-.48-.07h-.07L31,55.47h0c-7.57-.72-15.11,3-21.26,8.47,6.08-1.14,12.64.33,18.93,6.14,8.29,7.67,12.44,21-.81,35.3-.31.34-.65.64-1,1A23.24,23.24,0,0,0,39,100.6l.09-.08.66-.63.1-.1c.22-.22.44-.44.65-.67.41-.45.81-.9,1.19-1.34,4.71-5.42,7.34-10.59,8.42-15.32A21.48,21.48,0,0,0,49.59,70.52Z"/></g></g></svg>