<svg xmlns="http://www.w3.org/2000/svg" viewBox="0 0 77.23 107.59"><defs><style>.cls-1{fill:#fb7073;}.cls-2{fill:#f9db69;}.cls-3{fill:#e16567;}.cls-4{fill:#87cde9;}.cls-5{fill:#7ab7d1;}.cls-6{fill:#464c51;}</style></defs><title>spaceship3</title><g id="Layer_2" data-name="Layer 2"><g id="Layer_4" data-name="Layer 4"><path class="cls-1" d="M9.84,68.47S1.87,63,.09,53.66A4.83,4.83,0,0,1,5.47,48l6.82.9,3.45,9.46Z"/><path class="cls-1" d="M63.47,75.57s9.11-3.2,13.27-11.77A4.84,4.84,0,0,0,73,56.9L66.2,56l-5.79,8.24Z"/><path class="cls-2" d="M38.41,58.74C49.37,54.26,56,44.53,57.69,32S55.6,7.18,46.18,0c-11,4.48-17.76,15.29-19.42,27.86S29,51.57,38.41,58.74Z"/><path class="cls-3" d="M40.52,42.77c3.89-2.4,6.4-7.29,7.21-13.48s-.25-12.1-3.38-15.43c-3.89,2.4-6.46,7.83-7.28,14S37.39,39.44,40.52,42.77Z"/><path class="cls-1" d="M40.33,44.23l24.59-.86a60,60,0,0,0-2-7.2A6.37,6.37,0,0,0,57.69,32l-30.93-4.1a6.42,6.42,0,0,0-6.13,2.72A61.27,61.27,0,0,0,16.81,37Z"/><path class="cls-3" d="M40.33,44.23l2.49-.09L21.68,37.65a59.64,59.64,0,0,1,3.83-6.43,6.37,6.37,0,0,1,6.12-2.71l-4.87-.65a6.42,6.42,0,0,0-6.13,2.72A62.15,62.15,0,0,0,16.81,37Z"/><path class="cls-1" d="M30.05,106.88a5,5,0,0,0,3.92.51c5.4-1.54,20-7.37,27.68-26.52L36.38,74.12l-26.16-.05C12.62,94.55,25.24,104,30.05,106.88Z"/><path class="cls-3" d="M30.05,106.88a5,5,0,0,0,3.92.51l.5-.14c-5.09-3.19-17-12.66-19.38-32.54l23.68.05-2.39-.64-26.16-.05C12.62,94.55,25.24,104,30.05,106.88Z"/><path class="cls-4" d="M10.47,57.64A62.91,62.91,0,0,1,16.81,37l48.11,6.37a62.8,62.8,0,0,1,.76,21.57,66.11,66.11,0,0,1-4,15.93l-51.43-6.8A66.18,66.18,0,0,1,10.47,57.64Z"/><path class="cls-5" d="M10.22,74.07l4.87.64a66.67,66.67,0,0,1,.25-16.43,62.92,62.92,0,0,1,6.34-20.63L16.81,37a62.91,62.91,0,0,0-6.34,20.64A66.18,66.18,0,0,0,10.22,74.07Z"/><path class="cls-6" d="M43.9,89.49a1.23,1.23,0,0,1,2,1.14l-.24,1.85a1.23,1.23,0,0,1-2.44-.32l.25-1.85A1.21,1.21,0,0,1,43.9,89.49Z"/><path class="cls-6" d="M23.4,86.78a1.21,1.21,0,0,1,.91-.24,1.23,1.23,0,0,1,1.05,1.38l-.24,1.85a1.23,1.23,0,1,1-2.44-.32l.25-1.85A1.21,1.21,0,0,1,23.4,86.78Z"/><path class="cls-6" d="M31.27,87.8a4.68,4.68,0,0,1,6.66,1.1,1.23,1.23,0,0,1-2,1.36,2.12,2.12,0,0,0-1.52-.92,2.17,2.17,0,0,0-1.7.49,1.22,1.22,0,0,1-1.73-.11A1.23,1.23,0,0,1,31,88Z"/><path class="cls-1" d="M27.84,66.92A13.31,13.31,0,1,1,46.5,69.39,13.31,13.31,0,0,1,27.84,66.92Z"/><path class="cls-4" d="M32.35,63.47A7.62,7.62,0,1,1,43,64.88,7.63,7.63,0,0,1,32.35,63.47Z"/></g></g></svg>