<svg xmlns="http://www.w3.org/2000/svg" viewBox="0 0 64.92 56.66"><defs><style>.cls-1{fill:#ff421d;}.cls-2{fill:#b3b3b3;}.cls-3{fill:#36717a;}.cls-4{fill:#a7d6dd;}.cls-5{fill:#6cbbc7;}.cls-6{fill:#fdb62f;}.cls-7{fill:#e6e6e6;}</style></defs><title>spaceship1</title><g id="Layer_2" data-name="Layer 2"><g id="Layer_4" data-name="Layer 4"><path class="cls-1" d="M47.61,45.06l2.69-5.25,3.94,2a3,3,0,0,1-2.69,5.26Z"/><path class="cls-2" d="M9.79,35.68l3.36-6.57,1.86.95-3.36,6.57Z"/><path class="cls-2" d="M20.31,41.06l3.35-6.57,1.86.95L22.17,42Z"/><path class="cls-2" d="M17.18,21.23l3.36-6.58,1.86.95L19,22.18Z"/><path class="cls-2" d="M27.69,26.6,31.05,20l1.86.95-3.36,6.57Z"/><path class="cls-3" d="M2,49.94l8.06-15.77,13.14,6.72L15.16,56.66Z"/><path class="cls-4" d="M6.05,42.06l4-7.89,6.57,3.36-4,7.89Z"/><path class="cls-5" d="M8.59,53.3l4-7.88,6.57,3.35-4,7.89Z"/><path class="cls-3" d="M19.48,15.77,27.54,0,40.69,6.72,32.63,22.49Z"/><path class="cls-5" d="M23.51,7.89l4-7.89,6.57,3.36-4,7.88Z"/><path class="cls-4" d="M26.05,19.13l4-7.89,6.57,3.36-4,7.89Z"/><path class="cls-2" d="M14.75,28.27,17.44,23l11.83,6-2.69,5.26Z"/><path class="cls-2" d="M.32,17.58a3,3,0,0,1,4-1.28L9.55,19,6.87,24.24,1.61,21.56A3,3,0,0,1,.32,17.58Z"/><path class="cls-2" d="M34.47,38.35l2.68-5.26,4,2a2.95,2.95,0,0,1-2.69,5.25Z"/><path class="cls-6" d="M42.38,39.08a10.33,10.33,0,0,1,13.9-4.5L46.88,53A10.33,10.33,0,0,1,42.38,39.08Z"/><path class="cls-4" d="M57.13,50.76l-.64-2a3.13,3.13,0,0,0,2-3.94l2-.64A5.23,5.23,0,0,1,57.13,50.76Z"/><path class="cls-4" d="M58.42,54.73l-.65-2a7.3,7.3,0,0,0,4.7-9.2l2-.64A9.4,9.4,0,0,1,58.42,54.73Z"/><path class="cls-7" d="M2.89,25.53,8.27,15l13.14,6.72L16,32.24Z"/><path class="cls-7" d="M22.61,35.6,28,25.09,41.13,31.8,35.75,42.32Z"/></g></g></svg>