<svg xmlns="http://www.w3.org/2000/svg" viewBox="0 0 173.88 157.58"><defs><style>.cls-1{fill:#324d5b;}.cls-2{fill:#e2574c;}.cls-3{fill:#cb4e44;}.cls-4{fill:#2d4552;}.cls-5{fill:#e4e7e7;}.cls-6{fill:#d8dbdb;}.cls-7{fill:#3db39e;}.cls-8{fill:#3aaa96;}.cls-9{fill:#fff;}.cls-10{fill:#f2f2f2;}.cls-11{fill:#2f4956;}</style></defs><title>spaceship</title><g id="Layer_2" data-name="Layer 2"><g id="alien"><path class="cls-1" d="M87,125a16.31,16.31,0,1,0,16.3,16.3A16.36,16.36,0,0,0,87,125Zm43.47-10.86a16.3,16.3,0,1,0,16.3,16.3A16.35,16.35,0,0,0,130.48,114.11Zm-86.94,0a16.3,16.3,0,1,0,16.3,16.3A16.34,16.34,0,0,0,43.54,114.11Z"/><path class="cls-2" d="M37,72.54c27.57-17,72.26-17,99.84,0s27.58,44.56,0,61.4-72.27,17-99.84,0S9.44,89.52,37,72.54Z"/><path class="cls-3" d="M43.81,129.86c-26.63-16.43-27.58-42.65-2.72-59.63-1.36.68-2.72,1.49-4.07,2.31-27.58,17-27.58,44.56,0,61.4s72.26,17,99.84,0c.95-.54,1.9-1.22,2.72-1.77C111.86,146.84,70,146,43.81,129.86Z"/><path class="cls-1" d="M25.47,42.25c34-20.11,89-20.11,122.94,0s34,52.84,0,72.94-89,20.11-122.94,0S-8.49,62.49,25.47,42.25Z"/><path class="cls-4" d="M154,109.9C120,130,65,130,31,109.9,3.6,93.59-1.7,69.28,15,49.85-7.95,70-4.41,97.53,25.47,115.33c34,20.1,89,20.1,122.94,0a67.81,67.81,0,0,0,15.89-12.91A80.71,80.71,0,0,1,154,109.9Z"/><path class="cls-5" d="M87,0a54.32,54.32,0,0,1,54.33,54.34c0,30-24.31,43.47-54.33,43.47S32.67,84.36,32.67,54.34A54.33,54.33,0,0,1,87,0Z"/><path class="cls-6" d="M32.67,54.34c0,29.88,24.18,43.33,53.93,43.47H87V0A54.33,54.33,0,0,0,32.67,54.34Z"/><path class="cls-7" d="M87,97.81c12.22,0,23.5-2.18,32.6-6.93V54.34a32.61,32.61,0,1,0-65.21,0V90.88C63.51,95.63,74.78,97.81,87,97.81Z"/><path class="cls-8" d="M54.4,54.34V90.88c9,4.62,20.24,6.93,32.33,6.93H87V21.73A32.62,32.62,0,0,0,54.4,54.34Z"/><path class="cls-9" d="M87,43.47A16.3,16.3,0,1,1,70.7,59.77,16.35,16.35,0,0,1,87,43.47Z"/><path class="cls-10" d="M87,43.47a16.3,16.3,0,1,0,0,32.6Z"/><path class="cls-1" d="M87,51.62a8.15,8.15,0,1,1-8.15,8.15A8.18,8.18,0,0,1,87,51.62Z"/><path class="cls-11" d="M87,51.62a8.15,8.15,0,0,0,0,16.3Z"/></g></g></svg>