<svg xmlns="http://www.w3.org/2000/svg" viewBox="0 0 84.17 96.44"><defs><style>.cls-1{fill:#ff421d;}.cls-2{fill:#b3b3b3;}.cls-3{fill:#36717a;}.cls-4{fill:#a7d6dd;}.cls-5{fill:#6cbbc7;}.cls-6{fill:#fdb62f;}.cls-7{fill:#e6e6e6;}</style></defs><title>spaceship2</title><g id="Layer_2" data-name="Layer 2"><g id="Layer_4" data-name="Layer 4"><path class="cls-1" d="M17.23,70.73l7.81,4-3,5.86a4.39,4.39,0,0,1-7.81-4Z"/><path class="cls-2" d="M31.16,14.55l9.76,5L39.51,22.3l-9.76-5Z"/><path class="cls-2" d="M23.18,30.17l9.76,5-1.41,2.76-9.76-5Z"/><path class="cls-2" d="M52.64,25.52l9.76,5L61,33.27l-9.76-5Z"/><path class="cls-2" d="M44.66,41.14l9.76,5L53,48.89l-9.76-5Z"/><path class="cls-3" d="M10,3,33.41,15l-10,19.53L0,22.52Z"/><path class="cls-4" d="M21.69,9l11.72,6-5,9.77-11.72-6Z"/><path class="cls-5" d="M5,12.76l11.71,6-5,9.76L0,22.52Z"/><path class="cls-3" d="M60.74,28.94l23.43,12-10,19.52-23.44-12Z"/><path class="cls-5" d="M72.46,34.93l11.71,6-5,9.76-11.71-6Z"/><path class="cls-4" d="M55.75,38.71l11.72,6-5,9.76-11.71-6Z"/><path class="cls-2" d="M42.17,21.92l7.81,4L41,43.48l-7.81-4Z"/><path class="cls-2" d="M58.05.48A4.39,4.39,0,0,1,60,6.38l-4,7.81-7.81-4,4-7.81A4.39,4.39,0,0,1,58.05.48Z"/><path class="cls-2" d="M27.21,51.2l7.81,4-3,5.86a4.39,4.39,0,0,1-7.81-4Z"/><path class="cls-6" d="M26.12,63A15.34,15.34,0,0,1,32.8,83.61l-27.33-14A15.35,15.35,0,0,1,26.12,63Z"/><path class="cls-4" d="M8.77,84.87l3-1a4.65,4.65,0,0,0,5.85,3l1,3A7.76,7.76,0,0,1,8.77,84.87Z"/><path class="cls-4" d="M2.87,86.78l3-1a10.85,10.85,0,0,0,13.66,7l1,3A14,14,0,0,1,2.87,86.78Z"/><path class="cls-7" d="M46.25,4.3l15.62,8-10,19.53-15.62-8Z"/><path class="cls-7" d="M31.28,33.59l15.62,8-10,19.53-15.63-8Z"/></g></g></svg>