<svg xmlns="http://www.w3.org/2000/svg" viewBox="0 0 59.94 59.93"><defs><style>.cls-1{fill:#f06529;}.cls-2{fill:#e0561a;}.cls-3{fill:#d44a0f;}</style></defs><title>sun</title><g id="Layer_2" data-name="Layer 2"><g id="Layer_4" data-name="Layer 4"><g id="surface1"><path class="cls-1" d="M59.85,29.93A29.93,29.93,0,1,1,29.93,0,29.91,29.91,0,0,1,59.85,29.93Z"/><path class="cls-2" d="M48.5,6.47v.24A45.91,45.91,0,0,1,9.79,52.06,29.92,29.92,0,1,0,50.23,7.94C49.67,7.43,49.09,6.94,48.5,6.47Z"/><path class="cls-3" d="M38.18,47.47a4.13,4.13,0,1,1,4.13-4.13A4.13,4.13,0,0,1,38.18,47.47Zm0-6.19a2.07,2.07,0,1,0,2.07,2.06A2.06,2.06,0,0,0,38.18,41.28Z"/><path class="cls-3" d="M28.25,26.6A19.94,19.94,0,0,0,40.66,31H59.83c0-.34,0-.69,0-1s0-.69,0-1H40.66A17.91,17.91,0,0,1,29.54,25a20,20,0,0,0-12.41-4.35H1.48c-.22.68-.42,1.37-.6,2.06H17.13A17.9,17.9,0,0,1,28.25,26.6Z"/><path class="cls-3" d="M7.85,33.86l1.49-2.21a8.63,8.63,0,0,1,7.17-3.79A8.22,8.22,0,0,1,24.77,36a6,6,0,0,1-2.05,4.44,6,6,0,0,1-6,1.61,4.87,4.87,0,0,1-3.22-3.73,3.85,3.85,0,0,1,2-4,3,3,0,0,1,3.08-.09A2.74,2.74,0,0,1,20,36.53H22a4.82,4.82,0,0,0-2.39-4.13,5,5,0,0,0-5.13.08,5.9,5.9,0,0,0-3,6.2A6.94,6.94,0,0,0,16.09,44a6.77,6.77,0,0,0,2.28.37A8.59,8.59,0,0,0,24.1,42a8.08,8.08,0,0,0,2.73-6A10.27,10.27,0,0,0,16.51,25.8a10.68,10.68,0,0,0-8.87,4.69L6.14,32.7A5.13,5.13,0,0,1,1.85,35H.43c.12.7.26,1.39.43,2.07h1A7.25,7.25,0,0,0,7.85,33.86Z"/><path class="cls-3" d="M29.79,39.64a13.53,13.53,0,0,1-12.25,7.83v2.06a15.58,15.58,0,0,0,14.12-9,7.56,7.56,0,0,1,6.85-4.38h20.7c.14-.68.26-1.37.35-2.07H38.51A9.64,9.64,0,0,0,29.79,39.64Z"/><path class="cls-3" d="M13.13,54.69h33.6a28,28,0,0,0,2.68-2.06h-39A28.17,28.17,0,0,0,13.13,54.69Z"/><path class="cls-3" d="M37.15,20.64a5.16,5.16,0,1,1,5.16-5.16A5.16,5.16,0,0,1,37.15,20.64Zm0-8.26a3.1,3.1,0,1,0,3.1,3.1A3.1,3.1,0,0,0,37.15,12.38Z"/><path class="cls-3" d="M29.19,11.57a11.43,11.43,0,0,1,9-4.35V5.16a13.51,13.51,0,0,0-10.61,5.12A10.94,10.94,0,0,1,19,14.45H4.31c-.41.67-.78,1.36-1.13,2.06H19A13,13,0,0,0,29.19,11.57Z"/><path class="cls-3" d="M45.72,17.72a.75.75,0,0,0-.07.12,10.61,10.61,0,0,1-9.53,5.9V25.8a12.63,12.63,0,0,0,11.34-7,5.47,5.47,0,0,1,4.46-2.32h4.75c-.35-.7-.72-1.39-1.13-2.06H51.92A7.5,7.5,0,0,0,45.72,17.72Z"/><path class="cls-3" d="M29.07,3.87a15.28,15.28,0,0,1,4.26-2.69L35.45.52A29,29,0,0,0,31,0a17.14,17.14,0,0,0-3.31,2.29A15.26,15.26,0,0,1,17.52,6.19H11.71A31.67,31.67,0,0,0,9.3,8.26h8.22A17.39,17.39,0,0,0,29.07,3.87Z"/></g></g></g></svg>