<svg xmlns="http://www.w3.org/2000/svg" viewBox="0 0 225.94 223.21"><defs><style>.cls-1{fill:#ff5023;}.cls-2{fill:#bf3c1a;}.cls-3{fill:#802812;}.cls-4{fill:#ffc170;}</style></defs><title>sun2</title><g id="Layer_2" data-name="Layer 2"><g id="Layer_4" data-name="Layer 4"><path class="cls-1" d="M222.45,145.2l3.49-52.34-13.85-3.75a101.8,101.8,0,0,0-20.78-42.27l5.49-13.25L153.22,4.4,143,14.56a101.64,101.64,0,0,0-46.95-3.17L87.32,0,40.25,23.15,43.93,37A101.69,101.69,0,0,0,17.78,76.13L3.49,78,0,130.36l13.85,3.74a101.8,101.8,0,0,0,20.78,42.27l-5.49,13.25,43.58,29.2,10.22-10.17a101.62,101.62,0,0,0,46.95,3.18l8.73,11.38,47.08-23.14L182,186.2a101.58,101.58,0,0,0,26.15-39.12Z"/><path class="cls-2" d="M212.09,89.11a101.8,101.8,0,0,0-20.78-42.27l5.49-13.25L153.22,4.4,143,14.56a101.64,101.64,0,0,0-46.95-3.17L87.32,0,63.79,11.57l98.37,200.07,23.53-11.57L182,186.2a101.69,101.69,0,0,0,26.15-39.12l14.29-1.88,3.49-52.34Z"/><circle class="cls-2" cx="73.08" cy="156.8" r="9.84"/><circle class="cls-3" cx="173.12" cy="107.61" r="9.84"/><circle class="cls-3" cx="117.75" cy="54.45" r="16.39"/><circle class="cls-3" cx="169.93" cy="145.71" r="16.39"/><circle class="cls-3" cx="67.54" cy="108.37" r="19.67"/><path class="cls-4" d="M77.62,136.3A29.51,29.51,0,1,1,91.08,96.8,29.54,29.54,0,0,1,77.62,136.3ZM60.26,101a9.83,9.83,0,1,0,13.16,4.49A9.85,9.85,0,0,0,60.26,101Z"/></g></g></svg>