<svg xmlns="http://www.w3.org/2000/svg" viewBox="0 0 240.99 241.03"><defs><style>.cls-1{fill:#ffcb5a;}.cls-2{fill:#f38a68;}.cls-3{fill:#d95354;}.cls-4{fill:#e76e54;}</style></defs><title>sun3</title><g id="Layer_2" data-name="Layer 2"><g id="Layer_4" data-name="Layer 4"><path class="cls-1" d="M237.25,90.65a121,121,0,0,1,2.63,13.76,119.52,119.52,0,0,1,1,22.21,115.75,115.75,0,0,1-5,28.78,117.7,117.7,0,0,1-12.35,27.66,120.41,120.41,0,1,1,13.78-92.41Z"/><path class="cls-2" d="M104.38,1.1a119.53,119.53,0,0,1,70.67,12c-32,8.46-33.3,17.77-71.27,26-38.76,8.38-43.2-.06-77.46,6.19A120.06,120.06,0,0,1,104.38,1.1Z"/><path class="cls-3" d="M239.88,104.41a119.52,119.52,0,0,1,1,22.21,115.75,115.75,0,0,1-5,28.78l-.41-.11c-22.28,0-33.69-9.68-51-10.85s-26.21,1.77-38.09,11.74-14.77,24.41-36.86,27.07c-18.85,2.28-24.43-7.89-39.63-9.76s-56.25-.83-56.25-.83l-1.39.72A120.32,120.32,0,0,1,1.06,136.65a118.64,118.64,0,0,1-.9-22l2.83.18s21.79,9.28,39.8,5.5S76.46,95.58,109.5,95.53s37.49,13.46,57.23,16c19.29,2.58,58.34-7.84,70.52-20.93a121,121,0,0,1,2.63,13.76Z"/><path class="cls-4" d="M235.82,155.4a117.7,117.7,0,0,1-12.35,27.66c-44.32,5.67-44,15.84-90,21.37-46.81,5.64-51.43-4.36-98.25,1.27a119,119,0,0,1-23.08-32.32l1.39-.72s41-1,56.25.83,20.78,12,39.63,9.76c22.09-2.66,25-17.09,36.86-27.07S167,143.25,184.4,144.44s28.73,10.87,51,10.85Z"/><path class="cls-1" d="M237.25,90.65c-12.18,13.09-51.23,23.51-70.52,20.93-19.74-2.59-24.18-16.1-57.23-16s-48.73,21.1-66.71,24.83S3,114.86,3,114.86l-2.83-.18A118.17,118.17,0,0,1,6,83.06c49.53-8.81,53,.6,105.57-9.37s52.35-20,101.8-29.94a120.58,120.58,0,0,1,23.88,46.9Z"/><path class="cls-4" d="M213.37,43.75c-49.45,10-49.2,19.94-101.8,29.94S55.53,74.25,6,83.06a119.28,119.28,0,0,1,20.32-37.7c34.26-6.25,38.7,2.19,77.46-6.19,38-8.26,39.25-17.57,71.27-26A121.15,121.15,0,0,1,213.37,43.75Z"/><path class="cls-2" d="M133.51,204.43c46-5.53,45.64-15.7,90-21.37A120.5,120.5,0,0,1,35.26,205.7C82.08,200.07,86.7,210.07,133.51,204.43Z"/><path class="cls-4" d="M94.89,121.26c-10.68,1.46-17.77,9.31-24,16.24A35.91,35.91,0,0,1,56.4,149.21c-22,6.15-49.51-3.72-54.07-5.46a120.08,120.08,0,0,0,2.9,12c8.83,3.11,31.89,9.73,54,3.57a43.7,43.7,0,0,0,19.43-14.78c5.55-6.14,10.77-11.93,17.65-12.88a17.28,17.28,0,0,1,19.38,14.82,11.4,11.4,0,0,1-2.24,8.53,11.54,11.54,0,0,1-7.7,4.48,7.34,7.34,0,0,1-8.28-6.25.59.59,0,0,1,0-.14,4.21,4.21,0,0,1,3.55-4.72,2,2,0,0,1,1.43.38,1.73,1.73,0,0,1,.69,1.22l10.4-1.32a12.19,12.19,0,0,0-4.72-8.22A12.36,12.36,0,0,0,99.57,138a14.71,14.71,0,0,0-12.51,16.55,17.82,17.82,0,0,0,20,15.34h.1a22,22,0,0,0,18.93-24.7.5.5,0,0,0,0-.12,27.76,27.76,0,0,0-31.16-23.79Z"/></g></g></svg>