<svg id="Layer_2" data-name="Layer 2" xmlns="http://www.w3.org/2000/svg" viewBox="0 0 888.88 661.24"><defs><style>.cls-1{fill:#287dd0;}</style></defs><title>final_barharbor</title><path class="cls-1" d="M910.2,282.51a.24.24,0,1,0-.47-.05,6.8,6.8,0,0,0,5.9,7.56.27.27,0,0,0,.18,0,.24.24,0,0,0-.12-.42A6.31,6.31,0,0,1,910.2,282.51Z" transform="translate(-253.28 -49.16)"/><path class="cls-1" d="M917.29,276.56a.23.23,0,0,0-.26.2.24.24,0,0,0,.21.26,6.31,6.31,0,0,1,5.49,7,.23.23,0,0,0,.38.21.22.22,0,0,0,.08-.15,6.78,6.78,0,0,0-5.9-7.56Z" transform="translate(-253.28 -49.16)"/><path class="cls-1" d="M911.59,282.68a.24.24,0,0,0-.2-.26.24.24,0,0,0-.26.21,5.37,5.37,0,0,0,4.68,6,.25.25,0,0,0,.17,0,.26.26,0,0,0,.09-.16.24.24,0,0,0-.21-.26A4.92,4.92,0,0,1,911.59,282.68Z" transform="translate(-253.28 -49.16)"/><path class="cls-1" d="M917.12,278a.23.23,0,0,0-.26.2.24.24,0,0,0,.2.26,4.92,4.92,0,0,1,4.28,5.48.23.23,0,0,0,.2.26.21.21,0,0,0,.17,0,.24.24,0,0,0,.09-.16A5.38,5.38,0,0,0,917.12,278Z" transform="translate(-253.28 -49.16)"/><path class="cls-1" d="M912.78,282.6a.22.22,0,0,0-.26.2,4,4,0,0,0,3.46,4.43.24.24,0,0,0,.26-.2.24.24,0,0,0-.21-.26,3.52,3.52,0,0,1-3-3.91A.22.22,0,0,0,912.78,282.6Z" transform="translate(-253.28 -49.16)"/><path class="cls-1" d="M917,279.34a.23.23,0,0,0-.26.2.22.22,0,0,0,.2.26,3.52,3.52,0,0,1,3.05,3.92.25.25,0,0,0,.21.26.34.34,0,0,0,.17-.05.24.24,0,0,0,.09-.16,4,4,0,0,0-3.46-4.43Z" transform="translate(-253.28 -49.16)"/><path class="cls-1" d="M915.49,282a1.63,1.63,0,0,0,1.81,2.71l4.33,5.55A.24.24,0,1,0,922,290l-4.33-5.55a1.63,1.63,0,0,0-2.18-2.42Z" transform="translate(-253.28 -49.16)"/><path class="cls-1" d="M320.89,507.77a.23.23,0,0,0-.2-.26.23.23,0,0,0-.26.2,6.78,6.78,0,0,0,5.9,7.56.24.24,0,0,0,.17,0,.26.26,0,0,0,.09-.16.23.23,0,0,0-.2-.26A6.33,6.33,0,0,1,320.89,507.77Z" transform="translate(-253.28 -49.16)"/><path class="cls-1" d="M328,501.81a.24.24,0,0,0-.26.21.23.23,0,0,0,.2.26,6.23,6.23,0,0,1,4.2,2.38,6.31,6.31,0,0,1,1.3,4.66.23.23,0,0,0,.2.26.26.26,0,0,0,.17-.05.24.24,0,0,0,.09-.16,6.79,6.79,0,0,0-5.9-7.56Z" transform="translate(-253.28 -49.16)"/><path class="cls-1" d="M322.29,507.94a.24.24,0,0,0-.47-.06,5.39,5.39,0,0,0,4.68,6,.2.2,0,0,0,.17,0,.21.21,0,0,0,.09-.15.22.22,0,0,0-.2-.26A4.91,4.91,0,0,1,322.29,507.94Z" transform="translate(-253.28 -49.16)"/><path class="cls-1" d="M327.82,503.21a.22.22,0,0,0-.26.2.23.23,0,0,0,.2.26,4.9,4.9,0,0,1,4.27,5.47.24.24,0,0,0,.21.26.25.25,0,0,0,.17,0,.24.24,0,0,0,.09-.16A5.38,5.38,0,0,0,327.82,503.21Z" transform="translate(-253.28 -49.16)"/><path class="cls-1" d="M323.48,507.85a.25.25,0,0,0-.27.21,4,4,0,0,0,3.46,4.43.23.23,0,0,0,.18,0,.22.22,0,0,0,.08-.15.24.24,0,0,0-.2-.27,3.5,3.5,0,0,1-3.05-3.91A.25.25,0,0,0,323.48,507.85Z" transform="translate(-253.28 -49.16)"/><path class="cls-1" d="M327.65,504.6a.23.23,0,0,0-.06.46,3.51,3.51,0,0,1,3.05,3.91.24.24,0,0,0,.2.26.27.27,0,0,0,.18,0,.32.32,0,0,0,.09-.16,4,4,0,0,0-3.46-4.43Z" transform="translate(-253.28 -49.16)"/><path class="cls-1" d="M326.18,507.29A1.64,1.64,0,0,0,328,510l4.33,5.55a.24.24,0,1,0,.37-.29l-4.33-5.55a1.64,1.64,0,0,0-2.19-2.42Z" transform="translate(-253.28 -49.16)"/><path class="cls-1" d="M284.19,356.64a1.93,1.93,0,0,0-1.78-.52l-4.23.92V357a1.71,1.71,0,0,0-1.29-2l-2.35-.52.55-2.51a1.53,1.53,0,0,0-1.17-1.83l-16.05-3.55a.51.51,0,1,0-.22,1l16,3.55a.52.52,0,0,1,.39.61l-.56,2.51-15.39-3.4a1.7,1.7,0,0,0-2,1.29l-2.81,12.73a1.69,1.69,0,0,0,1.29,2L273.35,371a1.71,1.71,0,0,0,2-1.29v-.07l3.45,2.62a2.05,2.05,0,0,0,.75.35,1.93,1.93,0,0,0,2.31-1.47l2.81-12.71A1.94,1.94,0,0,0,284.19,356.64Zm-9.81,12.84a.67.67,0,0,1-.8.51l-18.75-4.14a.67.67,0,0,1-.51-.8l2.81-12.73a.67.67,0,0,1,.8-.51L276.68,356a.67.67,0,0,1,.51.8l-.12.53L274.49,369Zm6.52,1.44a.9.9,0,0,1-.58.65.89.89,0,0,1-.86-.13l-3.82-2.9,2.29-10.39,4.7-1a.87.87,0,0,1,.83.25.91.91,0,0,1,.25.83Z" transform="translate(-253.28 -49.16)"/><path class="cls-1" d="M557,465.71a1.47,1.47,0,0,0-1.35-.49l-3.3.51,0-.05a1.33,1.33,0,0,0-.9-1.62l-1.79-.51.54-1.9a1.19,1.19,0,0,0-.82-1.47l-12.2-3.48a.4.4,0,0,0-.49.27.4.4,0,0,0,.28.49l12.2,3.48a.4.4,0,0,1,.27.49l-.55,1.91L537.19,460a1.32,1.32,0,0,0-1.62.9l-2.76,9.68a1.32,1.32,0,0,0,.91,1.62L548,476.26a1.31,1.31,0,0,0,1.62-.9v-.05l2.54,2.18a1.41,1.41,0,0,0,.56.31,1.6,1.6,0,0,0,.84,0,1.49,1.49,0,0,0,1-1l2.76-9.67A1.47,1.47,0,0,0,557,465.71Zm-8.16,9.43a.51.51,0,0,1-.64.36l-14.25-4.06a.52.52,0,0,1-.35-.64l2.76-9.68a.51.51,0,0,1,.64-.36l14.25,4.07a.52.52,0,0,1,.35.64l-.11.4-2.53,8.87Zm5,1.41a.67.67,0,0,1-.47.48.69.69,0,0,1-.66-.14l-2.81-2.42,2.25-7.9,3.67-.57a.68.68,0,0,1,.63.23.71.71,0,0,1,.15.66Z" transform="translate(-253.28 -49.16)"/><path class="cls-1" d="M482.82,644.39a1.48,1.48,0,0,0-1.12.89l-1.32,3.07,0,0a1.31,1.31,0,0,0-1.85-.1l-1.38,1.25L475.78,648a1.2,1.2,0,0,0-1.68-.08l-9.42,8.48a.4.4,0,0,0,.53.59l9.42-8.49a.4.4,0,0,1,.56,0l1.33,1.48-9,8.14a1.31,1.31,0,0,0-.1,1.85l6.74,7.48a1.31,1.31,0,0,0,1.85.09l11-9.91a1.31,1.31,0,0,0,.1-1.85l0,0,3.19-1a1.55,1.55,0,0,0,.56-.32,1.43,1.43,0,0,0,.44-.71,1.49,1.49,0,0,0-.33-1.4l-6.72-7.47A1.51,1.51,0,0,0,482.82,644.39Zm3.67,11.93a.52.52,0,0,1,0,.73l-11,9.92a.52.52,0,0,1-.73,0L468,659.45a.52.52,0,0,1,0-.73l11-9.92a.52.52,0,0,1,.73,0l.28.31,6.18,6.86Zm3.82-3.46a.69.69,0,0,1,.16.66.71.71,0,0,1-.47.48l-3.54,1.1L481,649l1.46-3.41a.69.69,0,0,1,.53-.42.68.68,0,0,1,.64.23Z" transform="translate(-253.28 -49.16)"/><path class="cls-1" d="M915,674.26a2.28,2.28,0,0,0-1.74,1.36l-2,4.72-.06-.06a2,2,0,0,0-2.85-.15l-2.12,1.92-2-2.27a1.82,1.82,0,0,0-2.58-.13l-14.5,13.05a.61.61,0,1,0,.81.91l14.5-13.06a.61.61,0,0,1,.86.05l2,2.26-13.9,12.52a2,2,0,0,0-.15,2.85l10.36,11.5a2,2,0,0,0,2.84.15l16.94-15.25a2,2,0,0,0,.15-2.85l-.05-.06,4.9-1.52a2.22,2.22,0,0,0,.86-.49,2.28,2.28,0,0,0,.17-3.24L917.12,675A2.28,2.28,0,0,0,915,674.26Zm5.63,18.34a.78.78,0,0,1-.06,1.12L903.68,709a.81.81,0,0,1-1.13-.06l-10.36-11.5a.81.81,0,0,1,.06-1.13L909.19,681a.8.8,0,0,1,1.13.06l.43.47,9.49,10.55Zm5.89-5.31a1,1,0,0,1,.23,1,1.07,1.07,0,0,1-.72.75l-5.44,1.68-8.46-9.38,2.25-5.24a1.08,1.08,0,0,1,1.79-.3Z" transform="translate(-253.28 -49.16)"/><path class="cls-1" d="M1141,122.44a.68.68,0,0,0-.59.06l-120.3,69.87a.67.67,0,0,0-.34.48.71.71,0,0,0,.14.58c.08.1,8.37,10.19,22.45,2L1132,143.35c14.08-8.18,9.43-20.37,9.38-20.5A.75.75,0,0,0,1141,122.44Zm-47,37.8-18.1,10.51-2.42-4.16,18.1-10.51Z" transform="translate(-253.28 -49.16)"/><path class="cls-1" d="M1030,180.78l95.31-55.35a2.9,2.9,0,0,0,1-4l-34-58.54a2.9,2.9,0,0,0-4-1l-95.31,55.35a2.89,2.89,0,0,0-1,3.94l34,58.54A2.89,2.89,0,0,0,1030,180.78Zm-25.58-58.42,82.82-48.1L1114,120.31l-82.82,48.11-26.75-46.06Z" transform="translate(-253.28 -49.16)"/><path class="cls-1" d="M437.25,560.79a27.21,27.21,0,0,0,1.21-5.18,20,20,0,0,0,.13-4.71c-.7-5.08-3.52-5.46-6.9-5.88a23,23,0,0,1-3.34-.63l-.34-.13a24.51,24.51,0,0,1-2.85-1.85c-2.76-2-5-3.69-9.07-.46a18.2,18.2,0,0,0-3.15,3.5,27.31,27.31,0,0,0-2.7,4.58,10,10,0,0,0-1.06,4,2.76,2.76,0,0,0,1,2.16,3.61,3.61,0,0,0,2.25.63A17.15,17.15,0,0,0,418,555.5c1.45-.59,3.6-.31,5.56.47s3.7,2.06,4.34,3.49a16.94,16.94,0,0,0,3.08,4.78,3.75,3.75,0,0,0,2.06,1.1,2.69,2.69,0,0,0,2.24-.9A9.71,9.71,0,0,0,437.25,560.79Zm-3,2.72a1.45,1.45,0,0,1-1.14.52,2.53,2.53,0,0,1-1.32-.72,14.64,14.64,0,0,1-2.78-4.36c-.77-1.79-2.77-3.33-5-4.23a9.53,9.53,0,0,0-6.56-.47,15.21,15.21,0,0,1-5,1.23,2.26,2.26,0,0,1-1.45-.38,1.47,1.47,0,0,1-.47-1.17,8.56,8.56,0,0,1,1-3.36A25,25,0,0,1,414,546.2,17.4,17.4,0,0,1,417,543c3.19-2.6,5.13-1.2,7.41.5a22.81,22.81,0,0,0,3.05,2l.06,0,.37.15.07,0a21.54,21.54,0,0,0,3.59.69c2.81.38,5.2.67,5.71,4.74a16.71,16.71,0,0,1-.1,4.37,28,28,0,0,1-1.15,4.93A8.37,8.37,0,0,1,434.29,563.51Z" transform="translate(-253.28 -49.16)"/><path class="cls-1" d="M440.49,367.62a3.57,3.57,0,0,0-2.1-1,3.34,3.34,0,0,0-.94-2l-.06-.06a3.31,3.31,0,0,0-2.39-1,3.45,3.45,0,0,0-2.39,1,3.41,3.41,0,0,0-1,2.1,3.5,3.5,0,0,0-2.1.94l-.06.06a3.31,3.31,0,0,0-1,2.39,3.45,3.45,0,0,0,1,2.39,3.27,3.27,0,0,0,2.16,1,3.12,3.12,0,0,0,1,2.1,3.31,3.31,0,0,0,2.39,1,3.45,3.45,0,0,0,2.39-1,3.57,3.57,0,0,0,1-2.1,3.12,3.12,0,0,0,2.1-1,3.31,3.31,0,0,0,1-2.39A3.45,3.45,0,0,0,440.49,367.62ZM439,370.89a1.22,1.22,0,0,1-.88.35h-.82a1.1,1.1,0,0,0-1.1,1.1v.76a1.21,1.21,0,0,1-.35.88,1.28,1.28,0,0,1-1.76,0,1.21,1.21,0,0,1-.35-.88v-.81a1.1,1.1,0,0,0-1.1-1.11h-.82a1.2,1.2,0,0,1-.88-2.05l.06-.05a1.38,1.38,0,0,1,.82-.3h.82a1.1,1.1,0,0,0,1.1-1.1v-.82a1.24,1.24,0,0,1,2.11-.88l.05.06a1.38,1.38,0,0,1,.3.82v.82a1.1,1.1,0,0,0,1.1,1.1h.82a1.24,1.24,0,0,1,.88,2.11Z" transform="translate(-253.28 -49.16)"/><path class="cls-1" d="M735.61,344.14a3.52,3.52,0,0,0-2.1-1,3.36,3.36,0,0,0-.93-2l-.06-.06a3.31,3.31,0,0,0-2.4-1,10.82,10.82,0,0,1-5.48,4l-.06.06a3.31,3.31,0,0,0-1,2.39,3.45,3.45,0,0,0,1,2.39,3.42,3.42,0,0,1,3.15,3.1,3.31,3.31,0,0,0,2.39,1,3.48,3.48,0,0,0,2.4-1,3.62,3.62,0,0,0,1-2.11,3,3,0,0,0,2.1-1,3.31,3.31,0,0,0,1-2.39A3.45,3.45,0,0,0,735.61,344.14Zm-1.46,3.26a1.15,1.15,0,0,1-.87.35h-.82a1.11,1.11,0,0,0-1.11,1.11v.76a1.22,1.22,0,0,1-.35.88,1.21,1.21,0,0,1-.88.35,1.18,1.18,0,0,1-.87-.35,1.22,1.22,0,0,1-.35-.88v-.81a1.11,1.11,0,0,0-1.11-1.11H727a1.2,1.2,0,0,1-.87-2.05l.06,0a1.35,1.35,0,0,1,.81-.3h.82a1.11,1.11,0,0,0,1.11-1.11v-.81a1.22,1.22,0,0,1,.35-.88,1.18,1.18,0,0,1,.87-.35,1.21,1.21,0,0,1,.88.35l.06.06a1.43,1.43,0,0,1,.29.82v.81a1.11,1.11,0,0,0,1.11,1.11h.82a1.2,1.2,0,0,1,1.22,1.23A1.15,1.15,0,0,1,734.15,347.4Z" transform="translate(-253.28 -49.16)"/><path class="cls-1" d="M847.33,380.57a3.56,3.56,0,0,0-2.1-1,3.28,3.28,0,0,0-.93-2l-.06-.06a3.31,3.31,0,0,0-2.39-1,10.88,10.88,0,0,1-5.49,4l-.06.05a3.33,3.33,0,0,0-1,2.4,3.45,3.45,0,0,0,1,2.39,3.26,3.26,0,0,0,2.16,1,3.11,3.11,0,0,0,1,2.1,3.3,3.3,0,0,0,2.4,1,3.42,3.42,0,0,0,3.38-3.1,3.07,3.07,0,0,0,2.1-1,3.28,3.28,0,0,0,1-2.39A3.44,3.44,0,0,0,847.33,380.57Zm-1.45,3.27a1.18,1.18,0,0,1-.88.35h-.82a1.11,1.11,0,0,0-1.11,1.11v.76a1.2,1.2,0,0,1-1.22,1.23,1.2,1.2,0,0,1-1.23-1.23v-.82a1.1,1.1,0,0,0-1.11-1.1h-.81a1.21,1.21,0,0,1-.88-.35,1.21,1.21,0,0,1,0-1.7l.06-.06a1.41,1.41,0,0,1,.82-.29h.81a1.1,1.1,0,0,0,1.11-1.11v-.81a1.21,1.21,0,0,1,.35-.88,1.22,1.22,0,0,1,.88-.35,1.18,1.18,0,0,1,.87.35l.06.06a1.34,1.34,0,0,1,.29.82v.81a1.11,1.11,0,0,0,1.11,1.11H845a1.2,1.2,0,0,1,1.23,1.23A1.18,1.18,0,0,1,845.88,383.84Z" transform="translate(-253.28 -49.16)"/><circle class="cls-1" cx="302.32" cy="6.22" r="6.22"/><circle class="cls-1" cx="302.32" cy="31.47" r="6.22"/><circle class="cls-1" cx="289.7" cy="18.84" r="6.22"/><circle class="cls-1" cx="314.95" cy="18.84" r="6.22"/><path class="cls-1" d="M1037.77,405.9a21.17,21.17,0,0,0-5.65,1.13l-.38-.42a3.19,3.19,0,0,0-3.92-.67l-2.66,1.47a3.18,3.18,0,0,0-1.54,3.66l.16.55a20.38,20.38,0,0,0-4,4.17.57.57,0,0,0,0,.6l3.32,6a5,5,0,0,0,6.8,2,.58.58,0,1,0-.57-1,3.84,3.84,0,0,1-5.21-1.52l-3.14-5.71a21.68,21.68,0,0,1,3.83-3.86.61.61,0,0,0,.2-.62l-.26-.92a2,2,0,0,1,1-2.32l2.66-1.46a2,2,0,0,1,2.49.42l.63.71a.58.58,0,0,0,.63.16,22,22,0,0,1,5.31-1.17l3.15,5.72a3.84,3.84,0,0,1-1.52,5.21.59.59,0,0,0,.57,1,5,5,0,0,0,2-6.81l-3.32-6A.59.59,0,0,0,1037.77,405.9Z" transform="translate(-253.28 -49.16)"/><path class="cls-1" d="M1020.63,414a.53.53,0,0,0,.14-.12c.44-.47.92-.94,1.42-1.4a.57.57,0,0,0,0-.82.59.59,0,0,0-.83,0c-.52.48-1,1-1.49,1.47a.57.57,0,0,0,0,.82A.61.61,0,0,0,1020.63,414Z" transform="translate(-253.28 -49.16)"/><path class="cls-1" d="M1028.44,410.22a6.73,6.73,0,1,0,9.15,2.65A6.73,6.73,0,0,0,1028.44,410.22Zm5.93,10.77a5.57,5.57,0,1,1,2.19-7.56A5.57,5.57,0,0,1,1034.37,421Z" transform="translate(-253.28 -49.16)"/></svg>